<svg width="18" height="18" viewBox="0 0 18 18" fill="none" xmlns="http://www.w3.org/2000/svg">
<g clip-path="url(#clip0_2597_19099)">
<path d="M9.00012 11.2501C8.80121 11.2501 8.61045 11.171 8.46979 11.0304C8.32914 10.8897 8.25012 10.699 8.25012 10.5001V4.50006C8.25012 4.30114 8.32914 4.11038 8.46979 3.96973C8.61045 3.82907 8.80121 3.75006 9.00012 3.75006C9.19904 3.75006 9.3898 3.82907 9.53045 3.96973C9.67111 4.11038 9.75012 4.30114 9.75012 4.50006V10.5001C9.75012 10.699 9.67111 10.8897 9.53045 11.0304C9.3898 11.171 9.19904 11.2501 9.00012 11.2501ZM9.59488 17.8201C11.2149 17.1691 16.5001 14.6093 16.5001 9.03231V5.15406C16.501 4.36582 16.253 3.59741 15.7917 2.95829C15.3303 2.31917 14.679 1.84194 13.9306 1.59456L9.23637 0.0383064C9.08312 -0.0134198 8.91713 -0.0134198 8.76388 0.0383064L4.06962 1.59456C3.32121 1.84194 2.66994 2.31917 2.20858 2.95829C1.74721 3.59741 1.49929 4.36582 1.50012 5.15406V9.03231C1.50012 13.9538 6.75387 16.9643 8.36487 17.7698C8.56863 17.867 8.78139 17.9441 9.00012 18.0001C9.20349 17.9585 9.40258 17.8982 9.59488 17.8201V17.8201ZM13.4581 3.01806C13.907 3.16687 14.2976 3.45334 14.5744 3.83678C14.8512 4.22022 15.0002 4.68114 15.0001 5.15406V9.03231C15.0001 13.6696 10.4349 15.8656 9.03537 16.4281C7.61937 15.7201 3.00012 13.0943 3.00012 9.03231V5.15406C3.00006 4.68114 3.14902 4.22022 3.42583 3.83678C3.70264 3.45334 4.09323 3.16687 4.54212 3.01806L9.00012 1.54056L13.4581 3.01806ZM9.00012 12.7501C8.85179 12.7501 8.70678 12.794 8.58345 12.8765C8.46011 12.9589 8.36398 13.076 8.30722 13.213C8.25045 13.3501 8.2356 13.5009 8.26454 13.6464C8.29347 13.7919 8.36491 13.9255 8.46979 14.0304C8.57468 14.1353 8.70832 14.2067 8.85381 14.2356C8.99929 14.2646 9.15009 14.2497 9.28714 14.193C9.42418 14.1362 9.54132 14.0401 9.62373 13.9167C9.70614 13.7934 9.75012 13.6484 9.75012 13.5001C9.75012 13.3011 9.67111 13.1104 9.53045 12.9697C9.3898 12.8291 9.19904 12.7501 9.00012 12.7501Z" fill="black"/>
</g>
<defs>
<clipPath id="clip0_2597_19099">
<rect width="18" height="18" fill="white"/>
</clipPath>
</defs>
</svg>
