<svg width="18" height="18" viewBox="0 0 18 18" fill="none" xmlns="http://www.w3.org/2000/svg">
<path d="M12.2551 1.5C14.7976 1.5 16.5001 3.285 16.5001 5.94V12.0675C16.5001 14.715 14.7976 16.5 12.2551 16.5H5.75262C3.21012 16.5 1.50012 14.715 1.50012 12.0675V5.94C1.50012 3.285 3.21012 1.5 5.75262 1.5H12.2551ZM12.3601 8.10075C11.8651 8.10075 11.4601 8.505 11.4601 9C11.4601 9.495 11.8651 9.9 12.3601 9.9C12.8551 9.9 13.2526 9.495 13.2526 9C13.2526 8.505 12.8551 8.10075 12.3601 8.10075ZM9.00012 8.10075C8.50512 8.10075 8.10012 8.505 8.10012 9C8.10012 9.495 8.50512 9.9 9.00012 9.9C9.49512 9.9 9.90012 9.495 9.90012 9C9.90012 8.505 9.49512 8.10075 9.00012 8.10075ZM5.64012 8.10075C5.14512 8.10075 4.74012 8.505 4.74012 9C4.74012 9.495 5.14512 9.9 5.64012 9.9C6.13512 9.9 6.54012 9.495 6.54012 9C6.54012 8.505 6.13512 8.10075 5.64012 8.10075Z" fill="#202020" fill-opacity="0.3"/>
</svg>
