<svg width="12" height="12" viewBox="0 0 12 12" fill="none" xmlns="http://www.w3.org/2000/svg">
<path d="M5.99988 0.999878C8.75688 0.999878 10.9999 3.24238 10.9999 5.99988C10.9999 8.75688 8.75688 10.9999 5.99988 10.9999C4.43638 10.9999 2.99138 10.2884 2.03638 9.04888C1.91388 8.88938 1.94388 8.66088 2.10288 8.53888C2.26188 8.41588 2.48938 8.44638 2.61238 8.60488C3.42888 9.66488 4.66338 10.2729 5.99988 10.2729C8.35588 10.2729 10.2729 8.35638 10.2729 5.99988C10.2729 3.64388 8.35588 1.72688 5.99988 1.72688C3.64388 1.72688 1.72738 3.64388 1.72738 5.99988C1.72738 6.21888 1.74338 6.43638 1.77588 6.64938C1.80588 6.84738 1.66988 7.03288 1.47138 7.06338C1.27188 7.09638 1.08738 6.95788 1.05738 6.75938C1.01938 6.51038 0.999878 6.25488 0.999878 5.99988C0.999878 3.24238 3.24288 0.999878 5.99988 0.999878ZM5.83043 3.55458C6.03093 3.55458 6.19393 3.71758 6.19393 3.91858V6.14158L7.90593 7.16258C8.07843 7.26558 8.13493 7.48858 8.03193 7.66108C7.96443 7.77458 7.84343 7.83808 7.71993 7.83808C7.65643 7.83808 7.59193 7.82158 7.53393 7.78708L5.64393 6.66008C5.53443 6.59408 5.46693 6.47558 5.46693 6.34758V3.91858C5.46693 3.71758 5.62993 3.55458 5.83043 3.55458Z" fill="black"/>
</svg>
