<svg width="18" height="18" viewBox="0 0 18 18" fill="none" xmlns="http://www.w3.org/2000/svg">
<path d="M9.00001 1.80005C8.52262 1.80005 8.06479 1.98969 7.72722 2.32726C7.38965 2.66482 7.20001 3.12266 7.20001 3.60005V14.4C7.20001 14.8774 7.38965 15.3353 7.72722 15.6728C8.06479 16.0104 8.52262 16.2 9.00001 16.2C9.4774 16.2 9.93524 16.0104 10.2728 15.6728C10.6104 15.3353 10.8 14.8774 10.8 14.4V3.60005C10.8 3.12266 10.6104 2.66482 10.2728 2.32726C9.93524 1.98969 9.4774 1.80005 9.00001 1.80005Z" fill="#C02026"/>
<path d="M3.59999 9C3.1226 9 2.66476 9.18964 2.3272 9.52721C1.98963 9.86477 1.79999 10.3226 1.79999 10.8V14.4C1.79999 14.8774 1.98963 15.3352 2.3272 15.6728C2.66476 16.0104 3.1226 16.2 3.59999 16.2C4.07738 16.2 4.53521 16.0104 4.87278 15.6728C5.21035 15.3352 5.39999 14.8774 5.39999 14.4V10.8C5.39999 10.3226 5.21035 9.86477 4.87278 9.52721C4.53521 9.18964 4.07738 9 3.59999 9Z" fill="#C02026"/>
<path d="M14.4 5.40015C13.9226 5.40015 13.4647 5.58979 13.1272 5.92735C12.7896 6.26492 12.6 6.72276 12.6 7.20015V14.4001C12.6 14.8775 12.7896 15.3354 13.1272 15.6729C13.4647 16.0105 13.9226 16.2001 14.4 16.2001C14.8774 16.2001 15.3352 16.0105 15.6728 15.6729C16.0103 15.3354 16.2 14.8775 16.2 14.4001V7.20015C16.2 6.72276 16.0103 6.26492 15.6728 5.92735C15.3352 5.58979 14.8774 5.40015 14.4 5.40015Z" fill="#C02026"/>
</svg>
