<svg width="109" height="56" viewBox="0 0 109 56" fill="none" xmlns="http://www.w3.org/2000/svg">
<path d="M0.333313 0H108.667V56H0.333313V0Z" fill="#EEF2F8"/>
<path d="M62.0803 18H46.6096C46.0501 18 45.5135 18.2223 45.1178 18.6179C44.7222 19.0135 44.4999 19.5501 44.4999 20.1096V35.5804C44.4999 36.1399 44.7222 36.6765 45.1178 37.0721C45.5135 37.4677 46.0501 37.69 46.6096 37.69H52.6418V30.9958H49.8729V27.845H52.6418V25.4435C52.6418 22.712 54.268 21.2031 56.7587 21.2031C57.9515 21.2031 59.1989 21.4159 59.1989 21.4159V24.0969H57.8245C56.4704 24.0969 56.048 24.9372 56.048 25.7991V27.845H59.071L58.5875 30.9958H56.048V37.69H62.0803C62.6398 37.69 63.1764 37.4677 63.572 37.0721C63.9677 36.6765 64.1899 36.1399 64.1899 35.5804V20.1096C64.1899 19.5501 63.9677 19.0135 63.572 18.6179C63.1764 18.2223 62.6398 18 62.0803 18Z" fill="#3496E0"/>
</svg>
