<svg width="18" height="18" viewBox="0 0 18 18" fill="none" xmlns="http://www.w3.org/2000/svg">
<path d="M15 2.25H5.01975C4.71458 2.25101 4.41691 2.34462 4.16609 2.51844C3.91526 2.69226 3.7231 2.93812 3.615 3.2235L1.54725 8.73675C1.51586 8.82096 1.49985 8.91013 1.5 9V10.5C1.5 11.3273 2.17275 12 3 12H7.209L6.3675 14.5253C6.29248 14.7507 6.27198 14.9908 6.30771 15.2257C6.34343 15.4606 6.43435 15.6838 6.573 15.8768C6.855 16.2668 7.3095 16.5 7.791 16.5H9C9.22275 16.5 9.4335 16.401 9.57675 16.23L13.1018 12H15C15.8273 12 16.5 11.3273 16.5 10.5V3.75C16.5 2.92275 15.8273 2.25 15 2.25ZM8.64825 15H7.7895L8.961 11.487C8.99853 11.3743 9.00877 11.2543 8.99085 11.1369C8.97294 11.0195 8.9274 10.908 8.85798 10.8116C8.78855 10.7153 8.69723 10.6367 8.59153 10.5826C8.48583 10.5284 8.36878 10.5001 8.25 10.5H3V9.13575L5.01975 3.75H12V10.9785L8.64825 15ZM13.5 10.5V3.75H15L15.0008 10.5H13.5Z" fill="white"/>
</svg>
