<svg width="24" height="24" viewBox="0 0 24 24" fill="none" xmlns="http://www.w3.org/2000/svg">
<path d="M5.7125 2.46667C5.82986 2.32031 5.97555 2.20281 6.13954 2.12225C6.30354 2.0417 6.48195 1.99999 6.6625 2H17.3375C17.5181 1.99999 17.6965 2.0417 17.8605 2.12225C18.0245 2.20281 18.1701 2.32031 18.2875 2.46667L21.5487 6.52533C21.8399 6.88778 22 7.34935 22 7.82667V8.16667C22.0001 8.82663 21.8068 9.47014 21.4473 10.0072C21.0877 10.5443 20.5798 10.9482 19.9946 11.1623C19.4094 11.3765 18.776 11.3902 18.1831 11.2017C17.5901 11.0131 17.0673 10.6317 16.6875 10.1107C16.4102 10.4917 16.0548 10.8 15.6485 11.0119C15.2423 11.2238 14.796 11.3338 14.3438 11.3333C13.8915 11.3339 13.4452 11.224 13.0389 11.012C12.6326 10.8001 12.2773 10.4918 12 10.1107C11.7227 10.4918 11.3674 10.8001 10.9611 11.012C10.5548 11.224 10.1085 11.3339 9.65625 11.3333C9.20401 11.3339 8.75765 11.224 8.3514 11.012C7.94514 10.8001 7.58976 10.4918 7.3125 10.1107C6.93274 10.6317 6.40985 11.0131 5.81692 11.2017C5.22399 11.3902 4.59065 11.3765 4.00541 11.1623C3.42017 10.9482 2.91228 10.5443 2.55273 10.0072C2.19318 9.47014 1.99993 8.82663 2 8.16667V7.82667C2.00002 7.34935 2.16007 6.88778 2.45125 6.52533L5.71375 2.46533L5.7125 2.46667ZM7.9375 8.16667C7.9375 8.6529 8.11858 9.11921 8.44091 9.46303C8.76324 9.80685 9.20041 10 9.65625 10C10.1121 10 10.5493 9.80685 10.8716 9.46303C11.1939 9.11921 11.375 8.6529 11.375 8.16667C11.375 7.98986 11.4408 7.82029 11.5581 7.69526C11.6753 7.57024 11.8342 7.5 12 7.5C12.1658 7.5 12.3247 7.57024 12.4419 7.69526C12.5592 7.82029 12.625 7.98986 12.625 8.16667C12.625 8.6529 12.8061 9.11921 13.1284 9.46303C13.4507 9.80685 13.8879 10 14.3438 10C14.7996 10 15.2368 9.80685 15.5591 9.46303C15.8814 9.11921 16.0625 8.6529 16.0625 8.16667C16.0625 7.98986 16.1283 7.82029 16.2456 7.69526C16.3628 7.57024 16.5217 7.5 16.6875 7.5C16.8533 7.5 17.0122 7.57024 17.1294 7.69526C17.2467 7.82029 17.3125 7.98986 17.3125 8.16667C17.3125 8.6529 17.4936 9.11921 17.8159 9.46303C18.1382 9.80685 18.5754 10 19.0312 10C19.4871 10 19.9243 9.80685 20.2466 9.46303C20.5689 9.11921 20.75 8.6529 20.75 8.16667V7.82667C20.75 7.66777 20.6968 7.51409 20.6 7.39333L17.3375 3.33333H6.6625L3.4 7.39333C3.30318 7.51409 3.24999 7.66777 3.25 7.82667V8.16667C3.25 8.6529 3.43108 9.11921 3.75341 9.46303C4.07574 9.80685 4.51291 10 4.96875 10C5.42459 10 5.86176 9.80685 6.18409 9.46303C6.50642 9.11921 6.6875 8.6529 6.6875 8.16667C6.6875 7.98986 6.75335 7.82029 6.87056 7.69526C6.98777 7.57024 7.14674 7.5 7.3125 7.5C7.47826 7.5 7.63723 7.57024 7.75444 7.69526C7.87165 7.82029 7.9375 7.98986 7.9375 8.16667ZM3.875 12C4.04076 12 4.19973 12.0702 4.31694 12.1953C4.43415 12.3203 4.5 12.4899 4.5 12.6667V20.6667H19.5V12.6667C19.5 12.4899 19.5658 12.3203 19.6831 12.1953C19.8003 12.0702 19.9592 12 20.125 12C20.2908 12 20.4497 12.0702 20.5669 12.1953C20.6842 12.3203 20.75 12.4899 20.75 12.6667V20.6667H21.375C21.5408 20.6667 21.6997 20.7369 21.8169 20.8619C21.9342 20.987 22 21.1565 22 21.3333C22 21.5101 21.9342 21.6797 21.8169 21.8047C21.6997 21.9298 21.5408 22 21.375 22H2.625C2.45924 22 2.30027 21.9298 2.18306 21.8047C2.06585 21.6797 2 21.5101 2 21.3333C2 21.1565 2.06585 20.987 2.18306 20.8619C2.30027 20.7369 2.45924 20.6667 2.625 20.6667H3.25V12.6667C3.25 12.4899 3.31585 12.3203 3.43306 12.1953C3.55027 12.0702 3.70924 12 3.875 12ZM6.375 12.6667C6.54076 12.6667 6.69973 12.7369 6.81694 12.8619C6.93415 12.987 7 13.1565 7 13.3333V18H17V13.3333C17 13.1565 17.0658 12.987 17.1831 12.8619C17.3003 12.7369 17.4592 12.6667 17.625 12.6667C17.7908 12.6667 17.9497 12.7369 18.0669 12.8619C18.1842 12.987 18.25 13.1565 18.25 13.3333V18C18.25 18.3536 18.1183 18.6928 17.8839 18.9428C17.6495 19.1929 17.3315 19.3333 17 19.3333H7C6.66848 19.3333 6.35054 19.1929 6.11612 18.9428C5.8817 18.6928 5.75 18.3536 5.75 18V13.3333C5.75 13.1565 5.81585 12.987 5.93306 12.8619C6.05027 12.7369 6.20924 12.6667 6.375 12.6667Z" fill="#5B667A"/>
</svg>
