<svg width="18" height="18" viewBox="0 0 18 18" fill="none" xmlns="http://www.w3.org/2000/svg">
<path d="M13.2188 11.6719C12.7178 11.6719 12.2555 11.8477 11.8934 12.1412L8.25117 9.50625C8.31216 9.1715 8.31216 8.8285 8.25117 8.49375L11.8934 5.85879C12.2555 6.15234 12.7178 6.32812 13.2188 6.32812C14.3824 6.32812 15.3281 5.38242 15.3281 4.21875C15.3281 3.05508 14.3824 2.10938 13.2188 2.10938C12.0551 2.10938 11.1094 3.05508 11.1094 4.21875C11.1094 4.42266 11.1375 4.61777 11.192 4.8041L7.73262 7.30898C7.21934 6.62871 6.40371 6.1875 5.48438 6.1875C3.93047 6.1875 2.67188 7.44609 2.67188 9C2.67188 10.5539 3.93047 11.8125 5.48438 11.8125C6.40371 11.8125 7.21934 11.3713 7.73262 10.691L11.192 13.1959C11.1375 13.3822 11.1094 13.5791 11.1094 13.7812C11.1094 14.9449 12.0551 15.8906 13.2188 15.8906C14.3824 15.8906 15.3281 14.9449 15.3281 13.7812C15.3281 12.6176 14.3824 11.6719 13.2188 11.6719ZM13.2188 3.30469C13.7232 3.30469 14.1328 3.71426 14.1328 4.21875C14.1328 4.72324 13.7232 5.13281 13.2188 5.13281C12.7143 5.13281 12.3047 4.72324 12.3047 4.21875C12.3047 3.71426 12.7143 3.30469 13.2188 3.30469ZM5.48438 10.5469C4.63184 10.5469 3.9375 9.85254 3.9375 9C3.9375 8.14746 4.63184 7.45312 5.48438 7.45312C6.33691 7.45312 7.03125 8.14746 7.03125 9C7.03125 9.85254 6.33691 10.5469 5.48438 10.5469ZM13.2188 14.6953C12.7143 14.6953 12.3047 14.2857 12.3047 13.7812C12.3047 13.2768 12.7143 12.8672 13.2188 12.8672C13.7232 12.8672 14.1328 13.2768 14.1328 13.7812C14.1328 14.2857 13.7232 14.6953 13.2188 14.6953Z" fill="white"/>
</svg>
