<svg width="56" height="40" viewBox="0 0 56 40" fill="none" xmlns="http://www.w3.org/2000/svg">
<rect width="56" height="40" rx="4" fill="#EEF2F8"/>
<path d="M18.8957 18.204C19.6051 18.372 20.1791 18.7033 20.6177 19.198C21.0657 19.6833 21.2897 20.2947 21.2897 21.032C21.2897 22.012 20.9584 22.782 20.2957 23.342C19.6331 23.902 18.8211 24.182 17.8597 24.182C17.1131 24.182 16.4411 24.0093 15.8437 23.664C15.2557 23.3187 14.8311 22.8147 14.5697 22.152L15.9417 21.354C16.2311 22.194 16.8704 22.614 17.8597 22.614C18.4197 22.614 18.8631 22.474 19.1897 22.194C19.5164 21.9047 19.6797 21.5173 19.6797 21.032C19.6797 20.5467 19.5164 20.164 19.1897 19.884C18.8631 19.604 18.4197 19.464 17.8597 19.464H17.4957L16.8517 18.498L18.9657 15.712H14.8637V14.2H20.8837V15.572L18.8957 18.204Z" fill="#94A0B4"/>
<path d="M40.963 18.026C40.919 17.8964 40.838 17.7826 40.73 17.6985C40.6221 17.6144 40.4918 17.5638 40.3554 17.5529L36.3647 17.2358L34.6378 13.4136C34.5828 13.2905 34.4933 13.186 34.3802 13.1126C34.2671 13.0392 34.1351 13.0001 34.0003 13C33.8654 12.9999 33.7335 13.0389 33.6203 13.1121C33.5071 13.1854 33.4175 13.2899 33.3624 13.4129L31.6354 17.2358L27.6447 17.5529C27.5106 17.5635 27.3825 17.6125 27.2755 17.6941C27.1686 17.7756 27.0874 17.8863 27.0417 18.0127C26.996 18.1392 26.9877 18.2762 27.0178 18.4073C27.0479 18.5383 27.1151 18.6579 27.2114 18.7518L30.1605 21.6263L29.1175 26.1421C29.0859 26.2788 29.096 26.4219 29.1467 26.5527C29.1973 26.6836 29.2861 26.7962 29.4016 26.8759C29.5171 26.9557 29.6538 26.9989 29.7941 27C29.9345 27.001 30.0719 26.9599 30.1885 26.8819L34.0001 24.3413L37.8116 26.8819C37.9308 26.9611 38.0714 27.0018 38.2145 26.9987C38.3576 26.9956 38.4963 26.9487 38.612 26.8644C38.7276 26.7801 38.8147 26.6624 38.8614 26.5271C38.9082 26.3919 38.9124 26.2456 38.8735 26.1078L37.5932 21.6284L40.7684 18.7714C40.9763 18.5838 41.0526 18.2913 40.963 18.026Z" fill="#94A0B4"/>
</svg>
