<svg width="20" height="21" viewBox="0 0 20 21" fill="none" xmlns="http://www.w3.org/2000/svg">
<g clip-path="url(#clip0_7412_1396)">
<path d="M8.06683 12.2812L10.0002 10.8146L11.9252 12.2812L11.1918 9.90622L13.1252 8.37288H10.7585L10.0002 6.03122L9.24183 8.37288H6.87516L8.80016 9.90622L8.06683 12.2812ZM16.6668 9.20622C16.6668 5.52288 13.6835 2.53955 10.0002 2.53955C6.31683 2.53955 3.3335 5.52288 3.3335 9.20622C3.3335 10.8979 3.96683 12.4312 5.00016 13.6062V20.0396L10.0002 18.3729L15.0002 20.0396V13.6062C16.0747 12.3925 16.6676 10.8273 16.6668 9.20622ZM10.0002 4.20622C12.7585 4.20622 15.0002 6.44788 15.0002 9.20622C15.0002 11.9646 12.7585 14.2062 10.0002 14.2062C7.24183 14.2062 5.00016 11.9646 5.00016 9.20622C5.00016 6.44788 7.24183 4.20622 10.0002 4.20622Z" fill="url(#paint0_radial_7412_1396)"/>
</g>
<defs>
<radialGradient id="paint0_radial_7412_1396" cx="0" cy="0" r="1" gradientUnits="userSpaceOnUse" gradientTransform="translate(16.6668 20.0395) rotate(-127.304) scale(22.0006 28.4718)">
<stop offset="0.0416667" stop-color="#F11139"/>
<stop offset="0.911458" stop-color="#FBA40F"/>
<stop offset="1" stop-color="#FFD600"/>
</radialGradient>
<clipPath id="clip0_7412_1396">
<rect width="20" height="20" fill="white" transform="translate(0 0.872803)"/>
</clipPath>
</defs>
</svg>
