<svg width="24" height="24" viewBox="0 0 24 24" fill="none" xmlns="http://www.w3.org/2000/svg">
<path d="M7.42291 18.909C8.25789 18.909 8.93687 19.6029 8.93687 20.455C8.93687 21.3071 8.25789 22 7.42291 22C6.58793 22 5.90795 21.3071 5.90795 20.455C5.90795 19.6029 6.58793 18.909 7.42291 18.909ZM18.6746 18.909C19.5096 18.909 20.1896 19.6029 20.1896 20.455C20.1896 21.3071 19.5096 22 18.6746 22C17.8396 22 17.1607 21.3071 17.1607 20.455C17.1607 19.6029 17.8396 18.909 18.6746 18.909ZM2.77545 2.00032L2.87792 2.01015L4.95887 2.37854C5.29486 2.43772 5.54986 2.72243 5.57786 3.06939L6.54083 14.7761C6.58683 15.3374 7.03782 15.7609 7.59081 15.7609H18.5015C19.0215 15.7609 19.4695 15.365 19.5445 14.8404L20.4935 8.14721C20.5275 7.91047 20.4215 7.74413 20.3555 7.66556C20.2895 7.588 20.1435 7.45738 19.9085 7.45738H9.16377C8.74978 7.45738 8.41378 7.11451 8.41378 6.69203C8.41378 6.26956 8.74978 5.92669 9.16377 5.92669H19.9085C20.5155 5.92669 21.0925 6.19609 21.4895 6.66448C21.8864 7.13287 22.0654 7.7523 21.9784 8.36661L21.0285 15.0598C20.8485 16.3323 19.7625 17.2916 18.5015 17.2916H7.59081C6.25184 17.2916 5.15787 16.265 5.04587 14.9037L4.13189 3.78576L2.62193 3.51942C2.21394 3.44696 1.94095 3.05102 2.01095 2.63467C2.08094 2.2173 2.46493 1.9428 2.87792 2.01015L2.77545 2.00032ZM16.8988 9.69893C17.3128 9.69893 17.6488 10.0418 17.6488 10.4643C17.6488 10.8867 17.3128 11.2296 16.8988 11.2296H14.1258C13.7109 11.2296 13.3759 10.8867 13.3759 10.4643C13.3759 10.0418 13.7109 9.69893 14.1258 9.69893H16.8988Z" fill="white"/>
</svg>
