<svg width="251" height="250" viewBox="0 0 251 250" fill="none" xmlns="http://www.w3.org/2000/svg">
<path d="M201.425 87.16C198.025 114.27 174.275 141.335 148.155 158.765C80.655 204.175 15.4 127.12 31.86 99.445C44.215 71.375 82.755 79.085 99.15 68.05C191.295 5.59003 204.62 64.47 201.425 87.16Z" fill="#151515"/>
<path d="M201.425 87.16C198.025 114.27 174.275 141.335 148.155 158.765C80.655 204.175 15.4 127.12 31.86 99.445C44.215 71.375 82.755 79.085 99.15 68.05C191.295 5.59003 204.62 64.47 201.425 87.16Z" fill="url(#paint0_radial_2362_10925)"/>
<path d="M125.5 213.78C179.041 213.78 222.445 211.246 222.445 208.12C222.445 204.994 179.041 202.46 125.5 202.46C71.9587 202.46 28.555 204.994 28.555 208.12C28.555 211.246 71.9587 213.78 125.5 213.78Z" fill="#F5F5F5"/>
<path d="M125.48 180.525H54.48L50.595 66.3398H121.595L125.48 180.525Z" fill="url(#paint1_radial_2362_10925)"/>
<path d="M129.025 176.98H58.0249L54.1349 62.7949H125.135L129.025 176.98Z" fill="#151515"/>
<path d="M129.025 176.98H58.0249L54.1349 62.7949H125.135L129.025 176.98Z" fill="url(#paint2_linear_2362_10925)"/>
<path d="M105.236 109.782C112.838 102.049 112.515 89.4035 104.514 81.5381C96.5129 73.6727 83.8641 73.5656 76.262 81.2989C68.6599 89.0321 68.9833 101.677 76.9844 109.543C84.9854 117.408 97.6343 117.515 105.236 109.782Z" fill="#151515"/>
<path d="M107.235 95.545C107.337 98.2658 106.743 100.968 105.51 103.395C104.178 106.011 102.145 108.204 99.6364 109.728C97.1282 111.253 94.2448 112.048 91.3098 112.025C88.3058 112.009 85.3589 111.203 82.7647 109.688C80.1706 108.173 78.0204 106.003 76.5298 103.395C75.14 101.005 74.3635 98.3081 74.2698 95.545C74.1775 93.4025 74.5219 91.2637 75.2818 89.2584C76.0417 87.2531 77.2014 85.4233 78.6904 83.88C80.1794 82.3368 81.9666 81.1124 83.9434 80.2812C85.9202 79.45 88.0454 79.0294 90.1898 79.045C94.6074 79.0762 98.8432 80.8081 102.017 83.8807C105.192 86.9534 107.06 91.1307 107.235 95.545Z" fill="white"/>
<path d="M105.5 103.395C104.169 106.011 102.135 108.204 99.6265 109.728C97.1183 111.253 94.2349 112.048 91.2999 112.025C88.2959 112.009 85.349 111.203 82.7549 109.688C80.1607 108.173 78.0105 106.003 76.5199 103.395C80.7485 100.512 85.7521 98.9795 90.8699 99C96.0702 99.0112 101.154 100.539 105.5 103.395Z" fill="#E23A2F"/>
<path d="M95.8858 95.1337C98.6812 92.2901 98.5623 87.6404 95.6202 84.7482C92.6782 81.8561 88.0271 81.8167 85.2317 84.6603C82.4363 87.5039 82.5553 92.1536 85.4973 95.0458C88.4394 97.938 93.0905 97.9773 95.8858 95.1337Z" fill="#E23A2F"/>
<path d="M114.76 135.63H69.4701L69.1651 126.63H114.455L114.76 135.63Z" fill="white"/>
<path d="M115.31 151.715H70.0149L69.7099 142.715H115.005L115.31 151.715Z" fill="white"/>
<path d="M97.8302 143.955L86.9152 145.455C86.811 145.467 86.7105 145.5 86.6198 145.553C86.5292 145.605 86.4504 145.676 86.3884 145.761C86.3264 145.845 86.2826 145.942 86.2596 146.044C86.2367 146.146 86.2352 146.252 86.2552 146.355L87.6902 153.67C87.7371 153.885 87.8627 154.074 88.0422 154.201C88.2217 154.327 88.4422 154.382 88.6602 154.355L99.5752 152.855C99.6791 152.842 99.7792 152.807 99.8693 152.754C99.9594 152.701 100.038 152.629 100.099 152.544C100.16 152.46 100.204 152.363 100.226 152.261C100.249 152.158 100.25 152.053 100.23 151.95L98.8002 144.635C98.7532 144.421 98.6274 144.232 98.4478 144.106C98.2681 143.98 98.0477 143.926 97.8302 143.955ZM94.6952 151.365L92.6952 151.63L92.5002 149.27C92.2941 149.181 92.1125 149.043 91.9706 148.869C91.8288 148.695 91.7309 148.49 91.6852 148.27C91.6484 148.1 91.6479 147.923 91.6834 147.753C91.719 147.582 91.79 147.421 91.8918 147.28C91.9936 147.138 92.1239 147.02 92.2744 146.932C92.4248 146.844 92.592 146.789 92.7652 146.77C93.1203 146.724 93.4797 146.813 93.7722 147.02C94.0648 147.226 94.2692 147.535 94.3452 147.885C94.3885 148.096 94.3753 148.315 94.3068 148.52C94.2383 148.724 94.117 148.907 93.9552 149.05L94.6952 151.365Z" fill="black"/>
<path d="M96.75 143.56C96.557 143.585 96.3618 143.536 96.2027 143.424C96.0436 143.312 95.9321 143.145 95.89 142.955L95.75 142.24C95.5502 141.264 95.0033 140.394 94.2107 139.791C93.4181 139.188 92.4337 138.893 91.44 138.96C90.9385 138.989 90.4491 139.125 90.005 139.359C89.5608 139.594 89.1724 139.921 88.8659 140.319C88.5595 140.717 88.3423 141.176 88.2292 141.666C88.116 142.155 88.1094 142.663 88.21 143.155L88.37 143.98C88.3886 144.071 88.388 144.166 88.368 144.257C88.3481 144.348 88.3094 144.434 88.2543 144.509C88.1992 144.585 88.1291 144.648 88.0482 144.694C87.9674 144.741 87.8778 144.77 87.785 144.78C87.5917 144.807 87.3953 144.759 87.2357 144.647C87.076 144.535 86.965 144.366 86.925 144.175L86.79 143.48C86.6527 142.83 86.6482 142.16 86.7766 141.508C86.9051 140.857 87.1639 140.238 87.5375 139.69C87.9112 139.141 88.3919 138.673 88.9508 138.315C89.5097 137.957 90.1353 137.715 90.79 137.605C92.2095 137.367 93.6662 137.684 94.8579 138.491C96.0496 139.298 96.8847 140.533 97.19 141.94L97.35 142.76C97.3686 142.853 97.3675 142.948 97.3467 143.04C97.3259 143.132 97.2859 143.219 97.2292 143.294C97.1725 143.37 97.1006 143.433 97.018 143.478C96.9354 143.524 96.8441 143.552 96.75 143.56Z" fill="black"/>
<path d="M107.835 164.32H78.3498L78.1548 158.46H107.635L107.835 164.32Z" fill="white"/>
<path d="M93.61 131.13C93.6188 131.344 93.5841 131.557 93.508 131.757C93.432 131.957 93.3161 132.139 93.1674 132.293C93.0187 132.447 92.8404 132.569 92.6431 132.652C92.4459 132.735 92.2339 132.776 92.02 132.775C91.5791 132.771 91.1564 132.599 90.8391 132.293C90.5218 131.987 90.3342 131.57 90.315 131.13C90.3062 130.916 90.3409 130.703 90.417 130.503C90.493 130.303 90.6089 130.121 90.7576 129.967C90.9063 129.813 91.0846 129.691 91.2819 129.608C91.4791 129.525 91.6911 129.483 91.905 129.485C92.3462 129.487 92.7697 129.659 93.0872 129.966C93.4048 130.272 93.592 130.689 93.61 131.13Z" fill="#263238"/>
<path d="M86.4998 131.13C86.5094 131.344 86.4752 131.557 86.3994 131.758C86.3235 131.958 86.2077 132.141 86.0589 132.295C85.9101 132.449 85.7314 132.571 85.5338 132.653C85.3363 132.736 85.124 132.777 84.9099 132.775C84.4695 132.771 84.0473 132.599 83.7308 132.292C83.4144 131.986 83.2278 131.57 83.2099 131.13C83.201 130.916 83.2357 130.703 83.3118 130.503C83.3879 130.303 83.5038 130.121 83.6525 129.967C83.8011 129.813 83.9795 129.691 84.1767 129.608C84.3739 129.525 84.5859 129.483 84.7999 129.485C85.2406 129.487 85.6635 129.66 85.9802 129.966C86.2969 130.273 86.4831 130.689 86.4998 131.13Z" fill="#263238"/>
<path d="M79.435 131.13C79.4438 131.344 79.4091 131.557 79.333 131.757C79.2569 131.957 79.1411 132.139 78.9924 132.293C78.8437 132.447 78.6654 132.569 78.4681 132.652C78.2709 132.735 78.0589 132.776 77.845 132.775C77.4043 132.773 76.9814 132.6 76.6647 132.294C76.3479 131.987 76.1617 131.57 76.145 131.13C76.1362 130.916 76.1709 130.703 76.247 130.503C76.323 130.303 76.4389 130.121 76.5876 129.967C76.7363 129.813 76.9146 129.691 77.1119 129.608C77.3091 129.525 77.5211 129.483 77.735 129.485C78.1757 129.487 78.5986 129.66 78.9153 129.966C79.2321 130.273 79.4182 130.689 79.435 131.13Z" fill="#263238"/>
<path d="M100.695 131.13C100.704 131.344 100.669 131.557 100.593 131.757C100.517 131.957 100.401 132.139 100.252 132.293C100.103 132.447 99.9251 132.569 99.7279 132.652C99.5307 132.734 99.3187 132.776 99.1048 132.775C98.664 132.773 98.2412 132.6 97.9244 132.294C97.6077 131.987 97.4215 131.57 97.4048 131.13C97.3973 130.917 97.4332 130.704 97.5103 130.506C97.5873 130.307 97.704 130.126 97.8531 129.973C98.0022 129.821 98.1808 129.7 98.3779 129.619C98.575 129.538 98.7865 129.497 98.9998 129.5C99.4372 129.503 99.8566 129.674 100.172 129.977C100.487 130.28 100.674 130.693 100.695 131.13Z" fill="#263238"/>
<path d="M107.78 131.13C107.789 131.344 107.755 131.557 107.679 131.758C107.604 131.958 107.488 132.141 107.339 132.295C107.19 132.449 107.011 132.571 106.814 132.653C106.616 132.736 106.404 132.777 106.19 132.775C105.749 132.771 105.327 132.599 105.011 132.292C104.694 131.986 104.508 131.57 104.49 131.13C104.481 130.916 104.516 130.703 104.592 130.503C104.668 130.303 104.784 130.121 104.932 129.967C105.081 129.813 105.259 129.691 105.457 129.608C105.654 129.525 105.866 129.483 106.08 129.485C106.521 129.487 106.943 129.66 107.26 129.966C107.577 130.273 107.763 130.689 107.78 131.13Z" fill="#263238"/>
<path d="M167.455 87.14C168.12 88.21 168.675 89.23 169.245 90.295C169.815 91.36 170.33 92.43 170.835 93.525C171.865 95.7422 172.718 98.0378 173.385 100.39C173.475 100.685 173.54 101 173.615 101.305L173.725 101.77L173.78 102L173.845 102.38C173.958 103.242 173.905 104.118 173.69 104.96C173.345 106.268 172.82 107.521 172.13 108.685C170.896 110.799 169.405 112.753 167.69 114.5L165.585 112.91C166.642 110.968 167.582 108.964 168.4 106.91C168.765 106.005 169.021 105.06 169.165 104.095C169.211 103.8 169.197 103.499 169.125 103.21L168.925 102.6C168.845 102.35 168.77 102.1 168.675 101.845C167.914 99.7823 167.035 97.7656 166.04 95.805C165.04 93.805 163.965 91.805 162.89 89.895L167.455 87.14Z" fill="#FFBBB1"/>
<path d="M166.12 112.215L163.82 113.43L166.46 116.52C166.46 116.52 168.11 115.405 168.185 113.705L166.12 112.215Z" fill="#FFBBB1"/>
<path d="M160.735 115.335L163.56 117.58L166.46 116.52L163.82 113.43L160.735 115.335Z" fill="#FFBBB1"/>
<path d="M151.075 70.7801C151.02 71.0601 150.825 71.2551 150.645 71.2201C150.465 71.1851 150.36 70.9251 150.415 70.6501C150.47 70.3751 150.665 70.1501 150.85 70.2101C151.035 70.2701 151.13 70.5001 151.075 70.7801Z" fill="#263238"/>
<path d="M150.85 71.26C150.346 72.0432 149.737 72.7532 149.04 73.37C149.205 73.5407 149.404 73.6738 149.625 73.7601C149.846 73.8464 150.083 73.8839 150.32 73.87L150.85 71.26Z" fill="#FF5652"/>
<path d="M149.95 81.07V77.79L154.29 78.29C154.29 78.29 154.22 81.11 151.79 81.94L149.95 81.07Z" fill="#FFBBB1"/>
<path d="M151.2 75.4301L154.255 76.31L154.31 78.315L149.97 77.79L151.2 75.4301Z" fill="#FFBBB1"/>
<path opacity="0.2" d="M154.255 76.3101L151.2 75.4301L150.605 76.5701C150.637 77.4683 150.918 78.34 151.416 79.0885C151.914 79.8369 152.609 80.4328 153.425 80.8101C153.95 80.0769 154.257 79.2102 154.31 78.3101L154.255 76.3101Z" fill="#151515"/>
<path d="M152.405 69.4451C152.437 69.4442 152.468 69.4343 152.495 69.4165C152.521 69.3987 152.542 69.3737 152.555 69.3444C152.569 69.3152 152.573 69.2828 152.569 69.2511C152.564 69.2193 152.551 69.1895 152.53 69.1651C152.354 68.9667 152.134 68.8133 151.887 68.7176C151.64 68.622 151.373 68.5868 151.11 68.6151C151.067 68.6224 151.028 68.6465 151.003 68.6822C150.978 68.7178 150.968 68.762 150.975 68.8051C150.982 68.8485 151.006 68.8873 151.042 68.9134C151.077 68.9395 151.121 68.9509 151.165 68.9451C151.373 68.9246 151.584 68.9543 151.779 69.0317C151.974 69.1091 152.147 69.232 152.285 69.3901C152.3 69.4068 152.319 69.4203 152.339 69.4297C152.36 69.4391 152.382 69.4444 152.405 69.4451Z" fill="#263238"/>
<path d="M158.795 75.84C158.295 78.415 157.985 81.98 159.795 83.695C159.795 83.695 159.095 86.305 154.295 86.305C149.04 86.305 151.77 84.015 151.77 84.015C153.955 83.335 153.935 80.85 153.435 78.85L158.795 75.84Z" fill="#FFBBB1"/>
<path d="M160.77 85.415C161.24 84.755 161.22 82.66 160.72 82.29C159.915 81.695 156.46 81.555 151.815 82.625C152.315 84.655 151.24 85.715 151.24 85.715L160.77 85.415Z" fill="#151515"/>
<path d="M176.4 204.12C176.257 204.17 176.106 204.192 175.955 204.183C175.804 204.175 175.656 204.136 175.52 204.07C175.468 204.022 175.433 203.959 175.419 203.89C175.404 203.821 175.412 203.75 175.44 203.685C175.456 203.631 175.483 203.581 175.52 203.539C175.557 203.496 175.603 203.463 175.655 203.44C176.13 203.21 177.22 203.655 177.27 203.675C177.285 203.681 177.298 203.692 177.306 203.705C177.315 203.718 177.32 203.734 177.32 203.75C177.32 203.766 177.316 203.782 177.308 203.796C177.3 203.81 177.289 203.822 177.275 203.83C176.993 203.954 176.7 204.051 176.4 204.12ZM175.825 203.555C175.792 203.563 175.76 203.575 175.73 203.59C175.699 203.601 175.671 203.62 175.648 203.644C175.625 203.669 175.609 203.698 175.6 203.73C175.555 203.88 175.6 203.93 175.63 203.945C175.82 204.105 176.52 203.945 177.015 203.76C176.638 203.604 176.232 203.534 175.825 203.555Z" fill="#151515"/>
<path d="M177.255 203.835H177.215C176.815 203.72 175.965 203.115 175.955 202.72C175.954 202.657 175.976 202.596 176.015 202.547C176.054 202.498 176.109 202.464 176.17 202.45C176.229 202.428 176.293 202.419 176.356 202.424C176.419 202.429 176.48 202.448 176.535 202.48C177.005 202.72 177.305 203.69 177.315 203.735C177.322 203.747 177.326 203.761 177.326 203.775C177.326 203.789 177.322 203.803 177.315 203.815C177.307 203.823 177.298 203.829 177.287 203.832C177.277 203.836 177.266 203.837 177.255 203.835ZM176.255 202.59H176.215C176.115 202.625 176.115 202.675 176.115 202.7C176.115 202.935 176.685 203.41 177.115 203.6C177.01 203.32 176.78 202.765 176.475 202.6C176.407 202.569 176.33 202.566 176.26 202.59H176.255Z" fill="#151515"/>
<path d="M150.43 204.71C149.98 204.71 149.545 204.645 149.4 204.445C149.362 204.392 149.342 204.328 149.342 204.262C149.342 204.197 149.362 204.133 149.4 204.08C149.428 204.031 149.467 203.989 149.512 203.955C149.558 203.922 149.61 203.898 149.665 203.885C150.25 203.725 151.48 204.425 151.53 204.455C151.545 204.462 151.557 204.475 151.565 204.49C151.572 204.506 151.574 204.523 151.57 204.54C151.568 204.557 151.561 204.573 151.549 204.586C151.537 204.598 151.522 204.607 151.505 204.61C151.15 204.675 150.79 204.708 150.43 204.71ZM149.875 204.025C149.822 204.016 149.768 204.016 149.715 204.025C149.681 204.032 149.649 204.046 149.62 204.066C149.592 204.085 149.568 204.111 149.55 204.14C149.49 204.245 149.515 204.295 149.55 204.325C149.715 204.555 150.6 204.56 151.255 204.465C150.827 204.231 150.359 204.082 149.875 204.025Z" fill="#151515"/>
<path d="M151.5 204.61H151.465C151.04 204.42 150.2 203.66 150.265 203.26C150.265 203.165 150.345 203.05 150.575 203.03C150.657 203.02 150.74 203.028 150.82 203.052C150.899 203.076 150.972 203.116 151.035 203.17C151.355 203.553 151.548 204.027 151.585 204.525C151.585 204.539 151.582 204.553 151.575 204.566C151.569 204.579 151.561 204.591 151.55 204.6C151.534 204.608 151.517 204.611 151.5 204.61ZM150.64 203.185H150.59C150.44 203.185 150.43 203.255 150.43 203.275C150.39 203.515 150.96 204.115 151.395 204.375C151.357 203.974 151.194 203.594 150.93 203.29C150.848 203.22 150.743 203.183 150.635 203.185H150.64Z" fill="#151515"/>
<path d="M155.36 204.53H151.845L151.495 196.385H155.01L155.36 204.53Z" fill="#FFBBB1"/>
<path d="M181.175 202.9L177.74 203.645L174.285 196.06L177.725 195.315L181.175 202.9Z" fill="#FFBBB1"/>
<path d="M177.405 203.3L181.27 202.465C181.338 202.451 181.408 202.46 181.47 202.491C181.532 202.521 181.581 202.572 181.61 202.635L182.95 205.545C182.986 205.615 183.004 205.693 183.004 205.772C183.004 205.851 182.985 205.929 182.949 205.999C182.913 206.07 182.86 206.13 182.796 206.177C182.732 206.223 182.658 206.253 182.58 206.265C181.23 206.53 180.555 206.595 178.86 206.96C177.815 207.19 175.455 207.765 174.01 208.075C172.565 208.385 172.07 207 172.635 206.745C175.16 205.59 176.21 204.575 176.895 203.63C177.019 203.461 177.2 203.344 177.405 203.3Z" fill="#263238"/>
<path d="M151.87 204.12H155.71C155.78 204.12 155.847 204.144 155.902 204.188C155.956 204.231 155.994 204.292 156.01 204.36L156.705 207.485C156.725 207.561 156.728 207.64 156.712 207.716C156.696 207.793 156.663 207.865 156.614 207.926C156.565 207.987 156.503 208.036 156.432 208.069C156.361 208.102 156.283 208.118 156.205 208.115C154.82 208.09 152.82 208.01 151.08 208.01C149.04 208.01 147.285 208.12 144.895 208.12C143.45 208.12 143.05 206.66 143.655 206.525C146.405 205.925 148.655 205.86 151.03 204.395C151.279 204.228 151.57 204.133 151.87 204.12Z" fill="#263238"/>
<path d="M166.085 84.5C169.38 85.255 172.085 93.67 172.085 93.67L165.5 98.705C163.791 96.8775 162.585 94.6379 162 92.205C160.835 87.795 162.715 83.72 166.085 84.5Z" fill="#151515"/>
<path opacity="0.4" d="M166.085 84.5C169.38 85.255 172.085 93.67 172.085 93.67L165.5 98.705C163.791 96.8775 162.585 94.6379 162 92.205C160.835 87.795 162.715 83.72 166.085 84.5Z" fill="#151515"/>
<path d="M148.75 94.5351C147.93 95.4201 147.11 96.2101 146.25 97.0351C145.825 97.4351 145.395 97.8351 144.955 98.2201L144.29 98.8051L144.125 98.9501L143.84 99.1801C143.547 99.4144 143.222 99.6063 142.875 99.7501C142.489 99.9139 142.074 99.9989 141.655 100C141.297 100.002 140.941 99.939 140.605 99.8151C140.232 99.6731 139.892 99.4571 139.605 99.1801C139.239 98.8221 138.97 98.3763 138.825 97.8851C138.749 97.6429 138.7 97.393 138.68 97.1401C138.654 96.844 138.654 96.5462 138.68 96.2501C138.705 96.0101 138.735 95.8001 138.775 95.6051C138.912 94.9233 139.106 94.2543 139.355 93.6051C139.58 92.988 139.839 92.3837 140.13 91.7951C140.45 91.1601 140.755 90.6951 141.06 90.1651C142.299 88.1357 143.712 86.2184 145.285 84.4351C146.842 82.6623 148.557 81.0355 150.41 79.5751L152.25 81.4701C150.96 83.2001 149.69 85.0551 148.515 86.8801C147.346 88.6947 146.277 90.5726 145.315 92.5051C145.1 92.9751 144.815 93.5051 144.68 93.8851C144.501 94.3265 144.346 94.7772 144.215 95.2351C144.089 95.6475 143.994 96.0686 143.93 96.4951C143.927 96.5617 143.927 96.6285 143.93 96.6951C143.93 96.7351 143.93 96.7551 143.93 96.6501C143.922 96.5379 143.9 96.427 143.865 96.3201C143.757 95.9656 143.559 95.6452 143.29 95.3901C143.051 95.1704 142.77 95.0004 142.465 94.8901C142.197 94.7884 141.912 94.7359 141.625 94.7351C141.349 94.7317 141.075 94.7845 140.82 94.8901C140.734 94.9254 140.65 94.9671 140.57 95.0151L140.76 94.8401L141.365 94.2901L142.56 93.1701C143.35 92.4251 144.145 91.6301 144.895 90.8901L148.75 94.5351Z" fill="#FFBBB1"/>
<path opacity="0.2" d="M163.26 90.6801C165.05 92.4501 165.635 95.6801 165.76 98.4801L165.47 98.7051C163.761 96.8776 162.555 94.638 161.97 92.2051C161.905 91.9451 161.845 91.7051 161.8 91.4201L163.26 90.6801Z" fill="#151515"/>
<path d="M145.255 88C144.535 91.8 144.085 99.605 146.17 115.055H165C165.13 112.17 163.315 98.08 166.1 84.475C164.019 84.0755 161.915 83.8099 159.8 83.68C157.135 83.5272 154.464 83.5272 151.8 83.68C150.92 83.76 150.05 83.89 149.3 84.025C148.302 84.2 147.382 84.6738 146.659 85.3836C145.937 86.0934 145.447 87.0058 145.255 88Z" fill="#151515"/>
<path opacity="0.4" d="M145.255 88C144.535 91.8 144.085 99.605 146.17 115.055H165C165.13 112.17 163.315 98.08 166.1 84.475C164.019 84.0755 161.915 83.8099 159.8 83.68C157.135 83.5272 154.464 83.5272 151.8 83.68C150.92 83.76 150.05 83.89 149.3 84.025C148.302 84.2 147.382 84.6738 146.659 85.3836C145.937 86.0934 145.447 87.0058 145.255 88Z" fill="#151515"/>
<path opacity="0.2" d="M148.135 93.6351L144.735 92.8201C144.63 94.8801 144.62 97.4301 144.77 100.585C146.335 98.8051 148.335 96.0251 148.135 93.6351Z" fill="#151515"/>
<path opacity="0.2" d="M151.495 196.385L151.675 200.585H155.195L155.015 196.385H151.495Z" fill="#151515"/>
<path opacity="0.2" d="M177.725 195.315L174.285 196.06L176.065 199.97L179.505 199.225L177.725 195.315Z" fill="#151515"/>
<path d="M160.465 72.08C159.565 75.45 159.205 77.47 157.125 78.87C154 81 150.1 78.56 150 75C149.89 71.785 151.385 66.81 155 66.13C155.794 65.9809 156.614 66.0366 157.381 66.2917C158.148 66.5469 158.837 66.9931 159.384 67.5884C159.931 68.1837 160.317 68.9084 160.506 69.6942C160.695 70.4801 160.681 71.3011 160.465 72.08Z" fill="#FFBBB1"/>
<path d="M152.575 72.2051C152.405 71.7551 151.63 68.2701 152.36 67.3651C153.09 66.4601 161.415 67.1151 162.645 68.3251C164.69 70.3251 163.27 72.1251 161.035 74.4401C159.355 76.1801 159.29 78.14 158.44 78.4401C156.94 78.94 154.65 78.47 154.19 76.8851C153.73 75.3001 152.575 72.2051 152.575 72.2051Z" fill="#263238"/>
<path d="M161.635 64.36C158.695 63.11 153.18 64.495 150.2 63.775C150.162 64.8831 150.526 65.9675 151.226 66.8277C151.925 67.688 152.912 68.2661 154.005 68.455C156.477 68.9261 158.988 69.1589 161.505 69.15C164.775 69 164.135 65.425 161.635 64.36Z" fill="#263238"/>
<path d="M162.095 68.43C163.169 68.5356 164.251 68.329 165.21 67.835C165.76 69.165 162.735 69.53 162.095 68.43Z" fill="#263238"/>
<path d="M154.175 72.345C154.107 73.2121 153.756 74.0328 153.175 74.68C152.405 75.525 151.605 74.995 151.47 73.97C151.35 73.04 151.6 71.47 152.54 71.02C153.48 70.57 154.24 71.3 154.175 72.345Z" fill="#FFBBB1"/>
<path d="M152.845 115.07C152.845 115.07 156.845 141.945 159.03 152.015C161.425 163.04 174.295 199.515 174.295 199.515L180.59 198.15C180.59 198.15 171.59 168.42 169.59 153.005C168.04 141.165 164.995 115.06 164.995 115.06L152.845 115.07Z" fill="#151515"/>
<path d="M172.785 197.42C172.76 197.42 173.96 199.7 173.96 199.7L181.04 198.165L180.445 196.035L172.785 197.42Z" fill="#263238"/>
<path opacity="0.3" d="M155.37 124.645C159.985 125.55 159.495 142.76 158.94 151.615C157.61 145.355 155.66 133.315 154.33 124.77C154.652 124.611 155.019 124.567 155.37 124.645Z" fill="#151515"/>
<path d="M146.17 115.07C146.17 115.07 145.67 141.365 146.07 152.07C146.47 163.225 150.365 199.75 150.365 199.75H156.325C156.325 199.75 156.54 163.875 156.825 152.92C157.115 140.98 158.555 115.05 158.555 115.05L146.17 115.07Z" fill="#151515"/>
<path d="M149.22 197.4C149.19 197.4 149.555 199.87 149.555 199.87H156.8L157 197.665L149.22 197.4Z" fill="#263238"/>
<path d="M152.625 89.17C154.31 93.715 144.405 99.07 144.405 99.07L140.115 93.57C140.115 93.57 143 87.86 146.5 85.29C150.825 82.12 151.34 85.71 152.625 89.17Z" fill="#151515"/>
<path opacity="0.4" d="M152.625 89.17C154.31 93.715 144.405 99.07 144.405 99.07L140.115 93.57C140.115 93.57 143 87.86 146.5 85.29C150.825 82.12 151.34 85.71 152.625 89.17Z" fill="#151515"/>
<path d="M191.435 54.665C201.401 54.665 209.48 49.5163 209.48 43.165C209.48 36.8138 201.401 31.665 191.435 31.665C181.469 31.665 173.39 36.8138 173.39 43.165C173.39 49.5163 181.469 54.665 191.435 54.665Z" fill="#FF7629"/>
<path d="M184.925 48.955C183.736 48.9512 182.587 48.5285 181.679 47.7613C180.771 46.9941 180.162 45.9315 179.96 44.76C179.761 43.4912 180.047 42.1939 180.762 41.1266C181.476 40.0592 182.566 39.3 183.815 39C184.84 38.7639 185.913 38.8549 186.883 39.2603C187.854 39.6657 188.673 40.365 189.225 41.26L200.81 38.87C201.255 38.7725 201.721 38.8466 202.114 39.0774C202.507 39.3082 202.798 39.6787 202.93 40.115C202.991 40.3444 203.004 40.5838 202.969 40.8184C202.934 41.0531 202.851 41.2782 202.726 41.4799C202.601 41.6816 202.437 41.8557 202.242 41.9915C202.048 42.1274 201.827 42.2222 201.595 42.27L201.295 42.33C201.25 42.338 201.208 42.3562 201.172 42.383C201.135 42.4099 201.106 42.4448 201.085 42.485C201.066 42.5259 201.057 42.5702 201.057 42.615C201.057 42.6599 201.066 42.7042 201.085 42.745L201.29 43.275C201.359 43.4468 201.365 43.6372 201.309 43.8133C201.252 43.9895 201.136 44.1404 200.98 44.24C200.857 44.316 200.753 44.4189 200.676 44.5411C200.599 44.6633 200.551 44.8014 200.535 44.945C200.52 45.1099 200.454 45.2658 200.345 45.3906C200.237 45.5155 200.091 45.6027 199.93 45.64L199.695 45.69C199.532 45.7201 199.364 45.6976 199.215 45.6257C199.065 45.5538 198.943 45.4362 198.865 45.29C198.761 45.1156 198.606 44.978 198.42 44.8962C198.234 44.8145 198.027 44.7927 197.829 44.834C197.63 44.8753 197.449 44.9776 197.311 45.1265C197.174 45.2755 197.086 45.4637 197.06 45.665C197.046 45.8288 196.98 45.9839 196.873 46.1079C196.765 46.232 196.62 46.3185 196.46 46.355L196.225 46.405C196.062 46.4343 195.894 46.4114 195.745 46.3396C195.596 46.2678 195.474 46.1507 195.395 46.005C195.32 45.881 195.219 45.7748 195.099 45.6936C194.979 45.6125 194.843 45.5584 194.7 45.535C194.508 45.5119 194.33 45.4194 194.202 45.2748C194.073 45.1303 194.001 44.9437 194 44.75V44.18C193.998 44.1354 193.986 44.0918 193.966 44.0521C193.945 44.0125 193.917 43.9777 193.882 43.9501C193.846 43.9226 193.806 43.903 193.762 43.8926C193.719 43.8822 193.674 43.8814 193.63 43.89L189.935 44.65C189.784 45.6737 189.322 46.6261 188.611 47.3776C187.899 48.1291 186.974 48.6432 185.96 48.85C185.619 48.9197 185.273 48.9549 184.925 48.955ZM183.925 39.455C182.791 39.7199 181.799 40.4047 181.15 41.3714C180.5 42.3381 180.241 43.515 180.425 44.665C180.622 45.735 181.195 46.6992 182.041 47.3833C182.886 48.0674 183.949 48.4262 185.036 48.3948C186.124 48.3634 187.164 47.9438 187.969 47.212C188.774 46.4802 189.29 45.4845 189.425 44.405V44.225L193.5 43.4C193.617 43.3718 193.739 43.3699 193.856 43.3945C193.974 43.4191 194.085 43.4697 194.181 43.5424C194.276 43.6152 194.355 43.7084 194.41 43.8152C194.465 43.922 194.496 44.0398 194.5 44.16V44.73C194.501 44.7979 194.526 44.8633 194.569 44.9152C194.613 44.9671 194.673 45.0024 194.74 45.015C194.959 45.0463 195.167 45.127 195.35 45.2509C195.533 45.3748 195.685 45.5386 195.795 45.73C195.821 45.784 195.864 45.8284 195.917 45.857C195.97 45.8857 196.03 45.8972 196.09 45.89L196.32 45.84C196.378 45.825 196.43 45.7916 196.468 45.7448C196.506 45.698 196.528 45.6402 196.53 45.58C196.561 45.2688 196.691 44.9756 196.9 44.7429C197.109 44.5101 197.387 44.3499 197.693 44.2854C197.999 44.2208 198.318 44.2552 198.603 44.3837C198.888 44.5122 199.125 44.728 199.28 45C199.306 45.0536 199.347 45.0978 199.399 45.1265C199.451 45.1552 199.511 45.1669 199.57 45.16L199.81 45.11C199.867 45.0941 199.918 45.0603 199.955 45.0136C199.992 44.9668 200.013 44.9095 200.015 44.85C200.04 44.6305 200.114 44.4195 200.233 44.2332C200.352 44.0469 200.511 43.8902 200.7 43.775C200.755 43.7353 200.795 43.6783 200.814 43.6131C200.833 43.5479 200.83 43.4782 200.805 43.415L200.6 42.885C200.558 42.7758 200.54 42.6586 200.547 42.5416C200.555 42.4247 200.588 42.3108 200.644 42.2079C200.7 42.1051 200.778 42.0157 200.872 41.9462C200.967 41.8766 201.075 41.8284 201.19 41.805L201.495 41.74C201.66 41.7048 201.816 41.6367 201.954 41.5397C202.093 41.4427 202.21 41.3189 202.299 41.1756C202.388 41.0323 202.447 40.8725 202.473 40.7057C202.499 40.539 202.491 40.3687 202.45 40.205C202.352 39.8904 202.139 39.6243 201.854 39.4601C201.568 39.296 201.231 39.2459 200.91 39.32L189 41.795L188.91 41.64C188.431 40.7882 187.689 40.1152 186.794 39.7228C185.899 39.3304 184.901 39.2399 183.95 39.465L183.925 39.455ZM184.925 47.095C184.304 47.102 183.694 46.9282 183.17 46.595C182.55 46.188 182.09 45.5785 181.869 44.8705C181.648 44.1624 181.68 43.3997 181.959 42.7123C182.237 42.0249 182.745 41.4553 183.397 41.1008C184.048 40.7462 184.803 40.6286 185.531 40.7679C186.26 40.9072 186.917 41.2949 187.392 41.8649C187.866 42.4348 188.129 43.1517 188.134 43.8934C188.139 44.6351 187.887 45.3556 187.42 45.9321C186.954 46.5087 186.301 46.9055 185.575 47.055C185.362 47.0936 185.146 47.1103 184.93 47.105L184.925 47.095ZM184.925 41.19C184.739 41.1911 184.553 41.2095 184.37 41.245C184.022 41.3192 183.691 41.4613 183.398 41.6632C183.105 41.865 182.854 42.1227 182.66 42.4215C182.466 42.7202 182.333 43.0542 182.268 43.4045C182.203 43.7547 182.208 44.1142 182.282 44.4625C182.357 44.8109 182.499 45.1412 182.701 45.4346C182.902 45.728 183.16 45.9788 183.459 46.1727C183.758 46.3665 184.092 46.4996 184.442 46.5643C184.792 46.6291 185.152 46.6242 185.5 46.55C186.023 46.4412 186.502 46.1799 186.877 45.7993C187.251 45.4186 187.505 44.9355 187.605 44.4109C187.706 43.8864 187.649 43.3438 187.441 42.8515C187.234 42.3593 186.886 41.9395 186.44 41.645C185.997 41.3506 185.477 41.1956 184.945 41.2L184.925 41.19Z" fill="white"/>
<path opacity="0.6" d="M176.75 61.41C180.025 61.41 182.68 59.7176 182.68 57.63C182.68 55.5423 180.025 53.85 176.75 53.85C173.475 53.85 170.82 55.5423 170.82 57.63C170.82 59.7176 173.475 61.41 176.75 61.41Z" fill="#FF7629"/>
<path opacity="0.3" d="M167.315 62.96C168.66 62.96 169.75 62.266 169.75 61.41C169.75 60.5539 168.66 59.86 167.315 59.86C165.97 59.86 164.88 60.5539 164.88 61.41C164.88 62.266 165.97 62.96 167.315 62.96Z" fill="#FF7629"/>
<defs>
<radialGradient id="paint0_radial_2362_10925" cx="0" cy="0" r="1" gradientUnits="userSpaceOnUse" gradientTransform="translate(201.844 172.784) rotate(-142.462) scale(217.616 282.249)">
<stop offset="0.0416667" stop-color="#F11139"/>
<stop offset="0.911458" stop-color="#FBA40F"/>
<stop offset="1" stop-color="#FFD600"/>
</radialGradient>
<radialGradient id="paint1_radial_2362_10925" cx="0" cy="0" r="1" gradientUnits="userSpaceOnUse" gradientTransform="translate(125.48 180.525) rotate(-123.258) scale(136.55 168.107)">
<stop offset="0.0416667" stop-color="#F11139"/>
<stop offset="0.911458" stop-color="#FBA40F"/>
<stop offset="1" stop-color="#FFD600"/>
</radialGradient>
<linearGradient id="paint2_linear_2362_10925" x1="161.285" y1="72.2166" x2="131.169" y2="195.759" gradientUnits="userSpaceOnUse">
<stop stop-color="#FFD600"/>
<stop offset="1" stop-color="#F11139"/>
</linearGradient>
</defs>
</svg>
