<svg width="12" height="13" viewBox="0 0 12 13" fill="none" xmlns="http://www.w3.org/2000/svg">
<path d="M5.99988 1.49988C8.75688 1.49988 10.9999 3.74238 10.9999 6.49988C10.9999 9.25688 8.75688 11.4999 5.99988 11.4999C4.43638 11.4999 2.99138 10.7884 2.03638 9.54888C1.91388 9.38938 1.94388 9.16088 2.10288 9.03888C2.26188 8.91588 2.48938 8.94638 2.61238 9.10488C3.42888 10.1649 4.66338 10.7729 5.99988 10.7729C8.35588 10.7729 10.2729 8.85638 10.2729 6.49988C10.2729 4.14388 8.35588 2.22688 5.99988 2.22688C3.64388 2.22688 1.72738 4.14388 1.72738 6.49988C1.72738 6.71888 1.74338 6.93638 1.77588 7.14938C1.80588 7.34738 1.66988 7.53288 1.47138 7.56338C1.27188 7.59638 1.08738 7.45788 1.05738 7.25938C1.01938 7.01038 0.999878 6.75488 0.999878 6.49988C0.999878 3.74238 3.24288 1.49988 5.99988 1.49988ZM5.83043 4.05458C6.03093 4.05458 6.19393 4.21758 6.19393 4.41858V6.64158L7.90593 7.66258C8.07843 7.76558 8.13493 7.98858 8.03193 8.16108C7.96443 8.27458 7.84343 8.33808 7.71993 8.33808C7.65643 8.33808 7.59193 8.32158 7.53393 8.28708L5.64393 7.16008C5.53443 7.09408 5.46693 6.97558 5.46693 6.84758V4.41858C5.46693 4.21758 5.62993 4.05458 5.83043 4.05458Z" fill="white"/>
</svg>
