<svg width="109" height="56" viewBox="0 0 109 56" fill="none" xmlns="http://www.w3.org/2000/svg">
<path d="M0.666626 0H98.9999C104.523 0 109 4.47715 109 10V46C109 51.5229 104.523 56 98.9999 56H0.666626V0Z" fill="#EEF2F8"/>
<path d="M60.3504 28.5555C60.3411 26.957 61.0653 25.7523 62.5278 24.8641C61.7098 23.6922 60.4723 23.0477 58.8411 22.9234C57.2965 22.8016 55.6067 23.8234 54.9879 23.8234C54.334 23.8234 52.8387 22.9656 51.6622 22.9656C49.234 23.0031 46.6536 24.9016 46.6536 28.7641C46.6536 29.9055 46.8622 31.0844 47.2793 32.2984C47.8372 33.8969 49.8481 37.8133 51.9458 37.75C53.0426 37.7242 53.8184 36.9719 55.2458 36.9719C56.6309 36.9719 57.3481 37.75 58.5715 37.75C60.6879 37.7195 62.5067 34.1594 63.0364 32.5563C60.1981 31.218 60.3504 28.6375 60.3504 28.5555ZM57.8872 21.407C59.0754 19.9961 58.9676 18.7117 58.9325 18.25C57.8825 18.3109 56.6684 18.9648 55.977 19.7688C55.2153 20.6313 54.7676 21.6977 54.8637 22.9C55.9981 22.9867 57.034 22.4031 57.8872 21.407Z" fill="black"/>
</svg>
