<svg width="18" height="18" viewBox="0 0 18 18" fill="none" xmlns="http://www.w3.org/2000/svg">
<path d="M9.27053 9.87258L9.00496 9.87373C7.90123 9.87373 6.89499 9.80909 6.23903 9.71173L5.83112 9.62643C5.61509 9.57898 5.3691 9.51659 5.24353 9.45155C4.78419 9.21346 4.5 8.74792 4.5 8.24965V8.20629C4.51074 7.88148 4.79576 7.19912 4.80567 7.19912C5.26637 6.10114 6.65679 3.98284 7.64804 3.0045L7.94564 2.7202C8.0263 2.64575 8.12176 2.56211 8.19616 2.51018C8.42583 2.33673 8.71002 2.25 8.99422 2.25C9.31146 2.25 9.60639 2.34736 9.84762 2.53145L10.1629 2.82355L10.2301 2.88899C11.1926 3.77671 12.7664 6.09459 13.248 7.30712L13.3182 7.49019C13.3971 7.71048 13.4913 8.01913 13.5 8.20629C13.5 8.44438 13.4446 8.67183 13.3356 8.88865C13.1828 9.15946 12.9415 9.37546 12.6573 9.49491C12.4607 9.571 11.87 9.69045 11.8593 9.69045C11.2637 9.79996 10.3239 9.86346 9.27053 9.87258ZM8.99967 15.75C8.37097 15.75 7.86124 15.2452 7.86124 14.6226L8.10661 11.8481C8.10661 11.3597 8.50646 10.9637 8.99967 10.9637C9.4937 10.9637 9.89273 11.3597 9.89273 11.8481L10.1381 14.6226C10.1381 15.2452 9.62836 15.75 8.99967 15.75Z" fill="#75A242"/>
</svg>
