<svg width="26" height="22" viewBox="0 0 26 22" fill="none" xmlns="http://www.w3.org/2000/svg">
<path fill-rule="evenodd" clip-rule="evenodd" d="M15.1225 0C15.7671 0 16.388 0.241512 16.8617 0.676443L18.5133 2.19312C18.9278 2.57369 19.455 2.80617 20.0122 2.85834L20.2525 2.86957H21.0128C23.491 2.86957 25.5 4.86806 25.5 7.33333V17.5362C25.5 20.0015 23.491 22 21.0128 22H4.98718C2.50898 22 0.5 20.0015 0.5 17.5362V7.33333C0.5 4.86806 2.50898 2.86957 4.98718 2.86957H5.74748C6.39207 2.86957 7.01301 2.62805 7.48666 2.19312L9.13834 0.676443C9.61199 0.241512 10.2329 0 10.8775 0H15.1225ZM13 5.49985C9.41016 5.49985 6.50001 8.41 6.50001 11.9999C6.50001 15.5897 9.41016 18.4999 13 18.4999C16.5899 18.4999 19.5 15.5897 19.5 11.9999C19.5 8.41 16.5899 5.49985 13 5.49985ZM13 7.49986C15.4853 7.49986 17.5 9.51458 17.5 11.9999C17.5 14.4851 15.4853 16.4999 13 16.4999C10.5147 16.4999 8.50001 14.4851 8.50001 11.9999C8.50001 9.51458 10.5147 7.49986 13 7.49986Z" fill="#C02026"/>
</svg>
