<svg width="56" height="40" viewBox="0 0 56 40" fill="none" xmlns="http://www.w3.org/2000/svg">
<rect width="56" height="40" rx="4" fill="#FECD08"/>
<path d="M18.0355 17.896C18.9689 17.896 19.7575 18.176 20.4015 18.736C21.0455 19.2867 21.3675 20.052 21.3675 21.032C21.3675 22.012 21.0362 22.782 20.3735 23.342C19.7109 23.902 18.8989 24.182 17.9375 24.182C17.1629 24.182 16.4769 24.0047 15.8795 23.65C15.2822 23.286 14.8575 22.7633 14.6055 22.082L15.9915 21.284C16.2529 22.1707 16.9015 22.614 17.9375 22.614C18.4882 22.614 18.9269 22.474 19.2535 22.194C19.5895 21.9047 19.7575 21.5173 19.7575 21.032C19.7575 20.5467 19.5942 20.164 19.2675 19.884C18.9409 19.604 18.5069 19.464 17.9655 19.464H15.1095L15.4875 14.2H20.9475V15.712H16.9715L16.8035 17.896H18.0355Z" fill="black"/>
<path d="M40.963 18.026C40.919 17.8964 40.838 17.7826 40.73 17.6985C40.6221 17.6144 40.4918 17.5638 40.3554 17.5529L36.3647 17.2358L34.6378 13.4136C34.5828 13.2905 34.4933 13.186 34.3802 13.1126C34.2671 13.0392 34.1351 13.0001 34.0003 13C33.8654 12.9999 33.7335 13.0389 33.6203 13.1121C33.5071 13.1854 33.4175 13.2899 33.3624 13.4129L31.6354 17.2358L27.6447 17.5529C27.5106 17.5635 27.3825 17.6125 27.2755 17.6941C27.1686 17.7756 27.0874 17.8863 27.0417 18.0127C26.996 18.1392 26.9877 18.2762 27.0178 18.4073C27.0479 18.5383 27.1151 18.6579 27.2114 18.7518L30.1605 21.6263L29.1175 26.1421C29.0859 26.2788 29.096 26.4219 29.1467 26.5527C29.1973 26.6836 29.2861 26.7962 29.4016 26.8759C29.5171 26.9557 29.6538 26.9989 29.7941 27C29.9345 27.001 30.0719 26.9599 30.1885 26.8819L34.0001 24.3413L37.8116 26.8819C37.9308 26.9611 38.0714 27.0018 38.2145 26.9987C38.3576 26.9956 38.4963 26.9487 38.612 26.8644C38.7276 26.7801 38.8147 26.6624 38.8614 26.5271C38.9082 26.3919 38.9124 26.2456 38.8735 26.1078L37.5932 21.6284L40.7684 18.7714C40.9763 18.5838 41.0526 18.2913 40.963 18.026Z" fill="black"/>
</svg>
