<svg width="18" height="18" viewBox="0 0 18 18" fill="none" xmlns="http://www.w3.org/2000/svg">
<g clip-path="url(#clip0_2597_19097)">
<path d="M12.75 0C12.5511 0 12.3603 0.0790176 12.2197 0.21967C12.079 0.360322 12 0.551088 12 0.75C12 2.96175 10.0628 3.75 8.25 3.75H3C2.20435 3.75 1.44129 4.06607 0.87868 4.62868C0.316071 5.19129 0 5.95435 0 6.75L0 8.25C0.00163812 8.69905 0.104596 9.14195 0.301202 9.54568C0.497807 9.94941 0.782991 10.3036 1.1355 10.5817L3.8145 16.5607C4.00503 16.9891 4.31563 17.353 4.7087 17.6084C5.10178 17.8638 5.56047 17.9999 6.02925 18C6.40223 17.9998 6.76923 17.9062 7.09685 17.728C7.42446 17.5497 7.70229 17.2923 7.90504 16.9792C8.10778 16.6662 8.22901 16.3074 8.2577 15.9355C8.28638 15.5636 8.2216 15.1905 8.06925 14.85L6.41925 11.25H8.25C10.0628 11.25 12 12.0382 12 14.25C12 14.4489 12.079 14.6397 12.2197 14.7803C12.3603 14.921 12.5511 15 12.75 15C12.9489 15 13.1397 14.921 13.2803 14.7803C13.421 14.6397 13.5 14.4489 13.5 14.25V0.75C13.5 0.551088 13.421 0.360322 13.2803 0.21967C13.1397 0.0790176 12.9489 0 12.75 0V0ZM6.70275 15.4642C6.75243 15.5764 6.77332 15.6993 6.76353 15.8216C6.75375 15.9439 6.71359 16.0618 6.6467 16.1647C6.57982 16.2675 6.48832 16.3521 6.3805 16.4106C6.27268 16.4692 6.15195 16.4999 6.02925 16.5C5.8503 16.4999 5.67523 16.4478 5.52531 16.3501C5.3754 16.2523 5.25709 16.1132 5.18475 15.9495L3.07875 11.25H4.76925L6.70275 15.4642ZM12 10.95C10.9285 10.1244 9.60178 9.69985 8.25 9.75H3C2.60218 9.75 2.22064 9.59196 1.93934 9.31066C1.65804 9.02936 1.5 8.64782 1.5 8.25V6.75C1.5 6.35218 1.65804 5.97064 1.93934 5.68934C2.22064 5.40804 2.60218 5.25 3 5.25H8.25C9.60132 5.30122 10.928 4.87802 12 4.05375V10.95ZM17.925 11.589C17.881 11.6772 17.8201 11.7558 17.7457 11.8204C17.6713 11.8851 17.5849 11.9344 17.4914 11.9656C17.3979 11.9968 17.2992 12.0093 17.2009 12.0023C17.1026 11.9953 17.0066 11.9691 16.9185 11.925L15.4185 11.175C15.2405 11.0861 15.1051 10.9301 15.042 10.7413C14.979 10.5526 14.9936 10.3465 15.0825 10.1685C15.1714 9.99047 15.3274 9.85506 15.5162 9.79205C15.7049 9.72903 15.911 9.74359 16.089 9.8325L17.589 10.5825C17.7661 10.6714 17.9009 10.8267 17.9638 11.0146C18.0268 11.2025 18.0128 11.4076 17.925 11.5852V11.589ZM15.0825 4.839C15.0384 4.75086 15.0122 4.6549 15.0052 4.5566C14.9982 4.4583 15.0107 4.35959 15.0419 4.26612C15.0731 4.17265 15.1224 4.08624 15.1871 4.01184C15.2517 3.93743 15.3303 3.87649 15.4185 3.8325L16.9185 3.0825C17.0965 2.99359 17.3026 2.97903 17.4913 3.04205C17.6801 3.10506 17.8361 3.24047 17.925 3.4185C18.0139 3.59653 18.0285 3.80258 17.9655 3.99134C17.9024 4.18009 17.767 4.33609 17.589 4.425L16.089 5.175C16.0009 5.21907 15.9049 5.24533 15.8066 5.2523C15.7083 5.25926 15.6096 5.24678 15.5161 5.21558C15.4226 5.18437 15.3362 5.13505 15.2618 5.07044C15.1874 5.00582 15.1265 4.92718 15.0825 4.839ZM15 7.5C15 7.30109 15.079 7.11032 15.2197 6.96967C15.3603 6.82902 15.5511 6.75 15.75 6.75H17.25C17.4489 6.75 17.6397 6.82902 17.7803 6.96967C17.921 7.11032 18 7.30109 18 7.5C18 7.69891 17.921 7.88968 17.7803 8.03033C17.6397 8.17098 17.4489 8.25 17.25 8.25H15.75C15.5511 8.25 15.3603 8.17098 15.2197 8.03033C15.079 7.88968 15 7.69891 15 7.5Z" fill="black"/>
</g>
<defs>
<clipPath id="clip0_2597_19097">
<rect width="18" height="18" fill="white"/>
</clipPath>
</defs>
</svg>
