<svg width="56" height="40" viewBox="0 0 56 40" fill="none" xmlns="http://www.w3.org/2000/svg">
<rect width="56" height="40" rx="4" fill="#EEF2F8"/>
<path d="M14.7289 24V22.74L18.1449 19.254C18.9756 18.4233 19.3909 17.7047 19.3909 17.098C19.3909 16.622 19.2463 16.2533 18.9569 15.992C18.6769 15.7213 18.3176 15.586 17.8789 15.586C17.0576 15.586 16.4509 15.992 16.0589 16.804L14.7009 16.006C15.0089 15.3527 15.4429 14.858 16.0029 14.522C16.5629 14.186 17.1836 14.018 17.8649 14.018C18.7236 14.018 19.4609 14.2887 20.0769 14.83C20.6929 15.3713 21.0009 16.1087 21.0009 17.042C21.0009 18.0407 20.4456 19.1047 19.3349 20.234L17.1229 22.446H21.1829V24H14.7289Z" fill="#94A0B4"/>
<path d="M40.963 18.026C40.919 17.8964 40.838 17.7826 40.73 17.6985C40.6221 17.6144 40.4918 17.5638 40.3554 17.5529L36.3647 17.2358L34.6378 13.4136C34.5828 13.2905 34.4933 13.186 34.3802 13.1126C34.2671 13.0392 34.1351 13.0001 34.0003 13C33.8654 12.9999 33.7335 13.0389 33.6203 13.1121C33.5071 13.1854 33.4175 13.2899 33.3624 13.4129L31.6354 17.2358L27.6447 17.5529C27.5106 17.5635 27.3825 17.6125 27.2755 17.6941C27.1686 17.7756 27.0874 17.8863 27.0417 18.0127C26.996 18.1392 26.9877 18.2762 27.0178 18.4073C27.0479 18.5383 27.1151 18.6579 27.2114 18.7518L30.1605 21.6263L29.1175 26.1421C29.0859 26.2788 29.096 26.4219 29.1467 26.5527C29.1973 26.6836 29.2861 26.7962 29.4016 26.8759C29.5171 26.9557 29.6538 26.9989 29.7941 27C29.9345 27.001 30.0719 26.9599 30.1885 26.8819L34.0001 24.3413L37.8116 26.8819C37.9308 26.9611 38.0714 27.0018 38.2145 26.9987C38.3576 26.9956 38.4963 26.9487 38.612 26.8644C38.7276 26.7801 38.8147 26.6624 38.8614 26.5271C38.9082 26.3919 38.9124 26.2456 38.8735 26.1078L37.5932 21.6284L40.7684 18.7714C40.9763 18.5838 41.0526 18.2913 40.963 18.026Z" fill="#94A0B4"/>
</svg>
