<svg width="24" height="25" viewBox="0 0 24 25" fill="none" xmlns="http://www.w3.org/2000/svg">
<rect opacity="0.5" y="0.5" width="24" height="24" rx="6" fill="white"/>
<path d="M14.2037 6.25H9.89332C8.1153 6.25 7 7.49117 7 9.48257V17.7019C7 18.2807 7.45833 18.75 8.02371 18.75C8.19488 18.75 8.36335 18.7063 8.51401 18.6231L12.0216 16.6759L16.1056 18.6342C16.2164 18.6818 16.341 18.6824 16.4522 18.6358C16.5634 18.5892 16.6519 18.4993 16.6983 18.3859C16.7667 18.1769 16.6838 17.9473 16.4989 17.8343L12.4418 15.8925C12.1768 15.7434 11.8556 15.7434 11.5905 15.8925L8.07759 17.8343C8.0373 17.8569 7.98856 17.8569 7.94828 17.8343C7.90997 17.8091 7.88746 17.7651 7.88901 17.7184V9.48257C7.8944 8.00971 8.61638 7.17123 9.90949 7.17123H14.2198C15.8793 7.17123 16.1218 8.55031 16.1218 9.37776V9.75287H11.4558C11.3372 9.75718 11.2251 9.8096 11.1443 9.89859C11.0634 9.98757 11.0204 10.1058 11.0248 10.2273C11.0305 10.4685 11.2202 10.6628 11.4558 10.6686H16.1056V15.4954C16.1056 15.7482 16.3058 15.9532 16.5528 15.9532C16.7977 15.9532 16.9971 15.7516 17 15.5009V9.37776C17 7.44704 15.9332 6.25 14.2037 6.25Z" fill="white"/>
</svg>
