<svg id="Layer_1" data-name="Layer 1" xmlns="http://www.w3.org/2000/svg" viewBox="0 0 311.35 311.34"><defs><style>.cls-1{fill:#eef2f8;}.cls-2{fill:#dce1ea;}</style></defs><title>Loader</title><polygon class="cls-1" points="157.81 210.1 157.81 166.84 101.63 61.23 101.39 61.87 107.62 134.82 157.81 210.1"/><polygon class="cls-1" points="101.39 61.87 29.86 251.1 107.62 134.82 101.39 61.87"/><polygon class="cls-2" points="29.86 251.1 28.6 254.49 105.56 192.69 106.05 193.4 107.62 134.82 29.86 251.1"/><polygon class="cls-2" points="107.62 134.82 106.05 193.4 157.81 267.98 157.81 210.1 107.62 134.82"/><polygon class="cls-1" points="157.81 210.18 157.81 166.92 213.99 61.31 214.23 61.95 208 134.9 157.81 210.18"/><polygon class="cls-1" points="214.23 61.95 285.75 251.17 208 134.9 214.23 61.95"/><polygon class="cls-2" points="285.75 251.17 287.02 254.56 210.06 192.76 209.57 193.48 208 134.9 285.75 251.17"/><polygon class="cls-2" points="208 134.9 209.57 193.48 157.81 268.05 157.81 210.18 208 134.9"/><polygon class="cls-1" points="180.78 72 193.76 44.94 192.07 46.57 167.64 77.81 180.78 72"/><polygon class="cls-1" points="189.02 77.81 189.02 77.81 189.02 77.81 189.02 77.81"/><polygon class="cls-1" points="189.02 77.81 167.64 77.81 192.07 46.57 153.88 83.7 177.19 83.97 189.02 77.81 189.02 77.81"/><polygon class="cls-1" points="189.02 77.81 209.68 46.01 212.01 41.56 187.02 72.47 180.56 72.47 180.78 72 167.64 77.81 189.02 77.81"/><polygon class="cls-1" points="189.02 77.81 177.19 83.97 178.31 83.98 157.81 108.71 157.81 125.84 189.02 77.81"/><polygon class="cls-1" points="189.02 77.81 189.02 77.81 189.02 77.81 157.81 125.84 107.47 46.4 103.87 41.94 157.81 144.57 209.68 46.01 189.02 77.81"/><polygon class="cls-1" points="157.81 108.71 107.47 46.4 157.81 125.84 157.81 108.71"/><path class="cls-1" d="M257.78,133.27a15.66,15.66,0,1,1-15.65-15.66A15.66,15.66,0,0,1,257.78,133.27Z" transform="translate(-84.32 -85.09)"/><path class="cls-1" d="M253.92,133.27a11.8,11.8,0,1,1-11.79-11.8A11.8,11.8,0,0,1,253.92,133.27Z" transform="translate(-84.32 -85.09)"/><path class="cls-1" d="M103.74,240.76c0-75.13,61.12-136.25,136.26-136.25s136.24,61.12,136.24,136.25a135.65,135.65,0,0,1-13.18,58.46l8.95,24a154.73,154.73,0,0,0,23.67-82.41c0-85.83-69.84-155.67-155.67-155.67S84.32,154.93,84.32,240.76A154.8,154.8,0,0,0,110,326.35l8.72-23.47A135.44,135.44,0,0,1,103.74,240.76Z" transform="translate(-84.32 -85.09)"/><path class="cls-1" d="M240,377a136,136,0,0,1-103.75-48L120.9,340.89a155.48,155.48,0,0,0,239.72-1.84l-15.73-11.43A136,136,0,0,1,240,377Z" transform="translate(-84.32 -85.09)"/></svg>