<svg width="257" height="250" viewBox="0 0 257 250" fill="none" xmlns="http://www.w3.org/2000/svg">
<path fill-rule="evenodd" clip-rule="evenodd" d="M128.386 26.384C52.7915 39.0826 0.0749817 82.2289 0.0749817 151.117C0.0749817 233.687 65.5656 147.895 110.724 196.036C155.883 244.176 252.094 245.541 256.696 151.117C261.004 62.7244 203.98 13.6853 128.386 26.384Z" fill="url(#paint0_linear_2371_11397)"/>
<path fill-rule="evenodd" clip-rule="evenodd" d="M167.027 159.869L147.03 134.002L146.571 134.365C143.618 136.687 141.276 138.217 139.545 138.956L139.033 139.173C130.719 142.67 125.002 143.858 125.921 144.679L127.058 145.702C134.407 152.335 144.468 161.981 157.242 174.64C158.992 176.525 161.349 177.735 163.896 178.058L166.53 178.372C192.388 181.433 208.977 181.697 215.056 180.351C216.326 180.07 220.233 180.804 223.184 183.768C227.609 188.213 233.938 198.921 235.001 198.921C236.546 198.921 235.09 191.829 230.633 177.644L230.162 175.996C228.085 168.797 226.592 164.54 225.68 163.226C224.702 161.815 221.396 164.307 215.764 170.701L215.916 171.532C215.186 170.684 214.319 169.782 213.317 168.825L210.655 168.507C201.254 167.365 194.107 166.321 189.216 165.375L188.701 165.274C183.402 164.224 176.177 162.422 167.027 159.869Z" fill="white"/>
<path fill-rule="evenodd" clip-rule="evenodd" d="M42.5028 133.071L35.0678 138.673C33.6409 139.747 32.5946 141.253 32.0845 142.965L30.6761 147.682C30.0135 149.109 30.5929 150.805 31.9905 151.526L34.6163 153.475C36.3052 154.346 38.3639 153.402 38.8076 151.553L40.2854 146.295C40.2854 146.295 46.5509 144.392 47.3845 136.935L42.5028 133.071Z" fill="white"/>
<path fill-rule="evenodd" clip-rule="evenodd" d="M78.3393 41.0494C73.2588 41.2562 70.7058 48.2184 69.0446 51.66C68.4791 52.8324 72.4581 87.4817 73.7588 96.3481C76.0743 112.138 83.0725 117.145 87.466 118.22C87.466 118.22 87.2026 136.171 89.0427 140.64C93.1173 150.533 144.694 143.892 149.735 127.357C153.181 116.053 140.375 114.735 135.569 107.92C126.761 95.4291 126.304 83.8041 116.816 75.4878C113.22 71.5472 109.045 67.5918 105.444 62.8357L103.98 60.9082C94.8216 48.9098 87.8475 40.9491 78.8165 41.0373L78.3393 41.0494Z" fill="white"/>
<path fill-rule="evenodd" clip-rule="evenodd" d="M103.813 71.0832C104.655 71.489 105.886 71.6149 106.324 70.7906C107.702 68.2027 111.917 67.8469 113.709 70.1673C111.989 69.5763 109.986 69.0122 108.448 69.983C108.02 70.2532 107.651 70.6319 107.285 71.0066C106.676 71.6309 106.077 72.2441 105.238 72.3264C104.614 72.3876 104.021 72.125 103.43 71.8636C102.795 71.5832 102.164 71.3041 101.503 71.4285C100.769 71.5666 100.254 72.1505 99.7394 72.7346C99.2262 73.317 98.7128 73.8995 97.9816 74.0406C97.3832 74.1562 96.782 73.9415 96.1862 73.7288C95.5203 73.491 94.8611 73.2557 94.2202 73.4866C93.4553 73.7623 93.1056 74.5507 92.7556 75.3398C92.4075 76.1248 92.059 76.9105 91.3012 77.193C90.8522 77.3605 90.3674 77.2998 89.8887 77.2064L89.4136 77.1094C88.2946 76.8868 87.0859 76.8668 86.0621 77.3706C85.1825 77.8034 84.4894 78.6995 84.4327 79.6559C84.41 79.4494 84.3897 79.2435 84.3719 79.038L84.1945 77.8735C85.2098 76.6823 86.8048 76.008 88.3672 76.1118C88.6351 76.1296 88.9028 76.1687 89.1701 76.2078C89.6848 76.283 90.1982 76.3581 90.7092 76.2804C91.4855 76.1622 92.2738 75.5018 92.1428 74.7282L92.1311 74.6448C91.9887 73.3492 93.7252 72.6061 95.0596 72.7152C95.343 72.7384 95.6334 72.7761 95.9255 72.814C97.0381 72.9585 98.1759 73.1063 99.0497 72.4667C99.3873 72.2196 99.6481 71.8736 99.9064 71.531C100.268 71.0516 100.624 70.5786 101.179 70.3922C101.792 70.1862 102.416 70.4022 103.021 70.6892L103.221 70.7871L103.813 71.0832ZM113.49 80.0933C112.911 80.8705 111.719 80.4352 110.799 80.0991L110.751 80.0816C108.283 79.1812 105.309 79.8838 103.506 81.7934C102.517 82.8404 101.054 82.5478 99.5388 82.2448C98.2733 81.9917 96.9716 81.7314 95.8805 82.2391C95.3703 82.4764 94.8967 82.8779 94.4327 83.2713C93.5824 83.9921 92.764 84.6859 91.8108 84.2932C90.0033 83.5484 87.785 83.9456 86.3333 85.249L86.3383 85.6597L86.3447 86.5656C87.7872 85.1204 90.1234 84.6524 92.0114 85.4304C92.9645 85.8231 93.7829 85.1293 94.6332 84.4085C95.0972 84.0151 95.5708 83.6136 96.081 83.3762C97.1722 82.8686 98.4738 83.1289 99.7393 83.382C101.254 83.685 102.717 83.9776 103.706 82.9306C105.474 81.0592 108.365 80.347 110.803 81.1667L111.289 81.3411C112.157 81.6487 113.171 81.9282 113.691 81.2305C115.331 79.0293 118.624 78.2577 121.071 79.5012L120.755 78.3069L120.61 78.2405C118.194 77.1764 115.073 77.9694 113.49 80.0933ZM119.11 89.9091C120.016 90.2803 121.191 90.7611 121.8 90.0066C122.908 88.6322 125.441 88.532 129.397 89.7059C129.095 89.9113 128.315 89.891 127.352 89.866C125.54 89.8189 123.082 89.755 121.956 91.1507C121.41 91.828 120.407 91.5097 119.552 91.169L119.073 90.976C116.668 90.0634 113.752 90.6641 111.914 92.4662C110.885 93.4745 109.434 93.1259 107.932 92.765C106.677 92.4635 105.387 92.1534 104.277 92.6188C103.758 92.8364 103.269 93.2194 102.791 93.5947C101.913 94.2824 101.069 94.9442 100.131 94.5152L100.001 94.4579C98.9387 94.0096 96.8982 94.7652 95.0487 95.4499C93.7031 95.9482 92.4586 96.4089 91.7655 96.3415C96.0533 93.8188 98.7897 92.8287 99.9748 93.3712L100.069 93.4108C100.969 93.7557 101.786 93.1152 102.634 92.4507C103.113 92.0754 103.601 91.6924 104.12 91.4748C105.23 91.0094 106.521 91.3195 107.776 91.621C109.278 91.9819 110.729 92.3304 111.757 91.3222C113.633 89.4832 116.631 88.8953 119.062 89.8898L119.11 89.9091ZM110.704 131.557C109.617 132.255 108.208 133.159 107.202 132.663C105.425 131.786 102.222 132.564 97.5939 134.996L97.1488 135.232C97.6023 135.316 98.6206 135.003 99.8764 134.617C102.242 133.889 105.45 132.903 107.311 133.821C108.215 134.267 109.442 133.584 110.471 132.934L111.047 132.568C113.763 130.901 117.432 130.339 120.275 131.125C121.187 131.505 122.457 131.06 123.852 130.572L123.852 130.572C124.8 130.24 125.807 129.888 126.799 129.76C128.022 129.604 128.652 129.698 129.205 129.78C129.76 129.863 130.237 129.935 131.158 129.729C131.87 129.57 133.008 129.072 134.571 128.236C137.343 126.905 142.255 127.067 144.84 127.992L144.979 128.04C147.743 128.953 147.719 127.952 144.941 126.91L144.73 126.833L144.564 126.775C141.61 125.792 136.141 125.899 133.278 127.736L133.222 127.772C132.134 128.47 130.725 129.374 129.719 128.878L129.645 128.844C128.941 128.555 127.294 128.56 126.784 128.594L126.69 128.602C124.971 128.792 124.597 128.948 124.189 129.246L123.896 129.467L123.729 129.532C123.108 129.774 122.449 130.06 121.753 130.39C121.465 130.364 121.133 130.289 120.742 130.149L120.576 130.091C117.623 129.108 113.623 129.684 110.761 131.52L110.704 131.557ZM123.5 98.5682C122.856 99.3226 121.614 98.8418 120.654 98.4706L120.604 98.4513C118.032 97.4569 114.86 98.0448 112.876 99.8838C111.788 100.892 110.253 100.543 108.664 100.183C107.336 99.8811 105.971 99.571 104.797 100.036C104.248 100.254 103.731 100.637 103.224 101.012C102.327 101.677 101.463 102.317 100.511 101.972L100.411 101.933C99.1573 101.39 96.2624 102.38 91.7263 104.903C92.4596 104.971 93.7761 104.51 95.1997 104.012C97.1563 103.327 99.315 102.571 100.439 103.019L100.577 103.077C101.569 103.506 102.462 102.844 103.39 102.156C103.897 101.781 104.413 101.398 104.962 101.18C106.137 100.715 107.502 101.025 108.83 101.327C110.419 101.687 111.954 102.036 113.042 101.028C114.986 99.2256 118.071 98.625 120.615 99.5376L121.122 99.7306C122.027 100.071 123.088 100.39 123.666 99.7123C124.857 98.3166 127.457 98.3805 129.374 98.4276C130.393 98.4526 131.218 98.4729 131.538 98.2675C127.352 97.0935 124.673 97.1938 123.5 98.5682ZM124.153 107.889C125.257 108.26 126.686 108.741 127.427 107.986C128.776 106.612 131.859 106.511 136.675 107.685C136.307 107.891 135.357 107.871 134.186 107.846C131.98 107.798 128.988 107.735 127.618 109.13C126.953 109.807 125.733 109.489 124.691 109.148L124.108 108.956C121.181 108.043 117.631 108.644 115.394 110.446C114.142 111.454 112.376 111.105 110.548 110.745C109.021 110.443 107.45 110.133 106.099 110.598C105.467 110.816 104.872 111.199 104.29 111.574C103.222 112.262 102.194 112.924 101.053 112.495L100.894 112.437C99.6012 111.989 97.1176 112.745 94.8664 113.429C93.2285 113.928 91.7138 114.388 90.8701 114.321C96.0891 111.798 99.4198 110.808 100.862 111.351L100.977 111.39C102.072 111.735 103.067 111.095 104.099 110.43C104.682 110.055 105.276 109.672 105.908 109.454C107.259 108.989 108.83 109.299 110.357 109.6C112.186 109.961 113.952 110.31 115.203 109.302C117.486 107.463 121.136 106.875 124.095 107.869L124.153 107.889ZM132.725 115.263C131.894 116.018 130.291 115.537 129.053 115.166L128.988 115.147C125.669 114.152 121.576 114.74 119.016 116.579C117.612 117.587 115.632 117.239 113.581 116.878C111.868 116.576 110.106 116.266 108.591 116.732C107.883 116.949 107.216 117.332 106.562 117.708C105.405 118.372 104.29 119.013 103.061 118.668L102.932 118.628C101.315 118.086 97.5793 119.076 91.7263 121.598C92.6725 121.666 94.3713 121.205 96.2081 120.707C98.7328 120.022 101.518 119.266 102.968 119.715L103.146 119.772C104.426 120.201 105.579 119.539 106.776 118.852C107.43 118.476 108.097 118.093 108.805 117.876C110.32 117.41 112.082 117.72 113.795 118.022C115.846 118.383 117.826 118.731 119.23 117.723C121.739 115.921 125.72 115.32 129.002 116.233L129.657 116.426C130.824 116.767 132.193 117.085 132.939 116.408C134.475 115.012 137.83 115.076 140.305 115.123H140.305H140.305H140.305C141.618 115.148 142.683 115.168 143.096 114.963C137.695 113.789 134.238 113.889 132.725 115.263ZM132.905 121.587C134.143 121.958 135.747 122.439 136.577 121.685C138.091 120.31 141.548 120.21 146.949 121.384C146.536 121.589 145.471 121.569 144.157 121.544H144.157H144.157C141.683 121.497 138.328 121.433 136.791 122.829C136.046 123.506 134.677 123.188 133.509 122.847L132.855 122.654C129.785 121.8 126.103 122.271 123.586 123.81C122.814 124.427 121.472 124.349 119.996 124.265C118.992 124.207 117.927 124.146 116.939 124.297C115.72 124.483 115.14 124.747 114.632 124.979C114.121 125.212 113.682 125.412 112.74 125.468C111.648 125.533 109.048 124.974 109.048 124.974C106.017 124.459 101.34 125.967 99.1099 127.569L98.9889 127.654C96.525 129.334 96.3194 128.276 98.896 126.425L99.0398 126.324C101.608 124.565 106.895 123.16 110.153 124.136L110.217 124.156C111.455 124.527 113.058 125.008 113.889 124.253C114.468 123.727 116.36 123.215 116.725 123.153C118.653 122.824 118.915 122.927 119.5 123.157C119.532 123.17 119.565 123.183 119.599 123.196C119.615 123.202 119.632 123.209 119.649 123.215L119.827 123.231C120.491 123.292 121.203 123.386 121.964 123.511C122.233 123.407 122.531 123.243 122.869 123L123.012 122.899C125.58 121.14 129.583 120.592 132.841 121.568L132.905 121.587Z" fill="#E23A2F"/>
<path fill-rule="evenodd" clip-rule="evenodd" d="M79.9784 46.2617C72.7561 46.2865 67.0561 52.4137 67.5431 59.627C67.5431 59.627 75.9653 96.2662 71.6964 109.289C70.0449 114.328 46.202 130.006 47.2097 131.616L50.5742 139.678C51.77 141.586 88.3658 117.106 88.3658 117.106C91.8768 114.319 92.5294 58.9066 92.5294 58.9066C92.5987 51.9278 86.9512 46.2371 79.9784 46.2617Z" fill="white"/>
<path d="M42.0707 133.071L46.3713 141.926L46.4573 142.163C46.8151 143.081 48.1829 143.642 48.3587 143.687L48.3846 143.687L50.9243 142.184C51.2152 141.94 51.3746 140.569 51.067 139.293L50.9947 139.025C50.9947 139.025 48.9812 131.953 47.3134 130.167C46.3408 129.125 40.7235 130.167 42.0707 133.071Z" fill="white"/>
<path fill-rule="evenodd" clip-rule="evenodd" d="M103.338 214.739H113.605C113.605 214.739 101.555 183.455 101.555 175.245C101.555 172.698 111.027 176.535 109.653 172.698C107.764 167.423 101.226 157.99 102.836 153.254C104.52 148.302 110.802 146.508 116.272 144.501C117.321 144.116 98.1988 145.444 92.954 141.272C86.0354 135.769 91.6528 123.615 89.7947 127.9C87.5529 133.071 72.9862 146.042 75.8737 160.087C78.6867 173.771 103.338 214.739 103.338 214.739Z" fill="white"/>
<path fill-rule="evenodd" clip-rule="evenodd" d="M106.897 220.772L107.866 220.45C107.949 220.423 107.959 220.309 107.882 220.267L106.954 219.763V218.594C106.954 218.508 106.852 218.462 106.788 218.519L106.02 219.194L104.755 218.528C104.667 218.482 104.573 218.578 104.621 218.665L105.341 219.978L103.949 221.433C103.878 221.506 103.951 221.626 104.049 221.598L105.965 221.045L106.71 222.358C106.761 222.448 106.897 222.412 106.897 222.309V221.73V220.772Z" fill="#E23A2F"/>
<path fill-rule="evenodd" clip-rule="evenodd" d="M132.926 151.728C133.372 152.191 133.813 152.66 134.254 153.128C135.089 154.015 135.923 154.902 136.793 155.752C138.421 157.344 140.065 158.927 141.792 160.408C143.935 162.244 146.131 164.024 148.376 165.733C150.918 167.667 153.52 169.522 156.134 171.357C156.273 171.454 156.411 171.552 156.55 171.65L156.55 171.651C157.883 172.596 159.215 173.541 160.928 173.833C161.417 173.917 161.875 174.162 162.336 174.409C162.702 174.605 163.071 174.803 163.458 174.921C166.13 175.731 168.815 176.502 171.518 177.202C173.177 177.631 174.871 177.938 176.561 178.232C177.613 178.415 183.638 179.373 187.646 179.955C191.654 180.536 204.909 180.536 208.218 180.467C210.075 180.429 211.932 180.364 213.788 180.293L213.884 180.29C214.262 180.276 214.664 180.262 214.993 180.113C216.816 179.287 218.227 180.187 219.656 181.098L219.759 181.164C221.636 182.359 222.784 184.158 223.919 186C224.522 186.978 225.161 187.935 225.8 188.891L225.8 188.891C226.487 189.921 227.175 190.95 227.817 192.007C228.668 193.406 229.427 194.862 230.185 196.317L230.185 196.317L230.187 196.32C230.323 196.581 230.458 196.841 230.594 197.101C231.597 199.014 233.1 200.127 235.257 200.539C236.329 200.743 237.247 200.425 238.163 200.107C238.502 199.99 238.842 199.872 239.188 199.781C239.867 199.604 240.413 197.771 240.171 197.045C239.465 194.928 238.758 192.811 238.05 190.694L238.05 190.694C236.571 186.27 235.093 181.847 233.627 177.419C232.603 174.327 231.604 171.227 230.604 168.126L230.603 168.122C230.321 167.248 230.039 166.373 229.757 165.499C229.622 165.082 229.494 164.663 229.366 164.244L229.366 164.244C229.154 163.549 228.942 162.854 228.699 162.17C228.62 161.946 228.291 161.67 228.067 161.661C226.45 161.596 224.897 161.992 223.422 162.597C220.633 163.742 218.487 165.672 216.912 168.242C216.494 168.923 215.765 169.168 214.846 169.006C214.402 168.928 213.955 168.869 213.507 168.81C212.824 168.719 212.141 168.629 211.473 168.471C209.989 168.118 208.487 168.107 206.985 168.095H206.985C206.018 168.087 205.051 168.079 204.089 167.981C203.428 167.913 202.764 167.874 202.099 167.836C201.212 167.784 200.326 167.732 199.448 167.612C197.851 167.392 196.262 167.115 194.673 166.838C193.92 166.707 193.167 166.576 192.412 166.451C191.802 166.349 191.19 166.254 190.579 166.158L190.578 166.158L190.578 166.158L190.577 166.158L190.577 166.158L190.576 166.158L190.575 166.157L190.575 166.157C189.397 165.973 188.22 165.789 187.05 165.564C185.552 165.277 184.065 164.926 182.58 164.576L182.043 164.449C180.473 164.08 178.907 163.698 177.34 163.317L177.339 163.317L177.339 163.317L177.339 163.317L177.338 163.316L177.338 163.316L177.337 163.316L177.337 163.316C176.678 163.156 176.02 162.996 175.361 162.836C175.29 162.819 175.22 162.801 175.149 162.783L175.051 162.758C175.087 162.739 175.123 162.72 175.159 162.701C175.237 162.661 175.315 162.621 175.389 162.575C175.617 162.434 175.852 162.301 176.087 162.168C176.623 161.864 177.16 161.56 177.617 161.164C178.644 160.273 178.293 158.793 176.988 158.399C175.993 158.099 174.967 157.797 173.94 157.728C172.556 157.635 171.295 157.176 170.033 156.715L170.033 156.715L170.033 156.715L170.033 156.715L170.032 156.715L170.032 156.715L170.032 156.715L170.032 156.715C169.525 156.53 169.018 156.346 168.503 156.184C167.286 155.804 166.556 155.088 165.945 153.992C165.651 153.465 165.22 153.017 164.787 152.567C164.482 152.251 164.176 151.933 163.917 151.586C162.571 149.788 161.263 147.961 159.99 146.111C159.719 145.717 159.501 145.288 159.284 144.858C159.118 144.529 158.951 144.2 158.761 143.886C158.314 143.152 157.859 142.408 157.307 141.754L157.234 141.668L157.234 141.667C155.968 140.166 154.698 138.661 153.321 137.264C152.571 136.503 151.742 135.819 150.913 135.135L150.913 135.135L150.913 135.134L150.912 135.134C150.521 134.811 150.13 134.488 149.747 134.157C149.553 133.989 149.367 133.808 149.205 133.611C148.925 133.273 148.81 132.992 149.232 132.592L149.354 132.476C149.423 132.412 149.491 132.347 149.56 132.283L149.563 132.28C150.663 131.246 151.774 130.201 152.376 128.769C152.438 128.621 152.501 128.473 152.564 128.325L152.566 128.318C153.049 127.179 153.537 126.028 153.812 124.834C154.181 123.227 154.032 121.592 153.553 119.973C152.883 117.707 151.48 115.99 149.579 114.758C148.407 113.998 147.173 113.333 145.939 112.668C145.025 112.176 144.11 111.683 143.22 111.151C142.532 110.74 141.943 110.141 141.369 109.558C141.314 109.502 141.259 109.446 141.204 109.391C138.619 106.775 136.818 103.61 135.023 100.457C134.832 100.122 134.641 99.7868 134.45 99.4526C132.715 96.4256 131.158 93.2929 129.607 90.1652C129.16 89.2643 128.777 88.3319 128.394 87.3994L128.393 87.3989C128.055 86.5748 127.716 85.7504 127.333 84.9476C127.031 84.3129 126.658 83.7126 126.284 83.1118L126.284 83.1116C126.01 82.6702 125.735 82.2286 125.489 81.7729C125.224 81.2835 124.982 80.7804 124.74 80.2777L124.74 80.2776C124.373 79.516 124.007 78.755 123.562 78.0429C123.243 77.5342 122.782 77.1147 122.321 76.6958C122.128 76.5205 121.935 76.3452 121.753 76.1635C121.526 75.9373 121.295 75.7151 121.064 75.4928L121.063 75.4922C120.822 75.2602 120.582 75.0282 120.345 74.7917C119.928 74.3747 119.516 73.9521 119.117 73.5185C118.349 72.685 117.577 71.8552 116.805 71.0253L116.805 71.0252C114.9 68.9787 112.996 66.9322 111.155 64.8302C108.998 62.3677 106.946 59.8091 104.93 57.228C104.129 56.2019 103.406 55.1139 102.684 54.026L102.684 54.0258L102.684 54.0256L102.684 54.0253C102.362 53.5407 102.04 53.0561 101.712 52.5769C101.693 52.5499 101.678 52.5202 101.662 52.4905C101.641 52.4483 101.619 52.4063 101.588 52.3723C101.066 51.7974 100.55 51.2171 100.033 50.6367C98.8205 49.2741 97.6078 47.9115 96.3248 46.6189C94.421 44.701 92.2402 43.1107 89.8732 41.7862C89.5123 41.5843 89.1643 41.3551 88.8168 41.1261L88.8166 41.126C88.2689 40.7652 87.7224 40.4051 87.1285 40.1539C86.9915 40.096 86.8537 40.0368 86.715 39.9772L86.7146 39.9771L86.7142 39.9769L86.7064 39.9736L86.7048 39.9728C85.5701 39.4853 84.3804 38.9742 83.2092 38.9502C80.7376 38.8996 78.1683 38.9276 76.0936 40.6746C75.7005 41.0056 75.5958 40.9276 75.5587 40.4849C75.5233 40.0621 75.4515 39.6267 75.3798 39.1911C75.2126 38.1766 75.0453 37.1612 75.3367 36.3025C75.5129 35.7834 75.5745 35.2594 75.6355 34.74C75.7045 34.1526 75.7728 33.5709 76.0056 33.0084C76.7839 31.1281 77.4785 29.2125 78.1727 27.2978L78.1798 27.2781L78.2647 27.0441L78.3593 26.7834L78.4862 26.4341C78.7035 25.8366 78.8801 25.209 78.9607 24.5805C79.0183 24.1313 79.0377 23.6771 79.057 23.2229C79.0768 22.7567 79.0967 22.2906 79.1579 21.83C79.3758 20.1914 78.8078 18.7517 78.2375 17.3063L78.2375 17.3061L78.2374 17.306C78.1333 17.0422 78.0292 16.7782 77.9297 16.5128C76.7178 13.2786 74.4473 10.8326 71.996 8.53568C69.8854 6.55807 66.3891 5.93586 63.5615 5.44817C62.5171 5.26804 55.1862 5.09574 51.315 5.00476C50.0518 4.97507 49.157 4.95404 48.9691 4.94422C48.2056 4.9043 47.6883 4.54912 47.1712 4.16778C46.1039 3.3807 45.8299 2.16 45.5602 0.958799V0.958742L45.5599 0.957408L45.5596 0.9561C45.5332 0.838563 45.5069 0.721216 45.4799 0.604483C45.4732 0.575893 45.4671 0.547917 45.461 0.520647C45.3914 0.205679 45.3427 -0.0150989 44.869 0.000807208C43.2882 0.0538949 42.4751 1.08627 41.7009 2.26593C40.8292 3.59432 40.1231 4.97946 39.8807 6.56285C39.5856 8.49079 39.7442 10.2816 41.1152 11.8693C42.2302 13.1606 43.528 14.1475 44.9943 14.9757C45.1889 15.0856 45.3119 15.6678 45.2041 15.9164C44.0991 18.4649 44.0169 21.1515 44.1249 23.8488C44.1511 24.5035 44.2572 25.1547 44.3632 25.8061C44.4637 26.4232 44.5643 27.0406 44.5969 27.6612C44.6906 29.441 44.3268 31.1528 43.613 32.808C43.1287 33.9309 43.4687 34.9943 44.2809 35.8768C44.42 36.028 44.5934 36.1546 44.7653 36.28C45.0072 36.4565 45.2461 36.6309 45.3825 36.8687C45.6911 37.4067 45.906 38.054 45.9561 38.671C45.9945 39.1432 45.9438 39.6216 45.893 40.101C45.8614 40.399 45.8298 40.6973 45.8195 40.9949C45.7797 42.1402 46.2152 43.1198 46.8028 44.0976C47.866 45.8669 49.2694 47.1687 51.3059 47.5948C53.0508 47.96 54.8628 47.9817 56.5478 47.4074C58.4608 46.7554 60.3258 45.9209 62.1259 44.9977C62.637 44.7356 63.0417 44.2646 63.4461 43.794L63.4463 43.7938C63.6272 43.5833 63.808 43.3728 63.9983 43.1812C64.2801 42.8973 64.4225 42.8148 64.7971 43.2116C66.1352 44.6287 67.1078 46.2386 67.8938 48.016C68.3276 48.997 68.0464 49.8032 67.7468 50.6622L67.7116 50.7632L67.6262 51.0083C67.2108 52.1973 66.7974 53.3806 66.8296 54.6816C66.8455 55.325 66.833 55.9703 66.8205 56.6152V56.6159V56.6165V56.6171V56.6177V56.6183V56.619V56.6196C66.8008 57.6409 66.781 58.6615 66.8736 59.6725C66.9726 60.754 67.2155 61.8225 67.4582 62.8907L67.4583 62.8908C67.5559 63.3206 67.6536 63.7504 67.7419 64.1808C67.8344 64.6323 67.9251 65.0843 68.0157 65.5363L68.0173 65.5443L68.019 65.5524C68.2966 66.9367 68.5742 68.3211 68.906 69.6923C69.0596 70.3268 69.2705 70.947 69.4815 71.5675L69.4816 71.5679C69.6543 72.0757 69.8271 72.5837 69.9685 73.0999C70.1324 73.698 70.2984 74.2957 70.4644 74.8935L70.4647 74.8945L70.4648 74.8946L70.4648 74.8948L70.4648 74.8949L70.4649 74.895L70.4649 74.8952L70.465 74.8953C71.1103 77.2191 71.7559 79.5437 72.2783 81.8953C72.7258 83.9094 72.9839 85.9815 73.1342 88.0417C73.2282 89.33 73.214 90.6258 73.1998 91.922C73.192 92.6387 73.1841 93.3555 73.1946 94.0712C73.2025 94.612 73.2305 95.1526 73.2586 95.6932L73.2587 95.6941C73.2944 96.3817 73.3301 97.0692 73.3242 97.7565L73.3228 97.9381L73.3204 98.2597L73.3183 98.5797V98.5799V98.5802V98.5804V98.5807V98.5809V98.5812V98.5814C73.3062 100.396 73.2941 102.214 73.1346 104.018C72.9755 105.817 72.6342 107.61 72.2396 109.376C71.9154 110.827 70.9209 111.948 69.9339 112.999C69.4202 113.546 68.8506 114.04 68.2806 114.535L68.2805 114.535C67.8819 114.88 67.4831 115.226 67.1031 115.591C66.8428 115.84 66.6084 116.118 66.3743 116.396C66.0833 116.742 65.7927 117.087 65.4532 117.376C64.3457 118.318 63.2193 119.238 62.0929 120.158L62.0927 120.158L62.0924 120.158L62.0922 120.158L62.092 120.158L62.0917 120.159L62.0915 120.159L62.0906 120.16C61.2356 120.858 60.3806 121.556 59.5338 122.264C58.7742 122.899 58.0259 123.548 57.2776 124.197C56.5213 124.852 55.7651 125.508 54.9972 126.149C53.9477 127.026 52.8832 127.891 51.7715 128.685C51.2484 129.059 50.7006 129.398 50.1528 129.737L50.1526 129.737L50.1525 129.738L50.1524 129.738L50.1522 129.738L50.1521 129.738L50.152 129.738L50.1518 129.738L50.1513 129.738C49.5845 130.089 49.0177 130.44 48.4784 130.83C47.8308 131.297 47.3285 131.034 46.8289 130.772C46.6568 130.682 46.4851 130.592 46.3078 130.532C44.868 130.046 43.729 130.229 43.1888 131.614C43.0806 131.891 42.9154 132.141 42.7492 132.392L42.7491 132.392C42.4469 132.849 42.1411 133.311 42.1675 133.955C42.1757 134.157 41.7404 134.397 41.3676 134.603L41.3673 134.603L41.3633 134.605L41.362 134.606C41.2749 134.654 41.1913 134.701 41.1178 134.744C40.0209 135.391 38.9108 136.016 37.8 136.639C37.5632 136.772 37.3181 136.894 37.0731 137.015L37.0728 137.015C36.6015 137.249 36.1309 137.482 35.7213 137.796C35.3042 138.115 34.9255 138.486 34.5468 138.856L34.5467 138.856C34.167 139.227 33.7873 139.599 33.3688 139.919C32.5071 140.579 32.0186 141.487 31.5331 142.389C31.3548 142.721 31.1769 143.052 30.9811 143.369C30.4403 144.245 30.128 145.321 29.9482 146.349C29.7058 147.734 29.6073 149.159 29.6131 150.567C29.6156 151.155 29.9722 151.786 30.2997 152.317C30.6526 152.888 31.1817 152.969 31.6916 152.417C31.7334 152.372 31.7921 152.342 31.8508 152.313L31.874 152.301C31.8832 152.296 31.8924 152.291 31.9015 152.287C31.9114 152.281 31.9212 152.276 31.9307 152.27C31.9346 152.304 31.9382 152.339 31.9418 152.373C31.9498 152.448 31.9577 152.523 31.968 152.597C32.0007 152.833 32.0266 153.072 32.0526 153.31C32.1165 153.898 32.1804 154.485 32.3452 155.042C32.4557 155.415 32.9351 155.909 33.2676 155.925C33.5227 155.937 33.7915 155.699 34.0574 155.464L34.0575 155.464C34.1643 155.369 34.2706 155.275 34.3754 155.198C34.4778 155.123 34.5649 155.024 34.6505 154.928L34.6781 154.897C34.7318 154.837 34.7794 154.771 34.8271 154.705C34.842 154.685 34.857 154.664 34.8721 154.643L34.891 154.618C34.9422 154.726 34.9909 154.836 35.045 154.942C35.0928 155.036 35.1345 155.137 35.1763 155.237L35.1764 155.238L35.1765 155.238L35.1766 155.238L35.1767 155.238L35.1768 155.239C35.271 155.465 35.3653 155.692 35.5279 155.847C36.1554 156.444 36.9995 156.211 37.2581 155.372C37.3927 154.936 37.5045 154.492 37.6163 154.048C37.7711 153.434 37.9258 152.82 38.1405 152.227C38.2291 151.982 38.3022 151.733 38.3754 151.483L38.3755 151.483C38.5894 150.753 38.8038 150.023 39.4048 149.408C39.8376 148.965 40.1023 148.354 40.3657 147.747C40.4683 147.51 40.5708 147.274 40.6829 147.048C41.3571 145.69 42.4711 144.802 43.7595 144.085C44.11 143.891 44.4587 143.676 44.7632 143.418C45.4386 142.844 45.9063 143.156 46.3171 143.74C46.9959 144.706 48.1214 145.061 49.1679 144.505C50.7716 143.653 52.0816 142.534 52.5173 140.618C52.5979 140.263 53.1212 139.95 53.5051 139.734C54.6593 139.083 55.8204 138.444 56.9815 137.805L56.9836 137.804C58.9105 136.744 60.8372 135.684 62.7318 134.569C65.0943 133.179 67.396 131.683 69.6959 130.188L69.6963 130.188L69.6967 130.187L69.697 130.187L69.6974 130.187L69.6978 130.187L69.6981 130.187L69.6985 130.186L70.3923 129.736C74.02 127.38 77.6341 125.003 81.2482 122.627L81.2537 122.623L82.5659 121.76L83.3711 121.231C84.163 120.71 84.9495 120.182 85.736 119.653L85.737 119.652L85.7396 119.65L85.7427 119.648C86.291 119.28 86.8393 118.911 87.3894 118.545C87.6098 118.399 87.8426 118.267 88.0818 118.154C88.7948 117.817 89.0042 117.938 89.0612 118.703C89.0622 118.716 89.0622 118.729 89.062 118.743L89.0618 118.757L89.0616 118.767C89.0615 118.774 89.0614 118.782 89.0615 118.789L89.1069 122.018V122.018V122.019V122.019V122.019V122.02V122.02V122.021C89.1483 124.971 89.1898 127.922 89.2334 130.873C89.2474 131.817 88.7531 132.541 88.2658 133.254L88.2657 133.254L88.2656 133.254L88.2655 133.254L88.2654 133.254C88.1668 133.398 88.0686 133.542 87.9749 133.687C86.2565 136.349 84.5026 138.988 82.7312 141.614C82.2452 142.335 81.7415 143.044 81.2378 143.753C80.4779 144.822 79.7181 145.892 79.0195 147.001C78.6652 147.563 78.4536 148.215 78.2421 148.868C78.1492 149.154 78.0563 149.44 77.9514 149.719C77.9035 149.846 77.8531 149.972 77.8025 150.099C77.6666 150.44 77.5305 150.781 77.4451 151.134C76.7552 153.989 77.0661 156.822 77.7481 159.624L77.8013 159.843L77.8846 160.187C78.3081 161.938 78.7336 163.696 79.3515 165.379C79.8471 166.728 80.4658 168.032 81.0846 169.336L81.0847 169.337L81.0848 169.337L81.0849 169.337L81.085 169.337L81.0851 169.337L81.0851 169.338L81.0852 169.338C81.3831 169.966 81.681 170.594 81.9652 171.227C82.4618 172.333 82.9419 173.446 83.4164 174.562C84.2209 176.454 85.0211 178.348 85.812 180.245C86.0991 180.934 86.3767 181.627 86.6543 182.32C87.2099 183.708 87.7656 185.096 88.3974 186.448C89.3071 188.395 90.3179 190.295 91.328 192.194L91.3287 192.195C91.4737 192.468 91.6186 192.74 91.7633 193.013C92.3944 194.202 93.0413 195.384 93.6882 196.565C94.3142 197.708 94.9403 198.851 95.5521 200.002C96.1102 201.052 96.6533 202.11 97.1964 203.167C97.777 204.298 98.3576 205.429 98.9564 206.549C99.8068 208.141 100.698 209.712 101.616 211.267C102.379 212.56 102.158 213.163 101.275 214.354C100.317 215.646 98.8284 216.078 97.3521 216.415C93.304 217.34 89.2472 218.226 85.1905 219.113L84.9822 219.159C84.5737 219.248 84.16 219.315 83.7465 219.381L83.7458 219.381C83.2806 219.456 82.8155 219.531 82.3578 219.638C80.0721 220.173 78.925 221.855 78.3136 223.941C77.9224 225.275 77.8072 226.708 78.8698 227.817C79.2713 228.236 80.0045 228.547 80.5878 228.549C88.104 228.574 95.6204 228.578 103.137 228.583C107.871 228.585 112.605 228.588 117.339 228.596C117.89 228.597 117.93 228.431 117.972 227.946C118.015 227.452 118.102 226.96 118.19 226.468L118.19 226.468C118.319 225.745 118.447 225.025 118.432 224.306C118.355 220.85 117.144 217.755 115.026 215.038C114.873 214.842 114.625 214.712 114.38 214.583C114.108 214.441 113.84 214.3 113.712 214.074C113.094 212.981 112.564 211.819 112.158 210.631C111.508 208.727 110.862 206.805 110.445 204.842C110.253 203.94 109.976 203.066 109.699 202.191L109.699 202.191L109.699 202.191L109.699 202.191L109.699 202.191L109.699 202.19L109.699 202.19L109.699 202.19C109.355 201.103 109.01 200.014 108.828 198.869C108.635 197.66 108.133 196.496 107.634 195.339L107.634 195.339L107.634 195.338L107.634 195.338L107.633 195.338L107.633 195.338L107.633 195.338L107.633 195.338L107.633 195.337C107.478 194.978 107.324 194.62 107.179 194.261C106.684 193.037 106.173 191.818 105.662 190.6C104.868 188.707 104.074 186.814 103.341 184.897C102.819 183.533 102.386 182.134 101.953 180.735L101.953 180.734L101.953 180.734L101.953 180.733L101.952 180.733L101.952 180.732L101.952 180.732L101.952 180.731L101.952 180.731L101.952 180.731L101.952 180.731L101.951 180.73L101.951 180.73L101.951 180.73L101.951 180.729C101.704 179.931 101.457 179.132 101.193 178.34C100.635 176.662 100.068 174.985 99.4281 173.337C99.2844 172.966 99.3648 172.96 99.5669 172.944L99.5724 172.944C99.5921 172.942 99.613 172.941 99.6349 172.938C99.6531 172.937 99.672 172.935 99.6916 172.932C102.39 172.573 105.05 172.605 107.567 173.806C108.118 174.069 108.506 174.015 108.871 173.556C109.245 173.088 109.05 172.747 108.72 172.317C106.753 169.755 105.531 166.837 104.594 163.759C104.496 163.436 104.395 163.114 104.294 162.793C103.685 160.853 103.078 158.919 103.094 156.857C103.107 155.295 103.492 153.894 104.565 152.588C104.801 152.301 105.018 152 105.234 151.701C105.878 150.806 106.513 149.925 107.619 149.464C108.178 149.23 108.731 148.979 109.283 148.727L109.283 148.727L109.284 148.726L109.284 148.726L109.285 148.726L109.285 148.726L109.286 148.725L109.286 148.725C109.859 148.464 110.433 148.203 111.014 147.962C111.458 147.778 111.9 147.593 112.343 147.408C114.087 146.678 115.832 145.948 117.611 145.318C118.692 144.935 119.812 144.66 120.931 144.386L120.931 144.386L120.931 144.386L120.932 144.386L120.932 144.386L120.932 144.386L120.932 144.386C121.441 144.262 121.949 144.137 122.454 144.002C122.553 143.976 122.651 143.945 122.749 143.913L122.749 143.913C122.828 143.888 122.906 143.863 122.985 143.841C124.135 143.512 125.139 143.569 125.921 144.679C126.263 145.166 126.734 145.563 127.227 145.978L127.228 145.979L127.351 146.083C127.408 146.131 127.466 146.18 127.523 146.229C129.381 148.062 131.157 149.891 132.926 151.728ZM90.7617 120.621C90.7053 120.214 90.6245 119.809 90.5437 119.405L90.5436 119.405C90.4446 118.909 90.3456 118.413 90.2918 117.913L90.2767 117.773C90.1609 116.699 90.0435 115.611 90.1201 114.543C90.1597 113.99 90.3069 113.446 90.4543 112.901L90.4544 112.901C90.5739 112.46 90.6935 112.018 90.7563 111.569C91.0868 109.212 91.3842 106.848 91.6133 104.478C91.8126 102.418 91.9455 100.351 92.0783 98.2841L92.1081 97.8212L92.1343 97.4162C92.2682 95.3534 92.3927 93.2894 92.4733 91.224C92.5505 89.2439 92.5889 87.2622 92.6272 85.2808V85.2801L92.6435 84.4475C92.6459 84.3227 92.6035 84.1979 92.5607 84.0722C92.5334 83.992 92.506 83.9114 92.49 83.8303C92.4721 83.7388 92.45 83.6467 92.4279 83.5543C92.367 83.2992 92.3056 83.0426 92.3282 82.7947C92.3531 82.5219 92.4145 82.2501 92.4757 81.9791C92.5588 81.6115 92.6415 81.2454 92.6323 80.88C92.5715 78.4616 92.4623 76.0443 92.3532 73.6272L92.3531 73.6261L92.3531 73.6251L92.353 73.624L92.353 73.623L92.3529 73.6219L92.3529 73.6209L92.3528 73.6199C92.3367 73.2625 92.3206 72.9051 92.3046 72.5478C92.2813 72.0278 92.2143 71.5077 92.1351 70.9927C91.9115 69.5397 91.6791 68.088 91.4467 66.6364L91.2828 65.6121C91.2639 65.4939 91.2385 65.3768 91.2132 65.2596L91.1978 65.1881L91.1873 65.139L91.1785 65.0962C91.1737 65.1374 91.1683 65.1786 91.1626 65.2197L91.1544 65.2777C91.1361 65.4077 91.1178 65.5378 91.1152 65.6682C91.0616 68.3839 91.0113 71.0997 90.961 73.8155L90.9419 74.8414C90.925 75.7529 90.9076 76.6644 90.8901 77.5759C90.8485 79.7507 90.8068 81.9254 90.7726 84.1003C90.75 85.5395 90.7323 86.9787 90.7145 88.418L90.7145 88.4219C90.6823 91.0379 90.65 93.6538 90.5883 96.2691C90.5422 98.2206 90.418 100.173 90.245 102.118C90.118 103.545 89.9325 104.966 89.7471 106.388L89.7469 106.389C89.6881 106.84 89.6293 107.29 89.5724 107.741C89.4928 108.372 89.406 109.002 89.3192 109.632C89.1675 110.732 89.0158 111.833 88.9025 112.937C88.7585 114.341 88.0829 115.477 87.1111 116.377C86.4016 117.034 85.6017 117.593 84.8022 118.152C84.4865 118.373 84.1708 118.594 83.8608 118.821C83.2143 119.294 82.5707 119.771 81.927 120.248L81.9259 120.249L81.9224 120.251C80.3037 121.451 78.6849 122.65 77.0215 123.784C75.535 124.797 74.0052 125.746 72.4753 126.696L72.4749 126.696L72.4744 126.696L72.474 126.696L72.4736 126.697L72.4732 126.697L72.4728 126.697L72.4724 126.697C71.7325 127.156 70.9925 127.616 70.2575 128.082C69.55 128.531 68.8453 128.984 68.1406 129.437C66.8888 130.242 65.6371 131.047 64.3701 131.828L64.1294 131.976L64.1291 131.976L64.1288 131.976L64.1284 131.977L64.1281 131.977L64.1278 131.977L64.1275 131.977L64.1272 131.977C61.8058 133.407 59.4827 134.838 57.106 136.172C55.9756 136.806 54.7774 137.321 53.5812 137.834L53.581 137.835C53.2742 137.966 52.9675 138.098 52.6621 138.232C52.4846 138.309 52.0757 138.22 51.9915 138.079C51.7922 137.744 51.6628 137.365 51.5344 136.989L51.4999 136.888C51.4857 136.847 51.4714 136.806 51.457 136.765C50.957 135.339 50.3244 134.007 49.2453 132.896C48.4311 132.058 48.5459 131.806 49.6768 131.33L49.78 131.287L49.8671 131.25C50.3398 131.053 50.8167 130.854 51.2457 130.583C52.0435 130.08 52.8188 129.534 53.5641 128.955C54.2256 128.441 54.8888 127.929 55.5521 127.417L55.553 127.417C57.7893 125.69 60.0258 123.964 62.2005 122.163C64.2253 120.486 66.1493 118.678 68.0339 116.842C68.2957 116.587 68.5605 116.334 68.8254 116.081L68.8267 116.08C70.4302 114.547 72.0405 113.007 73.0574 110.974C73.1967 110.695 73.3579 110.427 73.5192 110.158C73.9871 109.379 74.4551 108.6 74.3858 107.576C74.3435 106.95 74.4274 106.314 74.5111 105.68V105.68V105.68V105.68V105.68V105.68V105.68V105.679C74.5414 105.45 74.5717 105.22 74.596 104.992C74.6616 104.373 74.7396 103.755 74.8176 103.136L74.8176 103.136C74.977 101.873 75.1363 100.61 75.1901 99.3422C75.2627 97.6299 75.2462 95.9139 75.2296 94.1979C75.2225 93.4592 75.2154 92.7205 75.2154 91.9821C75.2154 91.8087 75.2205 91.6348 75.2256 91.4608C75.2367 91.0811 75.2477 90.7013 75.206 90.3275C75.0029 88.5077 74.7961 86.6868 74.5221 84.8768C74.4686 84.5232 74.4164 84.1691 74.3643 83.8148L74.3643 83.8144C74.1091 82.0809 73.8534 80.3438 73.4314 78.6504C73.0638 77.1753 72.612 75.7215 72.1602 74.2675L72.16 74.2669L72.1598 74.2662L72.1596 74.2656L72.1594 74.2649L72.1593 74.2642L72.1591 74.2636L72.1589 74.2629L72.1588 74.2626L72.1587 74.2623L72.1586 74.2619L72.1585 74.2616L72.1584 74.2613L72.1583 74.261L72.1582 74.2607C71.8007 73.1099 71.443 71.959 71.127 70.7972C70.8995 69.9612 70.649 69.1312 70.3985 68.301L70.3985 68.3008L70.3984 68.3007L70.3984 68.3005L70.3983 68.3003L70.3983 68.3001L70.3982 68.2999L70.3982 68.2997C69.7709 66.2209 69.1434 64.1414 68.8769 61.9668C68.8188 61.4929 68.6989 61.0208 68.5793 60.5503C68.4034 59.8582 68.2284 59.1697 68.2528 58.4843C68.3409 56.0081 69.0306 53.6221 69.7251 51.2403C70.7626 47.6822 72.5618 44.7145 75.6747 42.6022C77.4707 41.3836 79.3527 40.4912 81.5811 40.7779C82.3894 40.8819 83.1895 41.0487 83.9897 41.2154C84.3746 41.2956 84.7595 41.3758 85.1454 41.4491C87.3349 41.8646 89.2727 42.8311 91.0178 44.1896C92.0393 44.9849 93.0367 45.8145 94.0068 46.6719C94.9768 47.5293 95.9463 48.3964 96.83 49.3401C97.6519 50.2177 98.4166 51.1498 99.1806 52.0812L99.1833 52.0845L99.3825 52.3272L99.5249 52.5005L99.6801 52.6888C100.993 54.2796 102.303 55.8738 103.588 57.4877C104.15 58.194 104.701 58.9096 105.251 59.6252L105.253 59.6272L105.253 59.6279C106.086 60.7101 106.919 61.7922 107.791 62.8418C109.373 64.7457 111.015 66.6014 112.682 68.4323C114.971 70.9482 117.301 73.4277 119.63 75.9065C119.829 76.1178 120.058 76.3021 120.286 76.4862C120.56 76.7069 120.833 76.9271 121.053 77.1928C122.739 79.2288 124.328 81.3525 125.455 83.7509C126.494 85.9616 127.496 88.1902 128.497 90.4187L128.497 90.4195L128.498 90.4213L128.498 90.4218C129.399 92.4253 130.299 94.4289 131.227 96.4196C132.731 99.6468 134.386 102.79 136.384 105.758L136.531 105.976L136.531 105.976C137.601 107.567 138.672 109.16 140.18 110.319C142.146 111.831 144.193 113.238 146.239 114.645C146.773 115.013 147.307 115.38 147.84 115.749C149.566 116.945 150.931 118.454 151.603 120.442C152.427 122.883 152.006 125.307 150.854 127.532C149.437 130.27 147.195 132.363 144.905 134.357C142.364 136.57 139.412 138.158 136.226 139.178C132.131 140.489 128.012 141.763 123.681 142.134C122.549 142.231 121.42 142.38 120.292 142.528H120.292H120.292H120.292H120.292H120.291H120.291H120.291C119.033 142.694 117.775 142.86 116.512 142.954C113.718 143.163 110.911 143.278 108.109 143.294C106.849 143.301 105.589 143.213 104.328 143.126H104.328H104.327H104.327H104.327H104.326H104.326H104.326C103.526 143.07 102.727 143.015 101.927 142.983C99.75 142.898 97.6884 142.326 95.6575 141.604C94.2931 141.118 93.0303 140.451 92.5317 138.978C92.2414 138.12 92.0974 137.202 91.9781 136.298L91.9473 136.066C91.6954 134.159 91.443 132.25 91.2998 130.334C91.1679 128.569 91.0989 126.799 91.0273 124.964C91.0004 124.272 90.9731 123.572 90.9419 122.859C90.9245 122.631 90.9104 122.402 90.8964 122.173L90.8962 122.17C90.8644 121.652 90.8326 121.134 90.7617 120.621ZM163.154 172.592C163.062 172.674 162.854 172.728 162.752 172.681C162.284 172.468 161.809 172.268 161.333 172.067C160.174 171.578 159.014 171.088 157.969 170.419C156.105 169.225 154.287 167.961 152.469 166.696L152.468 166.696L152.467 166.695L152.466 166.695L152.466 166.694L152.465 166.693L152.464 166.693L152.463 166.692L152.463 166.692C151.034 165.699 149.606 164.706 148.156 163.746C144.992 161.654 142.218 159.106 139.444 156.558L139.442 156.556L139.441 156.555L139.441 156.554L139.44 156.554C138.901 156.059 138.362 155.564 137.82 155.072C136.977 154.307 136.184 153.486 135.391 152.665L135.391 152.665C135.219 152.487 135.048 152.31 134.876 152.133C133.932 151.162 132.998 150.183 132.063 149.204L132.062 149.203C131.656 148.778 131.251 148.354 130.845 147.93C130.554 147.626 130.262 147.322 129.97 147.019C128.909 145.916 127.848 144.814 126.821 143.681C126.699 143.548 126.851 142.881 126.99 142.839C127.572 142.663 128.166 142.519 128.759 142.375C129.511 142.192 130.263 142.009 130.992 141.761L131.364 141.634C134.383 140.606 137.407 139.577 140.362 138.382C143.068 137.287 145.575 135.784 147.816 133.877C147.85 133.847 148.011 133.886 148.029 133.928C148.676 135.492 149.88 136.557 151.089 137.627C151.365 137.871 151.64 138.115 151.91 138.365C153.179 139.543 154.438 140.75 155.55 142.072C156.269 142.927 156.88 143.872 157.491 144.817L157.491 144.817L157.492 144.817C157.716 145.165 157.941 145.512 158.17 145.854C158.43 146.241 158.705 146.622 158.979 147.004L158.979 147.004C159.652 147.939 160.326 148.875 160.787 149.905C161.816 152.203 163.412 154.035 165.077 155.819C166.714 157.573 168.945 158.226 171.148 158.871L171.151 158.872C171.355 158.932 171.558 158.991 171.761 159.052C172.571 159.293 173.404 159.455 174.237 159.617L174.237 159.617L174.237 159.617L174.237 159.617L174.238 159.617L174.238 159.617L174.238 159.617L174.238 159.617C174.695 159.706 175.151 159.794 175.603 159.896C175.718 159.922 175.822 159.999 175.925 160.077C175.973 160.113 176.021 160.149 176.07 160.179C176.017 160.243 175.962 160.325 175.908 160.407C175.79 160.584 175.673 160.76 175.569 160.753C174.505 160.677 173.711 161.224 172.93 161.761L172.93 161.762C172.722 161.905 172.514 162.047 172.303 162.177C171.274 162.811 170.263 163.494 169.663 164.674C169.274 165.439 168.751 166.138 168.229 166.835L168.229 166.836L168.228 166.836L168.228 166.836C168.068 167.05 167.909 167.263 167.753 167.478C167.112 168.363 166.442 169.228 165.713 170.169L165.712 170.169L165.712 170.17L165.557 170.369C165.38 170.534 165.204 170.699 165.027 170.863L165.011 170.879C164.395 171.453 163.779 172.028 163.154 172.592ZM110.644 146.063C109.993 146.41 109.3 146.674 108.606 146.938C107.239 147.458 105.872 147.978 104.828 149.13C104.512 149.48 104.147 149.786 103.781 150.091C103.544 150.29 103.306 150.489 103.082 150.7C102.339 151.399 102.082 152.333 101.826 153.263C101.789 153.398 101.752 153.534 101.713 153.668C101.01 156.111 101.17 158.638 101.786 160.98L101.905 161.435C102.727 164.565 103.56 167.741 105.303 170.549C105.506 170.875 105.611 171.05 105.056 171.066C103.56 171.109 102.065 171.165 100.569 171.221C98.9219 171.282 97.2745 171.344 95.6267 171.388C94.5931 171.416 93.5587 171.409 92.5241 171.403C91.8112 171.398 91.0982 171.393 90.3854 171.4C88.5187 171.418 86.705 171.148 85.0062 170.356C84.9386 170.324 84.8689 170.292 84.7981 170.26C84.2175 169.995 83.5604 169.695 83.2984 169.218C82.6309 168.005 82.1579 166.669 81.7269 165.343C81.0962 163.402 80.4718 161.45 80.0323 159.461C79.657 157.762 79.4672 156.01 79.3497 154.272C79.3143 153.749 79.4032 153.219 79.4923 152.688C79.5632 152.266 79.6342 151.842 79.6432 151.42C79.6784 149.765 80.4625 148.417 81.2469 147.069C81.2928 146.99 81.3387 146.911 81.3844 146.832C81.5671 146.517 81.8011 146.232 82.0354 145.947L82.0356 145.947C82.2186 145.724 82.4018 145.501 82.561 145.263C83.8206 143.38 85.0745 141.493 86.3284 139.606L86.3425 139.585C87.2238 138.259 88.1051 136.933 88.9884 135.608C89.0736 135.48 89.1836 135.369 89.2936 135.258C89.3448 135.206 89.396 135.154 89.4447 135.1C89.494 135.176 89.5519 135.249 89.6097 135.323C89.7363 135.483 89.8628 135.644 89.9 135.824C89.9862 136.24 90.043 136.662 90.0999 137.084V137.084C90.1482 137.444 90.1966 137.803 90.2632 138.159C90.6493 140.224 91.6379 141.81 93.5831 142.83C96.265 144.237 99.1465 144.838 102.092 145.177C103.79 145.372 105.52 145.403 107.23 145.347C108.258 145.314 109.283 145.187 110.309 145.06C110.864 144.991 111.419 144.923 111.975 144.869C112.125 144.854 112.28 144.899 112.436 144.945C112.508 144.966 112.58 144.986 112.651 145.001L112.611 145.034L112.56 145.076L112.522 145.106L112.521 145.107L112.52 145.108L112.519 145.109L112.519 145.109L112.519 145.109C112.41 145.198 112.301 145.288 112.187 145.37C112.174 145.38 112.16 145.388 112.144 145.396L112.134 145.401L112.121 145.407L112.102 145.416C112.049 145.442 111.98 145.474 111.882 145.544C111.752 145.598 111.619 145.649 111.487 145.7C111.2 145.81 110.914 145.92 110.644 146.063ZM75.192 14.6267C76.2757 16.212 76.9302 18.0198 77.2604 19.9202C77.5959 21.8513 77.6431 23.8042 77.0771 25.6892C76.7429 26.8022 76.3647 27.9021 75.9866 29.002C75.5489 30.2749 75.1113 31.5477 74.742 32.8403C74.5139 33.6385 73.9974 34.0122 73.427 34.2132C70.7347 35.1615 67.8094 34.0082 66.1376 31.5327C65.6839 30.8608 65.9453 30.585 66.4067 30.1152C67.0311 29.4794 67.5775 28.7429 68.0423 27.9792C68.736 26.8394 68.4426 25.6774 67.6476 24.7569C66.8521 23.8357 65.6583 23.631 64.547 24.0169C63.2774 24.4579 62.3637 25.4287 61.7124 26.6176C61.6819 26.6733 61.66 26.7338 61.6382 26.7943C61.6326 26.8098 61.627 26.8253 61.6212 26.8406C61.6165 26.8532 61.6118 26.8657 61.6068 26.8781L61.5981 26.8598L61.5846 26.8329C61.5683 26.8006 61.552 26.7684 61.5409 26.7344C61.4449 26.4409 61.3522 26.1457 61.2594 25.8503C60.7729 24.3002 60.2851 22.7459 59.302 21.4235C58.5357 20.3925 57.71 19.3645 56.7369 18.5417C56.0094 17.9265 55.111 17.4985 54.2296 17.0785C54.1007 17.0171 53.9722 16.9559 53.8446 16.8943C53.5441 16.7491 53.2441 16.601 52.9438 16.4527L52.9427 16.4522C51.6806 15.8289 50.4134 15.2032 49.0843 14.7868C48.7345 14.6772 48.656 14.6546 48.6562 14.6539C48.6562 14.6537 48.6591 14.6544 48.6635 14.6554C48.7334 14.6709 49.1834 14.7713 44.7901 13.1868C38.6562 10.9746 41.812 4.00575 43.6281 2.4727C43.7633 2.35852 43.978 2.2359 44.1235 2.26734C44.2542 2.29559 44.4202 2.52338 44.4339 2.67543C44.5701 4.19884 46.8028 6.56288 52.1062 6.19584C55.7361 5.94462 55.8148 5.95907 55.9884 5.99098C56.0685 6.00569 56.1687 6.02411 56.6465 6.02191C57.79 6.01664 61.7487 6.38531 62.5493 6.61163C62.8401 6.69384 63.2204 6.77332 63.6679 6.86683C65.8001 7.31239 69.4574 8.07664 72.2239 10.9746C72.5302 11.347 72.8452 11.7134 73.1602 12.0798C73.8705 12.9062 74.5807 13.7325 75.192 14.6267ZM60.6874 29.7522C60.6874 30.5228 60.8418 31.2809 60.9962 32.0389C61.0704 32.4032 61.1446 32.7676 61.2016 33.1333C61.2106 33.191 61.2407 33.2454 61.2708 33.2999C61.2848 33.3251 61.2988 33.3504 61.3106 33.376C61.3168 33.3515 61.3234 33.3271 61.3301 33.3027L61.3301 33.3025L61.3302 33.3023L61.3302 33.3022L61.3302 33.302C61.3445 33.2495 61.3587 33.1969 61.3688 33.1436C61.4389 32.7704 61.5044 32.396 61.5698 32.0217C61.7179 31.1749 61.866 30.3282 62.0682 29.4947C62.3106 28.4954 62.5804 27.4769 63.0284 26.5603C63.5463 25.5004 65.7156 25.0002 66.783 25.5563C67.3916 25.8733 67.6836 26.6333 67.2888 27.1854C66.9154 27.7077 66.4573 28.2415 65.9125 28.5524C65.0179 29.0628 64.7269 29.9138 64.6543 30.7482C64.5177 32.3171 66.164 34.5231 67.7636 34.9199C69.218 35.2806 70.7004 35.5315 72.1814 35.7821C72.5311 35.8413 72.8807 35.9005 73.2298 35.9611L73.2914 35.9715L73.337 35.9791C73.8032 36.0561 74.1741 36.1173 74.0265 36.8003C73.6255 38.6543 73.4944 40.5221 73.8309 42.4079C73.8513 42.5224 73.6428 42.7021 73.5102 42.8155C73.3409 42.9603 73.1627 43.0967 72.9846 43.233C72.6571 43.4837 72.33 43.734 72.0595 44.0357C71.6149 44.5313 71.2004 45.0539 70.7858 45.5766L70.7854 45.5771C70.5005 45.9362 70.2157 46.2954 69.921 46.6459C69.844 46.7374 69.5347 46.7756 69.4605 46.7048C69.0829 46.3438 68.7149 45.9726 68.347 45.6013L68.3468 45.6011L68.3464 45.6007L68.3456 45.5999C67.9148 45.1652 67.484 44.7305 67.0376 44.3125C65.9581 43.3015 64.8516 42.3185 63.7316 41.3526C63.5866 41.2275 63.3867 41.1662 63.1869 41.1049C63.0947 41.0766 63.0024 41.0484 62.9156 41.0138C62.952 41.0975 62.9874 41.1816 63.0229 41.2657C63.1199 41.4956 63.217 41.7256 63.3318 41.9462C63.3518 41.9848 63.4094 42.0003 63.4701 42.0167C63.5221 42.0308 63.5764 42.0455 63.6112 42.0758C63.6297 42.092 63.6482 42.1077 63.6663 42.1231C63.8821 42.3072 64.0408 42.4425 63.5617 42.6708C63.055 42.9123 62.5856 43.2322 62.1163 43.5522C61.9201 43.6859 61.724 43.8196 61.5251 43.9475C58.4619 45.9187 55.1619 46.8443 51.5088 46.2453C49.4428 45.9065 48.0245 44.8073 47.3947 42.7739C46.7914 40.826 47.042 40.2593 48.9032 39.4765C48.9663 39.45 49.0295 39.4237 49.0928 39.3974L49.0936 39.3971C50.0752 38.9888 51.0502 38.5833 51.3074 37.3802C51.4133 36.8855 50.4981 36.3522 50.2961 36.816C50.2948 36.8189 50.2939 36.8219 50.2932 36.8248C50.0945 37.732 49.4061 38.0455 48.68 38.3723C47.3445 38.9735 47.1814 38.8894 47.1814 37.5185C47.1814 35.7237 47.1814 35.7237 45.6071 35.1646C44.6952 34.8407 44.5484 34.524 44.9628 33.6382C45.5887 32.3005 45.9971 30.9377 45.824 29.4252C45.6107 27.5613 45.4326 25.6914 45.3152 23.8193C45.2398 22.6162 45.1681 21.3851 45.3402 20.2025C45.4504 19.4452 45.7208 18.7111 45.9911 17.9772L45.9915 17.9763C46.1077 17.6609 46.2239 17.3455 46.3273 17.0284C46.5704 16.2826 47.1567 15.9829 47.9216 16.2587C48.3996 16.431 48.8805 16.5972 49.3616 16.7634C50.701 17.2261 52.0411 17.689 53.3182 18.286C54.6625 18.9144 56.0236 19.6939 57.069 20.7209C58.0084 21.6437 60.6874 26.2922 60.6874 29.7522ZM169.399 174.616L169.396 174.616L169.387 174.614C168.156 174.341 166.926 174.069 165.698 173.785C165.521 173.745 165.355 173.653 165.19 173.562L165.19 173.562C165.113 173.519 165.037 173.477 164.959 173.44C164.977 173.429 164.996 173.418 165.014 173.408L165.057 173.383L165.125 173.345L165.157 173.326C165.312 173.24 165.466 173.154 165.607 173.05C165.763 172.935 165.896 172.785 166.026 172.638L166.033 172.63C166.4 172.213 166.773 171.801 167.146 171.389L167.147 171.388L167.148 171.387L167.148 171.386L167.149 171.385L167.15 171.385L167.151 171.384L167.151 171.384L167.151 171.384L167.151 171.384L167.151 171.383L167.151 171.383L167.151 171.383L167.151 171.383C168.063 170.375 168.975 169.367 169.808 168.297C170.632 167.238 171.287 166.038 171.933 164.855L171.949 164.825C172.268 164.242 172.629 163.995 173.241 164.209C175.845 165.119 178.541 165.615 181.237 166.111L181.237 166.112C182.643 166.37 184.049 166.629 185.442 166.947C187.725 167.467 199.22 169.444 200.221 169.516C200.708 169.551 201.196 169.601 201.683 169.65H201.683H201.683H201.684H201.684H201.684H201.684H201.684C202.631 169.746 203.578 169.842 204.523 169.832C206.941 169.805 209.311 170.065 211.679 170.525C212.426 170.67 213.183 170.761 213.94 170.853C214.804 170.958 215.669 171.063 216.516 171.246C219.246 171.838 220.16 174.168 219.457 176.445C219.322 176.882 218.839 177.375 218.406 177.529C216.432 178.227 214.365 178.409 212.276 178.425C211.2 178.433 210.125 178.483 209.049 178.533L209.048 178.533H209.048C208.638 178.552 208.228 178.571 207.817 178.588C206.272 178.651 204.726 178.715 203.18 178.78C201.981 178.83 200.782 178.879 199.583 178.929C199.498 178.932 199.412 178.931 199.327 178.93C199.241 178.928 199.156 178.927 199.07 178.931C198.649 178.948 198.228 178.977 197.806 179.005L197.804 179.006H197.804H197.804H197.804H197.804H197.804H197.804H197.803C196.88 179.068 195.956 179.131 195.04 179.075C193.603 178.986 192.17 178.816 190.737 178.646L190.734 178.646C190.07 178.567 189.406 178.488 188.741 178.417C188.333 178.374 187.923 178.339 187.514 178.303C186.772 178.239 186.03 178.175 185.295 178.063L184.925 178.007L184.923 178.007C183.046 177.722 181.164 177.436 179.312 177.028C177.873 176.71 176.444 176.347 174.984 175.976L174.982 175.975C173.913 175.704 172.829 175.428 171.711 175.163C171.647 175.145 171.584 175.127 171.52 175.108L171.518 175.107C171.378 175.066 171.239 175.025 171.097 174.993C170.531 174.867 169.965 174.742 169.399 174.616ZM105.96 214.582C105.076 213.311 104.239 212.006 103.428 210.687C102.69 209.488 102 208.26 101.311 207.032C100.694 205.933 100.054 204.847 99.4135 203.761C97.9272 201.241 96.4409 198.72 95.2477 196.031C94.5605 194.483 93.7645 192.983 92.9685 191.482C92.589 190.767 92.2094 190.052 91.8416 189.331C91.6685 188.992 91.492 188.654 91.3154 188.316L91.3154 188.316L91.3153 188.316L91.3152 188.316L91.3151 188.315L91.315 188.315L91.3149 188.315C90.8307 187.388 90.3463 186.461 89.9305 185.504C89.6166 184.782 89.3413 184.04 89.0663 183.299L89.0661 183.299L89.0659 183.298L89.0657 183.298L89.0656 183.298L89.0654 183.297L89.0652 183.297L89.065 183.296C88.6416 182.156 88.2187 181.017 87.6566 179.95C86.7533 178.236 86.1543 176.425 85.5548 174.613C85.3603 174.025 85.1657 173.437 84.9606 172.851C84.9288 172.761 84.9084 172.666 84.8881 172.571C84.8786 172.527 84.8691 172.483 84.8584 172.439C84.8965 172.446 84.9347 172.453 84.973 172.46L85.005 172.465C85.1113 172.483 85.2177 172.501 85.3203 172.532C85.5259 172.593 85.7303 172.667 85.9345 172.742L85.9348 172.742L85.9351 172.742L85.9355 172.742L85.9358 172.742C86.3605 172.897 86.7848 173.051 87.2188 173.085C88.841 173.213 90.4725 173.268 92.1003 173.267C93.1067 173.267 94.1131 173.227 95.1195 173.188H95.1198H95.1201H95.1204H95.1206H95.1209H95.1212H95.1215C95.7707 173.162 96.42 173.136 97.0694 173.121C97.19 173.118 97.379 173.27 97.4275 173.393C97.4869 173.543 97.5465 173.693 97.6061 173.844C98.0127 174.869 98.4195 175.896 98.7748 176.94C99.6597 179.54 100.518 182.15 101.366 184.762C102.443 188.079 103.768 191.28 105.228 194.457C106.581 197.402 107.591 200.537 108.231 203.765C108.53 205.271 108.973 206.751 109.415 208.228C109.522 208.584 109.628 208.941 109.733 209.297C110.06 210.414 110.422 211.522 110.784 212.629L110.784 212.631C110.915 213.031 111.045 213.431 111.174 213.831C111.47 214.749 111.21 215.606 110.489 215.717C109.685 215.842 108.855 215.797 107.95 215.739C107.129 215.625 106.424 215.248 105.96 214.582ZM224.12 183.03C223.227 181.562 222.308 180.234 220.494 179.837C219.821 179.69 219.783 179.339 220.23 178.775C220.328 178.651 220.431 178.528 220.535 178.404C220.908 177.96 221.288 177.507 221.449 176.992C221.623 176.435 221.589 175.806 221.556 175.188C221.547 175.029 221.538 174.871 221.533 174.715C221.474 172.847 220.947 171.254 219.098 170.347C218.55 170.078 218.22 169.673 218.771 168.879C220.01 167.09 221.654 165.824 223.465 164.727C224.176 164.297 224.829 164.553 225.112 165.303C225.234 165.63 225.359 165.956 225.483 166.281C225.875 167.311 226.268 168.341 226.615 169.386C226.998 170.533 227.361 171.686 227.724 172.84L227.725 172.84C228.108 174.057 228.492 175.275 228.897 176.485C229.232 177.484 229.527 178.495 229.822 179.506L229.822 179.506C230.355 181.333 230.888 183.161 231.659 184.925C233.433 188.986 234.867 193.186 235.546 197.6C235.582 197.833 235.532 198.233 235.394 198.304C235.184 198.411 234.825 198.372 234.596 198.259C234.213 198.072 233.811 197.838 233.542 197.518C232.701 196.513 231.918 195.459 231.113 194.253C230.445 193.186 229.776 192.12 229.106 191.054C227.431 188.387 225.755 185.721 224.12 183.03ZM98.5078 217.625C98.6694 217.584 98.8316 217.545 98.9937 217.505C100.48 217.144 101.956 216.784 102.818 215.248C103.224 214.524 103.579 214.579 103.989 215.375C104.345 216.065 104.785 216.671 105.487 217.031C105.86 217.222 106.256 217.377 106.652 217.517C108.62 218.215 110.534 218.303 112.26 216.892C113.101 216.205 113.375 216.268 114.031 217.123C115.093 218.507 115.636 220.121 116.178 221.728L116.224 221.866C116.808 223.596 116.491 223.958 114.652 223.958H81.6648C81.6472 223.958 81.6295 223.958 81.6115 223.959C81.5954 223.959 81.5791 223.96 81.5627 223.961C81.5457 223.962 81.5286 223.964 81.5114 223.965L81.4523 223.97L81.4518 223.97C81.2865 223.984 81.1213 223.998 80.9903 223.938C80.821 223.86 80.5948 223.49 80.6231 223.459C80.7442 223.326 80.8626 223.186 80.9814 223.045C81.3445 222.614 81.7123 222.177 82.1788 221.941C83.1096 221.468 84.1528 221.189 85.1741 220.93C88.9427 219.976 92.722 219.064 96.6683 218.136C96.8603 218.083 97.052 218.028 97.2437 217.973C97.664 217.853 98.0843 217.733 98.5078 217.625ZM33.9965 154.24C33.9577 154.385 33.7848 154.493 33.6119 154.601C33.5322 154.651 33.4525 154.701 33.386 154.755C33.3427 154.693 33.2886 154.633 33.2345 154.572C33.1169 154.44 32.9993 154.307 32.9926 154.17C32.9836 153.987 32.9713 153.802 32.959 153.617L32.9589 153.616L32.9589 153.616V153.615C32.9109 152.894 32.8624 152.165 33.0048 151.48C33.2833 150.14 33.7214 148.821 34.2188 147.543C34.343 147.223 34.1947 147.071 34.0554 146.928C33.9544 146.824 33.8581 146.726 33.8735 146.571C33.7842 146.629 33.6886 146.681 33.593 146.734C33.3746 146.854 33.1562 146.973 33.0124 147.153C32.8857 147.311 32.8274 147.522 32.7685 147.735C32.7334 147.861 32.6982 147.989 32.6482 148.106C32.5779 148.271 32.5081 148.437 32.4383 148.602L32.4379 148.603C32.0978 149.408 31.7575 150.214 31.364 150.993C31.2941 151.131 31.084 151.198 30.874 151.265C30.7773 151.296 30.6805 151.327 30.5975 151.365C30.5863 151.34 30.5741 151.316 30.5613 151.291C30.5429 151.255 30.5231 151.219 30.5029 151.184L30.472 151.13L30.4718 151.129C30.3732 150.957 30.2746 150.785 30.2763 150.614C30.2838 149.839 30.3453 149.061 30.4372 148.291C30.4517 148.17 30.4646 148.047 30.4774 147.924C30.5356 147.368 30.5949 146.802 30.8092 146.31C31.4619 144.812 32.1545 143.318 32.9867 141.916C33.5133 141.028 34.2293 140.197 35.0242 139.54C35.7299 138.956 36.5427 138.498 37.3521 138.042C37.5686 137.92 37.7848 137.798 37.9987 137.674C39.3044 136.916 40.628 136.19 41.9547 135.47C41.9689 135.462 41.9835 135.454 41.9983 135.445C42.1535 135.357 42.3367 135.252 42.4998 135.609C42.8059 136.278 43.1309 136.939 43.4557 137.6L43.4561 137.6L43.4565 137.601L43.4568 137.602L43.4572 137.603L43.4576 137.604L43.4579 137.604L43.4583 137.605C43.9668 138.639 44.475 139.673 44.911 140.737C44.9202 140.76 44.9302 140.784 44.9407 140.809C45.1118 141.215 45.414 141.933 44.4884 142.329C43.4951 142.755 42.5186 143.367 41.735 144.109C39.43 146.293 38.3902 149.212 37.3576 152.11L37.2767 152.337C37.0778 152.895 36.9354 153.473 36.793 154.052C36.7254 154.326 36.6578 154.6 36.5841 154.873C36.5574 154.972 36.5258 155.069 36.4942 155.167L36.494 155.167L36.4936 155.169L36.4932 155.17L36.4928 155.171L36.4751 155.226C36.4669 155.251 36.4587 155.277 36.4506 155.303C36.444 155.298 36.4372 155.293 36.4304 155.289L36.4108 155.276L36.3929 155.264C36.3773 155.254 36.3612 155.245 36.3449 155.235C36.3267 155.224 36.3082 155.214 36.2898 155.203C36.1683 155.134 36.0468 155.065 36.0042 154.962C35.5689 153.917 35.438 152.866 35.7623 151.729C36.0201 150.826 36.1131 149.87 36.2047 148.929L36.2131 148.843C36.2243 148.728 36.064 148.596 35.9037 148.465C35.8297 148.404 35.7556 148.343 35.6984 148.283C35.6598 148.334 35.615 148.383 35.5703 148.433C35.473 148.539 35.3756 148.646 35.3411 148.771C35.2681 149.034 35.2001 149.299 35.131 149.568L35.1309 149.569L35.1305 149.57L35.1304 149.57C35.0044 150.062 34.8744 150.568 34.7026 151.108C34.6431 151.382 34.5854 151.655 34.5277 151.929C34.3645 152.703 34.2013 153.477 33.9965 154.24ZM44.5094 136.776C44.3866 136.48 44.2399 136.197 44.0932 135.913C43.7379 135.226 43.3821 134.537 43.3624 133.671C43.3444 132.878 43.4885 132.453 44.1281 132.062C44.8056 131.648 45.5772 131.399 46.1801 131.875C47.5499 132.955 48.8141 134.21 49.5466 135.817C50.0081 136.829 50.3406 137.901 50.6727 138.972L50.6729 138.973L50.6731 138.973C50.7868 139.34 50.9006 139.707 51.0194 140.071C51.0872 140.278 51.0551 140.537 51.0108 140.76C50.746 142.097 49.7485 142.758 48.6385 143.318C48.0527 143.614 47.6197 143.467 47.3564 142.888C47.1766 142.493 46.9992 142.096 46.8203 141.696L46.8203 141.696L46.8202 141.696L46.8202 141.696L46.8201 141.696C46.4467 140.861 46.0665 140.011 45.6428 139.124C45.5256 138.884 45.4048 138.645 45.2839 138.406C45.0118 137.869 44.7398 137.331 44.5094 136.776ZM237.424 197.132C236.813 195.675 236.232 194.2 235.742 192.698C235.415 191.694 235.126 190.677 234.837 189.66L234.837 189.66C234.575 188.739 234.314 187.819 234.023 186.907C233.567 185.477 233.089 184.053 232.612 182.63L232.611 182.63C232.165 181.299 231.718 179.969 231.289 178.632C230.487 176.131 229.704 173.622 228.921 171.114C228.57 169.987 228.218 168.86 227.864 167.733C227.771 167.437 227.677 167.14 227.582 166.844L227.582 166.843L227.582 166.843C227.331 166.056 227.08 165.27 226.855 164.476C226.822 164.358 226.89 164.211 226.958 164.064C226.989 163.996 227.021 163.928 227.042 163.863C227.111 163.909 227.192 163.95 227.272 163.991C227.446 164.08 227.62 164.168 227.683 164.307C228.285 165.624 228.873 166.951 229.393 168.302C229.871 169.546 230.298 170.81 230.724 172.074L230.724 172.074L230.725 172.075L230.725 172.077C230.796 172.287 230.867 172.498 230.939 172.708C231.018 172.943 231.098 173.177 231.177 173.411C231.625 174.727 232.073 176.044 232.472 177.376C232.885 178.754 233.276 180.138 233.667 181.523L233.667 181.523L233.667 181.524C233.953 182.538 234.24 183.552 234.535 184.563C234.643 184.933 234.749 185.304 234.856 185.674L234.857 185.675L234.857 185.675L234.857 185.675L234.857 185.675L234.857 185.676L234.857 185.677L234.857 185.678C235.308 187.24 235.759 188.803 236.284 190.339C236.611 191.297 236.957 192.247 237.304 193.202L237.304 193.202L237.305 193.202L237.305 193.202C237.789 194.535 238.277 195.875 238.719 197.249C238.078 198.096 237.832 198.104 237.424 197.132ZM92.4805 227.125C92.0918 227.098 91.7033 227.069 91.3147 227.041C90.4581 226.977 89.6016 226.914 88.744 226.872C87.6128 226.817 86.4814 226.768 85.3499 226.718H85.3495H85.3491H85.3487H85.3483H85.3479H85.3475H85.3471C83.8512 226.653 82.3553 226.588 80.8601 226.509C80.7421 226.503 80.63 226.385 80.5179 226.268C80.4657 226.213 80.4136 226.158 80.3608 226.115C80.406 226.087 80.4504 226.057 80.4947 226.027C80.5977 225.958 80.7006 225.888 80.8141 225.849C80.9024 225.819 81.0035 225.827 81.1046 225.834L81.1503 225.837C81.1661 225.838 81.1818 225.839 81.1974 225.84C81.2111 225.84 81.2246 225.841 81.2381 225.841H115.223C115.253 225.841 115.286 225.839 115.319 225.835C115.344 225.833 115.369 225.83 115.394 225.827C115.523 225.812 115.653 225.797 115.724 225.855C115.968 226.051 116.187 226.303 116.334 226.576C116.366 226.633 116.07 226.979 115.887 227.02C115.382 227.132 114.857 227.202 114.34 227.203C107.082 227.214 99.824 227.21 92.4805 227.125ZM39.4013 228.139C40.7723 228.691 42.1421 229.23 43.5078 229.767L43.508 229.767C46.1084 230.79 48.694 231.806 51.2448 232.904C52.9874 233.653 54.7328 233.768 56.5476 233.714C56.7018 233.71 56.8553 233.675 57.0087 233.64L57.0089 233.64C57.1736 233.603 57.3381 233.566 57.5028 233.566C57.6359 233.567 57.7688 233.64 57.9018 233.713C57.9615 233.746 58.0212 233.779 58.0809 233.805C58.0498 233.854 58.0213 233.906 57.9928 233.958C57.9299 234.073 57.867 234.188 57.7748 234.271C57.5127 234.505 57.2394 234.746 56.9305 234.907C54.5787 236.139 53.2194 239.502 54.0504 242.025C54.4583 243.263 54.9521 244.578 55.7783 245.543C56.4503 246.327 57.6221 246.844 58.6675 247.116C60.3185 247.545 62.0415 247.558 63.7062 246.954C65.1616 246.426 66.2064 245.45 66.9769 244.13C68.8492 240.922 68.0802 238.139 66.089 235.55C65.8277 235.21 65.4062 234.996 64.9813 234.78C64.7439 234.659 64.5054 234.538 64.2931 234.394C64.1425 234.292 64.0257 234.14 63.909 233.988C63.8557 233.919 63.8024 233.85 63.7459 233.785L63.7714 233.779L63.7895 233.774L63.8284 233.764L63.8493 233.758C63.8833 233.749 63.9172 233.739 63.9511 233.729L64.0267 233.707C64.2411 233.644 64.4555 233.581 64.6722 233.571C64.8213 233.565 64.9718 233.604 65.1226 233.642L65.1227 233.642L65.1229 233.642C65.2632 233.678 65.4037 233.714 65.5438 233.714L70.8456 233.718C82.8418 233.725 94.838 233.732 106.834 233.713C109.732 233.709 112.629 233.666 115.527 233.622C117.232 233.597 118.937 233.571 120.642 233.554C121.9 233.541 123.16 233.544 124.419 233.548H124.422C124.995 233.549 125.569 233.551 126.142 233.551C126.266 233.551 126.389 233.55 126.513 233.549C126.855 233.547 127.197 233.545 127.539 233.559C127.61 233.561 127.68 233.61 127.749 233.659C127.765 233.669 127.781 233.68 127.796 233.691C127.813 233.702 127.829 233.712 127.846 233.721C127.815 233.743 127.784 233.765 127.754 233.787C127.688 233.835 127.622 233.883 127.553 233.926C127.266 234.105 126.964 234.27 126.663 234.434C126.015 234.788 125.367 235.142 124.859 235.638C121.381 239.032 122.503 245.741 127.706 247.086C131.916 248.173 135.637 246.773 136.887 241.773C137.657 238.691 135.597 235.016 132.481 234.053C132.346 234.011 132.23 233.91 132.114 233.808C132.06 233.761 132.005 233.714 131.949 233.673C132.007 233.642 132.064 233.602 132.121 233.563C132.244 233.478 132.367 233.393 132.49 233.393C136.598 233.377 140.447 232.182 144.223 230.754C149.294 228.836 154.225 226.599 158.79 223.646L158.877 223.59C159.72 223.046 160.59 222.484 160.888 221.345C161.446 219.213 160.368 217.569 158.377 217.029C156.258 216.454 154.226 217.059 152.225 217.701C148.759 218.813 145.295 219.933 141.832 221.052L141.829 221.053L141.826 221.054L141.823 221.055L141.82 221.056L141.817 221.057L141.814 221.058L141.811 221.059C139.88 221.683 137.949 222.308 136.018 222.93L135.767 223.012L135.765 223.012C134.718 223.35 133.671 223.688 132.615 223.996C132.227 224.109 131.81 224.166 131.406 224.168C129.668 224.174 127.931 224.175 126.193 224.176H126.179C124.445 224.177 122.711 224.177 120.977 224.184C120.719 224.185 120.277 224.257 120.24 224.387C120.159 224.667 120.16 224.972 120.161 225.276C120.161 225.337 120.161 225.398 120.161 225.459C120.16 225.517 120.159 225.574 120.157 225.63C120.172 225.625 120.186 225.619 120.201 225.613C120.212 225.608 120.223 225.603 120.234 225.598C120.29 225.573 120.346 225.548 120.399 225.552C120.595 225.57 120.791 225.594 120.987 225.618C121.279 225.654 121.571 225.69 121.864 225.705C122.88 225.758 123.896 225.805 124.912 225.852H124.912H124.912H124.913C126.271 225.915 127.63 225.979 128.988 226.054C131.391 226.189 133.657 225.512 135.902 224.841L135.902 224.841L135.923 224.835C137.666 224.314 139.387 223.72 141.108 223.127C142.081 222.791 143.054 222.456 144.03 222.133C145.253 221.73 146.479 221.336 147.705 220.942L147.708 220.941C149.12 220.487 150.533 220.033 151.94 219.564C152.296 219.446 152.643 219.288 152.989 219.13C153.54 218.878 154.089 218.628 154.666 218.543C155.726 218.385 156.86 218.471 157.917 218.679C158.33 218.761 158.793 219.418 158.923 219.897C159.097 220.536 158.979 221.165 158.231 221.641C154.76 223.848 151.1 225.678 147.343 227.338C143.929 228.846 140.404 230.022 136.804 230.98C136.227 231.134 135.602 231.147 134.998 231.158C133.619 231.184 132.239 231.201 130.86 231.218H130.86H130.86H130.86H130.859H130.859H130.859H130.859C128.529 231.247 126.199 231.276 123.87 231.347C121.292 231.426 118.714 231.551 116.137 231.676C114.938 231.734 113.74 231.792 112.542 231.846C111.479 231.893 110.415 231.939 109.352 231.985L109.337 231.986C107.803 232.052 106.268 232.118 104.733 232.189C104.401 232.205 104.068 232.232 103.736 232.26L103.736 232.26C103.151 232.309 102.566 232.358 101.983 232.339C101.472 232.323 100.964 232.252 100.454 232.181L100.454 232.181L100.454 232.181C100.014 232.12 99.5734 232.059 99.1314 232.033C98.8326 232.015 98.531 232.059 98.2287 232.104C97.9837 232.14 97.7382 232.176 97.4933 232.179C97.1985 232.183 96.9036 232.188 96.6087 232.193H96.6081C95.2498 232.214 93.8905 232.236 92.5359 232.172C91.3665 232.116 90.1989 232.024 89.0313 231.932H89.0312H89.0311H89.0309H89.0308H89.0307H89.0305H89.0304C87.9045 231.843 86.7786 231.754 85.6511 231.698C85.3162 231.681 84.978 231.764 84.6386 231.848C84.3401 231.921 84.0407 231.995 83.7418 232.001C81.691 232.043 79.6385 232.039 77.5872 232.01C75.5872 231.982 73.5866 231.93 71.5889 231.835C71.1929 231.816 70.7946 231.747 70.3977 231.678L70.3975 231.678C69.8102 231.577 69.2257 231.476 68.656 231.538C66.3703 231.786 64.0773 231.848 61.7868 231.911C60.2134 231.955 58.6412 231.998 57.0732 232.101C54.2418 232.287 51.734 231.61 49.2509 230.596C45.8897 229.222 42.556 227.767 39.2852 226.193C37.2406 225.208 35.2891 224.023 33.3456 222.842L33.3451 222.841L32.9893 222.625C31.7498 221.873 30.8042 220.811 30.4154 219.352C30.2193 218.616 30.6292 218.053 31.3668 218.037C33.6549 217.987 35.7441 218.781 37.8218 219.581C40.8428 220.743 43.8513 221.94 46.8497 223.159C48.0602 223.651 49.2613 224.167 50.4624 224.682L50.4633 224.682L50.4642 224.683L50.4651 224.683L50.4659 224.683L50.4668 224.684L50.4677 224.684L50.4694 224.685C51.3701 225.071 52.2708 225.458 53.1755 225.834C53.4911 225.966 53.8551 226.04 54.1971 226.041C57.0592 226.053 59.9213 226.052 62.7834 226.051L64.1098 226.05L65.1394 226.05L65.9407 226.05L67.4986 226.051C69.6285 226.051 71.7585 226.052 73.8884 226.048C74.6171 226.047 75.3459 226.023 76.0741 225.995C76.1206 225.994 76.196 225.877 76.2008 225.81C76.2074 225.716 76.2038 225.621 76.2002 225.526C76.1951 225.392 76.1901 225.259 76.2134 225.13C76.3127 224.584 76.0784 224.5 75.5747 224.503C71.9844 224.527 68.3937 224.538 64.8034 224.51C64.4461 224.507 64.0887 224.504 63.7312 224.502C60.692 224.479 57.6512 224.457 54.618 224.302C53.6557 224.253 52.6868 223.835 51.7659 223.437L51.6636 223.393L51.5307 223.336C46.275 221.081 40.9659 218.966 35.4954 217.287C34.5043 216.983 33.4494 216.869 32.404 216.755C32.2923 216.743 32.1806 216.731 32.0692 216.719L31.924 216.702L31.8131 216.69C31.1004 216.608 30.345 216.555 29.6542 216.702C28.5566 216.935 28.1013 217.988 28.4368 219.089C29.0466 221.089 30.2658 222.611 32.0392 223.691C33.303 224.461 34.571 225.224 35.846 225.992L35.8469 225.992L35.8478 225.993L35.8487 225.993L35.8496 225.994L35.8506 225.994L35.8515 225.995L35.8524 225.995C37.0286 226.703 38.2108 227.415 39.4013 228.139ZM56.885 237.386C58.8834 235.211 61.1922 234.811 63.945 236.402C65.536 237.321 66.2342 239.483 66.1005 240.854C65.9566 242.329 65.2192 243.552 64.0925 244.51C62.7414 245.659 61.1613 245.662 59.5342 245.312C55.9194 244.535 54.8349 239.84 56.885 237.386ZM134.856 239.773C134.856 239.928 134.859 240.083 134.862 240.239C134.868 240.576 134.874 240.913 134.852 241.248C134.669 244.01 131.462 246.156 128.635 245.344C126.622 244.765 125.461 243.563 125.05 241.452C124.42 238.215 126.43 235.883 129.207 235.481C131.951 235.084 134.208 236.598 134.856 239.773ZM112.914 249.571L106.523 249.571H74.9724C73.4914 249.571 72.0105 249.571 70.5295 249.571H70.517C63.4751 249.573 56.4332 249.574 49.3914 249.549C48.9316 249.547 48.425 249.283 48.0463 249.022C47.9447 248.952 48.1609 248.397 48.3709 248.159C48.5131 247.997 48.8995 247.939 49.1767 247.939C71.6721 247.932 94.1675 247.931 116.663 247.929L117.871 247.929C126.324 247.929 134.777 247.928 143.23 247.927C143.557 247.927 143.884 247.905 144.211 247.883L144.211 247.883C144.328 247.875 144.445 247.867 144.562 247.861C145.103 247.829 145.804 248.55 145.581 248.963C145.26 249.557 144.601 249.572 143.956 249.572C133.635 249.571 123.315 249.571 112.945 249.571H112.94H112.935H112.93H112.925H112.92H112.914ZM169.275 249.994L173.552 249.994H173.559H173.566H173.574H173.581H173.588C179.857 249.994 186.079 249.994 192.301 249.991C192.367 249.991 192.433 249.994 192.5 249.996C192.92 250.01 193.339 250.023 193.507 249.476C193.701 248.842 193.435 248.381 192.728 248.299C192.594 248.283 192.457 248.287 192.32 248.292C192.257 248.293 192.194 248.295 192.131 248.295L185.623 248.295C174.545 248.296 163.467 248.296 152.389 248.293C152.353 248.293 152.317 248.293 152.28 248.293C151.707 248.29 151.165 248.287 151.189 249.061C151.209 249.702 151.59 249.994 152.474 249.994C156.374 249.994 160.273 249.994 164.202 249.994H164.211H165.204H169.275ZM20.5652 249.997L16.055 249.997C15.0965 249.997 14.1416 249.997 13.1897 249.997C9.54045 249.998 5.93376 249.998 2.32712 249.99C1.95262 249.989 1.57262 249.914 1.20776 249.829C1.10692 249.806 1.00629 249.63 0.9823 249.511C0.797577 248.597 1.09447 248.299 2.16545 248.299L41.8994 248.299C41.9303 248.299 41.9614 248.298 41.9926 248.297C42.0244 248.296 42.0564 248.295 42.0883 248.293C42.2259 248.287 42.3634 248.281 42.4952 248.304C43.2246 248.427 43.4853 248.933 43.1952 249.546C42.973 250.016 42.5614 250.007 42.1477 249.998C42.0903 249.996 42.0329 249.995 41.9759 249.995C34.9149 249.997 27.8539 249.997 20.7459 249.997H20.5652ZM51.445 23.2262C51.2961 23.211 50.5973 23.3197 49.7359 23.4538C48.5577 23.6372 47.0755 23.8679 46.2804 23.8934C45.4842 23.9191 46.2398 24.7718 46.3713 24.7774C48.1282 24.8521 51.9365 23.6919 51.445 23.2262ZM48.8791 29.9533C49.6232 29.6716 49.2673 27.392 48.5296 27.392C47.801 27.392 48.1528 30.2283 48.8791 29.9533ZM59.5987 238.97C58.9553 240.429 58.999 241.026 59.7653 241.82C60.2885 242.362 61.2363 242.454 61.8307 242.021C62.4653 241.558 62.7594 240.463 62.4533 239.704C61.915 238.368 60.7314 238.042 59.5987 238.97ZM128.505 239.082C129.505 238.157 130.501 238.208 131.723 239.407C132.169 240.438 131.95 241.53 130.299 241.821C129.41 241.978 128.884 241.716 128.393 241.183C127.881 240.63 128.028 239.524 128.505 239.082Z" fill="#00160A"/>
<path fill-rule="evenodd" clip-rule="evenodd" d="M70.5055 53.194C71.9919 52.7577 72.3447 50.5035 73.8441 50.114C75.3273 49.7288 76.7523 51.4854 78.2313 51.0843C79.2372 50.8115 79.707 49.7011 80.2637 48.8206C80.8054 47.9638 81.9467 47.1905 82.7615 47.7434L82.8286 47.7926C83.959 48.6839 85.6545 48.1209 86.7931 47.2395C87.9317 46.3581 88.897 45.17 90.2639 44.7165C89.5464 44.0083 88.303 44.5222 87.608 45.253C86.9131 45.9838 86.3479 46.9467 85.3825 47.239C83.9032 47.6869 82.2375 46.3133 80.8413 46.976C79.973 47.3881 79.6202 48.4062 79.1005 49.2142C78.5808 50.0223 77.4496 50.6996 76.7117 50.0844C74.9207 48.5911 71.7201 49.5377 71.0301 51.7647C70.83 52.4107 69.9456 53.3583 70.5055 53.194Z" fill="#E7EAEE"/>
<path fill-rule="evenodd" clip-rule="evenodd" d="M159.171 222.451C155.041 224.884 142.105 232.051 132.622 232.288L54.1863 232.535C54.1863 232.535 12.9433 218.031 43.0975 223.503C44.804 223.813 49.6917 226.736 57.5505 227.373C71.9165 228.538 132.622 227.794 132.622 227.794C132.622 227.794 160.257 221.811 159.171 222.451Z" fill="#E7EAEE"/>
<path fill-rule="evenodd" clip-rule="evenodd" d="M226.531 174.196C226.435 174.089 226.317 174.012 226.245 174.043C225.419 174.384 224.942 174.087 224.691 173.271C224.65 173.136 224.438 173.053 224.304 172.945C224.182 173.109 223.956 173.272 223.955 173.436C223.954 173.98 223.717 174.235 223.201 174.397C222.98 174.466 222.85 174.819 222.678 175.043C222.851 175.083 223.111 175.068 223.178 175.174C223.313 175.388 223.383 175.665 223.404 175.922C223.421 176.14 223.312 176.365 223.292 176.59C223.267 176.886 223.315 177.103 223.663 176.805C224.358 176.21 224.962 176.433 225.556 176.994C225.7 177.13 225.953 177.152 226.156 177.226C226.119 177.041 226.108 176.846 226.04 176.673C225.686 175.766 225.931 174.987 226.531 174.196Z" fill="#E23A2F"/>
<circle r="2.99658" transform="matrix(-1 0 0 1 56.1539 35.5303)" fill="#E23A2F"/>
<path fill-rule="evenodd" clip-rule="evenodd" d="M99.0297 62.2028L98.6852 62.7345L98.5713 62.9063C97.8488 63.9656 96.7516 65.0071 95.5318 64.6984C92.2846 63.8768 88.5906 65.3108 86.7495 68.1077C85.8392 69.4906 83.8173 69.2194 82.1646 68.8651L81.9466 68.8175C80.2891 68.45 77.9965 68.6229 77.5777 70.2293L77.556 70.3218C77.3627 71.2466 76.1986 71.5278 75.2401 71.5034L74.9433 71.4926C72.5335 71.4926 72.218 72.8178 72.2176 72.6816C72.2176 72.6816 77.5152 72.2802 78.6303 70.4831L78.6985 70.3687C79.4086 69.1249 81.2019 69.3274 82.6047 69.7502L82.9907 69.8709L83.1842 69.9273C84.5536 70.3108 86.2156 70.4498 86.903 69.268C88.4801 66.5567 91.7657 64.9455 94.8764 65.358C95.6771 65.4642 96.5071 65.6891 97.2739 65.4352C99.1079 64.828 99.3474 61.9962 101.152 61.3059C103.429 60.4349 105.633 63.7443 107.99 63.1195C106.556 62.0262 104.967 61.1372 103.286 60.4875C102.722 60.2697 102.124 60.0759 101.524 60.1486C100.413 60.2833 99.667 61.2382 99.0297 62.2028ZM70.1006 65.4701C70.3284 66.17 70.4953 66.7918 70.6066 67.3193C70.8378 65.799 72.3485 64.3932 73.7731 64.8856L73.8551 64.9161C74.7591 65.2762 75.7166 64.5286 76.3011 63.7509L76.4411 63.5616L76.652 63.2721C77.1245 62.6266 77.6333 61.9899 78.3899 61.8061C79.7732 61.47 80.9945 62.8474 82.4085 63.0117C85.6813 63.3921 87.3172 57.5332 90.5307 58.2602C91.2334 58.4192 91.8409 58.9005 92.5547 58.998C94.5251 59.2672 95.5821 56.7619 97.2425 55.6678C98.4923 54.8444 100.256 54.8942 101.457 55.7868C101.396 54.3561 99.4501 53.7257 98.1219 54.264C96.7938 54.8023 95.8819 56.0125 94.779 56.9272C93.7037 57.819 92.1077 58.4315 90.9369 57.7058L90.8477 57.6473C89.4391 56.6722 87.5546 57.9091 86.4545 59.2225L86.0548 59.7011C85.0508 60.8963 83.9031 62.1381 82.3977 62.0235C81.0151 61.9182 79.8387 60.6302 78.4673 60.8362C76.4692 61.1363 75.653 64.3563 73.6443 64.1384C72.3531 63.9983 71.01 64.4318 70.0446 65.3002L70.1006 65.4701ZM69.0634 58.7329C69.386 59.1847 69.7094 59.5476 70.0336 59.8216L70.1417 59.9097L70.4118 59.7165C71.7256 58.7833 73.1601 57.8751 74.7575 57.9127C75.341 57.9265 75.9386 58.0673 76.4985 57.9029C77.9849 57.4667 78.3377 55.2124 79.8371 54.823C81.3203 54.4378 82.7453 56.1944 84.2243 55.7933C85.2303 55.5205 85.7 54.4101 86.2567 53.5295C86.7984 52.6728 87.9397 51.8995 88.7545 52.4524L88.8216 52.5016C89.952 53.3929 91.6475 52.8299 92.7861 51.9484C93.9247 51.067 94.89 49.879 96.2569 49.4255C95.5394 48.7173 94.296 49.2312 93.601 49.962C92.9061 50.6928 92.3409 51.6556 91.3755 51.948C89.8962 52.3959 88.2305 51.0223 86.8343 51.685C85.966 52.0971 85.6132 53.1152 85.0935 53.9232C84.5738 54.7313 83.4426 55.4086 82.7048 54.7933C80.9137 53.3001 77.7131 54.2467 77.0231 56.4737C76.823 57.1196 75.9626 57.27 75.2986 57.1402C74.6346 57.0104 73.9521 56.7209 73.3067 56.9242C72.486 57.1828 72.0653 58.1371 71.2746 58.4765C70.4522 58.8295 69.4685 58.3806 68.9183 57.6701L68.8629 57.5957C68.4202 56.9755 68.6275 58.1222 69.0634 58.7329Z" fill="#E23A2F"/>
<path fill-rule="evenodd" clip-rule="evenodd" d="M86.2992 75.7165L86.0516 75.7891C85.7195 75.8905 85.4695 76.0401 85.1782 76.2867L85.0342 76.4133L84.8513 76.5799C84.7625 76.6605 84.6933 76.721 84.6225 76.779C84.1372 77.1768 83.5877 77.4236 82.6707 77.5692C82.0558 77.6669 81.6223 77.569 80.8746 77.2208L80.6054 77.0922C79.3974 76.5093 78.6952 76.3468 77.5626 76.6072C76.5951 76.8296 76.1506 77.2041 75.7893 77.9088L75.6979 78.0956C75.5252 78.4567 74.9673 78.7902 74.527 79.0535C74.197 79.2508 73.933 79.4086 73.9466 79.509C73.9783 79.7433 76.0207 79.3645 76.4269 78.5538L76.515 78.372C76.7788 77.8277 77.02 77.6104 77.7544 77.4416C78.6155 77.2436 79.1378 77.3472 80.0994 77.7994L80.3685 77.9285C81.3444 78.3974 81.9418 78.5519 82.805 78.4148C83.872 78.2453 84.5625 77.9352 85.1652 77.4412C85.2071 77.4069 85.2478 77.3724 85.2904 77.3353L85.6487 77.0121C85.9001 76.7883 86.071 76.6784 86.3016 76.608L86.4433 76.5652C87.0407 76.3902 88.4083 76.8443 89.4051 77.1753L89.4051 77.1753L89.4051 77.1753C90.0303 77.3829 90.5096 77.5421 90.5616 77.4672C90.6737 77.3057 87.4894 75.3966 86.2992 75.7165ZM86.4453 82.223L86.2157 82.2868C85.9077 82.3759 85.6759 82.5074 85.4058 82.7241L85.2722 82.8353L85.1026 82.9817C85.0203 83.0525 84.9561 83.1057 84.8904 83.1567C84.4404 83.5063 83.9308 83.7232 83.0804 83.8511C82.5102 83.9369 82.1082 83.851 81.4148 83.545L81.1652 83.4319C80.0449 82.9197 79.3937 82.7769 78.3434 83.0057C77.4462 83.2011 77.034 83.5302 76.699 84.1495L76.6143 84.3137C76.454 84.631 75.9367 84.9241 75.5284 85.1555C75.2224 85.3288 74.9775 85.4676 74.9901 85.5558C75.0195 85.7616 76.9135 85.4288 77.2902 84.7164L77.3719 84.5566C77.6166 84.0782 77.8403 83.8873 78.5213 83.739C79.3199 83.565 79.8042 83.656 80.6959 84.0534L80.9455 84.1668C81.8505 84.5789 82.4045 84.7146 83.2049 84.5942C84.1944 84.4453 84.8348 84.1728 85.3937 83.7386C85.4325 83.7085 85.4703 83.6782 85.5098 83.6456L85.842 83.3615C86.0752 83.1649 86.2337 83.0683 86.4475 83.0064L86.5789 82.9688C87.1329 82.815 88.4012 83.2141 89.3256 83.505C89.9053 83.6874 90.3498 83.8273 90.398 83.7615C90.502 83.6195 87.5491 81.9418 86.4453 82.223ZM86.02 89.1362L86.2368 89.0724C87.2793 88.7912 90.0682 90.4689 89.97 90.6109C89.9245 90.6767 89.5047 90.5368 88.9571 90.3544L88.9571 90.3544L88.9571 90.3544C88.0841 90.0635 86.8863 89.6644 86.3631 89.8183L86.239 89.8558C86.037 89.9177 85.8873 90.0143 85.6671 90.211L85.3533 90.495C85.316 90.5276 85.2804 90.5579 85.2437 90.588C84.7158 91.0222 84.1111 91.2947 83.1765 91.4436C82.4205 91.5641 81.8973 91.4283 81.0426 91.0163L80.8069 90.9029C79.9647 90.5054 79.5073 90.4144 78.7531 90.5884C78.1099 90.7367 77.8987 90.9277 77.6676 91.406L77.5904 91.5658C77.2347 92.2782 75.4459 92.6111 75.4181 92.4052C75.4062 92.317 75.6374 92.1783 75.9265 92.0049C76.3121 91.7735 76.8007 91.4804 76.952 91.1631L77.032 90.9989C77.3484 90.3797 77.7377 90.0506 78.5851 89.8551C79.5771 89.6263 80.1921 89.7691 81.2501 90.2813L81.4859 90.3944C82.1408 90.7004 82.5204 90.7863 83.0589 90.7005C83.8621 90.5726 84.3434 90.3557 84.7683 90.0061C84.8304 89.9551 84.891 89.9019 84.9688 89.8311L85.1289 89.6848L85.2551 89.5735C85.5102 89.3568 85.7291 89.2253 86.02 89.1362ZM86.2368 97.2059L86.02 97.2698C85.7291 97.3589 85.5102 97.4903 85.2551 97.707L85.1289 97.8183L84.9688 97.9647C84.891 98.0355 84.8304 98.0887 84.7683 98.1397C84.3434 98.4892 83.8621 98.7061 83.0589 98.8341C82.5204 98.9199 82.1408 98.8339 81.4859 98.5279L81.2501 98.4149C80.1921 97.9026 79.5771 97.7599 78.5851 97.9887C77.7377 98.1841 77.3484 98.5132 77.032 99.1325L76.952 99.2967C76.8007 99.614 76.3121 99.9071 75.9265 100.138C75.6374 100.312 75.4062 100.451 75.4181 100.539C75.4459 100.745 77.2347 100.412 77.5904 99.6993L77.6676 99.5396C77.8987 99.0612 78.1099 98.8703 78.7531 98.7219C79.5073 98.548 79.9647 98.639 80.8069 99.0364L81.0426 99.1498C81.8973 99.5618 82.4205 99.6976 83.1765 99.5772C84.1111 99.4283 84.7158 99.1557 85.2437 98.7216C85.2804 98.6914 85.316 98.6611 85.3533 98.6286L85.6671 98.3445C85.8873 98.1478 86.037 98.0512 86.239 97.9894L86.3631 97.9518C86.8863 97.798 88.0841 98.1971 88.9571 98.4879C89.5047 98.6704 89.9245 98.8102 89.97 98.7444C90.0682 98.6025 87.2793 96.9248 86.2368 97.2059ZM85.3593 105.403L85.5889 105.339C86.6927 105.058 89.6456 106.736 89.5417 106.878C89.4935 106.944 89.049 106.804 88.4692 106.621C87.5449 106.331 86.2766 105.932 85.7226 106.085L85.5912 106.123C85.3773 106.185 85.2189 106.281 84.9857 106.478L84.6534 106.762C84.614 106.795 84.5762 106.825 84.5374 106.855C83.9785 107.289 83.3381 107.562 82.3486 107.711C81.5481 107.831 80.9941 107.695 80.0892 107.283L79.8396 107.17C78.9478 106.772 78.4636 106.682 77.665 106.855C76.984 107.004 76.7603 107.195 76.5156 107.673L76.4339 107.833C76.0572 108.545 74.1632 108.878 74.1338 108.672C74.1212 108.584 74.366 108.445 74.672 108.272C75.0804 108.041 75.5977 107.748 75.7579 107.43L75.8426 107.266C76.1776 106.647 76.5899 106.318 77.4871 106.122C78.5374 105.893 79.1886 106.036 80.3088 106.548L80.5585 106.661C81.2519 106.967 81.6538 107.053 82.2241 106.968C83.0745 106.84 83.5841 106.623 84.034 106.273C84.0997 106.222 84.1639 106.169 84.2462 106.098L84.4159 105.952L84.5494 105.841C84.8195 105.624 85.0514 105.492 85.3593 105.403ZM83.2553 112.866L83.0181 112.889C82.6993 112.923 82.4482 113.012 82.1446 113.179L81.9937 113.265L81.8013 113.38C81.7079 113.435 81.6354 113.476 81.5619 113.515C81.058 113.781 80.5185 113.906 79.6589 113.885C79.0824 113.87 78.7015 113.716 78.0717 113.294L77.8455 113.139C76.8312 112.44 76.2147 112.187 75.1406 112.23C74.2231 112.266 73.76 112.519 73.3225 113.07L73.2106 113.217C72.9977 113.502 72.4373 113.701 71.995 113.858C71.6636 113.975 71.3984 114.069 71.3955 114.159C71.3887 114.366 73.3117 114.368 73.8064 113.731L73.9146 113.588C74.2386 113.16 74.492 113.01 75.1885 112.983C76.0051 112.95 76.4663 113.124 77.2754 113.67L77.5015 113.825C78.3212 114.388 78.8432 114.618 79.6524 114.638C80.6528 114.663 81.3307 114.506 81.9565 114.176L82.087 114.104L82.4635 113.882C82.7273 113.729 82.9001 113.661 83.1215 113.637L83.2574 113.623C83.8297 113.568 85.0094 114.181 85.8692 114.628L85.8693 114.628L85.8693 114.628C86.4085 114.909 86.8219 115.123 86.8808 115.067C87.0079 114.945 84.3912 112.78 83.2553 112.866ZM77.8553 118.409L78.0454 118.427C78.9531 118.533 80.758 120.529 80.6429 120.6C80.5895 120.634 80.289 120.413 79.8969 120.124C79.2718 119.665 78.4141 119.034 77.9553 118.99L77.8462 118.98C77.6684 118.965 77.5237 118.989 77.2967 119.063L76.9724 119.172L76.8606 119.206C76.3262 119.358 75.7715 119.373 74.9843 119.206C74.3475 119.07 73.9629 118.822 73.3836 118.282L73.2238 118.133C72.6507 117.607 72.3074 117.41 71.6583 117.312C71.1047 117.229 70.8865 117.302 70.5785 117.572L70.4757 117.662C70.0078 118.06 68.4887 117.773 68.5193 117.62C68.5324 117.554 68.7533 117.524 69.0294 117.486C69.3978 117.436 69.8646 117.371 70.0673 117.192L70.1735 117.1C70.586 116.755 70.9825 116.637 71.7118 116.747C72.5655 116.875 73.0218 117.155 73.7384 117.824L73.8984 117.973C74.3448 118.38 74.627 118.551 75.0807 118.648C75.7572 118.792 76.1986 118.779 76.6289 118.657C76.6917 118.639 76.7539 118.619 76.8344 118.592L77.0004 118.536L77.13 118.494C77.3901 118.416 77.5993 118.387 77.8553 118.409ZM73.3363 122.28L73.1462 122.262C72.8902 122.24 72.681 122.268 72.4209 122.347L72.2913 122.388L72.1253 122.445C72.0449 122.472 71.9826 122.492 71.9198 122.51C71.4895 122.632 71.0481 122.644 70.3716 122.5C69.9179 122.404 69.6357 122.232 69.1893 121.826L69.0293 121.677C68.3127 121.007 67.8564 120.727 67.0027 120.599C66.2734 120.49 65.8769 120.608 65.4645 120.952L65.3582 121.045C65.1555 121.224 64.6888 121.288 64.3203 121.339C64.0442 121.377 63.8233 121.407 63.8102 121.473C63.7796 121.626 65.2987 121.913 65.7666 121.515L65.8694 121.425C66.1774 121.155 66.3957 121.082 66.9492 121.165C67.5984 121.263 67.9416 121.46 68.5147 121.986L68.6745 122.135C69.2539 122.674 69.6384 122.923 70.2752 123.058C71.0625 123.226 71.6171 123.21 72.1516 123.058L72.2633 123.025L72.5876 122.916C72.8146 122.842 72.9593 122.817 73.1371 122.833L73.2462 122.842C73.705 122.887 74.5627 123.517 75.1878 123.977C75.5799 124.265 75.8805 124.486 75.9338 124.453C76.0489 124.382 74.244 122.386 73.3363 122.28ZM67.1196 126.427L67.2691 126.468C67.9798 126.681 69.1413 128.531 69.0392 128.572C68.9919 128.591 68.7827 128.372 68.51 128.086C68.075 127.63 67.4783 127.005 67.1178 126.905L67.0319 126.882C66.892 126.845 66.7728 126.844 66.5809 126.871L66.3063 126.912L66.2122 126.924C65.7636 126.97 65.318 126.904 64.7123 126.659C64.2223 126.461 63.9499 126.208 63.5629 125.695L63.456 125.554C63.072 125.052 62.8255 124.846 62.3203 124.677C61.8895 124.532 61.7047 124.56 61.4205 124.732L61.3256 124.79C60.8954 125.042 59.7215 124.598 59.7676 124.48C59.7873 124.43 59.9681 124.436 60.1942 124.445C60.4959 124.457 60.8781 124.471 61.0654 124.356L61.1633 124.297C61.5416 124.08 61.8752 124.042 62.4428 124.232C63.1072 124.455 63.4325 124.743 63.911 125.379L64.018 125.521C64.3175 125.909 64.5189 126.085 64.868 126.227C65.3885 126.437 65.7431 126.489 66.1043 126.452C66.1571 126.447 66.2096 126.44 66.2778 126.429L66.4184 126.408L66.5279 126.393C66.7468 126.367 66.9181 126.373 67.1196 126.427ZM62.5111 129.927L62.3617 129.886C62.1601 129.832 61.9888 129.825 61.7699 129.851L61.6604 129.866L61.5198 129.888C61.4516 129.898 61.3991 129.905 61.3463 129.911C60.9851 129.948 60.6305 129.896 60.11 129.685C59.7609 129.544 59.5595 129.367 59.26 128.979L59.153 128.838C58.6745 128.202 58.3492 127.913 57.6848 127.691C57.1172 127.5 56.7836 127.539 56.4053 127.756L56.3074 127.815C56.1201 127.93 55.7379 127.915 55.4362 127.904C55.2101 127.895 55.0293 127.888 55.0096 127.939C54.9635 128.057 56.1374 128.501 56.5676 128.248L56.6625 128.191C56.9467 128.019 57.1315 127.991 57.5623 128.135C58.0675 128.305 58.314 128.511 58.698 129.012L58.8049 129.154C59.1919 129.667 59.4643 129.92 59.9543 130.118C60.56 130.363 61.0056 130.428 61.4542 130.382L61.5483 130.371L61.8229 130.33C62.0148 130.303 62.134 130.303 62.2739 130.341L62.3598 130.364C62.7203 130.464 63.317 131.089 63.752 131.545C64.0247 131.83 64.2339 132.049 64.2812 132.03C64.3833 131.99 63.2218 130.14 62.5111 129.927ZM56.7965 133.31L56.9459 133.352C57.6566 133.564 58.8181 135.414 58.716 135.455C58.6687 135.474 58.4596 135.255 58.1868 134.969C57.7519 134.514 57.1551 133.889 56.7946 133.788L56.7087 133.765C56.5688 133.728 56.4496 133.727 56.2577 133.755L55.9831 133.796L55.8891 133.807C55.4404 133.853 54.9948 133.787 54.3891 133.542C53.8992 133.344 53.6267 133.091 53.2397 132.578L53.1329 132.437C52.7489 131.936 52.5023 131.729 51.9971 131.56C51.5663 131.416 51.3815 131.443 51.0973 131.615L51.0024 131.673C50.5723 131.925 49.3984 131.482 49.4444 131.363C49.4641 131.313 49.645 131.32 49.871 131.328C50.1727 131.34 50.5549 131.354 50.7422 131.24L50.8402 131.181C51.2184 130.964 51.552 130.925 52.1196 131.115C52.784 131.338 53.1093 131.626 53.5878 132.263L53.6948 132.404C53.9943 132.792 54.1958 132.969 54.5448 133.11C55.0653 133.32 55.4199 133.373 55.7812 133.335C55.8339 133.33 55.8864 133.323 55.9546 133.313L56.0952 133.291L56.2047 133.276C56.4237 133.25 56.595 133.256 56.7965 133.31Z" fill="#E23A2F"/>
<defs>
<linearGradient id="paint0_linear_2371_11397" x1="-26.6374" y1="211.609" x2="11.5964" y2="6.40037" gradientUnits="userSpaceOnUse">
<stop stop-color="#FFD600"/>
<stop offset="1" stop-color="#F11139"/>
</linearGradient>
</defs>
</svg>
