<svg width="24" height="24" viewBox="0 0 24 24" fill="none" xmlns="http://www.w3.org/2000/svg">
<path d="M22 15.7467C22 19.5902 19.6077 22 15.7467 22L13.4248 22L13.321 21.993C12.9475 21.9423 12.6596 21.6222 12.6596 21.2348L12.6596 21.226L12.6693 21.1052C12.695 20.9464 12.7708 20.7988 12.8873 20.6849C13.033 20.5425 13.23 20.4649 13.4336 20.4697L15.7467 20.4697C18.7898 20.4697 20.4697 18.7898 20.4697 15.7467L20.4697 8.2533C20.4697 5.20141 18.7898 3.53034 15.7467 3.53034L8.2445 3.53034C5.2014 3.53034 3.53034 5.2102 3.53034 8.2533L3.53034 15.7467C3.53034 18.7986 5.2102 20.4697 8.2445 20.4697C8.66709 20.4697 9.00967 20.8122 9.00967 21.2348C9.00967 21.6574 8.66709 22 8.2445 22C4.39226 22 2 19.6077 2 15.7555L2 8.2533C2 4.39226 4.39226 2 8.2445 2L15.7467 2C19.6077 2 22 4.39226 22 8.2533L22 15.7467ZM14.445 7.75198C14.4382 7.95496 14.3509 8.14687 14.2024 8.28545C14.0539 8.42402 13.8564 8.49789 13.6535 8.49077L7.25945 8.49077C6.83686 8.47619 6.50609 8.1218 6.52067 7.69921C6.53524 7.27662 6.88963 6.94585 7.31222 6.96042L13.715 6.96042L13.8347 6.97406C13.9915 7.00474 14.1358 7.08459 14.2455 7.20359C14.3827 7.35234 14.4546 7.54985 14.445 7.75198ZM17.4442 12.0352C17.4442 12.4578 17.1016 12.8004 16.679 12.8004L7.30343 12.8004C6.88084 12.8004 6.53826 12.4578 6.53826 12.0352C6.53826 11.6126 6.88084 11.27 7.30343 11.27L16.679 11.27C17.1016 11.27 17.4442 11.6126 17.4442 12.0352ZM11.0677 16.2744C11.0677 16.697 10.7251 17.0396 10.3025 17.0396L7.31222 17.0396C6.88963 17.0396 6.54705 16.697 6.54705 16.2744C6.54705 15.8518 6.88963 15.5092 7.31222 15.5092L10.3025 15.5092C10.7251 15.5092 11.0677 15.8518 11.0677 16.2744Z" fill="#DCE1EA"/>
</svg>
