<svg width="24" height="25" viewBox="0 0 24 25" fill="none" xmlns="http://www.w3.org/2000/svg">
<path d="M19.083 3.50018C20.1396 3.50018 21 4.38552 21 5.47389V6.85243C21 7.379 20.7903 7.89259 20.4249 8.26064L14.4139 14.3412V18.9218C14.4139 19.2009 14.2564 19.453 14.0125 19.5699L10.1237 21.4333C10.0292 21.4787 9.92932 21.5 9.83122 21.5C9.56933 21.5 9.31823 21.347 9.20034 21.0865C9.03924 20.7268 9.18954 20.3013 9.53783 20.1344L13.0235 18.4648V14.0418C13.0235 13.8499 13.0991 13.6654 13.2323 13.531L19.452 7.23809C19.5528 7.13704 19.6095 6.99612 19.6095 6.85243V5.47389C19.6095 5.1763 19.3737 4.93249 19.083 4.93249H11.0741C10.6907 4.93249 10.3793 4.61172 10.3793 4.21587C10.3793 3.82187 10.6907 3.50018 11.0741 3.50018H19.083ZM7.69611 3.5C8.0795 3.5 8.39089 3.82516 8.39089 4.22436C8.39089 4.62355 8.0795 4.94777 7.69611 4.94777H4.91606C4.62627 4.94777 4.38957 5.19422 4.38957 5.49502V6.91937C4.38957 7.05806 4.44087 7.19206 4.53177 7.29326L10.2584 13.6607C10.3799 13.7956 10.4465 13.9718 10.4465 14.1554V17.7407C10.4465 18.1389 10.1351 18.4631 9.75167 18.4631C9.36827 18.4631 9.05688 18.1389 9.05688 17.7407V14.4412L3.51749 8.28375C3.1836 7.91173 3 7.4282 3 6.91937V5.49502C3 4.3949 3.85948 3.5 4.91606 3.5H7.69611Z" fill="black"/>
</svg>
