<svg width="93" height="24" viewBox="0 0 93 24" fill="none" xmlns="http://www.w3.org/2000/svg">
<path d="M12.012 14.8301C10.4075 14.8301 9.10962 13.5801 9.10962 12.0101C9.10962 10.4401 10.4075 9.18011 12.012 9.18011C13.6165 9.18011 14.8837 10.4401 14.8837 12.0101C14.8837 13.5801 13.6165 14.8301 12.012 14.8301Z" fill="#C02026"/>
<path opacity="0.4" d="M21.2301 14.3701C21.036 14.0701 20.76 13.7701 20.4023 13.5801C20.1162 13.4401 19.9322 13.2101 19.7687 12.9401C19.2475 12.0801 19.5541 10.9501 20.4228 10.4401C21.4447 9.87012 21.7718 8.60012 21.179 7.61012L20.4943 6.43012C19.9118 5.44012 18.6344 5.09012 17.6226 5.67012C16.7233 6.15012 15.5685 5.83012 15.0473 4.98012C14.8838 4.70012 14.7918 4.40012 14.8122 4.10012C14.8429 3.71012 14.7203 3.34012 14.5363 3.04012C14.1582 2.42012 13.4735 2.00012 12.7172 2.00012H11.2763C10.5302 2.02012 9.84553 2.42012 9.4674 3.04012C9.27323 3.34012 9.16081 3.71012 9.18125 4.10012C9.20169 4.40012 9.10972 4.70012 8.9462 4.98012C8.425 5.83012 7.27019 6.15012 6.38109 5.67012C5.35913 5.09012 4.09191 5.44012 3.49917 6.43012L2.81446 7.61012C2.23194 8.60012 2.55897 9.87012 3.57071 10.4401C4.43937 10.9501 4.74596 12.0801 4.23498 12.9401C4.06125 13.2101 3.87729 13.4401 3.59115 13.5801C3.24368 13.7701 2.93709 14.0701 2.77358 14.3701C2.39546 14.9901 2.4159 15.7701 2.79402 16.4201L3.49917 17.6201C3.87729 18.2601 4.58245 18.6601 5.31825 18.6601C5.66572 18.6601 6.0745 18.5601 6.40153 18.3601C6.65702 18.1901 6.96361 18.1301 7.30085 18.1301C8.31259 18.1301 9.16081 18.9601 9.18125 19.9501C9.18125 21.1001 10.1215 22.0001 11.3069 22.0001H12.6968C13.872 22.0001 14.8122 21.1001 14.8122 19.9501C14.8429 18.9601 15.6911 18.1301 16.7029 18.1301C17.0299 18.1301 17.3365 18.1901 17.6022 18.3601C17.9292 18.5601 18.3278 18.6601 18.6855 18.6601C19.411 18.6601 20.1162 18.2601 20.4943 17.6201L21.2097 16.4201C21.5776 15.7501 21.6083 14.9901 21.2301 14.3701Z" fill="#C02026"/>
<path d="M32.656 14.904C33.488 16.312 34.896 17.176 36.544 17.176C38.512 17.176 39.952 15.976 39.952 14.232C39.952 12.872 39.152 12.104 37.488 11.288L36.32 10.728C35.488 10.328 35.104 10.12 34.832 9.72C34.688 9.512 34.624 9.256 34.624 8.952C34.624 7.976 35.456 7.416 36.496 7.416C37.456 7.416 38.336 7.896 38.912 8.744L39.824 8.056C39.136 6.984 37.92 6.264 36.512 6.264C34.784 6.264 33.328 7.368 33.328 9.016C33.328 10.424 34.256 11.16 35.712 11.848L36.896 12.408C38.08 12.984 38.656 13.304 38.656 14.264C38.656 15.336 37.792 16.024 36.528 16.024C35.36 16.024 34.368 15.416 33.584 14.216L32.656 14.904ZM49.1619 13.48C49.2259 13.16 49.2579 12.856 49.2579 12.552C49.2579 10.488 47.7219 9.032 45.7059 9.032C43.4819 9.032 41.7219 10.856 41.7219 13.112C41.7219 15.4 43.5299 17.176 45.8499 17.176C47.0819 17.176 48.1539 16.664 48.9699 15.816L48.2499 14.984C47.5459 15.688 46.7459 16.04 45.8659 16.04C44.3299 16.04 43.1459 15.016 43.0019 13.48H49.1619ZM43.0499 12.392C43.3219 11.048 44.3779 10.152 45.6739 10.152C46.9699 10.152 47.9779 11 47.9939 12.392H43.0499ZM55.6785 15.96C55.2785 16.024 54.9425 16.056 54.6385 16.056C53.5665 16.056 52.9905 15.672 52.9905 14.568V10.312H55.4225V9.208H52.9905V7.08H51.7585V9.208H50.4465V10.312H51.7585V14.648C51.7585 16.36 52.7665 17.176 54.3825 17.176C54.7505 17.176 55.1825 17.112 55.6785 17V15.96ZM61.2879 15.96C60.8879 16.024 60.5519 16.056 60.2479 16.056C59.1759 16.056 58.5999 15.672 58.5999 14.568V10.312H61.0319V9.208H58.5999V7.08H57.3679V9.208H56.0559V10.312H57.3679V14.648C57.3679 16.36 58.3759 17.176 59.9919 17.176C60.3599 17.176 60.7919 17.112 61.2879 17V15.96ZM63.1256 17H64.3576V9.208H63.1256V17ZM62.8216 6.232C62.8216 6.744 63.2376 7.128 63.7496 7.128C64.2616 7.128 64.6616 6.744 64.6616 6.232C64.6616 5.736 64.2456 5.336 63.7496 5.336C63.2376 5.336 62.8216 5.736 62.8216 6.232ZM73.5111 12.104C73.5111 10.264 72.4231 9.032 70.6151 9.032C69.6391 9.032 68.7911 9.4 68.2151 10.04V9.208H67.0631V17H68.2951V12.248C68.2951 11.032 69.1431 10.168 70.3431 10.168C71.5431 10.168 72.2791 11.016 72.2791 12.248V17H73.5111V12.104ZM82.4456 9.208V10.456C81.8536 9.56 80.7176 9.032 79.4856 9.032C77.2936 9.032 75.6616 10.744 75.6616 12.984C75.6616 15.24 77.2936 16.92 79.4856 16.92C80.6536 16.92 81.7576 16.44 82.3816 15.624V16.312C82.3816 17.992 81.4056 18.92 79.7896 18.92C78.6216 18.92 77.7576 18.456 76.8776 17.688L76.1576 18.552C77.0376 19.432 78.3016 20.056 79.8216 20.056C82.1256 20.056 83.6136 18.616 83.6136 16.248V9.208H82.4456ZM82.3976 12.984C82.3976 14.872 81.1016 15.784 79.6776 15.784C78.0936 15.784 76.9096 14.648 76.9096 13C76.9096 11.368 78.0936 10.2 79.6776 10.2C81.0856 10.2 82.3976 11.112 82.3976 12.984ZM85.5771 15.656C86.2651 16.552 87.3211 17.176 88.6171 17.176C89.3851 17.176 90.0251 16.984 90.5531 16.584C91.0811 16.184 91.3531 15.608 91.3531 14.888C91.3531 13.816 90.7451 13.208 89.2891 12.584L88.5691 12.28C87.6251 11.88 87.3051 11.64 87.3051 11.144C87.3051 10.52 87.8331 10.168 88.6011 10.168C89.3211 10.168 89.9931 10.504 90.5211 11.032L91.2731 10.264C90.6331 9.496 89.7531 9.032 88.6651 9.032C87.1771 9.032 86.0411 9.848 86.0411 11.208C86.0411 12.248 86.6811 12.84 87.9771 13.368L88.7291 13.688C89.6891 14.072 90.0891 14.312 90.0891 14.936C90.0891 15.624 89.4491 16.04 88.6011 16.04C87.7211 16.04 87.1131 15.608 86.3611 14.84L85.5771 15.656Z" fill="#C02026"/>
</svg>
