<svg width="86" height="24" viewBox="0 0 86 24" fill="none" xmlns="http://www.w3.org/2000/svg">
<path d="M11.9491 14.5399C8.49909 14.5399 5.58813 15.1037 5.58813 17.2794C5.58813 19.4561 8.51789 20 11.9491 20C15.3991 20 18.31 19.4362 18.31 17.2605C18.31 15.0839 15.3803 14.5399 11.9491 14.5399Z" fill="#C02026"/>
<path opacity="0.4" d="M11.949 12.467C14.2851 12.467 16.1583 10.5831 16.1583 8.23351C16.1583 5.88306 14.2851 4 11.949 4C9.61293 4 7.73975 5.88306 7.73975 8.23351C7.73975 10.5831 9.61293 12.467 11.949 12.467Z" fill="#C02026"/>
<path opacity="0.4" d="M21.0881 9.21929C21.6925 6.84182 19.9205 4.7066 17.664 4.7066C17.4187 4.7066 17.1841 4.73362 16.9549 4.77955C16.9244 4.78675 16.8904 4.80206 16.8725 4.82908C16.8519 4.8633 16.8671 4.90923 16.8895 4.93895C17.5673 5.89534 17.9568 7.05976 17.9568 8.30973C17.9568 9.50747 17.5996 10.6242 16.9728 11.5508C16.9083 11.6463 16.9656 11.7751 17.0793 11.7949C17.2369 11.8228 17.3981 11.8372 17.5629 11.8417C19.2059 11.8849 20.6807 10.8214 21.0881 9.21929Z" fill="#C02026"/>
<path d="M22.8092 14.817C22.5083 14.1722 21.7821 13.73 20.6781 13.513C20.157 13.3851 18.7467 13.205 17.435 13.2293C17.4153 13.232 17.4045 13.2455 17.4027 13.2545C17.4 13.2671 17.4054 13.2887 17.4314 13.3022C18.0376 13.6039 20.3808 14.916 20.0862 17.6834C20.0737 17.8032 20.1695 17.9068 20.2886 17.8888C20.8652 17.8059 22.3489 17.4853 22.8092 16.4866C23.0635 15.9589 23.0635 15.3456 22.8092 14.817Z" fill="#C02026"/>
<path opacity="0.4" d="M7.04483 4.77979C6.8165 4.73296 6.58101 4.70685 6.33567 4.70685C4.07926 4.70685 2.30726 6.84207 2.91255 9.21953C3.31906 10.8216 4.79379 11.8852 6.43685 11.842C6.60161 11.8375 6.76368 11.8221 6.92037 11.7951C7.03409 11.7753 7.09139 11.6465 7.02692 11.5511C6.40014 10.6235 6.04288 9.50771 6.04288 8.30997C6.04288 7.0591 6.43327 5.89468 7.11109 4.93919C7.13258 4.90947 7.1487 4.86354 7.12721 4.82932C7.1093 4.80141 7.07617 4.787 7.04483 4.77979Z" fill="#C02026"/>
<path d="M3.32156 13.5126C2.21752 13.7297 1.49225 14.1718 1.19139 14.8166C0.936203 15.3453 0.936203 15.9585 1.19139 16.4872C1.65163 17.485 3.13531 17.8065 3.71195 17.8884C3.83104 17.9065 3.92595 17.8038 3.91342 17.6831C3.61883 14.9166 5.9621 13.6045 6.56918 13.3028C6.59425 13.2884 6.59962 13.2677 6.59694 13.2542C6.59515 13.2452 6.5853 13.2317 6.5656 13.2299C5.25294 13.2046 3.84358 13.3848 3.32156 13.5126Z" fill="#C02026"/>
<path d="M33.456 17H34.704V6.44H33.456V17ZM36.48 11.336L41.2 6.44H39.6L34.848 11.336L40.048 17H41.632L36.48 11.336ZM43.485 17H44.717V5H43.485V17ZM47.4225 17H48.6545V9.208H47.4225V17ZM47.1185 6.232C47.1185 6.744 47.5345 7.128 48.0465 7.128C48.5585 7.128 48.9585 6.744 48.9585 6.232C48.9585 5.736 48.5425 5.336 48.0465 5.336C47.5345 5.336 47.1185 5.736 47.1185 6.232ZM57.6 9.208V10.456C57.008 9.56 55.872 9.032 54.656 9.032C52.464 9.032 50.8 10.808 50.8 13.096C50.8 15.384 52.464 17.176 54.656 17.176C55.824 17.176 56.912 16.696 57.536 15.864V19.88H58.768V9.208H57.6ZM57.552 13.096C57.552 15.08 56.24 16.04 54.832 16.04C53.248 16.04 52.064 14.792 52.064 13.112C52.064 11.432 53.248 10.168 54.832 10.168C56.24 10.168 57.552 11.128 57.552 13.096ZM61.3734 13.896C61.3734 15.864 62.7814 17.176 64.6054 17.176C66.4134 17.176 67.8214 15.864 67.8214 13.896V9.208H66.5894V13.976C66.5894 15.208 65.7414 16.04 64.6054 16.04C63.4534 16.04 62.5894 15.24 62.5894 13.976V9.208H61.3734V13.896ZM77.3025 13.48C77.3665 13.16 77.3985 12.856 77.3985 12.552C77.3985 10.488 75.8625 9.032 73.8465 9.032C71.6225 9.032 69.8625 10.856 69.8625 13.112C69.8625 15.4 71.6705 17.176 73.9905 17.176C75.2225 17.176 76.2945 16.664 77.1105 15.816L76.3905 14.984C75.6865 15.688 74.8865 16.04 74.0065 16.04C72.4705 16.04 71.2865 15.016 71.1425 13.48H77.3025ZM71.1905 12.392C71.4625 11.048 72.5185 10.152 73.8145 10.152C75.1105 10.152 76.1185 11 76.1345 12.392H71.1905ZM78.8271 15.656C79.5151 16.552 80.5711 17.176 81.8671 17.176C82.6351 17.176 83.2751 16.984 83.8031 16.584C84.3311 16.184 84.6031 15.608 84.6031 14.888C84.6031 13.816 83.9951 13.208 82.5391 12.584L81.8191 12.28C80.8751 11.88 80.5551 11.64 80.5551 11.144C80.5551 10.52 81.0831 10.168 81.8511 10.168C82.5711 10.168 83.2431 10.504 83.7711 11.032L84.5231 10.264C83.8831 9.496 83.0031 9.032 81.9151 9.032C80.4271 9.032 79.2911 9.848 79.2911 11.208C79.2911 12.248 79.9311 12.84 81.2271 13.368L81.9791 13.688C82.9391 14.072 83.3391 14.312 83.3391 14.936C83.3391 15.624 82.6991 16.04 81.8511 16.04C80.9711 16.04 80.3631 15.608 79.6111 14.84L78.8271 15.656Z" fill="#C02026"/>
</svg>
