<svg width="118" height="24" viewBox="0 0 118 24" fill="none" xmlns="http://www.w3.org/2000/svg">
<path d="M11.9491 14.5399C8.49909 14.5399 5.58813 15.1037 5.58813 17.2794C5.58813 19.4561 8.51789 20 11.9491 20C15.3991 20 18.31 19.4362 18.31 17.2605C18.31 15.0839 15.3803 14.5399 11.9491 14.5399Z" fill="#C02026"/>
<path opacity="0.4" d="M11.949 12.467C14.2851 12.467 16.1583 10.5831 16.1583 8.23351C16.1583 5.88306 14.2851 4 11.949 4C9.61293 4 7.73975 5.88306 7.73975 8.23351C7.73975 10.5831 9.61293 12.467 11.949 12.467Z" fill="#C02026"/>
<path opacity="0.4" d="M21.0881 9.21929C21.6925 6.84182 19.9205 4.7066 17.664 4.7066C17.4187 4.7066 17.1841 4.73362 16.9549 4.77955C16.9244 4.78675 16.8904 4.80206 16.8725 4.82908C16.8519 4.8633 16.8671 4.90923 16.8895 4.93895C17.5673 5.89534 17.9568 7.05976 17.9568 8.30973C17.9568 9.50747 17.5996 10.6242 16.9728 11.5508C16.9083 11.6463 16.9656 11.7751 17.0793 11.7949C17.2369 11.8228 17.3981 11.8372 17.5629 11.8417C19.2059 11.8849 20.6807 10.8214 21.0881 9.21929Z" fill="#C02026"/>
<path d="M22.8092 14.817C22.5083 14.1722 21.7821 13.73 20.6781 13.513C20.157 13.3851 18.7467 13.205 17.435 13.2293C17.4153 13.232 17.4045 13.2455 17.4027 13.2545C17.4 13.2671 17.4054 13.2887 17.4314 13.3022C18.0376 13.6039 20.3808 14.916 20.0862 17.6834C20.0737 17.8032 20.1695 17.9068 20.2886 17.8888C20.8652 17.8059 22.3489 17.4853 22.8092 16.4866C23.0635 15.9589 23.0635 15.3456 22.8092 14.817Z" fill="#C02026"/>
<path opacity="0.4" d="M7.04483 4.77979C6.8165 4.73296 6.58101 4.70685 6.33567 4.70685C4.07926 4.70685 2.30726 6.84207 2.91255 9.21953C3.31906 10.8216 4.79379 11.8852 6.43685 11.842C6.60161 11.8375 6.76368 11.8221 6.92037 11.7951C7.03409 11.7753 7.09139 11.6465 7.02692 11.5511C6.40014 10.6235 6.04288 9.50771 6.04288 8.30997C6.04288 7.0591 6.43327 5.89468 7.11109 4.93919C7.13258 4.90947 7.1487 4.86354 7.12721 4.82932C7.1093 4.80141 7.07617 4.787 7.04483 4.77979Z" fill="#C02026"/>
<path d="M3.32156 13.5126C2.21752 13.7297 1.49225 14.1718 1.19139 14.8166C0.936203 15.3453 0.936203 15.9585 1.19139 16.4872C1.65163 17.485 3.13531 17.8065 3.71195 17.8884C3.83104 17.9065 3.92595 17.8038 3.91342 17.6831C3.61883 14.9166 5.9621 13.6045 6.56918 13.3028C6.59425 13.2884 6.59962 13.2677 6.59694 13.2542C6.59515 13.2452 6.5853 13.2317 6.5656 13.2299C5.25294 13.2046 3.84358 13.3848 3.32156 13.5126Z" fill="#C02026"/>
<path d="M32.768 11.72C32.704 14.744 35.264 17.224 38.256 17.176C40.128 17.176 41.76 16.296 42.64 14.904L41.712 14.168C40.896 15.336 39.728 16.024 38.272 16.024C35.888 16.024 34.064 14.168 34.064 11.72C34.064 9.272 35.888 7.416 38.272 7.416C39.728 7.416 40.896 8.104 41.712 9.272L42.64 8.536C41.744 7.144 40.128 6.264 38.256 6.264C35.264 6.216 32.704 8.696 32.768 11.72ZM44.0813 13.096C44.0493 15.288 45.9213 17.208 48.1453 17.16C50.3693 17.208 52.2893 15.288 52.2413 13.096C52.2893 10.872 50.3853 9 48.1613 9.032C45.9373 8.984 44.0333 10.872 44.0813 13.096ZM50.9773 13.112C50.9773 14.744 49.7293 16.024 48.1453 16.024C46.5613 16.024 45.3453 14.744 45.3453 13.112C45.3453 11.432 46.5613 10.168 48.1613 10.168C49.7453 10.168 50.9773 11.432 50.9773 13.112ZM65.7829 12.104C65.7829 10.248 64.7429 9.032 62.9509 9.032C61.7989 9.032 60.8549 9.56 60.2789 10.376C59.8309 9.528 59.0149 9.032 57.8789 9.032C56.9189 9.032 56.1189 9.384 55.5589 10.024V9.208H54.4069V17H55.6389V12.264C55.6389 11.032 56.4549 10.168 57.6229 10.168C58.7589 10.168 59.4789 11 59.4789 12.264V17H60.7109V12.152C60.7109 11.048 61.5429 10.168 62.7109 10.168C63.8629 10.168 64.5509 11 64.5509 12.264V17H65.7829V12.104ZM79.7673 12.104C79.7673 10.248 78.7273 9.032 76.9353 9.032C75.7833 9.032 74.8393 9.56 74.2633 10.376C73.8153 9.528 72.9993 9.032 71.8633 9.032C70.9033 9.032 70.1033 9.384 69.5433 10.024V9.208H68.3913V17H69.6233V12.264C69.6233 11.032 70.4393 10.168 71.6073 10.168C72.7433 10.168 73.4633 11 73.4633 12.264V17H74.6953V12.152C74.6953 11.048 75.5273 10.168 76.6953 10.168C77.8473 10.168 78.5353 11 78.5353 12.264V17H79.7673V12.104ZM82.2796 13.896C82.2796 15.864 83.6876 17.176 85.5116 17.176C87.3196 17.176 88.7276 15.864 88.7276 13.896V9.208H87.4956V13.976C87.4956 15.208 86.6476 16.04 85.5116 16.04C84.3596 16.04 83.4956 15.24 83.4956 13.976V9.208H82.2796V13.896ZM97.7768 12.104C97.7768 10.264 96.6888 9.032 94.8808 9.032C93.9048 9.032 93.0568 9.4 92.4808 10.04V9.208H91.3288V17H92.5608V12.248C92.5608 11.032 93.4088 10.168 94.6088 10.168C95.8088 10.168 96.5448 11.016 96.5448 12.248V17H97.7768V12.104ZM100.391 17H101.623V9.208H100.391V17ZM100.087 6.232C100.087 6.744 100.503 7.128 101.015 7.128C101.527 7.128 101.927 6.744 101.927 6.232C101.927 5.736 101.511 5.336 101.015 5.336C100.503 5.336 100.087 5.736 100.087 6.232ZM108.585 15.96C108.185 16.024 107.849 16.056 107.545 16.056C106.473 16.056 105.897 15.672 105.897 14.568V10.312H108.329V9.208H105.897V7.08H104.665V9.208H103.353V10.312H104.665V14.648C104.665 16.36 105.673 17.176 107.289 17.176C107.657 17.176 108.089 17.112 108.585 17V15.96ZM115.959 9.208L113.383 15.416L110.807 9.208H109.479L112.711 16.76L112.295 17.688C111.895 18.632 111.351 18.936 110.535 18.936C110.311 18.936 109.991 18.904 109.59 18.856V19.896C109.991 20.008 110.391 20.056 110.791 20.056C111.991 20.056 112.839 19.448 113.431 18.088L117.271 9.208H115.959Z" fill="#C02026"/>
</svg>
