<svg width="18" height="18" viewBox="0 0 18 18" fill="none" xmlns="http://www.w3.org/2000/svg">
<g clip-path="url(#clip0_2597_19100)">
<path d="M15.7499 3H13.4249C13.2508 2.15356 12.7902 1.39301 12.1208 0.846539C11.4514 0.300068 10.614 0.00109089 9.74988 0L8.24988 0C7.38572 0.00109089 6.54837 0.300068 5.87894 0.846539C5.20951 1.39301 4.74895 2.15356 4.57488 3H2.24988C2.05097 3 1.8602 3.07902 1.71955 3.21967C1.5789 3.36032 1.49988 3.55109 1.49988 3.75C1.49988 3.94891 1.5789 4.13968 1.71955 4.28033C1.8602 4.42098 2.05097 4.5 2.24988 4.5H2.99988V14.25C3.00107 15.2442 3.39654 16.1973 4.09954 16.9003C4.80255 17.6033 5.75568 17.9988 6.74988 18H11.2499C12.2441 17.9988 13.1972 17.6033 13.9002 16.9003C14.6032 16.1973 14.9987 15.2442 14.9999 14.25V4.5H15.7499C15.9488 4.5 16.1396 4.42098 16.2802 4.28033C16.4209 4.13968 16.4999 3.94891 16.4999 3.75C16.4999 3.55109 16.4209 3.36032 16.2802 3.21967C16.1396 3.07902 15.9488 3 15.7499 3ZM8.24988 1.5H9.74988C10.2151 1.50057 10.6687 1.64503 11.0486 1.91358C11.4285 2.18213 11.7159 2.56162 11.8716 3H6.12813C6.28381 2.56162 6.5713 2.18213 6.95117 1.91358C7.33103 1.64503 7.78467 1.50057 8.24988 1.5ZM13.4999 14.25C13.4999 14.8467 13.2628 15.419 12.8409 15.841C12.4189 16.2629 11.8466 16.5 11.2499 16.5H6.74988C6.15314 16.5 5.58084 16.2629 5.15889 15.841C4.73693 15.419 4.49988 14.8467 4.49988 14.25V4.5H13.4999V14.25Z" fill="black"/>
<path d="M7.5 13.4995C7.69891 13.4995 7.88968 13.4205 8.03033 13.2798C8.17098 13.1392 8.25 12.9484 8.25 12.7495V8.24951C8.25 8.0506 8.17098 7.85983 8.03033 7.71918C7.88968 7.57853 7.69891 7.49951 7.5 7.49951C7.30109 7.49951 7.11032 7.57853 6.96967 7.71918C6.82902 7.85983 6.75 8.0506 6.75 8.24951V12.7495C6.75 12.9484 6.82902 13.1392 6.96967 13.2798C7.11032 13.4205 7.30109 13.4995 7.5 13.4995Z" fill="black"/>
<path d="M10.4999 13.4995C10.6988 13.4995 10.8896 13.4205 11.0302 13.2798C11.1709 13.1392 11.2499 12.9484 11.2499 12.7495V8.24951C11.2499 8.0506 11.1709 7.85983 11.0302 7.71918C10.8896 7.57853 10.6988 7.49951 10.4999 7.49951C10.301 7.49951 10.1102 7.57853 9.96955 7.71918C9.8289 7.85983 9.74988 8.0506 9.74988 8.24951V12.7495C9.74988 12.9484 9.8289 13.1392 9.96955 13.2798C10.1102 13.4205 10.301 13.4995 10.4999 13.4995Z" fill="black"/>
</g>
<defs>
<clipPath id="clip0_2597_19100">
<rect width="18" height="18" fill="white"/>
</clipPath>
</defs>
</svg>
