<svg width="12" height="12" viewBox="0 0 12 12" fill="none" xmlns="http://www.w3.org/2000/svg">
<path d="M6.01665 1C8.35984 1.00921 10.2592 2.92099 10.25 5.26116V5.30764C10.2183 6.98001 9.21291 8.3678 8.37521 9.23731C8.1368 9.48593 7.88303 9.72446 7.62136 9.94721C7.46462 10.0809 7.2293 10.0625 7.09539 9.90599C6.96148 9.74901 6.98036 9.51399 7.1371 9.38025C7.37945 9.17373 7.61522 8.95186 7.83693 8.72078C8.58244 7.9473 9.47633 6.72437 9.50355 5.29405C9.51102 3.32921 7.94582 1.75287 6.01358 1.74498H5.99997C4.07431 1.74498 2.50384 3.30597 2.49638 5.23047C2.52931 6.18109 2.85069 7.0848 3.42628 7.84294C4.09802 8.73744 5.11704 9.68456 6.08558 10.3151C6.25856 10.4273 6.3073 10.658 6.19446 10.8307C6.12334 10.9404 6.00348 11 5.88142 11C5.81162 11 5.74137 10.9807 5.67815 10.9395C4.64112 10.2647 3.54965 9.25002 2.83005 8.29194C2.16226 7.41191 1.78864 6.36175 1.75 5.25634C1.75922 2.89292 3.66424 1 5.99997 1H6.01665ZM5.99865 3.6917C6.89035 3.6917 7.61609 4.41608 7.61609 5.30707C7.61609 6.19762 6.89035 6.92199 5.99865 6.92199C5.10695 6.92199 4.3812 6.19762 4.3812 5.30707C4.3812 5.10098 4.54848 4.93436 4.75439 4.93436C4.96031 4.93436 5.12758 5.10098 5.12758 5.30707C5.12758 5.78633 5.51833 6.17702 5.99865 6.17702C6.47897 6.17702 6.86972 5.78633 6.86972 5.30707C6.86972 4.82737 6.47897 4.43668 5.99865 4.43668C5.79274 4.43668 5.62546 4.27006 5.62546 4.06441C5.62546 3.85833 5.79274 3.6917 5.99865 3.6917Z" fill="#717E95"/>
</svg>
