<svg width="18" height="18" viewBox="0 0 18 18" fill="none" xmlns="http://www.w3.org/2000/svg">
<path d="M3.5 11.5L7.709 11.5L6.86675 14.0252C6.71525 14.4812 6.79175 14.9867 7.073 15.3767C7.35425 15.7667 7.81025 16 8.291 16L9.5 16C9.72275 16 9.9335 15.901 10.0767 15.73L13.6017 11.5L15.5 11.5C16.3272 11.5 17 10.8273 17 10L17 3.25C17 2.42275 16.3272 1.75 15.5 1.75L5.51975 1.75C5.21458 1.75101 4.91691 1.84462 4.66608 2.01844C4.41526 2.19227 4.2231 2.43812 4.115 2.7235L2.04725 8.23675C2.01585 8.32096 1.99985 8.41013 2 8.5L2 10C2 10.8272 2.67275 11.5 3.5 11.5ZM15.5 10L14 10L14 3.25L15.5 3.25L15.5 10ZM3.5 8.63575L5.51975 3.25L12.5 3.25L12.5 10.4785L9.149 14.5L8.2895 14.5L9.461 10.9878C9.49903 10.875 9.50967 10.7548 9.49194 10.6372C9.47425 10.5195 9.42876 10.4078 9.35925 10.3112C9.28974 10.2146 9.19822 10.136 9.09226 10.0819C8.98631 10.0278 8.86898 9.9997 8.75 10L3.5 10L3.5 8.63575Z" fill="white"/>
<path d="M9.5 14.8125L7.83333 14.8125L8.66667 10.8542L3.66667 10.4583L2.83333 9.66667L3.66667 6.5L5.75 2.54167L13.25 2.54167L13.25 10.4583L9.5 14.8125Z" fill="white" stroke="white"/>
</svg>
