<svg width="24" height="25" viewBox="0 0 24 25" fill="none" xmlns="http://www.w3.org/2000/svg">
<path fill-rule="evenodd" clip-rule="evenodd" d="M16.436 1.5C20.063 1.5 22.5 4.046 22.5 7.835V16.665C22.5 20.454 20.063 23 16.436 23H7.064C3.437 23 1 20.454 1 16.665V7.835C1 4.046 3.437 1.5 7.064 1.5H16.436ZM16.436 3H7.064C4.292 3 2.5 4.897 2.5 7.835V16.665C2.5 19.603 4.292 21.5 7.064 21.5H16.436C19.209 21.5 21 19.603 21 16.665V7.835C21 4.897 19.209 3 16.436 3ZM11.75 7.8273C12.164 7.8273 12.5 8.1633 12.5 8.5773V11.49L15.4165 11.4902C15.8305 11.4902 16.1665 11.8262 16.1665 12.2402C16.1665 12.6542 15.8305 12.9902 15.4165 12.9902L12.5 12.99V15.9043C12.5 16.3183 12.164 16.6543 11.75 16.6543C11.336 16.6543 11 16.3183 11 15.9043V12.99L8.0835 12.9902C7.6685 12.9902 7.3335 12.6542 7.3335 12.2402C7.3335 11.8262 7.6685 11.4902 8.0835 11.4902L11 11.49V8.5773C11 8.1633 11.336 7.8273 11.75 7.8273Z" fill="black"/>
</svg>
