<svg width="286" height="291" viewBox="0 0 286 291" fill="none" xmlns="http://www.w3.org/2000/svg">
<path d="M129.383 26.0286L133.763 19.0081L131.61 17.6747C131.303 17.4782 131.056 17.2017 130.895 16.8751C130.734 16.5484 130.665 16.1841 130.696 15.8212C130.736 15.4114 130.75 14.9994 130.736 14.5878C130.732 14.2271 130.824 13.8718 131.005 13.5596C131.186 13.2474 131.448 12.9899 131.763 12.8144L133.99 11.6143L130.063 4.33378L127.836 5.52719C127.515 5.69824 127.153 5.77639 126.79 5.75283C126.428 5.72928 126.079 5.60495 125.783 5.39385C125.446 5.15266 125.097 4.93009 124.736 4.72714C124.417 4.55282 124.152 4.29502 123.969 3.98141C123.786 3.66779 123.691 3.31021 123.696 2.94702L123.776 0.413508L115.522 0.160156L115.442 2.69366C115.429 3.0576 115.314 3.4107 115.112 3.71334C114.909 4.01599 114.627 4.25623 114.295 4.40711C114.108 4.49379 113.928 4.58046 113.748 4.68047C113.568 4.78047 113.395 4.87381 113.222 4.98049C112.913 5.17038 112.557 5.27091 112.195 5.27091C111.832 5.27091 111.477 5.17038 111.168 4.98049L109.001 3.64706L104.648 10.6675L106.801 12.001C107.107 12.197 107.353 12.4724 107.514 12.7977C107.675 13.123 107.744 13.486 107.715 13.8478C107.675 14.2576 107.661 14.6696 107.675 15.0812C107.681 15.443 107.588 15.7997 107.407 16.1132C107.227 16.4267 106.964 16.6852 106.648 16.8613L104.428 18.0881L108.328 25.3686L110.561 24.1751C110.881 24.0054 111.242 23.928 111.604 23.9516C111.965 23.9751 112.313 24.0987 112.608 24.3085C112.948 24.5418 113.275 24.7552 113.655 24.9752C113.977 25.146 114.244 25.403 114.428 25.7175C114.612 26.0319 114.704 26.3913 114.695 26.7553L114.615 29.2888L122.876 29.5488L122.956 27.0087C122.969 26.6465 123.083 26.2952 123.286 25.9947C123.489 25.6942 123.772 25.4565 124.102 25.3086C124.282 25.2219 124.469 25.1285 124.649 25.0285C124.829 24.9285 125.002 24.8352 125.176 24.7285C125.488 24.5403 125.845 24.4409 126.209 24.4409C126.573 24.4409 126.931 24.5403 127.243 24.7285L129.383 26.0286ZM122.429 20.8149C121.249 21.4474 119.909 21.7158 118.577 21.5863C117.244 21.4568 115.98 20.9352 114.945 20.0873C113.909 19.2395 113.148 18.1036 112.758 16.8232C112.368 15.5429 112.366 14.1756 112.753 12.8943C113.14 11.613 113.898 10.4753 114.932 9.62493C115.966 8.7746 117.228 8.24989 118.56 8.11716C119.892 7.98443 121.233 8.24963 122.415 8.87924C123.596 9.50884 124.564 10.4746 125.196 11.6543C125.616 12.4373 125.879 13.2955 125.967 14.1799C126.056 15.0643 125.969 15.9575 125.712 16.8084C125.455 17.6592 125.033 18.4511 124.469 19.1385C123.906 19.826 123.213 20.3957 122.429 20.8149Z" fill="#EBEBEB"/>
<path d="M13.2809 116.52L18.2946 113.607L17.4078 112.073C17.2819 111.851 17.2201 111.598 17.2296 111.342C17.239 111.087 17.3192 110.839 17.4612 110.627C17.6145 110.387 17.7612 110.14 17.8945 109.88C18.0049 109.658 18.1751 109.471 18.3859 109.34C18.5968 109.209 18.8399 109.14 19.088 109.14H20.8881V103.346H19.088C18.8332 103.349 18.5829 103.279 18.3667 103.145C18.1505 103.01 17.9774 102.816 17.8679 102.586C17.7345 102.326 17.5878 102.079 17.4345 101.839C17.2925 101.627 17.2123 101.379 17.2029 101.124C17.1935 100.868 17.2552 100.615 17.3812 100.393L18.2679 98.8592L13.2542 95.9656L12.4208 97.5058C12.2909 97.7237 12.1031 97.9013 11.8783 98.019C11.6535 98.1367 11.4005 98.1898 11.1474 98.1725C11.0074 98.1725 10.8607 98.1725 10.7207 98.1725C10.5807 98.1725 10.434 98.1725 10.294 98.1725C10.041 98.1891 9.78829 98.1356 9.56365 98.018C9.33901 97.9004 9.15112 97.7232 9.02059 97.5058L8.1272 95.959L3.08685 98.8592L3.98024 100.399C4.10638 100.62 4.16822 100.872 4.15879 101.127C4.14937 101.381 4.06905 101.628 3.9269 101.839C3.76967 102.081 3.62503 102.33 3.49354 102.586C3.38402 102.816 3.21091 103.01 2.99468 103.145C2.77846 103.279 2.52818 103.349 2.27346 103.346H0.5V109.14H2.27346C2.52818 109.137 2.77846 109.207 2.99468 109.341C3.21091 109.476 3.38402 109.67 3.49354 109.9C3.62503 110.156 3.76967 110.405 3.9269 110.647C4.06905 110.858 4.14937 111.105 4.15879 111.359C4.16822 111.614 4.10638 111.866 3.98024 112.087L3.08685 113.607L8.10053 116.5L8.99392 114.96C9.12331 114.742 9.31099 114.564 9.53591 114.446C9.76083 114.328 10.0141 114.275 10.2673 114.294H10.694H11.1207C11.374 114.275 11.6272 114.328 11.8522 114.446C12.0771 114.564 12.2648 114.742 12.3942 114.96L13.2809 116.52ZM10.694 110.987C9.75347 110.988 8.83372 110.71 8.0515 110.188C7.26928 109.665 6.65984 108.922 6.30053 108.053C5.94122 107.184 5.84823 106.228 6.03335 105.305C6.21848 104.383 6.67339 103.537 7.34034 102.874C8.00729 102.21 8.85623 101.76 9.77942 101.58C10.7026 101.4 11.6585 101.499 12.5256 101.863C13.3928 102.227 14.1323 102.841 14.6501 103.626C15.168 104.411 15.441 105.332 15.4344 106.273C15.4273 107.526 14.9248 108.724 14.0366 109.608C13.1483 110.491 11.9466 110.987 10.694 110.987Z" fill="#EBEBEB"/>
<path d="M164.491 32.2698L161.598 27.2561L160.064 28.1428C159.844 28.2699 159.592 28.3329 159.338 28.3247C159.083 28.3164 158.836 28.2373 158.624 28.0961C158.382 27.9375 158.13 27.7928 157.871 27.6628C157.637 27.5493 157.441 27.372 157.304 27.1513C157.167 26.9307 157.095 26.6757 157.098 26.416V24.6426H151.311V26.416C151.313 26.6715 151.242 26.9223 151.106 27.1386C150.97 27.3549 150.775 27.5276 150.544 27.6361C150.288 27.7676 150.038 27.9123 149.797 28.0695C149.585 28.2106 149.338 28.2898 149.084 28.298C148.829 28.3062 148.578 28.2433 148.357 28.1162L146.824 27.2294L143.943 32.2698L145.483 33.1565C145.702 33.2876 145.88 33.4765 145.997 33.7024C146.115 33.9284 146.168 34.1825 146.15 34.4366C146.15 34.5766 146.15 34.7166 146.15 34.8633C146.15 35.01 146.15 35.15 146.15 35.29C146.171 35.5427 146.119 35.796 146.001 36.0204C145.883 36.2448 145.704 36.4308 145.483 36.5567L143.943 37.4501L146.837 42.4638L148.37 41.5771C148.593 41.4511 148.846 41.3894 149.101 41.3988C149.357 41.4082 149.605 41.4884 149.817 41.6304C150.057 41.7838 150.304 41.9304 150.564 42.0638C150.791 42.1771 150.982 42.3511 151.116 42.5664C151.25 42.7818 151.322 43.0301 151.324 43.2839V45.0573H157.098V43.2839C157.099 43.0301 157.171 42.7818 157.305 42.5664C157.439 42.3511 157.631 42.1771 157.858 42.0638C158.118 41.9304 158.364 41.7838 158.604 41.6304C158.816 41.4883 159.062 41.408 159.317 41.3985C159.571 41.3891 159.823 41.4509 160.044 41.5771L161.585 42.4638L164.478 37.4501L162.938 36.5634C162.72 36.4334 162.542 36.2457 162.425 36.0209C162.307 35.7961 162.254 35.5431 162.271 35.29C162.271 35.15 162.271 35.0033 162.271 34.8633C162.271 34.7233 162.271 34.5766 162.271 34.4366C162.253 34.1825 162.306 33.9284 162.424 33.7024C162.542 33.4765 162.72 33.2876 162.938 33.1565L164.491 32.2698ZM158.958 34.8633C158.956 35.8005 158.677 36.7164 158.156 37.4951C157.634 38.2737 156.893 38.8803 156.027 39.238C155.161 39.5958 154.208 39.6887 153.289 39.505C152.369 39.3214 151.525 38.8694 150.863 38.2062C150.201 37.543 149.75 36.6983 149.568 35.779C149.385 34.8596 149.48 33.9068 149.839 33.041C150.198 32.1752 150.805 31.4353 151.585 30.9147C152.364 30.3941 153.28 30.1163 154.217 30.1163C155.471 30.1163 156.674 30.613 157.562 31.4976C158.451 32.3823 158.952 33.5829 158.958 34.8366V34.8633Z" fill="#EBEBEB"/>
<path d="M275.106 193.286L266.205 193.473L261.819 193.546C260.358 193.579 258.912 193.546 257.452 193.586L257.752 193.286L257.785 200.746L257.452 200.413L266.279 200.453C269.226 200.453 272.166 200.533 275.106 200.566L274.926 200.746C274.926 199.526 274.986 198.3 275.013 197.053L275.106 193.286ZM275.106 193.286L275.206 196.979C275.206 198.22 275.279 199.48 275.293 200.746V200.946H275.106C272.166 200.946 269.226 201.053 266.279 201.06L257.452 201.1H257.118V200.766L257.158 193.306V193.006H257.452C258.945 193.006 260.432 193.006 261.919 193.039L266.359 193.113L275.106 193.286Z" fill="#EBEBEB"/>
<path d="M185.906 133.334H168.252V140.795H185.906V133.334Z" fill="#EBEBEB"/>
<path d="M176.059 123.927L167.159 124.107L162.772 124.187C161.312 124.187 159.858 124.187 158.405 124.187L158.705 123.894V131.348L158.371 131.021L167.199 131.061C170.145 131.061 173.086 131.135 176.026 131.168L175.846 131.348C175.846 130.128 175.906 128.901 175.933 127.661L176.059 123.927ZM176.059 123.927L176.153 127.614C176.186 128.861 176.233 130.121 176.246 131.381V131.561H176.059C173.119 131.595 170.179 131.668 167.232 131.668L158.405 131.708H158.071V131.368L158.111 123.914V123.607H158.431C159.918 123.607 161.412 123.607 162.898 123.641L167.339 123.721L176.059 123.927Z" fill="#EBEBEB"/>
<path d="M195.767 123.927L186.86 124.107L182.473 124.187C181.013 124.187 179.566 124.187 178.113 124.187L178.406 123.894L178.446 131.348L178.113 131.021L186.94 131.061C189.88 131.061 192.82 131.135 195.767 131.168L195.581 131.348C195.581 130.128 195.641 128.901 195.667 127.661L195.767 123.927ZM195.767 123.927L195.861 127.614C195.861 128.861 195.934 130.121 195.947 131.381V131.561H195.767C192.82 131.595 189.88 131.668 186.94 131.668L178.113 131.708H177.766V131.368L177.799 123.914V123.607H178.099C179.586 123.607 181.073 123.607 182.56 123.641L187 123.721L195.767 123.927Z" fill="#EBEBEB"/>
<path d="M16.9079 14.8954L25.8085 14.7154L30.1955 14.6354C31.6556 14.6354 33.109 14.6354 34.5624 14.6354L34.2624 14.9288L34.2291 7.46825L34.5624 7.80161L25.7551 7.72827C22.8083 7.72827 19.8681 7.65493 16.9279 7.6216L17.1079 7.43492C17.1079 8.66167 17.0479 9.88842 17.0212 11.1285L16.9079 14.8954ZM16.9079 14.8954L16.8079 11.2085C16.8079 9.96176 16.7345 8.70167 16.7212 7.43492V7.25491H16.9079C19.8481 7.25491 22.7883 7.14823 25.7351 7.14823L34.5624 7.10156H34.8958V7.43492L34.8558 14.8954V15.1955H34.5624C33.0757 15.1955 31.5822 15.1955 30.0955 15.1555L25.6551 15.0821L16.9079 14.8954Z" fill="#EBEBEB"/>
<path d="M7.05394 24.3086L24.7085 24.3086V16.8481H7.05394V24.3086Z" fill="#EBEBEB"/>
<path d="M257.478 14.9338L266.385 14.7471L270.772 14.6738C272.232 14.6738 273.679 14.6738 275.132 14.6338L274.839 14.9338L274.806 7.47331L275.132 7.80666L266.305 7.73332C263.365 7.73332 260.425 7.65999 257.478 7.62665L257.665 7.44664C257.665 8.66672 257.605 9.89347 257.578 11.1336L257.478 14.9338ZM257.478 14.9338L257.385 11.2402C257.385 9.99348 257.311 8.73339 257.298 7.47331V7.26662H257.478C260.425 7.23329 263.365 7.15995 266.305 7.15995L275.106 7.11328H275.446V7.4533L275.432 14.9338V15.2338H275.106C273.619 15.2338 272.132 15.2338 270.645 15.2338L266.205 15.1538L257.478 14.9338Z" fill="#EBEBEB"/>
<path d="M138.817 233.93H121.162V241.39H138.817V233.93Z" fill="#EBEBEB"/>
<path d="M24.7155 196.073L15.8082 196.28L11.4212 196.353C9.96111 196.387 8.51435 196.353 7.06091 196.393L7.35427 196.093L7.3876 203.554L7.06091 203.221L15.8882 203.261C18.8284 203.261 21.7686 203.341 24.7155 203.374L24.5288 203.554C24.5288 202.334 24.5888 201.107 24.6155 199.86L24.7155 196.073ZM24.7155 196.073L24.8088 199.767C24.8088 201.007 24.8821 202.267 24.8955 203.534V203.714H24.7155C21.7686 203.747 18.8284 203.821 15.8882 203.827L7.08758 203.867H6.74756V203.534V196.073V195.773H7.08758C8.57435 195.773 10.0611 195.773 11.5479 195.813L15.9882 195.887L24.7155 196.073Z" fill="#EBEBEB"/>
<path d="M128.969 224.522L120.062 224.708L115.675 224.782C114.221 224.815 112.768 224.782 111.314 224.822L111.608 224.522L111.648 231.982L111.314 231.649L120.142 231.695C123.082 231.695 126.029 231.769 128.969 231.802L128.789 231.982C128.789 230.762 128.842 229.535 128.876 228.295L128.969 224.522ZM128.969 224.522L129.062 228.215C129.096 229.462 129.136 230.715 129.149 231.982V232.162H128.969C126.029 232.195 123.082 232.262 120.142 232.269L111.314 232.309H110.981V231.975V224.515V224.215H111.281C112.768 224.215 114.261 224.215 115.741 224.248L120.182 224.322L128.969 224.522Z" fill="#EBEBEB"/>
<path d="M193.807 159.938V260.611H254.671V159.938H193.807ZM249.144 223.469H199.334V197.253H249.144V223.469ZM249.144 191.013H199.334V164.805H249.144V191.013Z" fill="#DBDBDB"/>
<path d="M282.2 159.945H254.678V260.626H282.2V159.945Z" fill="#EBEBEB"/>
<path d="M211.168 164.803H199.334V191.011H211.168V164.803Z" fill="#EBEBEB"/>
<path d="M249.318 254.472H199.481V229.137H249.318V254.472ZM199.814 254.138H248.984V229.47H199.814V254.138Z" fill="#EBEBEB"/>
<path d="M229.316 236.344H219.482V239.937H229.316V236.344Z" fill="#EBEBEB"/>
<path d="M211.168 197.262H199.334V223.47H211.168V197.262Z" fill="#EBEBEB"/>
<path d="M242.331 223.462V199.301H234.003V223.462H242.331Z" fill="#A6A6A6"/>
<path d="M242.337 219.589V214.375H234.01V219.589H242.337Z" fill="#DBDBDB"/>
<path d="M242.331 210.176V207.082H234.003V210.176H242.331Z" fill="#DBDBDB"/>
<path d="M234.909 170.791H213.861V191.012H234.909V170.791Z" fill="#EBEBEB"/>
<path d="M242.904 170.791H234.903V191.012H242.904V170.791Z" fill="#C7C7C7"/>
<path d="M213.861 180.906H234.903L218.468 181.426L213.861 180.906Z" fill="#C7C7C7"/>
<path d="M234.903 188.572H213.861L230.296 189.092L234.903 188.572Z" fill="#C7C7C7"/>
<path d="M213.861 175.252H227.189L215.341 175.679L213.861 175.252Z" fill="#C7C7C7"/>
<path d="M234.903 185.592H221.575L233.423 186.018L234.903 185.592Z" fill="#C7C7C7"/>
<path d="M218.908 172.998H233.943L231.436 173.251L218.908 172.998Z" fill="#C7C7C7"/>
<path d="M215.908 183.074H230.943L228.436 183.328L215.908 183.074Z" fill="#C7C7C7"/>
<path d="M225.149 177.178H234.903L236.65 177.858L225.149 177.178Z" fill="#EBEBEB"/>
<path d="M211.175 177.178H220.929L222.669 177.858L211.175 177.178Z" fill="#EBEBEB"/>
<path d="M223.689 186.266H213.935L212.195 186.946L223.689 186.266Z" fill="#EBEBEB"/>
<path d="M234.903 183.959H242.737L244.477 184.639L234.903 183.959Z" fill="#C7C7C7"/>
<path d="M237.636 180.904H243.71L242.903 180.344L237.636 180.904Z" fill="#C7C7C7"/>
<path d="M249.151 197.686H242.337V223.461H249.151V197.686Z" fill="#EBEBEB"/>
<path d="M245.771 202.774C245.489 202.775 245.214 202.693 244.98 202.538C244.745 202.382 244.562 202.161 244.454 201.902C244.345 201.642 244.316 201.357 244.37 201.081C244.424 200.805 244.559 200.551 244.757 200.352C244.956 200.153 245.209 200.017 245.484 199.961C245.76 199.906 246.046 199.934 246.306 200.041C246.566 200.148 246.788 200.33 246.944 200.564C247.1 200.798 247.184 201.073 247.184 201.354C247.184 201.729 247.035 202.089 246.77 202.355C246.505 202.622 246.146 202.772 245.771 202.774Z" fill="white"/>
<path d="M245.77 202.168C245.609 202.169 245.451 202.123 245.317 202.034C245.182 201.945 245.077 201.819 245.014 201.67C244.951 201.522 244.934 201.358 244.965 201.2C244.996 201.042 245.073 200.896 245.186 200.782C245.3 200.667 245.444 200.589 245.602 200.557C245.76 200.525 245.924 200.541 246.073 200.602C246.222 200.664 246.35 200.768 246.439 200.902C246.529 201.036 246.577 201.193 246.577 201.354C246.577 201.569 246.492 201.775 246.341 201.927C246.19 202.08 245.985 202.166 245.77 202.168Z" fill="#A6A6A6"/>
<path d="M249.151 219.409V213.135H242.337V219.409H249.151Z" fill="white"/>
<path d="M234.003 218.141H208.228V223.501H234.003V218.141Z" fill="#C7C7C7"/>
<path d="M228.923 220.822C228.923 220.542 229.006 220.267 229.162 220.033C229.318 219.8 229.54 219.618 229.8 219.51C230.059 219.403 230.345 219.375 230.62 219.43C230.895 219.484 231.149 219.62 231.347 219.818C231.546 220.017 231.681 220.27 231.736 220.545C231.791 220.821 231.762 221.106 231.655 221.366C231.547 221.625 231.365 221.847 231.132 222.003C230.898 222.159 230.624 222.243 230.343 222.243C230.156 222.243 229.971 222.207 229.798 222.136C229.626 222.065 229.469 221.961 229.337 221.829C229.205 221.697 229.1 221.54 229.029 221.367C228.958 221.194 228.922 221.009 228.923 220.822Z" fill="white"/>
<path d="M229.529 220.821C229.529 220.66 229.577 220.503 229.666 220.369C229.756 220.236 229.883 220.131 230.031 220.07C230.18 220.008 230.344 219.992 230.501 220.023C230.659 220.055 230.804 220.132 230.918 220.246C231.032 220.36 231.109 220.505 231.14 220.663C231.172 220.82 231.156 220.984 231.094 221.132C231.033 221.281 230.928 221.408 230.795 221.498C230.661 221.587 230.504 221.635 230.343 221.635C230.236 221.635 230.129 221.615 230.03 221.574C229.931 221.534 229.841 221.474 229.766 221.398C229.69 221.323 229.63 221.233 229.589 221.134C229.549 221.034 229.528 220.928 229.529 220.821Z" fill="#A6A6A6"/>
<path d="M212.288 223.508H218.562V218.147H212.288V223.508Z" fill="white"/>
<path d="M275.154 121.733C280.852 105.353 272.395 87.5259 256.266 81.9152C240.136 76.3045 222.441 85.0349 216.743 101.415C211.045 117.795 219.502 135.623 235.632 141.233C251.762 146.844 269.457 138.114 275.154 121.733Z" fill="#EBEBEB"/>
<path d="M268.718 119.478C273.162 106.701 266.565 92.7946 253.983 88.4179C241.4 84.0411 227.597 90.8511 223.153 103.628C218.708 116.406 225.305 130.312 237.888 134.689C250.47 139.065 264.273 132.255 268.718 119.478Z" fill="white"/>
<path d="M263.372 111.289C263.417 115.954 261.623 120.449 258.379 123.802C255.135 127.154 250.701 129.095 246.037 129.203C243.744 129.23 241.468 128.801 239.342 127.942C237.216 127.082 235.281 125.81 233.65 124.197C232.02 122.585 230.725 120.665 229.841 118.549C228.958 116.433 228.503 114.162 228.503 111.869C228.458 107.204 230.251 102.709 233.495 99.3559C236.74 96.0032 241.173 94.0627 245.837 93.9543C248.13 93.9278 250.406 94.3566 252.532 95.2159C254.659 96.0752 256.593 97.3479 258.224 98.9602C259.855 100.572 261.15 102.492 262.033 104.609C262.917 106.725 263.372 108.995 263.372 111.289Z" fill="#EBEBEB"/>
<path d="M256.558 111.394C256.58 114.228 255.487 116.957 253.515 118.992C251.543 121.028 248.85 122.207 246.017 122.275C244.621 122.291 243.235 122.029 241.941 121.505C240.646 120.982 239.469 120.206 238.476 119.224C237.484 118.241 236.697 117.071 236.16 115.782C235.623 114.493 235.348 113.11 235.35 111.714C235.323 108.877 236.413 106.143 238.385 104.103C240.358 102.063 243.054 100.881 245.89 100.813C247.289 100.796 248.676 101.058 249.972 101.583C251.268 102.107 252.447 102.885 253.44 103.869C254.433 104.854 255.22 106.027 255.755 107.318C256.29 108.61 256.563 109.996 256.558 111.394Z" fill="white"/>
<path d="M250.671 111.494C250.685 112.754 250.204 113.968 249.331 114.876C248.458 115.784 247.263 116.313 246.004 116.348C245.381 116.359 244.762 116.246 244.184 116.015C243.605 115.783 243.079 115.438 242.636 115C242.193 114.562 241.842 114.04 241.604 113.464C241.366 112.888 241.246 112.27 241.25 111.647C241.236 110.388 241.717 109.173 242.59 108.265C243.463 107.357 244.658 106.829 245.917 106.794C246.54 106.782 247.159 106.895 247.738 107.127C248.316 107.358 248.842 107.703 249.286 108.141C249.729 108.579 250.079 109.102 250.317 109.678C250.555 110.253 250.676 110.871 250.671 111.494Z" fill="#EBEBEB"/>
<path d="M200.54 87.4668L200.292 87.9395L245.699 111.677L245.946 111.205L200.54 87.4668Z" fill="#C7C7C7"/>
<path d="M198.381 88.7671L198.494 88.7204L200.574 88.0804L196.474 85.9336L194.254 86.607L198.381 88.7671Z" fill="#C7C7C7"/>
<path d="M195.98 83.3066L196.721 85.4668L200.821 87.6069C200.495 86.9199 200.252 86.1972 200.094 85.4535L195.98 83.3066Z" fill="#C7C7C7"/>
<path d="M246.944 111.04L246.084 112.58L243.81 112.387L245.303 111.16L245.457 109.24L246.944 111.04Z" fill="#C7C7C7"/>
<path d="M94.0269 173.845C94.2586 175.079 94.172 176.352 93.7754 177.543C93.3788 178.734 92.6852 179.804 91.7601 180.652L84.0129 182.099C82.8118 181.627 81.7546 180.85 80.946 179.844C80.1374 178.838 79.6054 177.639 79.4026 176.364C79.1999 175.089 79.3333 173.784 79.7897 172.577C80.2462 171.37 81.0099 170.303 82.0052 169.481C83.0006 168.66 84.1931 168.112 85.465 167.893C86.7368 167.674 88.0438 167.79 89.2568 168.231C90.4697 168.672 91.5466 169.422 92.3809 170.406C93.2152 171.391 93.778 172.576 94.0136 173.845H94.0269Z" fill="#EBEBEB"/>
<path d="M95.6176 179.937L80.1558 182.816L80.5708 185.045L96.0327 182.165L95.6176 179.937Z" fill="#EBEBEB"/>
<path d="M109.252 209.16L77.9346 214.992L78.3496 217.221L109.667 211.388L109.252 209.16Z" fill="#DBDBDB"/>
<path d="M110.416 215.406L79.0991 221.238L79.5142 223.467L110.831 217.634L110.416 215.406Z" fill="#DBDBDB"/>
<path d="M108.501 211.606L79.5171 217.004L80.2654 221.022L109.249 215.624L108.501 211.606Z" fill="#EBEBEB"/>
<path d="M94.6102 182.437L81.9995 184.785L82.4146 187.014L95.0253 184.665L94.6102 182.437Z" fill="#DBDBDB"/>
<path d="M106.427 209.681L80.8057 214.455C80.8057 214.455 85.5593 207.521 85.4727 200.294C85.3926 194.207 84.4992 186.626 84.4992 186.626L92.9532 185.053C92.9532 185.053 94.8466 192.447 96.9534 198.154C99.4803 204.947 106.427 209.681 106.427 209.681Z" fill="#EBEBEB"/>
<path d="M64.2113 290.001C98.0944 290.001 125.562 287.18 125.562 283.701C125.562 280.221 98.0944 277.4 64.2113 277.4C30.3281 277.4 2.86035 280.221 2.86035 283.701C2.86035 287.18 30.3281 290.001 64.2113 290.001Z" fill="#EBEBEB"/>
<path d="M0 260.626L35.2758 260.46L70.5449 260.406L141.096 260.293L211.648 260.406L246.924 260.46L282.193 260.626L246.924 260.786L211.648 260.846L141.096 260.96L70.5449 260.846L35.2758 260.786L0 260.626Z" fill="#263238"/>
<path d="M20.2347 50.2177C20.1893 45.0899 21.0098 39.9913 22.6615 35.1366C25.2068 27.8161 29.5954 21.2748 35.4039 16.1435C41.2125 11.0122 48.2452 7.46412 55.8238 5.84126C58.3437 5.32983 60.9014 5.02657 63.471 4.93453C64.1377 4.93453 64.7578 4.89453 65.3978 4.89453L67.3246 4.96787C68.6114 4.96787 69.8915 5.16789 71.1649 5.30789C76.2889 5.9483 81.2566 7.50185 85.8326 9.89488C90.3952 12.242 94.5201 15.3565 98.0267 19.1022C101.513 22.8675 104.351 27.184 106.427 31.8764C102.101 22.5564 94.7617 14.9655 85.5925 10.3282C83.3207 9.19148 80.962 8.23729 78.5387 7.47471C77.3186 7.14135 76.0985 6.808 74.8585 6.52131L72.9917 6.17462L72.0516 5.99461L71.0915 5.88793C69.8334 5.71707 68.5671 5.61247 67.2979 5.57458L65.3978 5.50791C64.7311 5.50791 64.1311 5.50791 63.4977 5.54791C60.9627 5.65947 58.441 5.97608 55.9572 6.49464C50.9866 7.55087 46.2304 9.43983 41.8895 12.0817C37.5575 14.7631 33.6985 18.1422 30.4687 22.0824C23.9754 30.0345 20.368 39.9521 20.2347 50.2177Z" fill="#263238"/>
<path d="M27.2349 17.1145C29.3465 14.3629 31.7846 11.8778 34.4954 9.714C39.9346 5.3429 46.3319 2.32245 53.1633 0.900064C54.0167 0.753387 54.8701 0.573373 55.7235 0.453365C56.5769 0.333357 57.4436 0.220017 58.3037 0.140012L60.8972 0H63.4907L60.9105 0.160012L58.3437 0.446699C57.4903 0.56004 56.6436 0.713383 55.7968 0.846725C54.9501 0.980068 54.1167 1.20675 53.2767 1.3801C46.5872 2.98452 40.3003 5.95092 34.8087 10.094C32.0615 12.182 29.5249 14.5333 27.2349 17.1145Z" fill="#263238"/>
<path d="M224.996 97.1147C235.148 95.5014 244.451 90.4899 251.384 82.9004C254.801 79.132 257.572 74.8248 259.585 70.1528C261.573 65.4746 262.75 60.4919 263.065 55.4185C263.221 52.8873 263.169 50.3475 262.912 47.8246C262.832 47.1979 262.765 46.5646 262.678 45.9378L262.332 44.0644C262.108 42.8171 261.821 41.5821 261.471 40.3641C261.385 40.0574 261.311 39.7508 261.225 39.4441L260.918 38.544L260.298 36.7439C259.851 35.5571 259.331 34.397 258.818 33.237C257.71 30.9545 256.424 28.7631 254.971 26.6832C249.054 18.283 240.479 12.1222 230.629 9.19531C235.572 10.5601 240.254 12.7365 244.484 15.6358C248.711 18.5637 252.401 22.1996 255.391 26.3832C258.42 30.5529 260.678 35.2316 262.058 40.1974C262.419 41.4329 262.717 42.6856 262.952 43.951L263.305 45.8445C263.398 46.5112 263.465 47.1179 263.552 47.758C263.824 50.3176 263.886 52.8953 263.738 55.4652C263.101 65.8183 258.891 75.6296 251.827 83.2251C244.763 90.8206 235.282 95.7296 225.002 97.1147H224.996Z" fill="#263238"/>
<path d="M268.905 50.863C268.804 47.4198 268.369 43.9945 267.605 40.6356C266.061 33.9322 263.149 27.6199 259.051 22.0943C258.518 21.4276 258.018 20.7209 257.465 20.0942C256.911 19.4675 256.351 18.7608 255.771 18.1541L253.991 16.2673L252.111 14.4805L254.111 16.1339L256.004 17.9074C256.618 18.5207 257.191 19.1675 257.785 19.8008C258.378 20.4342 258.898 21.1343 259.458 21.801C261.602 24.5374 263.425 27.5103 264.892 30.6616C266.332 33.8256 267.41 37.1425 268.105 40.5489C268.789 43.9419 269.057 47.4053 268.905 50.863Z" fill="#263238"/>
<path d="M193.433 106.741C190.37 118.501 183.345 128.845 173.542 136.028C163.739 143.211 151.759 146.793 139.623 146.171C136.611 145.996 133.618 145.572 130.675 144.904C129.942 144.724 129.209 144.557 128.482 144.364L126.322 143.697C124.881 143.256 123.463 142.742 122.075 142.157C121.728 142.017 121.375 141.884 121.028 141.737L120.008 141.244L117.975 140.277C117.308 139.957 116.641 139.537 115.974 139.177C115.308 138.817 114.641 138.43 114.021 138.03C111.481 136.408 109.085 134.57 106.861 132.536L105.207 131.01L103.66 129.363C102.587 128.296 101.66 127.089 100.727 125.929C100.233 125.363 99.8267 124.729 99.3933 124.116L98.1199 122.276L96.9532 120.349C96.5665 119.682 96.1598 119.069 95.8398 118.389C93.0307 113.07 91.1204 107.323 90.186 101.381C92.2425 113.268 98.249 124.113 107.234 132.163C109.461 134.147 111.844 135.949 114.361 137.55C114.988 137.943 115.648 138.297 116.288 138.677C116.928 139.057 117.568 139.443 118.248 139.757L120.248 140.717L121.255 141.204C121.595 141.35 121.922 141.477 122.295 141.61C123.666 142.191 125.069 142.696 126.495 143.124L128.635 143.79C129.355 143.977 130.082 144.137 130.802 144.317C133.711 144.963 136.668 145.371 139.643 145.537C145.607 145.856 151.581 145.157 157.311 143.47C165.941 140.914 173.781 136.208 180.097 129.795C186.412 123.381 190.996 115.47 193.42 106.801L193.433 106.741Z" fill="#263238"/>
<path d="M175.438 142.135C172.202 144.595 168.681 146.657 164.951 148.275C157.457 151.555 149.298 153.032 141.129 152.589C140.116 152.502 139.129 152.449 138.089 152.329C137.049 152.209 136.089 152.075 135.076 151.902C134.062 151.729 133.076 151.509 132.095 151.289L129.155 150.495L132.129 151.115C133.122 151.282 134.129 151.422 135.122 151.582C136.116 151.742 137.122 151.802 138.129 151.909C139.136 152.015 140.129 152.015 141.149 152.075C145.17 152.205 149.194 151.903 153.15 151.175C157.117 150.466 160.996 149.337 164.724 147.808C168.475 146.276 172.064 144.376 175.438 142.135Z" fill="#263238"/>
<path d="M179.146 94.3148C178.737 98.0679 177.766 101.738 176.266 105.202L183.026 110.056L179.526 116.11L171.965 112.689C169.731 115.734 167.057 118.43 164.031 120.69L167.458 128.277L161.405 131.764L156.564 125.037C153.11 126.557 149.446 127.548 145.697 127.977L144.87 136.278H137.883L137.056 128.024C133.306 127.613 129.639 126.645 126.175 125.15L121.322 131.904L115.268 128.411L118.675 120.843C115.633 118.608 112.937 115.937 110.674 112.916L103.094 116.276L99.6136 110.276L106.354 105.436C104.831 101.982 103.838 98.3182 103.407 94.5682L95.0933 93.7148V86.7277L103.354 85.9076C103.763 82.1526 104.734 78.4803 106.234 75.0135L99.4736 70.1599L102.974 64.1128L110.534 67.5263C112.767 64.4801 115.441 61.7836 118.468 59.5258L115.095 51.9586L121.148 48.4584L125.982 55.1922C129.434 53.6825 133.093 52.6982 136.836 52.272L137.656 43.998H144.643L145.47 52.252C149.221 52.6562 152.889 53.6249 156.351 55.1255L161.211 48.3717L167.258 51.8719L163.851 59.4324C166.893 61.6701 169.589 64.3434 171.852 67.3663L179.439 63.9394L182.933 69.9998L176.192 74.8335C177.7 78.2782 178.68 81.9306 179.099 85.6676L187.393 86.501V93.4948L179.146 94.3148Z" fill="url(#paint0_linear_10665_26295)"/>
<path d="M95.4198 58.9387C94.6582 62.938 93.1079 66.7456 90.8595 70.1395L95.7932 76.2266L88.086 83.5604L82.6122 78.6201C79.141 81.0042 75.2214 82.6578 71.0914 83.4804L70.3247 90.7742L59.7573 90.4942L59.3706 83.6071C55.0889 82.8388 51.0203 81.1659 47.4365 78.7001L42.0294 83.0804L34.6956 75.3865L39.1826 70.4195C36.7196 66.7883 35.0645 62.6709 34.3289 58.3453L27.4751 57.6053L27.7551 46.9912L34.5823 46.6445C35.4642 42.4216 37.2272 38.4322 39.7559 34.937L35.1823 29.2967L42.8828 21.9628L48.2832 26.8365C51.7979 24.5993 55.7276 23.0936 59.8373 22.4095L60.6441 14.709L71.2515 14.989L71.6448 22.7229C75.5957 23.608 79.3323 25.2667 82.6389 27.6032L88.946 22.4829L96.2465 30.1901L90.9128 36.1105C93.1086 39.4471 94.6348 43.1788 95.4065 47.0979L103.507 47.9446L103.227 58.552L95.4198 58.9387Z" fill="#455A64"/>
<path d="M69.2179 63.3314L61.3507 63.2581V63.1248C61.1123 61.8747 60.8029 60.6393 60.424 59.4245C60.0415 58.7485 59.5241 58.1585 58.9038 57.6911C57.561 56.6004 56.4545 55.2475 55.6521 53.7148C54.8497 52.1822 54.3681 50.5021 54.2369 48.7771C54.1299 47.167 54.3487 45.5519 54.8802 44.0283C55.4118 42.5047 56.2451 41.104 57.3304 39.9098C58.387 38.7824 59.666 37.8864 61.0864 37.2784C62.5069 36.6704 64.0381 36.3636 65.5831 36.3774C67.1282 36.3912 68.6536 36.7253 70.063 37.3585C71.4725 37.9918 72.7352 38.9104 73.7715 40.0565C74.8371 41.2701 75.6468 42.6864 76.152 44.2203C76.6572 45.7543 76.8476 47.3745 76.7117 48.9838C76.5439 50.7089 76.0257 52.3816 75.1889 53.8995C74.352 55.4174 73.214 56.7484 71.8447 57.8111C71.215 58.265 70.688 58.8466 70.298 59.5178C69.895 60.7246 69.5611 61.9534 69.2979 63.1981L69.2179 63.3314ZM61.624 62.9381L68.9579 63.0048C69.2126 61.7856 69.5421 60.5832 69.9446 59.4045C70.3473 58.6804 70.9051 58.0543 71.5781 57.571C73.3182 56.0443 75.6983 53.9508 76.3317 48.9571C76.4638 47.3942 76.2786 45.8208 75.787 44.3313C75.2955 42.8418 74.5079 41.4671 73.4715 40.2899C72.4666 39.1788 71.2421 38.2882 69.8755 37.6744C68.5088 37.0605 67.0298 36.7368 65.5317 36.7237C64.0336 36.7105 62.5491 37.0082 61.1719 37.5979C59.7947 38.1876 58.5547 39.0566 57.5304 40.1498C56.4746 41.3078 55.6635 42.6671 55.1457 44.1461C54.6279 45.6251 54.414 47.1934 54.5169 48.7571C55.0569 53.7575 57.3971 55.8976 59.1105 57.4577C59.7722 57.9547 60.3181 58.5894 60.7106 59.3178C61.0897 60.5045 61.3948 61.7136 61.624 62.9381Z" fill="white"/>
<path d="M61.6462 50.9753L61.1538 51.0625L63.2971 63.1684L63.7895 63.0812L61.6462 50.9753Z" fill="white"/>
<path d="M69.3908 51.0471L67.0239 63.1113L67.5146 63.2076L69.8815 51.1434L69.3908 51.0471Z" fill="white"/>
<path d="M65.4778 55.1063C64.7644 55.1063 64.1443 54.4396 63.7243 53.6528C63.6444 53.7538 63.5432 53.836 63.428 53.8936C63.3128 53.9512 63.1864 53.9828 63.0576 53.9862C61.8975 53.9862 61.4575 51.606 61.4375 51.506L61.6842 51.466C61.7975 52.0927 62.2642 53.7328 63.0576 53.7395C63.163 53.7263 63.2644 53.691 63.3552 53.6358C63.446 53.5807 63.524 53.5069 63.5843 53.4195C63.2561 52.7495 63.0722 52.0182 63.0443 51.2727C63.0443 50.606 63.311 50.2193 63.7577 50.2193C63.8924 50.2142 64.0259 50.2464 64.1435 50.3123C64.2611 50.3781 64.3583 50.4751 64.4244 50.5926C64.7777 51.2193 64.4977 52.4461 64.0377 53.2195C63.9936 53.3016 63.9423 53.3797 63.8843 53.4528C64.291 54.2329 64.8577 54.8529 65.4711 54.8596C66.0312 54.8596 66.5245 54.3596 66.8845 53.6862C66.4301 53.1027 66.1943 52.3786 66.2178 51.6394C66.2178 50.7793 66.5579 50.2459 67.0846 50.2526C67.5113 50.2526 67.7513 50.6793 67.7513 51.4127C67.7174 52.186 67.5244 52.944 67.1846 53.6395C67.3782 53.8307 67.6391 53.9385 67.9113 53.9395C68.578 53.9395 69.2047 52.3061 69.3914 51.6727L69.6314 51.7394C69.5581 51.9927 68.8913 54.1995 67.9046 54.1929C67.5943 54.1829 67.2972 54.065 67.0646 53.8595C66.9343 54.1893 66.7187 54.4786 66.4399 54.6977C66.1611 54.9168 65.829 55.0578 65.4778 55.1063ZM67.0846 50.4993C66.6312 50.4993 66.4712 51.1127 66.4645 51.6394C66.4554 52.2837 66.6464 52.915 67.0112 53.4462C67.3083 52.8076 67.476 52.1164 67.5046 51.4127C67.5046 51.1393 67.4713 50.4993 67.0846 50.4993ZM63.751 50.4993C63.371 50.4993 63.291 50.9393 63.2843 51.3127C63.3101 51.9767 63.4664 52.6292 63.7443 53.2328L63.8043 53.1261C64.2244 52.4594 64.471 51.2727 64.1844 50.7526C64.1431 50.674 64.0807 50.6086 64.004 50.5638C63.9274 50.519 63.8397 50.4966 63.751 50.4993Z" fill="white"/>
<path d="M70.1245 64.8472L60.4238 64.7606V62.5938L70.1312 62.6804L70.1245 64.8472ZM60.7572 64.4272L69.7911 64.5139V63.0138L60.7705 62.9404L60.7572 64.4272Z" fill="white"/>
<path d="M70.1045 66.9742L60.4238 66.8875V64.7207L70.1312 64.8074L70.1045 66.9742ZM60.7372 66.5542L69.7778 66.6408V65.1407L60.7372 65.0607V66.5542Z" fill="white"/>
<path d="M70.0843 69.0992L60.377 69.0125V66.8457L70.0843 66.939V69.0992ZM60.717 68.6792L69.7576 68.7658V67.2657L60.717 67.1857V68.6792Z" fill="white"/>
<path d="M156.431 78.1381L149.85 72.5244L149.93 72.3977C149.997 72.2977 151.557 70.0109 153.784 69.7309C154.352 69.668 154.928 69.7297 155.47 69.9116C156.012 70.0935 156.508 70.3913 156.924 70.7843C157.382 71.1358 157.759 71.5824 158.028 72.0934C158.298 72.6044 158.453 73.1677 158.484 73.7445C158.571 76.018 156.624 77.9715 156.544 78.0515L156.431 78.1381ZM150.297 72.4644L156.411 77.6781C156.811 77.2381 158.224 75.5646 158.151 73.7245C158.119 73.1954 157.975 72.6791 157.726 72.2109C157.478 71.7427 157.131 71.3335 156.711 71.011C156.33 70.6489 155.876 70.3741 155.378 70.206C154.881 70.0379 154.352 69.9804 153.83 70.0376C152.057 70.2709 150.67 71.991 150.317 72.4644H150.297Z" fill="white"/>
<path d="M131.549 108.295L131.289 108.082L156.351 77.7597L150.25 72.5593L125.195 102.875L124.935 102.661L150.21 72.0859L156.817 77.7197L156.717 77.8463L131.549 108.295Z" fill="white"/>
<path d="M156.277 79.4799L148.604 72.9394L149.817 71.4727L157.484 78.0198L156.277 79.4799ZM149.097 72.8927L156.257 79.0065L157.051 78.0531L149.884 71.9394L149.097 72.8927Z" fill="white"/>
<path d="M155.171 80.8139L147.497 74.2734L148.71 72.8066L156.384 79.3471L155.171 80.8139ZM147.964 74.2334L155.098 80.3405L155.891 79.3871L148.724 73.28L147.964 74.2334Z" fill="white"/>
<path d="M123.988 110.608L124.962 102.761H125.095L126.302 102.561L126.495 102.527V103.781L127.762 103.607V104.861L128.989 104.654V105.908L130.202 105.694V106.954L131.229 106.774H131.415V108.354L123.988 110.608ZM125.262 103.074L124.382 110.135L125.895 109.668L131.089 108.048V107.101L130.069 107.281L129.875 107.314V106.054L128.655 106.268V105.014L127.429 105.221V103.967L126.202 104.174V102.941L125.262 103.074Z" fill="white"/>
<path d="M124.108 110.384L124.508 107.23L127.122 109.457L124.108 110.384ZM124.775 107.884L124.515 109.917L126.455 109.317L124.775 107.884Z" fill="white"/>
<path d="M128.362 102.388C129.949 100.175 131.615 98.0213 133.295 95.8812C134.976 93.741 136.709 91.6476 138.416 89.5207C140.123 87.3939 141.903 85.3538 143.69 83.3003C145.476 81.2468 147.283 79.2067 149.157 77.2266C147.57 79.4467 145.903 81.5935 144.223 83.7403C142.543 85.8872 140.809 87.974 139.103 90.0941C137.396 92.2143 135.616 94.2677 133.822 96.3145C132.029 98.3614 130.235 100.408 128.362 102.388Z" fill="white"/>
<path d="M131.249 104.789C132.842 102.569 134.509 100.422 136.183 98.2749C137.856 96.1281 139.596 94.0413 141.303 91.9211C143.01 89.801 144.79 87.7475 146.583 85.694C148.377 83.6406 150.17 81.6004 152.044 79.627C150.457 81.8404 148.79 83.9939 147.11 86.1341C145.43 88.2742 143.697 90.3744 141.99 92.4878C140.283 94.6013 138.503 96.6615 136.716 98.7149C134.929 100.768 133.096 102.809 131.249 104.789Z" fill="white"/>
<path d="M246.637 58.939C245.875 62.9383 244.325 66.7459 242.077 70.1398L247.01 76.2269L239.303 83.5607L233.83 78.6204C230.364 81.0179 226.446 82.6851 222.315 83.5207L221.549 90.8146L210.941 90.5346L210.588 83.6074C206.306 82.8391 202.238 81.1662 198.654 78.7004L193.247 83.0807L185.913 75.3868L190.4 70.4198C187.935 66.7897 186.28 62.6719 185.546 58.3457L178.692 57.6056L178.972 46.9916L185.8 46.6449C186.682 42.4208 188.447 38.431 190.98 34.9374L186.433 29.3103L194.133 21.9765L199.534 26.8502C203.049 24.613 206.978 23.1073 211.088 22.4232L211.895 14.7227L222.502 15.0027L222.895 22.7365C226.833 23.6233 230.558 25.2771 233.856 27.6035L240.157 22.4832L247.49 30.1904L242.157 36.1108C244.353 39.4474 245.879 43.1791 246.65 47.0982L254.751 47.945L254.438 58.5257L246.637 58.939Z" fill="#455A64"/>
<path d="M208.014 70.8009H206.388V39.4121H208.014V70.8009ZM206.721 70.4676H207.681V39.7455H206.721V70.4676Z" fill="white"/>
<path d="M229.956 55.2716H207.681V40.1172H229.956L222.362 47.691L229.956 55.2716ZM208.014 54.9382H229.149L221.888 47.691L229.149 40.4505H208.014V54.9382Z" fill="white"/>
<path d="M211.442 162.918H70.752V171.805H211.442V162.918Z" fill="white"/>
<path d="M211.441 171.798L70.7649 172.038H70.5249V171.798V162.917V162.664H70.7783L141.096 162.744L211.441 162.891V171.798ZM211.441 171.798V162.917L141.096 163.091L70.7516 163.164L70.9983 162.917V171.798L70.7583 171.565L211.441 171.798Z" fill="#263238"/>
<path d="M163.498 164.484H72.4648V170.231H163.498V164.484Z" fill="url(#paint1_linear_10665_26295)"/>
<path opacity="0.1" d="M81.6188 164.484H76.9052L72.4648 170.231H77.1785L81.6188 164.484Z" fill="black"/>
<path opacity="0.1" d="M90.7197 164.484H86.0061L81.5591 170.231H86.2727L90.7197 164.484Z" fill="black"/>
<path opacity="0.1" d="M99.8208 164.484H95.1071L90.6602 170.231H95.3738L99.8208 164.484Z" fill="black"/>
<path opacity="0.1" d="M108.915 164.484H104.201L99.7539 170.231H104.468L108.915 164.484Z" fill="black"/>
<path opacity="0.1" d="M118.015 164.484H113.301L108.854 170.231H113.568L118.015 164.484Z" fill="black"/>
<path opacity="0.1" d="M127.11 164.484H122.403L117.956 170.231H122.669L127.11 164.484Z" fill="black"/>
<path opacity="0.1" d="M136.21 164.484H131.496L127.049 170.231H131.763L136.21 164.484Z" fill="black"/>
<path opacity="0.1" d="M145.311 164.484H140.597L136.15 170.231H140.864L145.311 164.484Z" fill="black"/>
<path opacity="0.1" d="M154.404 164.484H149.69L145.25 170.231H149.964L154.404 164.484Z" fill="black"/>
<path opacity="0.1" d="M163.491 164.504V164.484H158.791L154.344 170.231H159.057L163.491 164.504Z" fill="black"/>
<path opacity="0.1" d="M163.491 170.232V170.172L163.445 170.232H163.491Z" fill="black"/>
<path d="M129.096 177.658H128.429V178.764C128.429 178.801 128.422 178.838 128.408 178.871C128.394 178.905 128.373 178.936 128.347 178.962C128.321 178.988 128.29 179.009 128.256 179.023C128.222 179.037 128.186 179.044 128.149 179.044C128.074 179.044 128.002 179.015 127.949 178.963C127.895 178.91 127.864 178.839 127.862 178.764V175.751C127.862 175.713 127.87 175.676 127.884 175.642C127.899 175.608 127.92 175.576 127.947 175.55C127.973 175.524 128.005 175.504 128.04 175.49C128.075 175.476 128.112 175.47 128.149 175.471H129.096C129.386 175.471 129.664 175.586 129.869 175.791C130.074 175.996 130.189 176.274 130.189 176.564C130.189 176.854 130.074 177.132 129.869 177.337C129.664 177.542 129.386 177.658 129.096 177.658ZM128.462 177.091H129.096C129.235 177.091 129.369 177.035 129.468 176.937C129.567 176.838 129.622 176.704 129.622 176.564C129.622 176.424 129.567 176.291 129.468 176.192C129.369 176.093 129.235 176.037 129.096 176.037H128.429L128.462 177.091Z" fill="black"/>
<path d="M133.216 178.619C133.229 178.655 133.234 178.692 133.232 178.73C133.229 178.767 133.22 178.804 133.203 178.837C133.186 178.871 133.163 178.901 133.134 178.925C133.105 178.95 133.072 178.968 133.036 178.979H132.93C132.859 178.981 132.79 178.963 132.73 178.926C132.661 178.879 132.604 178.818 132.563 178.746C132.483 178.552 132.447 178.342 132.456 178.133C132.46 178.055 132.439 177.978 132.396 177.913C132.357 177.853 132.305 177.802 132.243 177.766C132.156 177.708 132.059 177.667 131.956 177.646H131.356V178.753C131.356 178.79 131.349 178.827 131.334 178.861C131.32 178.896 131.299 178.927 131.272 178.953C131.245 178.979 131.214 179 131.179 179.013C131.144 179.027 131.107 179.034 131.07 179.033C131.033 179.033 130.996 179.025 130.962 179.011C130.929 178.997 130.898 178.977 130.872 178.951C130.846 178.925 130.825 178.894 130.811 178.86C130.797 178.826 130.79 178.789 130.79 178.753V175.739C130.789 175.702 130.795 175.665 130.809 175.631C130.823 175.596 130.843 175.565 130.87 175.539C130.896 175.513 130.927 175.492 130.961 175.479C130.996 175.465 131.033 175.458 131.07 175.459H131.983C132.127 175.459 132.27 175.488 132.403 175.543C132.536 175.598 132.657 175.679 132.759 175.782C132.86 175.884 132.941 176.005 132.995 176.139C133.05 176.272 133.077 176.415 133.076 176.559C133.077 176.719 133.041 176.877 132.971 177.021C132.902 177.166 132.801 177.293 132.676 177.393C132.745 177.446 132.805 177.509 132.856 177.579C132.965 177.743 133.023 177.936 133.023 178.133C133.016 178.232 133.016 178.333 133.023 178.433C133.069 178.444 133.11 178.468 133.144 178.501C133.178 178.533 133.203 178.574 133.216 178.619ZM132.503 176.572C132.504 176.503 132.491 176.434 132.465 176.369C132.439 176.304 132.4 176.245 132.351 176.196C132.302 176.146 132.244 176.107 132.18 176.08C132.115 176.053 132.046 176.039 131.976 176.039H131.35V177.093H131.976C132.115 177.093 132.248 177.038 132.346 176.941C132.445 176.843 132.501 176.711 132.503 176.572Z" fill="black"/>
<path d="M136.776 175.918C137.106 176.267 137.289 176.728 137.289 177.208C137.289 177.688 137.106 178.149 136.776 178.498C136.622 178.668 136.434 178.805 136.224 178.899C136.014 178.993 135.786 179.043 135.556 179.045C135.321 179.044 135.089 178.995 134.873 178.901C134.657 178.807 134.463 178.67 134.303 178.498C133.977 178.148 133.795 177.687 133.795 177.208C133.795 176.729 133.977 176.268 134.303 175.918C134.462 175.745 134.656 175.606 134.872 175.512C135.088 175.418 135.321 175.37 135.556 175.371C135.787 175.372 136.014 175.421 136.224 175.515C136.435 175.609 136.623 175.746 136.776 175.918ZM136.71 177.205C136.709 176.874 136.585 176.556 136.363 176.311C136.259 176.198 136.133 176.107 135.993 176.045C135.852 175.983 135.7 175.951 135.546 175.951C135.393 175.951 135.241 175.983 135.1 176.045C134.959 176.107 134.833 176.198 134.73 176.311C134.508 176.556 134.386 176.875 134.386 177.205C134.386 177.535 134.508 177.853 134.73 178.098C134.832 178.213 134.958 178.305 135.099 178.369C135.24 178.432 135.392 178.464 135.546 178.464C135.701 178.464 135.853 178.432 135.994 178.369C136.135 178.305 136.26 178.213 136.363 178.098C136.585 177.853 136.709 177.535 136.71 177.205Z" fill="black"/>
<path d="M137.983 177.205C137.994 176.715 138.196 176.248 138.546 175.906C138.896 175.563 139.367 175.371 139.857 175.371C140.283 175.369 140.698 175.507 141.037 175.764C141.094 175.816 141.13 175.885 141.14 175.961C141.15 176.037 141.132 176.114 141.09 176.178C141.041 176.237 140.971 176.276 140.894 176.286C140.817 176.295 140.74 176.276 140.677 176.231C140.446 176.043 140.155 175.943 139.857 175.951C139.514 175.951 139.185 176.082 138.937 176.318C138.818 176.434 138.724 176.572 138.66 176.725C138.596 176.878 138.563 177.042 138.563 177.208C138.563 177.374 138.596 177.538 138.66 177.691C138.724 177.843 138.818 177.982 138.937 178.098C139.187 178.33 139.515 178.461 139.857 178.465C140.154 178.465 140.442 178.367 140.677 178.185C140.741 178.143 140.818 178.125 140.893 178.135C140.969 178.145 141.039 178.181 141.09 178.238C141.133 178.3 141.151 178.376 141.142 178.452C141.132 178.527 141.094 178.595 141.037 178.645C140.7 178.907 140.284 179.048 139.857 179.045C139.365 179.047 138.893 178.854 138.542 178.51C138.191 178.165 137.99 177.696 137.983 177.205Z" fill="black"/>
<path d="M142.077 178.764V175.751C142.076 175.714 142.083 175.677 142.097 175.643C142.11 175.608 142.131 175.577 142.157 175.551C142.183 175.525 142.215 175.504 142.249 175.49C142.283 175.476 142.32 175.47 142.357 175.471H144.024C144.098 175.471 144.17 175.5 144.222 175.553C144.275 175.605 144.304 175.677 144.304 175.751C144.305 175.788 144.298 175.825 144.285 175.86C144.271 175.895 144.251 175.926 144.224 175.953C144.198 175.98 144.167 176.001 144.133 176.016C144.098 176.03 144.061 176.038 144.024 176.037H142.644V176.944H143.831C143.904 176.946 143.975 176.976 144.027 177.028C144.079 177.08 144.109 177.151 144.111 177.224C144.112 177.262 144.105 177.299 144.091 177.333C144.078 177.368 144.057 177.4 144.031 177.427C144.005 177.453 143.974 177.475 143.939 177.489C143.905 177.503 143.868 177.511 143.831 177.511H142.644V178.451H144.024C144.092 178.461 144.153 178.496 144.198 178.548C144.243 178.6 144.267 178.666 144.267 178.734C144.267 178.803 144.243 178.869 144.198 178.921C144.153 178.973 144.092 179.007 144.024 179.018H142.357C142.287 179.018 142.22 178.992 142.168 178.945C142.116 178.898 142.084 178.834 142.077 178.764Z" fill="black"/>
<path d="M144.99 178.158C145.036 178.105 145.1 178.071 145.169 178.064C145.238 178.057 145.308 178.076 145.364 178.118C145.635 178.355 145.978 178.493 146.337 178.512C146.574 178.523 146.807 178.457 147.004 178.325C147.067 178.286 147.121 178.233 147.159 178.169C147.197 178.105 147.22 178.033 147.224 177.958C147.223 177.9 147.207 177.842 147.177 177.792C147.135 177.732 147.083 177.681 147.024 177.638C146.805 177.521 146.569 177.44 146.324 177.398C146.094 177.362 145.87 177.297 145.657 177.205C145.464 177.119 145.3 176.98 145.184 176.805C145.109 176.677 145.07 176.532 145.07 176.385C145.075 176.237 145.115 176.093 145.185 175.963C145.256 175.834 145.356 175.722 145.477 175.638C145.735 175.459 146.043 175.365 146.357 175.371C146.761 175.391 147.149 175.533 147.471 175.778C147.528 175.816 147.568 175.875 147.582 175.943C147.595 176.01 147.582 176.081 147.544 176.138C147.526 176.168 147.503 176.193 147.475 176.214C147.447 176.234 147.415 176.248 147.381 176.256C147.347 176.263 147.312 176.264 147.279 176.257C147.245 176.251 147.212 176.237 147.184 176.218C146.948 176.028 146.659 175.914 146.357 175.891C146.154 175.886 145.955 175.946 145.79 176.065C145.734 176.098 145.686 176.144 145.651 176.2C145.616 176.256 145.595 176.319 145.59 176.385C145.588 176.434 145.602 176.484 145.63 176.525C145.664 176.579 145.71 176.624 145.764 176.658C145.969 176.777 146.195 176.854 146.43 176.885C146.671 176.929 146.906 177.001 147.13 177.098C147.339 177.189 147.517 177.337 147.644 177.525C147.725 177.655 147.767 177.805 147.764 177.958C147.76 178.115 147.718 178.269 147.643 178.407C147.567 178.545 147.46 178.663 147.331 178.752C147.052 178.942 146.721 179.042 146.384 179.038C145.895 179.025 145.425 178.846 145.05 178.532C144.994 178.489 144.957 178.426 144.945 178.357C144.934 178.287 144.95 178.216 144.99 178.158Z" fill="black"/>
<path d="M148.337 178.158C148.382 178.105 148.446 178.071 148.516 178.064C148.585 178.057 148.655 178.076 148.71 178.118C148.985 178.353 149.329 178.492 149.69 178.512C149.916 178.517 150.137 178.452 150.324 178.325C150.387 178.286 150.441 178.233 150.479 178.169C150.517 178.105 150.54 178.033 150.544 177.958C150.546 177.899 150.53 177.841 150.497 177.792C150.46 177.731 150.41 177.679 150.351 177.638C150.132 177.521 149.895 177.44 149.65 177.398C149.421 177.362 149.197 177.297 148.984 177.205C148.791 177.119 148.627 176.98 148.51 176.805C148.434 176.678 148.392 176.533 148.39 176.385C148.395 176.236 148.435 176.091 148.507 175.961C148.579 175.832 148.68 175.721 148.804 175.638C149.062 175.459 149.37 175.365 149.684 175.371C150.088 175.391 150.476 175.533 150.797 175.778C150.846 175.821 150.878 175.879 150.886 175.944C150.895 176.008 150.88 176.073 150.844 176.127C150.808 176.181 150.753 176.22 150.691 176.236C150.628 176.253 150.562 176.247 150.504 176.218C150.27 176.028 149.984 175.914 149.684 175.891C149.479 175.887 149.278 175.947 149.11 176.065C149.055 176.099 149.009 176.146 148.976 176.202C148.942 176.257 148.922 176.32 148.917 176.385C148.915 176.434 148.929 176.484 148.957 176.525C148.989 176.58 149.035 176.626 149.09 176.658C149.296 176.777 149.522 176.854 149.757 176.885C149.998 176.929 150.233 177.001 150.457 177.098C150.665 177.189 150.843 177.337 150.971 177.525C151.049 177.656 151.091 177.806 151.091 177.958C151.086 178.116 151.044 178.27 150.967 178.408C150.891 178.547 150.782 178.664 150.651 178.752C150.375 178.943 150.046 179.043 149.71 179.038C149.222 179.025 148.752 178.846 148.377 178.532C148.324 178.486 148.29 178.422 148.283 178.353C148.275 178.283 148.295 178.214 148.337 178.158Z" fill="black"/>
<path d="M152.124 178.318C152.225 178.32 152.322 178.362 152.393 178.434C152.464 178.506 152.504 178.604 152.504 178.705C152.502 178.805 152.461 178.9 152.39 178.969C152.319 179.039 152.223 179.078 152.124 179.078C152.074 179.079 152.025 179.07 151.979 179.052C151.933 179.034 151.891 179.006 151.855 178.971C151.82 178.937 151.792 178.895 151.773 178.849C151.754 178.804 151.744 178.755 151.744 178.705C151.743 178.655 151.752 178.604 151.771 178.558C151.789 178.511 151.817 178.468 151.853 178.432C151.888 178.396 151.93 178.367 151.977 178.348C152.023 178.328 152.073 178.318 152.124 178.318Z" fill="black"/>
<path d="M153.298 178.318C153.399 178.32 153.496 178.362 153.567 178.434C153.638 178.506 153.678 178.604 153.678 178.705C153.676 178.805 153.635 178.9 153.564 178.969C153.493 179.039 153.397 179.078 153.298 179.078C153.248 179.079 153.199 179.07 153.153 179.052C153.107 179.034 153.065 179.006 153.029 178.971C152.994 178.937 152.966 178.895 152.947 178.849C152.927 178.804 152.918 178.755 152.918 178.705C152.917 178.655 152.926 178.604 152.945 178.558C152.963 178.511 152.991 178.468 153.026 178.432C153.062 178.396 153.104 178.367 153.151 178.348C153.197 178.328 153.247 178.318 153.298 178.318Z" fill="black"/>
<path d="M154.471 178.318C154.572 178.32 154.669 178.362 154.74 178.434C154.811 178.506 154.851 178.604 154.851 178.705C154.849 178.805 154.808 178.9 154.737 178.969C154.666 179.039 154.571 179.078 154.471 179.078C154.421 179.079 154.372 179.07 154.326 179.052C154.28 179.034 154.238 179.006 154.203 178.971C154.167 178.937 154.139 178.895 154.12 178.849C154.101 178.804 154.091 178.755 154.091 178.705C154.09 178.655 154.099 178.604 154.118 178.558C154.137 178.511 154.164 178.468 154.2 178.432C154.235 178.396 154.277 178.367 154.324 178.348C154.37 178.328 154.42 178.318 154.471 178.318Z" fill="black"/>
<path d="M40.7425 82.3521C42.8226 97.7265 49.5831 113.521 52.1299 115.901C54.9034 118.501 68.7111 119.868 75.7182 120.215C78.0117 120.335 79.8052 104.594 77.9584 102.974C76.1116 101.353 64.2174 103.147 62.1706 101.64C61.5039 101.16 51.9632 88.5059 46.9695 80.972C42.3092 73.9316 40.1091 77.6785 40.7425 82.3521Z" fill="#F7A9A0"/>
<path d="M73.7584 122.434L75.9985 101.646C75.9985 101.646 64.5578 102.173 63.1243 101.153C61.6909 100.133 50.8035 84.9985 46.7098 79.8181C42.6162 74.6377 37.7892 74.8177 40.7094 86.9452C43.8296 100.046 48.3033 113.167 51.0568 115.907C54.6304 119.494 73.7584 122.434 73.7584 122.434Z" fill="url(#paint2_linear_10665_26295)"/>
<path d="M69.418 120.181C69.4315 119.433 69.4916 118.687 69.598 117.947C69.6513 117.28 69.698 116.614 69.758 115.947C69.898 114.494 70.0313 113.047 70.178 111.6C70.3247 110.153 70.458 108.706 70.618 107.26C70.7781 105.813 70.8914 104.38 71.1248 102.953C71.1285 102.943 71.1354 102.934 71.1443 102.928C71.1532 102.921 71.1639 102.918 71.1748 102.918C71.1856 102.918 71.1963 102.921 71.2052 102.928C71.2142 102.934 71.221 102.943 71.2248 102.953C71.2648 104.4 71.1648 105.853 71.0848 107.3C71.0047 108.746 70.8781 110.147 70.7381 111.56C70.598 112.973 70.4114 114.447 70.218 115.887C70.1247 116.554 70.0047 117.274 69.8913 117.96C69.8089 118.707 69.6753 119.446 69.4913 120.174C69.4889 120.181 69.4844 120.188 69.4782 120.193C69.4721 120.198 69.4647 120.201 69.4568 120.202C69.449 120.202 69.4412 120.201 69.4343 120.197C69.4273 120.193 69.4217 120.188 69.418 120.181Z" fill="#263238"/>
<path opacity="0.1" d="M64.3846 120.66C58.9842 119.46 52.8971 117.767 51.0104 115.887C48.2568 113.146 43.7565 100.026 40.663 86.938C38.8295 79.2308 40.1096 76.344 42.3364 76.5906L64.3846 120.66Z" fill="black"/>
<path d="M78.7192 75.4974C80.9169 73.353 83.6693 71.8643 86.6669 71.1988C89.6645 70.5334 92.7883 70.7175 95.687 71.7305L86.0197 81.1711L89.2865 88.2516L96.287 91.6919L105.968 82.2712C106.869 85.0703 107.007 88.0595 106.366 90.9296C105.725 93.7997 104.329 96.4465 102.323 98.5963C100.316 100.746 97.7716 102.321 94.9524 103.158C92.1332 103.994 89.1417 104.063 86.2871 103.356C83.4326 102.649 80.8187 101.193 78.7157 99.1372C76.6127 97.0816 75.0971 94.5015 74.3255 91.6638C73.5538 88.8261 73.5543 85.8337 74.3267 82.9962C75.0992 80.1587 76.6156 77.5791 78.7192 75.5241V75.4974Z" fill="#DBDBDB"/>
<path d="M33.8954 165.403C31.6996 167.548 28.9483 169.037 25.9515 169.703C22.9548 170.369 19.8317 170.184 16.9342 169.17L26.6016 159.729L23.3347 152.649L16.3275 149.209L6.65351 158.656C5.75087 155.857 5.61254 152.867 6.25285 149.996C6.89316 147.125 8.28884 144.478 10.2955 142.327C12.3022 140.177 14.847 138.602 17.6666 137.765C20.4863 136.928 23.4784 136.859 26.3334 137.566C29.1884 138.273 31.8027 139.73 33.9057 141.787C36.0087 143.843 37.5241 146.424 38.2952 149.262C39.0663 152.101 39.065 155.094 38.2914 157.931C37.5179 160.769 36.0002 163.349 33.8954 165.403Z" fill="#DBDBDB"/>
<path d="M23.8008 141.915L34.0747 152.439L91.5247 96.3568L81.2508 85.8324L23.8008 141.915Z" fill="#DBDBDB"/>
<path d="M43.7214 128.516L47.9502 132.848L71.6086 109.752L67.3798 105.42L43.7214 128.516Z" fill="#C7C7C7"/>
<path d="M66.0181 115.299C65.8048 113.105 68.5117 114.112 68.5117 114.112C68.5117 114.112 64.9581 111.725 65.6114 109.378C66.2648 107.031 69.4784 108.445 69.7117 108.538C69.525 108.411 66.3182 106.131 67.2182 103.871C68.1183 101.611 71.1652 103.378 71.3585 103.498C71.2252 103.324 69.4317 100.964 70.5118 99.3842C72.3653 96.6573 78.0523 102.964 80.7125 103.138L83.9927 99.4042C83.6729 100.642 83.7216 101.947 84.1327 103.158C84.6661 104.918 85.0328 106.098 84.8328 107.231C84.7585 107.746 84.5206 108.222 84.1544 108.591C83.7882 108.96 83.3131 109.201 82.7993 109.278C82.7993 109.278 84.4861 110.892 83.8394 112.718C83.4993 113.652 81.6992 113.952 81.6992 113.952C82.0626 114.336 82.3128 114.814 82.4222 115.331C82.5316 115.849 82.496 116.387 82.3193 116.885C81.7792 118.159 80.0591 118.252 80.0591 118.252C80.0591 118.252 80.7258 120.132 79.7324 121.246C77.759 123.479 66.4782 119.999 66.0181 115.299Z" fill="#F7A9A0"/>
<path d="M81.5991 102.372L83.9326 99.4586C84.046 99.3719 84.1593 99.2786 84.266 99.2052C88.1462 96.4184 94.04 98.0452 91.9532 100.759C90.3664 102.825 85.9528 102.459 84.6193 104.812L81.5991 102.372Z" fill="#F7A9A0"/>
<path d="M81.7592 113.967C81.8059 113.967 81.7592 114.047 81.7592 114.047C77.1799 113.744 72.8596 111.815 69.5784 108.606C69.4717 108.493 69.485 108.273 69.625 108.399C71.9252 110.473 78.0189 113.153 81.7592 113.967Z" fill="#263238"/>
<path d="M71.2182 103.166C74.4518 106.266 78.3587 108.026 82.6257 109.253C82.6857 109.253 82.6257 109.346 82.6257 109.346C80.3722 109.313 77.732 108.246 75.7452 107.246C73.8831 106.338 72.2905 104.959 71.1249 103.246C71.0916 103.206 71.1449 103.099 71.2182 103.166Z" fill="#263238"/>
<path d="M87.0928 283.967C85.5527 284.447 41.963 283.513 40.3229 282.426C39.7029 282.02 39.4695 275.659 39.4028 267.972C39.4028 266.312 39.4028 264.599 39.4028 262.852C39.4028 260.792 39.4028 258.705 39.4428 256.678C39.5628 247.571 39.8362 237.557 39.8362 237.557L68.2115 238.083L67.8848 257.205L67.7648 263.378L67.5181 268.492C67.5181 268.492 84.0459 276.319 85.7194 277.699C87.3928 279.08 88.6262 283.493 87.0928 283.967Z" fill="#F7A9A0"/>
<path d="M87.0928 283.964C85.5527 284.444 41.963 283.511 40.3229 282.424C39.7029 282.018 39.4695 275.657 39.4028 267.97C39.4028 266.31 39.4028 264.596 39.4028 262.85C39.4028 260.789 39.4028 258.703 39.4428 256.676L67.8848 257.202L67.7648 263.376L67.5181 268.49C67.5181 268.49 84.0459 276.317 85.7194 277.697C87.3928 279.077 88.6262 283.491 87.0928 283.964Z" fill="white"/>
<path d="M87.226 284.033C86.2259 284.34 67.658 284.067 54.1437 283.533C51.0168 283.407 48.1433 283.273 45.8498 283.127C42.6763 282.92 40.5161 282.707 40.2028 282.46C39.4427 281.953 39.2494 272.626 39.256 262.785L67.778 263.312L67.5313 268.452C67.5313 268.452 84.1525 276.319 85.8326 277.713C87.5127 279.106 88.7661 283.547 87.226 284.033Z" fill="url(#paint3_linear_10665_26295)"/>
<path d="M86.6329 282.287C79.2991 281.947 49.637 281.28 42.3565 281.507C42.2965 281.507 42.2965 281.547 42.3565 281.554C49.6237 282.047 79.2791 282.474 86.6329 282.407C86.7863 282.387 86.7929 282.287 86.6329 282.287Z" fill="#263238"/>
<path d="M68.6047 266.857C65.7245 266.257 62.1776 266.624 59.9375 268.638C59.8508 268.718 59.9374 268.838 60.0575 268.811C62.8405 267.983 65.7032 267.451 68.598 267.224C68.6409 267.217 68.6798 267.195 68.7081 267.162C68.7364 267.129 68.7523 267.087 68.7531 267.044C68.7539 267 68.7395 266.958 68.7124 266.924C68.6853 266.89 68.6472 266.866 68.6047 266.857Z" fill="#263238"/>
<path d="M70.6653 268.164C67.7851 267.564 64.2382 267.931 61.998 269.944C61.9113 270.018 61.998 270.144 62.118 270.118C64.8995 269.283 67.7629 268.751 70.6586 268.531C70.7014 268.523 70.7403 268.501 70.7686 268.468C70.7969 268.435 70.8128 268.394 70.8136 268.35C70.8144 268.307 70.8 268.264 70.773 268.23C70.7459 268.196 70.7078 268.173 70.6653 268.164Z" fill="#263238"/>
<path d="M72.7253 269.463C69.8451 268.863 66.2982 269.23 64.0581 271.243C63.9714 271.323 64.0581 271.443 64.1781 271.416C66.9596 270.582 69.823 270.05 72.7187 269.83C72.7615 269.822 72.8004 269.8 72.8287 269.767C72.857 269.734 72.8729 269.692 72.8737 269.649C72.8745 269.606 72.8601 269.563 72.833 269.529C72.8059 269.495 72.7678 269.472 72.7253 269.463Z" fill="#263238"/>
<path d="M74.7849 270.766C71.9047 270.166 68.3578 270.532 66.1176 272.546C66.031 272.626 66.1176 272.746 66.2376 272.719C69.0207 271.891 71.8834 271.359 74.7782 271.132C74.821 271.125 74.86 271.103 74.8883 271.07C74.9166 271.037 74.9325 270.995 74.9333 270.952C74.934 270.908 74.9197 270.866 74.8926 270.832C74.8655 270.798 74.8274 270.775 74.7849 270.766Z" fill="#263238"/>
<path d="M74.0922 260.283C72.9855 258.69 70.8587 259.35 69.6253 260.336C67.5501 262.073 65.9663 264.324 65.0316 266.863C65.0275 266.875 65.026 266.887 65.0273 266.899C65.0286 266.911 65.0326 266.923 65.039 266.933C65.0454 266.943 65.0541 266.952 65.0644 266.958C65.0746 266.965 65.0862 266.969 65.0983 266.97C65.0983 267.19 65.2916 267.43 65.545 267.344C67.9518 266.51 70.6253 265.917 72.7055 264.37C73.9189 263.477 75.1323 261.79 74.0922 260.283ZM68.9319 265.337C67.7584 265.77 66.5717 266.15 65.4183 266.63C66.3184 265.363 67.1584 264.057 68.1851 262.877C68.6695 262.301 69.193 261.76 69.7519 261.256C70.6253 260.49 74.0722 258.896 73.4922 262.063C73.1722 263.81 70.332 264.817 68.9319 265.343V265.337Z" fill="#263238"/>
<path d="M57.6975 265.964C60.0643 267.031 62.8045 267.037 65.3314 267.337C65.3878 267.339 65.4438 267.327 65.4947 267.302C65.5456 267.278 65.59 267.242 65.6244 267.197C65.6588 267.152 65.6822 267.1 65.6927 267.044C65.7031 266.989 65.7004 266.932 65.6847 266.877C65.6968 266.874 65.708 266.868 65.7173 266.86C65.7266 266.851 65.7338 266.841 65.7384 266.829C65.7429 266.818 65.7446 266.805 65.7434 266.793C65.7422 266.78 65.7381 266.768 65.7314 266.757C64.2744 264.476 62.2445 262.616 59.8443 261.364C58.4376 260.664 56.2107 260.47 55.4774 262.264C54.7773 263.951 56.3241 265.337 57.6975 265.964ZM56.4241 263.871C55.184 260.904 58.8909 261.73 59.911 262.29C60.5644 262.661 61.1905 263.078 61.7845 263.537C63.0039 264.503 64.1744 265.528 65.2914 266.611C64.0579 266.391 62.8179 266.277 61.5778 266.097C60.111 265.884 57.1241 265.504 56.4241 263.871Z" fill="#263238"/>
<path opacity="0.1" d="M64.9183 283.871C61.2447 283.778 57.5378 283.658 54.1442 283.531C51.0173 283.411 48.1438 283.271 45.8503 283.125C42.6768 282.918 40.5166 282.705 40.2032 282.458C39.5365 282.011 39.3032 274.804 39.2632 266.41C45.757 270.757 58.4245 279.444 64.9183 283.871Z" fill="black"/>
<path d="M68.3184 265.469L37.9296 265.503C37.9296 265.503 39.7098 193.271 39.3564 191.571C38.523 187.517 20.1084 123.246 20.1084 123.246L45.6768 123.686L50.3438 123.839C50.3438 123.839 66.5649 177.89 68.2717 187.764C71.2319 204.865 68.3184 265.469 68.3184 265.469Z" fill="#263238"/>
<path d="M66.5981 260.059C61.551 259.932 46.3233 259.392 39.5829 259.899C39.5362 259.899 39.5362 259.992 39.5829 259.999C41.8897 260.372 61.5444 260.265 66.5981 260.199C66.609 260.202 66.6207 260.203 66.632 260.201C66.6434 260.199 66.6541 260.194 66.6634 260.188C66.6726 260.181 66.6802 260.172 66.6854 260.162C66.6906 260.151 66.6933 260.14 66.6933 260.129C66.6933 260.117 66.6906 260.106 66.6854 260.095C66.6802 260.085 66.6726 260.076 66.6634 260.069C66.6541 260.063 66.6434 260.058 66.632 260.056C66.6207 260.054 66.609 260.055 66.5981 260.059Z" fill="#37474F"/>
<path d="M41.8967 189.96C40.93 186.02 33.7161 161.471 31.5093 153.717C29.3025 145.963 27.2357 138.176 25.3355 130.349C25.0889 129.356 24.8488 128.349 24.5822 127.376C24.5822 127.296 24.4422 127.329 24.4555 127.416C25.1822 131.356 26.1489 135.263 27.0757 139.163C28.0024 143.063 28.9891 146.95 30.0292 150.824C32.1182 158.611 34.3984 166.34 36.8697 174.012C38.1031 177.839 40.1432 185.686 41.2233 189.553C42.3034 193.42 40.5566 256.224 40.6499 257.271C40.6592 257.325 40.6874 257.375 40.7295 257.41C40.7716 257.446 40.8249 257.465 40.8799 257.465C40.935 257.465 40.9883 257.446 41.0304 257.41C41.0725 257.375 41.1007 257.325 41.11 257.271C41.25 249.784 42.8568 193.853 41.8967 189.96Z" fill="#37474F"/>
<path d="M45.6833 123.679C45.6833 123.679 39.4296 191.897 39.3629 191.564C38.5562 187.644 21.2416 127.206 20.1549 123.426C20.1149 123.306 20.1016 123.246 20.1016 123.246L45.6833 123.679Z" fill="#37474F"/>
<path d="M53.5108 285.699C51.9707 286.179 8.38098 285.245 6.74087 284.159C6.12082 283.752 5.88747 277.392 5.8208 269.704C5.8208 268.044 5.8208 266.337 5.8208 264.591C5.8208 262.524 5.8208 260.437 5.86747 258.41C5.98081 249.31 6.25417 241.289 6.25417 241.289L34.6361 241.816L34.2894 258.95L34.1694 265.124L33.9294 270.238C33.9294 270.238 50.4572 278.065 52.124 279.452C53.7908 280.838 55.0375 285.225 53.5108 285.699Z" fill="#F7A9A0"/>
<path d="M53.5108 285.699C51.9707 286.179 8.38098 285.245 6.74087 284.159C6.12082 283.752 5.88747 277.391 5.8208 269.704C5.8208 268.044 5.8208 266.337 5.8208 264.591C5.8208 262.524 5.8208 260.437 5.86747 258.41L34.2894 258.95L34.1694 265.124L33.9294 270.238C33.9294 270.238 50.4572 278.065 52.124 279.452C53.7908 280.838 55.0375 285.225 53.5108 285.699Z" fill="white"/>
<path d="M53.6371 285.765C52.6371 286.078 34.0691 285.765 20.5549 285.271C17.428 285.145 14.5544 285.005 12.2676 284.858C9.08739 284.658 6.93391 284.444 6.61389 284.191C5.85384 283.684 5.66049 274.35 5.66716 264.51L34.1891 265.036L33.9424 270.177C33.9424 270.177 50.5636 278.044 52.2504 279.437C53.9372 280.831 55.1772 285.285 53.6371 285.765Z" fill="url(#paint4_linear_10665_26295)"/>
<path d="M53.0502 283.998C45.7164 283.664 16.0543 282.991 8.76717 283.218C8.70717 283.218 8.70717 283.258 8.76717 283.264C16.0343 283.758 45.6964 284.184 53.0436 284.118C53.1969 284.118 53.2036 284.004 53.0502 283.998Z" fill="#263238"/>
<path d="M35.0155 268.598C32.1353 267.998 28.5951 268.364 26.3482 270.378C26.2549 270.451 26.3482 270.578 26.4616 270.551C29.2406 269.713 32.1017 269.177 34.9955 268.951C35.0332 268.941 35.0667 268.919 35.0913 268.888C35.1159 268.858 35.1303 268.821 35.1325 268.782C35.1347 268.743 35.1246 268.704 35.1036 268.671C35.0826 268.638 35.0518 268.612 35.0155 268.598Z" fill="#263238"/>
<path d="M37.0892 269.898C34.209 269.298 30.6688 269.665 28.422 271.679C28.3286 271.759 28.422 271.879 28.5353 271.852C31.322 271.024 34.1899 270.498 37.0892 270.285C37.1405 270.285 37.1897 270.265 37.2259 270.229C37.2622 270.192 37.2826 270.143 37.2826 270.092C37.2826 270.041 37.2622 269.991 37.2259 269.955C37.1897 269.919 37.1405 269.898 37.0892 269.898Z" fill="#263238"/>
<path d="M39.1361 271.197C36.2559 270.597 32.7157 270.964 30.4688 272.977C30.3755 273.057 30.4688 273.177 30.5822 273.151C33.3546 272.326 36.206 271.794 39.0894 271.564C39.1344 271.563 39.1776 271.546 39.2111 271.517C39.2447 271.487 39.2662 271.446 39.2719 271.401C39.2776 271.356 39.267 271.311 39.242 271.274C39.2171 271.236 39.1795 271.209 39.1361 271.197Z" fill="#263238"/>
<path d="M41.1967 272.504C38.3165 271.904 34.7762 272.271 32.5294 274.284C32.436 274.357 32.5294 274.484 32.6427 274.457C35.4244 273.623 38.2877 273.091 41.1833 272.871C41.2264 272.864 41.2658 272.843 41.2948 272.81C41.3238 272.778 41.3405 272.736 41.3421 272.693C41.3437 272.649 41.33 272.607 41.3034 272.572C41.2769 272.538 41.2391 272.514 41.1967 272.504Z" fill="#263238"/>
<path d="M40.503 262.024C39.3963 260.437 37.2695 261.09 36.0427 262.084C33.9623 263.817 32.3756 266.069 31.4424 268.611C31.4424 268.671 31.4424 268.704 31.5091 268.718C31.5091 268.938 31.7091 269.171 31.9558 269.084C34.3626 268.251 37.0361 267.658 39.1162 266.111C40.3297 265.211 41.5431 263.524 40.503 262.024ZM35.3493 267.078C34.1759 267.518 32.9825 267.891 31.8291 268.378C32.6874 267.081 33.6109 265.828 34.5959 264.624C35.0802 264.046 35.6037 263.503 36.1627 262.997C37.0428 262.237 40.483 260.644 39.903 263.804C39.5829 265.544 36.7427 266.557 35.3493 267.078Z" fill="#263238"/>
<path d="M24.1149 267.698C26.4751 268.765 29.2153 268.772 31.7421 269.072C32.0021 269.105 32.1421 268.832 32.1021 268.612C32.1135 268.609 32.1239 268.603 32.1326 268.595C32.1412 268.587 32.1477 268.577 32.1517 268.565C32.1556 268.554 32.1568 268.542 32.1551 268.531C32.1535 268.519 32.149 268.508 32.1421 268.498C30.6873 266.213 28.657 264.351 26.2551 263.098C24.8483 262.398 22.6215 262.211 21.8881 263.998C21.1547 265.785 22.7348 267.078 24.1149 267.698ZM22.8482 265.618C21.6081 262.651 25.315 263.471 26.3351 264.031C26.9865 264.405 27.6124 264.821 28.2085 265.278C29.4311 266.242 30.6017 267.27 31.7154 268.358C30.482 268.132 29.2419 268.018 28.0019 267.838C26.5218 267.618 23.5349 267.245 22.8482 265.618Z" fill="#263238"/>
<path d="M35.1692 268.104L4.42041 267.524C4.42041 267.524 13.241 155.516 12.1409 149.516C10.3475 139.688 11.8809 128.468 16.6079 123.141L47.23 123.707C47.23 123.707 47.6767 136.668 44.4232 141.742C44.4232 141.742 41.5163 143.509 40.1029 144.282L35.1692 268.104Z" fill="#263238"/>
<path d="M34.3025 262.525C29.5355 262.311 31.5757 262.305 26.8087 262.145C24.4752 262.071 9.14743 261.571 6.95395 261.878C6.90728 261.878 6.90728 261.965 6.95395 261.978C9.12743 262.391 24.4618 262.645 26.7953 262.645C31.5623 262.718 29.5288 262.645 34.2958 262.645C34.3059 262.638 34.3142 262.63 34.3203 262.62C34.3263 262.61 34.3298 262.598 34.3304 262.586C34.3311 262.575 34.3289 262.563 34.324 262.552C34.3192 262.541 34.3118 262.532 34.3025 262.525Z" fill="#37474F"/>
<path d="M17.0884 149.209C16.915 146.956 16.5883 144.715 16.3816 142.462C16.0052 137.947 16.3654 133.4 17.4484 129.001C17.4495 128.985 17.4451 128.97 17.436 128.958C17.427 128.945 17.4138 128.936 17.3988 128.932C17.3838 128.928 17.3679 128.929 17.3538 128.936C17.3398 128.942 17.3284 128.954 17.3217 128.968C16.5017 132.868 15.7749 136.768 15.9016 140.775C16.0283 144.782 16.6483 148.676 16.6417 152.656C16.635 156.636 16.2416 160.703 15.9083 164.717C15.5749 168.73 15.2416 172.791 14.9015 176.831C13.5681 193.059 12.2947 209.286 11.0013 225.501C10.6412 230.035 10.3346 234.562 9.95453 239.095C9.57451 243.629 9.0678 253.763 8.81445 258.363C8.81445 258.763 9.38782 258.743 9.42783 258.363C10.2679 250.223 10.9479 236.615 11.6146 228.461C12.2814 220.307 12.9014 212.313 13.5481 204.239C14.1948 196.166 14.8215 188.092 15.4549 180.018C15.766 175.978 16.075 171.939 16.3816 167.904C16.6883 163.903 17.0484 159.863 17.195 155.829C17.2821 153.622 17.2465 151.412 17.0884 149.209Z" fill="#37474F"/>
<path d="M35.0892 133.608C35.0892 133.548 35.0225 133.455 34.9692 133.508C33.4085 136.067 31.2455 138.205 28.6687 139.735C25.6352 141.589 21.4749 142.549 19.1547 142.835C19.0014 142.835 19.0547 142.982 19.1947 142.989C21.6416 143.142 25.0418 142.515 28.7621 140.509C34.1224 137.608 35.0025 134.188 35.0892 133.608Z" fill="#37474F"/>
<path d="M45.3434 141.361C42.5205 142.386 39.7923 143.655 37.1895 145.154C37.0895 145.214 37.1562 145.374 37.2695 145.321C40.0097 144.147 42.8099 143.014 45.4901 141.687C45.5286 141.665 45.5575 141.629 45.5712 141.587C45.5848 141.544 45.5823 141.498 45.5641 141.458C45.5458 141.417 45.5132 141.385 45.4724 141.367C45.4317 141.349 45.3857 141.347 45.3434 141.361Z" fill="#37474F"/>
<path d="M46.2964 123.948C46.2964 123.861 46.1231 123.841 46.1231 123.948C46.1086 126.773 45.9417 129.595 45.6231 132.402C45.483 133.735 44.2896 140.909 41.8628 140.402C41.4561 140.315 41.2494 139.949 41.1961 139.375C41.2107 138.628 41.3251 137.886 41.5361 137.169C41.8161 135.655 42.0428 134.142 42.2028 132.622C42.4996 129.79 42.4795 126.935 42.1428 124.108C42.1428 124.086 42.1344 124.066 42.1194 124.051C42.1044 124.036 42.084 124.028 42.0628 124.028C42.0416 124.028 42.0212 124.036 42.0062 124.051C41.9912 124.066 41.9828 124.086 41.9828 124.108C42.0362 128.043 41.7687 131.977 41.1828 135.869C40.8627 137.742 39.8493 140.536 41.9495 140.842C44.0496 141.149 45.5364 136.402 45.8097 135.108C46.4922 131.429 46.6561 127.672 46.2964 123.948Z" fill="#37474F"/>
<path d="M41.9296 140.554C41.7074 141.081 41.5225 141.622 41.3762 142.175C41.2152 142.6 41.1382 143.053 41.1495 143.508C41.1495 143.595 41.2695 143.601 41.3162 143.548C41.5719 143.134 41.7651 142.685 41.8896 142.215C42.0763 141.715 42.2696 141.221 42.443 140.714C42.4507 140.651 42.4359 140.587 42.4011 140.533C42.3664 140.479 42.314 140.44 42.2529 140.421C42.1919 140.402 42.1261 140.405 42.067 140.429C42.008 140.453 41.9593 140.498 41.9296 140.554Z" fill="#37474F"/>
<path d="M10.7273 132.441C10.8273 132.561 53.4569 133.548 53.8836 133.108C54.4836 132.474 50.5967 87.6112 43.5695 77.5772C41.8161 75.0704 35.4156 73.2569 32.6888 75.7237C24.8016 82.8442 23.0881 88.938 20.948 93.905C19.3879 97.5786 17.4611 103.866 15.7076 110.319C12.8074 120.94 10.3672 132.001 10.7273 132.441Z" fill="url(#paint5_linear_10665_26295)"/>
<path d="M26.4223 81.6847C17.6084 92.3521 7.54768 111.753 8.85444 115.767C12.3947 126.681 15.9083 136.115 19.4485 142.016C21.0886 144.742 36.163 136.275 34.6429 133.608C31.5227 128.208 25.5089 115.214 24.5755 113.374C24.0355 112.313 29.0825 94.8323 32.1294 85.1783C35.4429 74.6909 30.6759 76.5243 26.4223 81.6847Z" fill="#F7A9A0"/>
<path d="M14.2947 138.275L32.8626 129.201C32.8626 129.201 25.5288 112.913 25.5288 111.153C25.5288 109.393 31.5292 89.6515 33.356 83.2844C35.1828 76.9173 32.5226 72.937 24.5954 82.531C16.6681 92.125 8.53425 107.866 7.74753 111.653C6.96081 115.44 14.2947 138.275 14.2947 138.275Z" fill="url(#paint6_linear_10665_26295)"/>
<path d="M30.4223 93.2857C30.9023 91.9923 31.4424 90.7255 31.9624 89.4388C32.0024 89.3521 32.1624 89.4388 32.1291 89.5054C31.5157 91.2189 30.9357 92.9523 30.3623 94.6791C30.7957 93.8924 31.2357 93.1057 31.6957 92.3323C31.7037 92.3182 31.7169 92.3077 31.7325 92.3034C31.7482 92.299 31.7649 92.301 31.7791 92.309C31.7932 92.3169 31.8036 92.3302 31.808 92.3458C31.8124 92.3614 31.8103 92.3782 31.8024 92.3923C31.2824 93.3457 30.7356 94.2858 30.1823 95.2192C30.0423 95.6392 25.9887 110.087 25.9487 110.64C25.9252 111.268 26.0202 111.894 26.2287 112.487C26.562 113.574 26.9421 114.654 27.3287 115.727C28.1021 117.881 28.9422 120.014 29.8289 122.128C30.8357 124.528 31.9824 126.908 33.1225 129.248C33.1225 129.248 32.4558 129.435 32.4091 129.448C32.3624 129.462 32.3558 129.448 32.3691 129.408C32.3824 129.368 32.8091 129.182 32.8225 129.182C31.6557 127.148 30.549 125.181 29.5756 123.028C28.6022 120.874 27.7421 118.767 26.9621 116.587C26.562 115.461 26.1753 114.334 25.8153 113.194C25.4169 112.13 25.3088 110.979 25.502 109.86C25.7553 108.713 29.8956 94.6191 30.4223 93.2857Z" fill="#263238"/>
<path d="M13.9945 133.008C14.6412 132.65 15.3092 132.331 15.9947 132.054C16.5947 131.768 17.1948 131.481 17.8081 131.208C19.1416 130.608 20.475 130.001 21.8084 129.408C23.1418 128.814 24.4753 128.221 25.8087 127.641C27.1421 127.061 28.4755 126.447 29.809 125.947C29.8556 125.947 29.8956 126.007 29.849 126.034C28.6155 126.787 27.2955 127.421 26.002 128.067C24.7086 128.714 23.4352 129.301 22.1351 129.881C20.835 130.461 19.4682 131.034 18.1348 131.581C17.4681 131.841 16.8014 132.081 16.1347 132.321C15.4461 132.62 14.7377 132.872 14.0145 133.074C14.0057 133.077 13.9962 133.076 13.988 133.072C13.9799 133.067 13.9738 133.06 13.9712 133.051C13.9685 133.042 13.9695 133.033 13.9739 133.025C13.9783 133.016 13.9857 133.01 13.9945 133.008Z" fill="#263238"/>
<path d="M40.6495 82.1393C38.7627 82.4726 34.3557 79.4724 32.4289 76.6656C32.2956 76.4722 32.3822 74.3054 32.3622 71.6652C32.3622 70.0651 32.2822 68.285 32.1089 66.6582L42.5496 68.0583C42.1839 70.1484 42.0742 72.2754 42.2229 74.3921C42.2537 74.6173 42.3005 74.8401 42.3629 75.0588C42.3629 75.0588 42.3629 75.1255 42.3629 75.1655C42.7296 76.4055 43.5963 81.6059 40.6495 82.1393Z" fill="#F7A9A0"/>
<path d="M42.3629 75.0514C42.3609 75.0869 42.3609 75.1225 42.3629 75.1581C42.0189 75.241 41.6689 75.2967 41.3162 75.3247C35.4024 75.8181 33.169 68.7109 32.6489 66.7441L42.5029 68.0776C42.1372 70.1677 42.0275 72.2946 42.1763 74.4113C42.2236 74.6288 42.286 74.8426 42.3629 75.0514Z" fill="#263238"/>
<path d="M30.4753 52.9378C29.3085 56.5447 31.062 67.0587 33.6022 69.4389C37.2957 72.8858 43.4162 73.3058 46.363 68.8522C49.2232 64.5386 46.6964 50.851 43.8495 48.7041C39.6492 45.4973 32.1954 47.6041 30.4753 52.9378Z" fill="#F7A9A0"/>
<path d="M40.9695 59.4961C40.9695 59.4961 40.9228 59.5361 40.9295 59.5694C41.0762 60.2361 41.1362 61.0962 40.5361 61.4496C40.5361 61.4496 40.5361 61.4962 40.5361 61.4896C41.3095 61.2362 41.2295 60.1361 40.9695 59.4961Z" fill="#263238"/>
<path d="M40.2034 58.8767C39.0566 58.9967 39.3833 61.2902 40.45 61.1768C41.5168 61.0635 41.1701 58.77 40.2034 58.8767Z" fill="#263238"/>
<path d="M45.0034 58.8496C45.0034 58.8496 45.0634 58.8496 45.0634 58.9029C45.1434 59.6163 45.3567 60.4231 46.0301 60.5631V60.6097C45.23 60.6097 44.9634 59.5363 45.0034 58.8496Z" fill="#263238"/>
<path d="M45.5298 58.0179C46.6565 57.7645 47.0766 60.018 46.0298 60.278C44.9831 60.538 44.5831 58.2246 45.5298 58.0179Z" fill="#263238"/>
<path d="M39.1493 57.9581C39.4368 57.8261 39.7172 57.6793 39.9894 57.5181C40.3092 57.404 40.5831 57.1886 40.7694 56.9047C40.8086 56.8031 40.8136 56.6914 40.7835 56.5867C40.7534 56.482 40.6899 56.39 40.6028 56.3247C40.412 56.2237 40.1978 56.1754 39.9821 56.1847C39.7665 56.1941 39.5573 56.2608 39.376 56.378C38.9706 56.5579 38.6455 56.8806 38.4626 57.2848C38.4272 57.3801 38.4202 57.4837 38.4424 57.5829C38.4646 57.6822 38.515 57.7729 38.5876 57.8441C38.6602 57.9153 38.7519 57.964 38.8516 57.9842C38.9513 58.0045 39.0547 57.9954 39.1493 57.9581Z" fill="#263238"/>
<path d="M46.1964 57.0114C45.8792 56.992 45.5632 56.9564 45.2496 56.9047C44.9128 56.911 44.583 56.8081 44.3096 56.6114C44.2362 56.5326 44.1906 56.4319 44.1798 56.3248C44.1689 56.2177 44.1934 56.1099 44.2496 56.018C44.391 55.8537 44.5736 55.73 44.7787 55.6597C44.9837 55.5894 45.2038 55.575 45.4163 55.618C45.8601 55.6409 46.28 55.8259 46.5964 56.138C46.6632 56.2144 46.7065 56.3085 46.7211 56.4089C46.7357 56.5093 46.721 56.6118 46.6787 56.704C46.6365 56.7963 46.5685 56.8744 46.4829 56.9289C46.3973 56.9834 46.2978 57.0121 46.1964 57.0114Z" fill="#263238"/>
<path d="M43.7564 64.5104C43.5094 64.9432 43.156 65.3058 42.7296 65.5638C42.4939 65.694 42.2243 65.7498 41.9563 65.7238C41.3629 65.6571 41.2896 65.1371 41.2896 64.6771C41.3141 64.4316 41.3678 64.1898 41.4496 63.957C42.1385 64.386 42.9478 64.5802 43.7564 64.5104Z" fill="#263238"/>
<path d="M42.7428 65.5629C42.5071 65.6931 42.2375 65.7489 41.9694 65.7229C41.3761 65.6563 41.3027 65.1362 41.3027 64.6762C41.6083 64.6347 41.9188 64.7004 42.1813 64.862C42.4439 65.0237 42.6423 65.2714 42.7428 65.5629Z" fill="#FF9BBC"/>
<path d="M46.0366 52.7026C45.8832 52.4093 44.9898 50.3358 44.5765 50.3558C44.0564 50.3558 43.7764 51.2558 42.823 51.5959C41.4896 52.0826 38.9761 50.7558 37.1293 51.4092C35.2825 52.0626 34.2958 53.936 34.1824 57.3163C34.0691 60.6965 31.6222 63.5967 30.7088 61.4499C30.7088 61.3699 30.6222 61.2299 30.5422 61.0365C30.0221 57.843 29.7621 54.096 30.3155 52.3693C32.0289 47.0356 40.3895 45.6221 44.0698 48.369C44.7049 48.8948 45.2121 49.5582 45.5528 50.309C45.8936 51.0599 46.059 51.8784 46.0366 52.7026Z" fill="#263238"/>
<path d="M33.456 61.8114C33.456 61.8114 31.0692 58.4312 29.5357 59.2846C28.0023 60.138 29.8024 65.045 31.6092 65.705C31.8352 65.8073 32.0795 65.8627 32.3275 65.8679C32.5755 65.873 32.8219 65.8278 33.0519 65.7349C33.2819 65.642 33.4907 65.5035 33.6655 65.3276C33.8404 65.1517 33.9778 64.9422 34.0694 64.7116L33.456 61.8114Z" fill="#F7A9A0"/>
<path d="M30.0891 60.6758C30.0891 60.6758 30.0491 60.7158 30.0891 60.7224C31.3558 61.2291 32.0292 62.4026 32.5026 63.616C32.4282 63.4895 32.3272 63.3806 32.2066 63.297C32.086 63.2133 31.9487 63.1569 31.8041 63.1315C31.6596 63.1061 31.5112 63.1125 31.3694 63.1501C31.2275 63.1877 31.0955 63.2557 30.9825 63.3493C30.9825 63.3493 30.9825 63.4226 31.0158 63.416C31.2381 63.344 31.4772 63.3426 31.7004 63.4118C31.9236 63.481 32.1199 63.6176 32.2626 63.8027C32.4993 64.115 32.7005 64.4526 32.8626 64.8094C32.9226 64.9227 33.1293 64.8627 33.0826 64.7294C33.0893 63.0826 31.8225 60.8291 30.0891 60.6758Z" fill="#263238"/>
<path d="M42.6294 76.0706L41.536 81.2042L32.3354 74.5371L30.4819 77.2706C30.4819 77.2706 39.3625 88.6581 39.3425 88.0981L41.9294 82.3843L45.263 85.7646L44.1829 78.0107L42.6294 76.0706Z" fill="#EBEBEB"/>
<path d="M44.8699 81.2046C44.5899 79.6979 44.6499 79.5779 44.3032 78.0844C44.3032 78.0311 44.2032 78.0178 44.1966 78.0844C44.0699 79.5845 44.8633 83.9315 45.0233 85.3183C44.8499 85.1783 41.9697 82.3514 41.9431 82.3981C41.4964 83.2981 39.4096 87.5051 39.3229 87.8651C37.9161 86.0583 32.5758 79.5112 30.969 77.8311C30.9602 77.8218 30.9484 77.816 30.9358 77.8147C30.9231 77.8134 30.9104 77.8167 30.8999 77.8239C30.8895 77.8312 30.8819 77.8419 30.8787 77.8542C30.8755 77.8666 30.8767 77.8796 30.8823 77.8911C32.1691 79.8312 39.2562 88.6585 39.3429 88.6252C40.367 86.6879 41.258 84.6831 42.0097 82.6247C42.6298 83.2248 45.59 86.445 45.5767 86.2183C45.4291 84.5359 45.1932 82.8623 44.8699 81.2046Z" fill="#263238"/>
<path d="M254.597 225.077C254.803 219.817 254.732 214.549 254.384 209.296C253.604 198.462 251.95 187.708 249.437 177.141C248.057 171.187 246.363 165.34 244.59 159.493C244.536 159.319 244.256 159.366 244.303 159.553C249.777 180.154 254.264 201.409 253.957 222.824C253.87 228.824 253.177 234.705 252.624 240.658C252.624 240.818 252.87 240.878 252.91 240.718C253.928 235.564 254.492 230.33 254.597 225.077Z" fill="url(#paint7_linear_10665_26295)"/>
<path d="M244.303 159.553C244.303 159.553 236.016 180.588 237.876 185.555C239.736 190.522 243.556 191.555 243.556 191.555C243.556 191.555 238.483 198.795 242.03 205.589C245.577 212.383 253.444 212.056 253.964 219.757C253.964 219.73 254.437 187.535 244.303 159.553Z" fill="url(#paint8_linear_10665_26295)"/>
<path d="M253.064 206.436C253.077 206.399 253.077 206.359 253.064 206.322C251.973 191.963 249.276 177.771 245.023 164.013C245.023 163.966 244.943 163.979 244.956 164.013C246.596 170.169 248.048 176.353 249.31 182.567C248.194 181.515 246.833 180.758 245.35 180.367C245.35 180.367 245.31 180.367 245.35 180.407C246.908 180.981 248.309 181.915 249.437 183.134C249.677 184.354 249.917 185.574 250.103 186.794C248.257 184.727 245.683 183.701 243.116 182.721C243.076 182.721 243.063 182.767 243.116 182.781C245.783 183.867 248.45 185.274 250.27 187.581C250.901 191.066 251.457 194.568 251.937 198.088C250.598 196.686 248.882 195.702 246.997 195.255C246.937 195.255 246.903 195.328 246.963 195.341C248.91 195.906 250.651 197.022 251.977 198.555C252.144 199.795 252.304 201.029 252.45 202.269C251.412 201.394 250.242 200.69 248.983 200.182C248.95 200.182 248.93 200.222 248.983 200.235C250.267 200.789 251.443 201.566 252.457 202.529H252.497C252.637 203.709 252.777 204.882 252.89 206.062C251.025 203.807 248.602 202.079 245.863 201.049C245.81 201.049 245.783 201.109 245.863 201.129C248.567 202.325 250.942 204.154 252.79 206.462C252.81 206.488 252.837 206.508 252.868 206.517C252.899 206.527 252.933 206.526 252.964 206.516C253.144 208.329 253.304 210.136 253.437 211.956H253.477C253.344 210.149 253.217 208.282 253.064 206.436Z" fill="#263238"/>
<path d="M246.437 178.28C244.938 177.348 243.226 176.813 241.463 176.727C241.454 176.727 241.446 176.73 241.439 176.736C241.433 176.743 241.43 176.751 241.43 176.76C241.43 176.769 241.433 176.777 241.439 176.783C241.446 176.79 241.454 176.793 241.463 176.793C243.167 177.108 244.822 177.648 246.383 178.4C246.437 178.44 246.47 178.327 246.437 178.28Z" fill="#263238"/>
<path d="M247.41 200.555C246.258 199.897 244.991 199.464 243.676 199.281C243.672 199.281 243.668 199.282 243.664 199.284C243.66 199.285 243.656 199.288 243.653 199.291C243.65 199.294 243.647 199.298 243.646 199.302C243.644 199.306 243.643 199.31 243.643 199.315C243.643 199.319 243.644 199.323 243.646 199.327C243.647 199.331 243.65 199.335 243.653 199.338C243.656 199.341 243.66 199.344 243.664 199.345C243.668 199.347 243.672 199.348 243.676 199.348C244.964 199.607 246.21 200.045 247.377 200.648C247.417 200.675 247.463 200.588 247.41 200.555Z" fill="#263238"/>
<path d="M276.385 185.873C272.88 188.303 269.661 191.123 266.791 194.28C263.832 197.612 261.548 201.486 260.064 205.687C256.92 214.441 255.227 223.65 255.051 232.949C254.947 238.101 255.443 243.247 256.531 248.284C256.541 248.318 256.564 248.348 256.595 248.367C256.626 248.385 256.662 248.392 256.698 248.385C256.733 248.379 256.765 248.359 256.787 248.331C256.809 248.302 256.82 248.266 256.817 248.23C255.465 239.337 255.516 230.286 256.971 221.408C258.391 212.741 260.631 203.24 266.158 196.167C269.172 192.313 272.925 189.286 276.639 186.166C276.832 186.006 276.585 185.733 276.385 185.873Z" fill="url(#paint9_linear_10665_26295)"/>
<path d="M256.271 226.693C258.266 223.464 260.612 220.466 263.264 217.752C267.411 213.605 270.905 210.665 271.438 207.918C271.972 205.171 267.291 203.158 267.291 203.158C267.291 203.158 273.025 204.191 274.625 201.784C276.225 199.377 276.952 185.43 276.952 185.43C276.952 185.43 266.511 192.884 261.618 203.324C256.724 213.765 256.271 226.693 256.271 226.693Z" fill="url(#paint10_linear_10665_26295)"/>
<path d="M273.198 198.508C272.509 198.41 271.812 198.386 271.118 198.435C271.038 198.435 271.045 198.581 271.118 198.581C271.785 198.581 272.492 198.581 273.178 198.581C273.187 198.581 273.195 198.578 273.201 198.572C273.208 198.567 273.213 198.56 273.215 198.552C273.217 198.544 273.217 198.535 273.214 198.527C273.211 198.519 273.205 198.513 273.198 198.508Z" fill="#263238"/>
<path d="M265.685 212.037C264.581 212.067 263.49 212.293 262.465 212.704C262.465 212.704 262.465 212.757 262.465 212.75C263.525 212.497 264.598 212.397 265.672 212.217C265.772 212.184 265.772 212.037 265.685 212.037Z" fill="#263238"/>
<path d="M263.432 207.362C262.973 207.357 262.515 207.4 262.065 207.488C262.054 207.488 262.044 207.493 262.037 207.5C262.029 207.508 262.025 207.518 262.025 207.528C262.025 207.539 262.029 207.549 262.037 207.557C262.044 207.564 262.054 207.568 262.065 207.568C262.522 207.593 262.98 207.571 263.432 207.502C263.447 207.497 263.46 207.488 263.469 207.475C263.478 207.463 263.483 207.447 263.483 207.432C263.483 207.416 263.478 207.401 263.469 207.388C263.46 207.376 263.447 207.366 263.432 207.362Z" fill="#263238"/>
<path d="M225.675 200.674C229.072 201.824 232.326 203.356 235.376 205.241C238.544 207.262 241.288 209.88 243.457 212.949C248.031 219.31 251.534 226.377 253.824 233.87C255.098 238.019 255.885 242.301 256.171 246.631C256.164 246.659 256.149 246.684 256.126 246.701C256.104 246.719 256.076 246.729 256.048 246.729C256.019 246.729 255.991 246.719 255.969 246.701C255.946 246.684 255.931 246.659 255.924 246.631C254.964 239.122 252.831 231.81 249.604 224.963C246.444 218.249 242.443 211.102 236.336 206.655C233.003 204.235 229.269 202.655 225.535 200.974C225.342 200.881 225.482 200.608 225.675 200.674Z" fill="url(#paint11_linear_10665_26295)"/>
<path d="M251.384 229.057C249.025 226.906 246.435 225.021 243.663 223.437C239.35 221.044 235.843 219.437 234.769 217.37C233.696 215.303 237.029 212.563 237.029 212.563C237.029 212.563 232.629 214.716 230.802 213.136C228.976 211.556 225.135 200.469 225.135 200.469C225.135 200.469 235.303 204.089 241.656 211.416C248.01 218.743 251.384 229.057 251.384 229.057Z" fill="url(#paint12_linear_10665_26295)"/>
<path d="M250.857 226.764C245.77 217.217 238.983 208.583 229.683 202.883C232.11 204.447 234.386 206.232 236.483 208.217C234.591 208.114 232.705 208.512 231.016 209.37C230.983 209.37 231.016 209.437 231.049 209.423C232.845 208.751 234.753 208.43 236.67 208.477C236.692 208.483 236.715 208.483 236.736 208.477L237.717 209.43C236.732 209.475 235.752 209.604 234.79 209.817C234.79 209.817 234.79 209.863 234.79 209.857C235.805 209.666 236.837 209.581 237.87 209.603C239.573 211.326 241.176 213.144 242.67 215.05C241.985 214.955 241.288 215.005 240.623 215.197C240.613 215.197 240.603 215.201 240.595 215.209C240.588 215.216 240.583 215.226 240.583 215.237C240.583 215.248 240.588 215.258 240.595 215.265C240.603 215.273 240.613 215.277 240.623 215.277C241.347 215.193 242.078 215.181 242.804 215.244C243.084 215.597 243.364 215.95 243.637 216.31C241.56 216.183 239.476 216.385 237.463 216.91C237.463 216.91 237.463 216.964 237.463 216.957C239.55 216.55 241.681 216.411 243.804 216.544C244.064 216.89 244.31 217.21 244.564 217.59C243.326 217.56 242.089 217.702 240.89 218.011C240.843 218.011 240.857 218.097 240.89 218.084C242.138 217.817 243.416 217.718 244.69 217.791C245.79 219.297 246.837 220.837 247.844 222.398C247.306 222.298 246.753 222.33 246.23 222.491C246.23 222.491 246.23 222.544 246.23 222.538C246.814 222.493 247.401 222.522 247.977 222.624C248.884 224.031 249.757 225.458 250.597 226.884C250.731 226.984 250.924 226.891 250.857 226.764Z" fill="#263238"/>
<path d="M242.943 218.843C241.945 218.778 240.943 218.901 239.99 219.203C239.99 219.203 239.99 219.256 239.99 219.25C240.962 219.086 241.944 218.986 242.93 218.95C243.003 218.95 243.017 218.85 242.943 218.843Z" fill="#263238"/>
<path d="M234.076 207.209C233.63 207.179 233.182 207.206 232.742 207.289C232.689 207.289 232.709 207.376 232.742 207.369C233.189 207.323 233.629 207.369 234.076 207.329C234.092 207.329 234.107 207.323 234.118 207.312C234.13 207.301 234.136 207.285 234.136 207.269C234.136 207.254 234.13 207.238 234.118 207.227C234.107 207.216 234.092 207.209 234.076 207.209Z" fill="#263238"/>
<path d="M264.505 260.628H241.55L244.817 236.653L245.657 230.506H260.391L261.231 236.653L264.505 260.628Z" fill="#455A64"/>
<path d="M261.231 236.653H244.816L245.656 230.506H260.391L261.231 236.653Z" fill="#263238"/>
<path d="M262.498 228.371H243.55V233.578H262.498V228.371Z" fill="#455A64"/>
<defs>
<linearGradient id="paint0_linear_10665_26295" x1="196.992" y1="51.5554" x2="175.622" y2="142.633" gradientUnits="userSpaceOnUse">
<stop stop-color="#FFD600"/>
<stop offset="1" stop-color="#F11139"/>
</linearGradient>
<linearGradient id="paint1_linear_10665_26295" x1="172.965" y1="164.955" x2="172.877" y2="170.938" gradientUnits="userSpaceOnUse">
<stop stop-color="#FFD600"/>
<stop offset="1" stop-color="#F11139"/>
</linearGradient>
<linearGradient id="paint2_linear_10665_26295" x1="79.7615" y1="80.3479" x2="66.7213" y2="124.205" gradientUnits="userSpaceOnUse">
<stop stop-color="#FFD600"/>
<stop offset="1" stop-color="#F11139"/>
</linearGradient>
<linearGradient id="paint3_linear_10665_26295" x1="92.9854" y1="264.536" x2="90.7149" y2="286.561" gradientUnits="userSpaceOnUse">
<stop stop-color="#FFD600"/>
<stop offset="1" stop-color="#F11139"/>
</linearGradient>
<linearGradient id="paint4_linear_10665_26295" x1="59.3998" y1="266.261" x2="57.1287" y2="288.29" gradientUnits="userSpaceOnUse">
<stop stop-color="#FFD600"/>
<stop offset="1" stop-color="#F11139"/>
</linearGradient>
<linearGradient id="paint5_linear_10665_26295" x1="58.4424" y1="79.3556" x2="40.7834" y2="134.827" gradientUnits="userSpaceOnUse">
<stop stop-color="#FFD600"/>
<stop offset="1" stop-color="#F11139"/>
</linearGradient>
<linearGradient id="paint6_linear_10665_26295" x1="36.6341" y1="81.8299" x2="9.59239" y2="130.968" gradientUnits="userSpaceOnUse">
<stop stop-color="#FFD600"/>
<stop offset="1" stop-color="#F11139"/>
</linearGradient>
<linearGradient id="paint7_linear_10665_26295" x1="255.795" y1="166.053" x2="220.168" y2="185.467" gradientUnits="userSpaceOnUse">
<stop stop-color="#FFD600"/>
<stop offset="1" stop-color="#F11139"/>
</linearGradient>
<linearGradient id="paint8_linear_10665_26295" x1="255.669" y1="164.483" x2="224.658" y2="200.397" gradientUnits="userSpaceOnUse">
<stop stop-color="#FFD600"/>
<stop offset="1" stop-color="#F11139"/>
</linearGradient>
<linearGradient id="paint9_linear_10665_26295" x1="278.963" y1="190.957" x2="248.717" y2="235.606" gradientUnits="userSpaceOnUse">
<stop stop-color="#FFD600"/>
<stop offset="1" stop-color="#F11139"/>
</linearGradient>
<linearGradient id="paint10_linear_10665_26295" x1="279.103" y1="188.809" x2="262.601" y2="224.05" gradientUnits="userSpaceOnUse">
<stop stop-color="#FFD600"/>
<stop offset="1" stop-color="#F11139"/>
</linearGradient>
<linearGradient id="paint11_linear_10665_26295" x1="259.367" y1="204.437" x2="244.349" y2="247.121" gradientUnits="userSpaceOnUse">
<stop stop-color="#FFD600"/>
<stop offset="1" stop-color="#F11139"/>
</linearGradient>
<linearGradient id="paint12_linear_10665_26295" x1="254.114" y1="202.81" x2="246.971" y2="230.754" gradientUnits="userSpaceOnUse">
<stop stop-color="#FFD600"/>
<stop offset="1" stop-color="#F11139"/>
</linearGradient>
</defs>
</svg>
