<svg width="24" height="20" viewBox="0 0 24 20" fill="none" xmlns="http://www.w3.org/2000/svg">
<path d="M8 9.8125H2.11C2.29585 8.57484 2.73779 7.38955 3.40759 6.33233C4.07739 5.27512 4.96033 4.36922 6 3.6725L7.79 2.4725L6.69 0.8125L4.9 2.0125C3.39328 3.01658 2.15771 4.37706 1.30293 5.97322C0.448156 7.56939 0.000607087 9.35187 0 11.1625V17.8125C0 18.3429 0.210714 18.8516 0.585786 19.2267C0.960859 19.6018 1.46957 19.8125 2 19.8125H8C8.53043 19.8125 9.03914 19.6018 9.41421 19.2267C9.78929 18.8516 10 18.3429 10 17.8125V11.8125C10 11.2821 9.78929 10.7734 9.41421 10.3983C9.03914 10.0232 8.53043 9.8125 8 9.8125ZM22 9.8125H16.11C16.2959 8.57484 16.7378 7.38955 17.4076 6.33233C18.0774 5.27512 18.9603 4.36922 20 3.6725L21.79 2.4725L20.7 0.8125L18.9 2.0125C17.3933 3.01658 16.1577 4.37706 15.3029 5.97322C14.4482 7.56939 14.0006 9.35187 14 11.1625V17.8125C14 18.3429 14.2107 18.8516 14.5858 19.2267C14.9609 19.6018 15.4696 19.8125 16 19.8125H22C22.5304 19.8125 23.0391 19.6018 23.4142 19.2267C23.7893 18.8516 24 18.3429 24 17.8125V11.8125C24 11.2821 23.7893 10.7734 23.4142 10.3983C23.0391 10.0232 22.5304 9.8125 22 9.8125Z" fill="#C02026"/>
</svg>
