<svg width="251" height="250" viewBox="0 0 251 250" fill="none" xmlns="http://www.w3.org/2000/svg">
<path d="M66.45 123.5C66.055 139 69.075 158.9 87.14 164C96.19 166.545 106.215 164.865 115.225 168.15C124.83 171.65 131.14 176.835 142.54 177.37C186.835 179.445 213.18 139.455 210.09 107.725C207.54 81.485 185.73 31.95 144.62 53.225C136.52 57.415 130.065 63.725 122.085 67.91C112.18 73.125 99.79 72.55 91.04 78.445C77.85 87.32 66.76 111.15 66.45 123.5Z" fill="#202020"/>
<path opacity="0.9" d="M66.45 123.5C66.055 139 69.075 158.9 87.14 164C96.19 166.545 106.215 164.865 115.225 168.15C124.83 171.65 131.14 176.835 142.54 177.37C186.835 179.445 213.18 139.455 210.09 107.725C207.54 81.485 185.73 31.95 144.62 53.225C136.52 57.415 130.065 63.725 122.085 67.91C112.18 73.125 99.79 72.55 91.04 78.445C77.85 87.32 66.76 111.15 66.45 123.5Z" fill="url(#paint0_linear_2369_11119)"/>
<path d="M125.5 213.78C179.041 213.78 222.445 211.246 222.445 208.12C222.445 204.994 179.041 202.46 125.5 202.46C71.9587 202.46 28.5549 204.994 28.5549 208.12C28.5549 211.246 71.9587 213.78 125.5 213.78Z" fill="#F5F5F5"/>
<path opacity="0.19" d="M148.875 144.635H43.085L50.545 38.8501H156.335L148.875 144.635Z" fill="url(#paint1_linear_2369_11119)"/>
<path opacity="0.1" d="M66.92 144.635H51.705L89.61 38.8501H104.825L66.92 144.635Z" fill="url(#paint2_linear_2369_11119)"/>
<path opacity="0.1" d="M103.875 144.635H70.3149L108.22 38.8501H141.78L103.875 144.635Z" fill="url(#paint3_linear_2369_11119)"/>
<path d="M50.825 56.915L47.725 56.695L49.095 37.295H68.5V40.405H51.99L50.825 56.915Z" fill="url(#paint4_linear_2369_11119)"/>
<path d="M61.04 146.19H41.415L42.8 126.575L45.9 126.795L44.75 143.08H61.04V146.19Z" fill="url(#paint5_linear_2369_11119)"/>
<path d="M156.615 56.915L153.52 56.695L154.665 40.405H138.375V37.295H158L156.615 56.915Z" fill="url(#paint6_linear_2369_11119)"/>
<path d="M150.32 146.19H130.915V143.08H147.425L148.59 126.575L151.69 126.795L150.32 146.19Z" fill="url(#paint7_linear_2369_11119)"/>
<path d="M97.625 129.035C97.533 129.033 97.4425 129.011 97.36 128.97C97.33 128.97 96.595 128.55 95.36 127.79C94.86 127.475 94.23 127.09 93.545 126.655C91.37 125.24 89.275 123.75 87.31 122.225C86.81 121.855 86.36 121.475 85.875 121.085C84.065 119.585 82.375 118.115 80.905 116.655C80.525 116.275 80.15 115.895 79.775 115.505C78.4097 114.099 77.1275 112.615 75.935 111.06C75.645 110.685 75.365 110.3 75.09 109.91C74.0731 108.493 73.1655 107 72.375 105.445C72.185 105.07 71.995 104.675 71.82 104.28C71.1635 102.834 70.651 101.327 70.29 99.78C70.2 99.425 70.12 99.04 70.05 98.61C69.995 98.33 69.95 98.035 69.915 97.745C69.76 96.6 69.63 95.435 69.505 94.175C69.465 93.8 69.43 93.42 69.395 93.045C69.265 91.545 69.155 90.08 69.075 88.62V88.5C69.075 88.17 69.035 87.84 69.02 87.5C68.95 86.06 68.9 84.575 68.87 83.085V81.95C68.87 80.375 68.87 78.89 68.87 77.535C68.87 77.155 68.87 76.775 68.895 76.4C68.93 74.77 68.985 73.285 69.05 71.985V71.9C69.05 71.54 69.08 71.19 69.1 70.845C69.19 69.235 69.295 67.71 69.405 66.43C69.44 65.995 69.47 65.625 69.505 65.295C69.62 64.035 69.705 63.33 69.705 63.33C69.7153 63.2008 69.7713 63.0795 69.8629 62.9879C69.9545 62.8963 70.0758 62.8403 70.205 62.83C70.295 62.83 79.52 62.115 89.345 60.385C91.345 60.035 93.275 59.655 95.105 59.26C97.8 58.67 100.265 58.03 102.44 57.355C102.549 57.3201 102.666 57.3201 102.775 57.355C104.85 58.035 107.225 58.675 109.835 59.26C111.61 59.66 113.49 60.035 115.435 60.385C125.015 62.115 134.14 62.825 134.23 62.83C134.369 62.8415 134.499 62.906 134.592 63.0102C134.685 63.1144 134.734 63.2503 134.73 63.39C134.73 63.39 134.73 64.09 134.655 65.355C134.655 65.69 134.62 66.07 134.595 66.49C134.52 67.775 134.41 69.3 134.275 70.905C134.245 71.225 134.215 71.545 134.185 71.88V72.045C134.07 73.35 133.91 74.835 133.72 76.455C133.675 76.84 133.63 77.215 133.58 77.595C133.41 78.955 133.205 80.44 132.965 82.005L132.795 83.135C132.555 84.635 132.295 86.135 132.025 87.555C131.965 87.875 131.9 88.2 131.835 88.525L131.8 88.695C131.515 90.145 131.2 91.635 130.86 93.11L130.59 94.25C130.285 95.51 129.99 96.675 129.68 97.815C129.595 98.11 129.51 98.4 129.42 98.69C129.285 99.115 129.155 99.495 129.015 99.855C128.429 101.416 127.706 102.921 126.855 104.355C126.63 104.74 126.39 105.13 126.14 105.51C125.128 107.067 124.014 108.555 122.805 109.965C122.475 110.35 122.145 110.735 121.805 111.11C120.397 112.664 118.912 114.146 117.355 115.55C116.925 115.937 116.495 116.317 116.065 116.69C114.37 118.15 112.495 119.635 110.48 121.115C109.94 121.505 109.41 121.885 108.885 122.255C106.705 123.78 104.385 125.255 102.035 126.68C101.285 127.115 100.62 127.5 100.035 127.815C98.695 128.57 97.905 128.975 97.875 128.99C97.7963 129.024 97.7107 129.04 97.625 129.035V129.035ZM70.74 63.9C70.705 64.23 70.655 64.73 70.595 65.4C70.56 65.73 70.53 66.095 70.5 66.495C70.39 67.795 70.285 69.31 70.195 70.915C70.195 71.255 70.16 71.6 70.14 71.96V72.045C70.07 73.335 70.02 74.81 69.985 76.43C69.985 76.8 69.985 77.175 69.96 77.555C69.96 78.905 69.96 80.38 69.96 81.94V83.075C69.99 84.55 70.04 86.025 70.11 87.45C70.11 87.78 70.14 88.105 70.16 88.45V88.6C70.24 90.045 70.345 91.52 70.475 92.98C70.51 93.355 70.545 93.73 70.585 94.105C70.705 95.35 70.84 96.51 70.99 97.64C71.025 97.915 71.065 98.19 71.115 98.46C71.185 98.87 71.26 99.225 71.345 99.565C71.6918 101.043 72.1824 102.483 72.81 103.865C72.98 104.24 73.155 104.615 73.34 104.975C74.1065 106.482 74.9857 107.93 75.97 109.305C76.24 109.68 76.51 110.055 76.795 110.42C77.9632 111.942 79.2169 113.396 80.55 114.775C80.92 115.155 81.29 115.53 81.665 115.9C83.125 117.335 84.77 118.8 86.555 120.26C87.055 120.645 87.505 121.02 87.975 121.39C89.91 122.89 91.975 124.365 94.125 125.76C94.8 126.19 95.405 126.57 95.92 126.88C96.715 127.38 97.305 127.71 97.62 127.88C97.955 127.705 98.62 127.38 99.48 126.88C100.045 126.565 100.7 126.185 101.44 125.75C103.78 124.355 106.06 122.885 108.215 121.375C108.715 121.01 109.26 120.635 109.795 120.245C111.795 118.785 113.64 117.32 115.295 115.88C115.72 115.51 116.145 115.135 116.565 114.75C118.098 113.371 119.559 111.916 120.945 110.39C121.28 110.02 121.605 109.65 121.945 109.275C123.124 107.903 124.21 106.453 125.195 104.935C125.44 104.565 125.695 104.19 125.885 103.82C126.716 102.445 127.423 100.999 128 99.5C128.135 99.155 128.26 98.795 128.385 98.39C128.475 98.115 128.555 97.835 128.63 97.56C128.94 96.43 129.235 95.275 129.535 94.025C129.63 93.65 129.715 93.275 129.805 92.9C130.14 91.435 130.455 89.96 130.735 88.52L130.77 88.345C130.835 88.025 130.895 87.705 130.955 87.385C131.225 85.965 131.485 84.49 131.72 83L131.895 81.875C132.13 80.32 132.335 78.845 132.505 77.49C132.555 77.115 132.595 76.745 132.64 76.375C132.83 74.755 132.99 73.28 133.105 71.98V71.815C133.135 71.485 133.165 71.16 133.19 70.845C133.325 69.255 133.435 67.74 133.505 66.465C133.53 66.045 133.55 65.67 133.57 65.335C133.595 64.725 133.615 64.245 133.625 63.92C131.545 63.74 123.565 63.005 115.245 61.505C113.285 61.15 111.39 60.77 109.6 60.37C107.025 59.79 104.675 59.16 102.6 58.49C100.435 59.16 97.995 59.79 95.335 60.37C93.495 60.77 91.545 61.15 89.535 61.505C80.9 63 72.725 63.735 70.74 63.9Z" fill="url(#paint8_linear_2369_11119)"/>
<path d="M105.349 85.9137C108.048 83.3073 108.267 79.1537 105.837 76.6365C103.407 74.1193 99.2487 74.1917 96.5488 76.7981C93.8488 79.4045 93.6299 83.5581 96.0599 86.0752C98.4899 88.5924 102.649 88.5201 105.349 85.9137Z" fill="#F21E35"/>
<path d="M102.39 83.645H100.785H99.1849L94.6549 104.775H103.94L102.39 83.645Z" fill="#F21E35"/>
<path d="M157.27 204.005L153.26 203.945L152.335 194.635L156.35 194.695L157.27 204.005Z" fill="#FFB573"/>
<path d="M177.915 204.02H173.905L170.78 194.725H174.79L177.915 204.02Z" fill="#FFB573"/>
<path d="M173.37 203.555H178.26C178.34 203.555 178.418 203.582 178.48 203.632C178.543 203.682 178.587 203.752 178.605 203.83L179.395 207.4C179.415 207.487 179.415 207.577 179.394 207.663C179.374 207.75 179.334 207.83 179.278 207.899C179.221 207.968 179.149 208.022 179.068 208.059C178.987 208.096 178.899 208.113 178.81 208.11C177.235 208.085 176.085 207.99 174.105 207.99C172.885 207.99 169.205 208.12 167.52 208.12C165.835 208.12 165.615 206.455 166.305 206.3C169.395 205.625 171.725 204.695 172.715 203.8C172.897 203.642 173.129 203.555 173.37 203.555Z" fill="#263238"/>
<path d="M153.295 203.5L157.675 203.57C157.755 203.57 157.831 203.598 157.893 203.648C157.955 203.698 157.998 203.767 158.015 203.845L158.75 207.425C158.769 207.511 158.768 207.601 158.747 207.687C158.727 207.773 158.687 207.853 158.63 207.921C158.574 207.989 158.502 208.043 158.422 208.079C158.341 208.115 158.253 208.133 158.165 208.13C156.58 208.08 154.3 207.95 152.31 207.92C149.99 207.885 147.98 207.98 145.255 207.92C143.61 207.895 143.18 206.225 143.87 206.085C147.02 205.445 149.585 205.41 152.325 203.78C152.617 203.599 152.952 203.503 153.295 203.5Z" fill="#263238"/>
<path d="M155.76 84.415C154.491 87.2325 153.077 89.9828 151.525 92.655C150.75 93.99 149.94 95.315 149.06 96.615C148.184 97.9476 147.236 99.2312 146.22 100.46L145.825 100.93L145.625 101.165C145.555 101.245 145.51 101.305 145.37 101.45C144.797 102.095 144.061 102.575 143.24 102.84C142.731 102.999 142.196 103.056 141.665 103.005C141.197 102.965 140.739 102.847 140.31 102.655C139.692 102.374 139.128 101.987 138.645 101.51C137.96 100.826 137.371 100.053 136.895 99.21C136.477 98.4874 136.098 97.743 135.76 96.98C134.525 94.0927 133.6 91.0825 133 88L135.88 87.105C136.495 88.415 137.13 89.77 137.795 91.06C138.46 92.35 139.14 93.64 139.875 94.825C140.22 95.403 140.595 95.9622 141 96.5C141.317 96.9366 141.687 97.3328 142.1 97.68C142.25 97.795 142.365 97.82 142.305 97.77C142.221 97.7249 142.13 97.6961 142.035 97.685C141.879 97.6671 141.721 97.6789 141.57 97.72C141.27 97.815 141.225 97.885 141.26 97.82L141.815 97.055C143.439 94.6985 144.918 92.2457 146.245 89.71C147.62 87.155 148.96 84.485 150.215 81.9L155.76 84.415Z" fill="#FFB573"/>
<path d="M157.43 81.9C158.51 85.58 150.895 95.615 150.895 95.615L143.21 90.675C144.658 87.4933 146.443 84.4761 148.535 81.675C151.68 77.64 156.24 77.86 157.43 81.9Z" fill="#202020"/>
<path opacity="0.2" d="M157.43 81.9C158.51 85.58 150.895 95.615 150.895 95.615L143.21 90.675C144.658 87.4933 146.443 84.4761 148.535 81.675C151.68 77.64 156.24 77.86 157.43 81.9Z" fill="black"/>
<path opacity="0.2" d="M152.745 86.22C151.165 86.895 148.84 90.72 147.63 93.52L150.89 95.615C152.711 93.1799 154.349 90.6128 155.79 87.935C154.76 86.805 153.58 85.865 152.745 86.22Z" fill="black"/>
<path d="M135.81 88.545L136.81 84.02L132.245 83.985C132.245 83.985 131.025 87.385 133.48 88.985L135.81 88.545Z" fill="#FFB573"/>
<path d="M136.275 79.78L132.615 81.095L132.23 83.985L136.795 84.02L136.275 79.78Z" fill="#FFB573"/>
<path opacity="0.2" d="M152.34 194.635L152.815 199.435L156.825 199.5L156.355 194.7L152.34 194.635Z" fill="black"/>
<path opacity="0.2" d="M174.79 194.73H170.78L172.39 199.52H176.405L174.79 194.73Z" fill="black"/>
<path d="M175.32 80.27C170.995 95.515 171.87 111.695 171.48 114.97C168.34 114.745 156.515 113.86 150.07 113.38C147.26 90.535 152.88 78.8 152.88 78.8C152.88 78.8 154.26 78.535 156.13 78.34C156.715 78.28 157.35 78.23 158.01 78.195C158.375 78.195 158.745 78.16 159.12 78.155C162.164 78.207 165.202 78.4323 168.22 78.83C168.79 78.9 169.37 78.99 169.935 79.08C170.5 79.17 170.965 79.265 171.435 79.36C173.635 79.795 175.32 80.27 175.32 80.27Z" fill="#202020"/>
<path opacity="0.2" d="M175.32 80.27C170.995 95.515 171.87 111.695 171.48 114.97C168.34 114.745 156.515 113.86 150.07 113.38C147.26 90.535 152.88 78.8 152.88 78.8C152.88 78.8 154.26 78.535 156.13 78.34C156.715 78.28 157.35 78.23 158.01 78.195C158.375 78.195 158.745 78.16 159.12 78.155C162.164 78.207 165.202 78.4323 168.22 78.83C168.79 78.9 169.37 78.99 169.935 79.08C170.5 79.17 170.965 79.265 171.435 79.36C173.635 79.795 175.32 80.27 175.32 80.27Z" fill="black"/>
<path opacity="0.2" d="M170.75 86.8099C170.365 88.2849 170.805 95.0149 172.345 96.6749C172.555 94.5199 172.845 92.2699 173.205 89.9699L170.75 86.8099Z" fill="black"/>
<path d="M168.08 68.5C167.29 71.385 166.315 76.71 168.22 78.815C166.51 80.28 164.295 81.95 160.81 81.815C157.325 81.68 158.105 79.315 159.12 78.14C162.44 77.6 162.54 75.17 162.12 72.855L168.08 68.5Z" fill="#FFB573"/>
<path d="M167.9 78C167.9 78 166.46 80.375 160.67 81.82C161.63 82.71 162.095 84.82 162.095 84.82C162.095 84.82 169.65 83 169.42 78.75C168.959 78.4166 168.445 78.1631 167.9 78V78Z" fill="#263238"/>
<path d="M158.61 84.275C158.61 84.275 159.37 82.445 160.67 81.82C160.065 81.195 159.17 79.32 159.7 77.915C159.252 77.8792 158.8 77.9078 158.36 78C158.36 78 156.07 80.885 158.61 84.275Z" fill="#263238"/>
<path d="M160.42 84.33C160.355 84.72 160.125 85.01 159.92 84.97C159.715 84.93 159.59 84.585 159.66 84.195C159.73 83.805 159.96 83.51 160.16 83.55C160.36 83.59 160.5 83.935 160.42 84.33Z" fill="#263238"/>
<path d="M160.08 86.58C160.045 86.98 159.845 87.285 159.63 87.265C159.415 87.245 159.27 86.91 159.305 86.515C159.34 86.12 159.54 85.81 159.755 85.83C159.97 85.85 160.115 86.185 160.08 86.58Z" fill="#263238"/>
<path opacity="0.2" d="M165.66 70.2949L162.16 72.8699C162.265 73.4087 162.318 73.9561 162.32 74.5049C163.585 74.4149 165.4 73.1749 165.63 71.8799C165.732 71.3573 165.742 70.821 165.66 70.2949V70.2949Z" fill="black"/>
<path d="M160.05 57.605C156.93 57.535 156.3 65.075 158.325 66.39C160.35 67.705 165.89 57.73 160.05 57.605Z" fill="#263238"/>
<path d="M168.755 64.135C168.22 68.08 168.105 70.42 165.95 72.305C162.71 75.14 157.95 72.96 157.3 68.935C156.715 65.31 157.69 59.465 161.69 58.175C162.57 57.8859 163.51 57.8268 164.419 58.0033C165.328 58.1798 166.178 58.586 166.886 59.1834C167.594 59.7807 168.137 60.5493 168.464 61.416C168.792 62.2827 168.892 63.2187 168.755 64.135V64.135Z" fill="#FFB573"/>
<path d="M168.19 67.9999C166.19 69.0549 163.88 58.1349 169.19 58.7049C175.86 59.4149 172.205 65.8949 168.19 67.9999Z" fill="#263238"/>
<path d="M159.285 58.68C159.285 61.125 167.22 63.555 169.94 62.72C172.66 61.885 173.345 59.72 171.885 58.22C169.415 55.635 159.285 53.89 159.285 58.68Z" fill="#263238"/>
<path d="M159.605 59C159.788 59.8088 160.183 60.5543 160.75 61.16C160.04 61.12 159.335 60.115 159.11 59.53C158.885 58.945 159.605 59 159.605 59Z" fill="#263238"/>
<path d="M170.22 68.64C169.926 69.0406 169.557 69.3792 169.132 69.6366C168.707 69.894 168.236 70.0651 167.745 70.14C166.43 70.33 165.945 69.11 166.455 67.96C166.915 66.925 168.15 65.58 169.4 65.92C170.65 66.26 170.94 67.645 170.22 68.64Z" fill="#FFB573"/>
<path d="M151.325 198.5L158.12 198.605C158.12 198.605 155.85 171.76 156.465 159.27C156.65 155.47 157.415 150.155 158.415 144.46C159.685 137.28 160.295 134.42 161.915 125.35C163.085 118.88 164.125 114.445 164.125 114.445L150.05 113.395C150.05 113.395 144.1 145.735 144.24 158C144.38 170.715 151.325 198.5 151.325 198.5Z" fill="#263238"/>
<path opacity="0.2" d="M159.19 123C156.66 129.3 156.61 144.06 157.775 148.215C157.975 146.985 158.19 145.715 158.415 144.445C159.685 137.265 160.295 134.405 161.915 125.335C161.945 125.155 161.98 124.98 162.01 124.805C161.181 124.045 160.227 123.435 159.19 123V123Z" fill="black"/>
<path d="M157.665 113.945C157.665 113.945 158.905 147.79 159.85 159.51C160.88 172.35 170.5 198.59 170.5 198.59H177.85C177.85 198.59 172.945 174.59 171.44 162.09C169.725 147.89 171.47 114.96 171.47 114.96L157.665 113.945Z" fill="#263238"/>
<path d="M169.625 198.75H178.28V196.165L168.605 195.995L169.625 198.75Z" fill="#202020"/>
<path d="M150.47 198.63L158.565 198.755L158.605 196.14L149.555 195.86L150.47 198.63Z" fill="#202020"/>
<path d="M162.66 64.795C162.635 65.12 162.445 65.37 162.235 65.35C162.025 65.33 161.87 65.06 161.895 64.74C161.92 64.42 162.11 64.17 162.32 64.185C162.53 64.2 162.685 64.5 162.66 64.795Z" fill="#263238"/>
<path d="M159 64.5249C159 64.8499 158.785 65.0949 158.575 65.0799C158.365 65.0649 158.215 64.7899 158.235 64.4699C158.255 64.1499 158.45 63.8949 158.665 63.9099C158.88 63.9249 159.035 64.1999 159 64.5249Z" fill="#263238"/>
<path d="M160.16 64.77C159.7 65.7291 159.112 66.6207 158.41 67.42C158.616 67.5908 158.857 67.715 159.116 67.784C159.375 67.853 159.646 67.8653 159.91 67.82L160.16 64.77Z" fill="#ED893E"/>
<path d="M161.23 68.785C161.593 68.7706 161.949 68.6814 162.276 68.5231C162.603 68.3648 162.894 68.1408 163.13 67.865C163.139 67.8561 163.146 67.8456 163.151 67.834C163.156 67.8224 163.158 67.81 163.158 67.7975C163.158 67.7849 163.156 67.7725 163.151 67.7609C163.146 67.7493 163.139 67.7388 163.13 67.73C163.112 67.7131 163.087 67.7037 163.062 67.7037C163.037 67.7037 163.013 67.7131 162.995 67.73C162.727 68.0309 162.391 68.2643 162.016 68.4111C161.641 68.5579 161.236 68.6141 160.835 68.575C160.811 68.5735 160.787 68.5816 160.768 68.5974C160.749 68.6132 160.737 68.6356 160.735 68.66C160.734 68.6724 160.735 68.6851 160.738 68.6971C160.742 68.7092 160.748 68.7204 160.756 68.7302C160.763 68.74 160.773 68.7481 160.784 68.754C160.795 68.76 160.807 68.7637 160.82 68.765C160.956 68.781 161.093 68.7877 161.23 68.785V68.785Z" fill="#263238"/>
<path d="M163.875 63.7C163.907 63.6993 163.939 63.6889 163.965 63.67C163.986 63.6568 164.004 63.6395 164.018 63.6192C164.032 63.5989 164.042 63.5759 164.048 63.5517C164.053 63.5274 164.053 63.5024 164.048 63.478C164.043 63.4537 164.034 63.4306 164.02 63.41C163.861 63.1499 163.642 62.9322 163.381 62.7755C163.119 62.6187 162.824 62.5276 162.52 62.51C162.47 62.51 162.421 62.53 162.386 62.5657C162.35 62.6013 162.33 62.6496 162.33 62.7C162.33 62.7504 162.35 62.7987 162.386 62.8344C162.421 62.87 162.47 62.89 162.52 62.89V62.89C162.758 62.9095 162.988 62.9854 163.19 63.1115C163.393 63.2376 163.562 63.4102 163.685 63.615C163.705 63.6461 163.734 63.6707 163.767 63.6858C163.801 63.7009 163.838 63.7059 163.875 63.7V63.7Z" fill="#263238"/>
<path d="M157.53 63.1549C157.562 63.1525 157.592 63.1426 157.619 63.1261C157.646 63.1096 157.669 63.0869 157.685 63.0599C157.798 62.8487 157.96 62.6677 158.158 62.532C158.355 62.3963 158.582 62.3098 158.82 62.2799C158.845 62.2787 158.869 62.2725 158.891 62.2616C158.914 62.2508 158.934 62.2356 158.95 62.217C158.966 62.1983 158.979 62.1766 158.986 62.153C158.994 62.1295 158.997 62.1046 158.995 62.0799C158.994 62.0552 158.989 62.0308 158.979 62.0083C158.968 61.9858 158.954 61.9655 158.936 61.9487C158.917 61.9319 158.896 61.919 158.873 61.9106C158.849 61.9022 158.825 61.8986 158.8 61.8999C158.5 61.9351 158.213 62.0408 157.961 62.2086C157.71 62.3764 157.502 62.6013 157.355 62.8649C157.342 62.8866 157.334 62.9105 157.331 62.9353C157.328 62.9601 157.329 62.9853 157.336 63.0095C157.343 63.0336 157.354 63.0563 157.369 63.0761C157.384 63.0959 157.403 63.1125 157.425 63.1249C157.457 63.144 157.493 63.1544 157.53 63.1549V63.1549Z" fill="#263238"/>
<path d="M172.04 204.26C172.394 204.25 172.746 204.202 173.09 204.115C173.109 204.11 173.126 204.1 173.139 204.086C173.153 204.072 173.162 204.054 173.165 204.035C173.167 204.017 173.163 203.998 173.155 203.981C173.147 203.965 173.135 203.95 173.12 203.94C172.975 203.85 171.68 203.055 171.235 203.28C171.186 203.306 171.145 203.345 171.116 203.392C171.086 203.44 171.071 203.494 171.07 203.55C171.061 203.643 171.074 203.737 171.109 203.824C171.144 203.911 171.199 203.989 171.27 204.05C171.496 204.204 171.767 204.278 172.04 204.26ZM172.815 203.98C172.135 204.115 171.61 204.09 171.39 203.905C171.342 203.864 171.304 203.811 171.282 203.752C171.259 203.692 171.252 203.628 171.26 203.565C171.259 203.542 171.263 203.519 171.274 203.499C171.285 203.479 171.3 203.462 171.32 203.45C171.55 203.33 172.29 203.675 172.815 204V203.98Z" fill="#202020"/>
<path d="M173.07 204.115C173.086 204.119 173.104 204.119 173.12 204.115C173.134 204.106 173.146 204.093 173.153 204.078C173.161 204.063 173.165 204.047 173.165 204.03C173.165 203.98 173.065 202.82 172.6 202.44C172.545 202.392 172.481 202.356 172.411 202.335C172.341 202.314 172.267 202.309 172.195 202.32C172.124 202.319 172.054 202.342 171.998 202.387C171.942 202.432 171.904 202.495 171.89 202.565C171.805 203.015 172.61 203.895 173.025 204.12L173.07 204.115ZM172.26 202.5C172.34 202.499 172.417 202.53 172.475 202.585C172.758 202.945 172.923 203.383 172.95 203.84C172.54 203.525 172.025 202.84 172.075 202.6C172.075 202.575 172.075 202.515 172.215 202.5H172.26V202.5Z" fill="#202020"/>
<path d="M152.89 204.03C152.907 204.024 152.922 204.013 152.934 203.999C152.945 203.985 152.953 203.968 152.955 203.95C152.957 203.931 152.954 203.912 152.945 203.895C152.936 203.878 152.922 203.864 152.905 203.855C152.725 203.755 151.125 202.915 150.635 203.175C150.589 203.2 150.55 203.237 150.522 203.282C150.494 203.326 150.478 203.377 150.475 203.43V203.43C150.463 203.516 150.473 203.603 150.502 203.684C150.532 203.765 150.581 203.837 150.645 203.895C151.075 204.29 152.23 204.15 152.88 204.03H152.89ZM150.76 203.33C151.06 203.23 151.93 203.575 152.565 203.89C151.675 204.025 151.015 203.975 150.77 203.755C150.728 203.716 150.697 203.667 150.678 203.613C150.658 203.559 150.652 203.502 150.66 203.445C150.66 203.424 150.666 203.403 150.678 203.385C150.689 203.368 150.706 203.354 150.725 203.345L150.76 203.33Z" fill="#202020"/>
<path d="M152.89 204.03H152.915C152.929 204.021 152.941 204.009 152.948 203.994C152.955 203.978 152.957 203.962 152.955 203.945C152.955 203.9 152.86 202.815 152.355 202.39C152.287 202.33 152.208 202.283 152.122 202.254C152.036 202.225 151.945 202.213 151.855 202.22C151.59 202.22 151.515 202.37 151.495 202.48C151.415 202.93 152.36 203.815 152.84 204.04C152.857 204.04 152.874 204.037 152.89 204.03ZM151.75 202.41H151.85C151.92 202.404 151.99 202.412 152.056 202.434C152.123 202.457 152.184 202.493 152.235 202.54C152.526 202.894 152.7 203.328 152.735 203.785C152.235 203.48 151.605 202.785 151.65 202.515C151.665 202.5 151.67 202.435 151.75 202.41Z" fill="#202020"/>
<path d="M176.35 82.77C177.75 85.58 179.005 88.39 180.16 91.27C180.745 92.71 181.285 94.175 181.815 95.65C182.075 96.395 182.315 97.15 182.565 97.89L182.745 98.455L182.94 99.105C183.08 99.55 183.16 99.995 183.265 100.435C183.816 103.802 183.66 107.247 182.805 110.55C182.434 112.118 181.965 113.661 181.4 115.17C181.115 115.92 180.81 116.67 180.485 117.385C180.16 118.1 179.83 118.82 179.425 119.57L176.66 118.37C177.045 117.005 177.435 115.53 177.71 114.095C177.985 112.66 178.24 111.21 178.4 109.78C178.558 108.376 178.615 106.962 178.57 105.55C178.543 104.228 178.358 102.913 178.02 101.635C177.925 101.34 177.85 101.03 177.735 100.75C177.675 100.605 177.64 100.485 177.565 100.31L177.355 99.81C177.075 99.125 176.77 98.44 176.48 97.755C175.895 96.375 175.26 95.01 174.65 93.635L170.875 85.42L176.35 82.77Z" fill="#FFB573"/>
<path d="M175.32 80.27C178.98 81.42 182.58 93.835 182.58 93.835L174.11 97.54C174.11 97.54 171.37 91.54 169.79 86.84C168.075 81.715 170.88 78.88 175.32 80.27Z" fill="#202020"/>
<path opacity="0.2" d="M175.32 80.27C178.98 81.42 182.58 93.835 182.58 93.835L174.11 97.54C174.11 97.54 171.37 91.54 169.79 86.84C168.075 81.715 170.88 78.88 175.32 80.27Z" fill="black"/>
<path d="M176.885 117.695L174.91 121.26L179.565 122.47C179.565 122.47 180.97 119.015 179.31 117.915L176.885 117.695Z" fill="#FFB573"/>
<path d="M174.565 125.305L178.84 125.66L179.565 122.47L174.91 121.26L174.565 125.305Z" fill="#FFB573"/>
<defs>
<linearGradient id="paint0_linear_2369_11119" x1="225.302" y1="58.6486" x2="198.082" y2="187.646" gradientUnits="userSpaceOnUse">
<stop stop-color="#FFD600"/>
<stop offset="1" stop-color="#F11139"/>
</linearGradient>
<linearGradient id="paint1_linear_2369_11119" x1="168.113" y1="47.5135" x2="145.072" y2="152.618" gradientUnits="userSpaceOnUse">
<stop stop-color="#FFD600"/>
<stop offset="1" stop-color="#F11139"/>
</linearGradient>
<linearGradient id="paint2_linear_2369_11119" x1="110.349" y1="47.5135" x2="68.0957" y2="137.92" gradientUnits="userSpaceOnUse">
<stop stop-color="#FFD600"/>
<stop offset="1" stop-color="#F11139"/>
</linearGradient>
<linearGradient id="paint3_linear_2369_11119" x1="149.212" y1="47.5135" x2="115.066" y2="145.806" gradientUnits="userSpaceOnUse">
<stop stop-color="#FFD600"/>
<stop offset="1" stop-color="#F11139"/>
</linearGradient>
<linearGradient id="paint4_linear_2369_11119" x1="70.6606" y1="38.9019" x2="66.3443" y2="58.3757" gradientUnits="userSpaceOnUse">
<stop stop-color="#FFD600"/>
<stop offset="1" stop-color="#F11139"/>
</linearGradient>
<linearGradient id="paint5_linear_2369_11119" x1="63.081" y1="128.181" x2="58.5397" y2="147.542" gradientUnits="userSpaceOnUse">
<stop stop-color="#FFD600"/>
<stop offset="1" stop-color="#F11139"/>
</linearGradient>
<linearGradient id="paint6_linear_2369_11119" x1="160.041" y1="38.9019" x2="155.498" y2="58.2663" gradientUnits="userSpaceOnUse">
<stop stop-color="#FFD600"/>
<stop offset="1" stop-color="#F11139"/>
</linearGradient>
<linearGradient id="paint7_linear_2369_11119" x1="153.851" y1="128.181" x2="149.536" y2="147.651" gradientUnits="userSpaceOnUse">
<stop stop-color="#FFD600"/>
<stop offset="1" stop-color="#F11139"/>
</linearGradient>
<linearGradient id="paint8_linear_2369_11119" x1="141.58" y1="63.2014" x2="123.669" y2="133.294" gradientUnits="userSpaceOnUse">
<stop stop-color="#FFD600"/>
<stop offset="1" stop-color="#F11139"/>
</linearGradient>
</defs>
</svg>
