<svg width="18" height="18" viewBox="0 0 18 18" fill="none" xmlns="http://www.w3.org/2000/svg">
<path d="M5.25 3.75C5.25 4.14782 5.09196 4.52936 4.81066 4.81066C4.52936 5.09196 4.14782 5.25 3.75 5.25C3.35218 5.25 2.97064 5.09196 2.68934 4.81066C2.40804 4.52936 2.25 4.14782 2.25 3.75C2.25 3.35218 2.40804 2.97064 2.68934 2.68934C2.97064 2.40804 3.35218 2.25 3.75 2.25C4.14782 2.25 4.52936 2.40804 4.81066 2.68934C5.09196 2.97064 5.25 3.35218 5.25 3.75ZM15.75 3.75C15.75 4.14782 15.592 4.52936 15.3107 4.81066C15.0294 5.09196 14.6478 5.25 14.25 5.25C13.8522 5.25 13.4706 5.09196 13.1893 4.81066C12.908 4.52936 12.75 4.14782 12.75 3.75C12.75 3.35218 12.908 2.97064 13.1893 2.68934C13.4706 2.40804 13.8522 2.25 14.25 2.25C14.6478 2.25 15.0294 2.40804 15.3107 2.68934C15.592 2.97064 15.75 3.35218 15.75 3.75ZM5.25 14.25C5.25 14.6478 5.09196 15.0294 4.81066 15.3107C4.52936 15.592 4.14782 15.75 3.75 15.75C3.35218 15.75 2.97064 15.592 2.68934 15.3107C2.40804 15.0294 2.25 14.6478 2.25 14.25C2.25 13.8522 2.40804 13.4706 2.68934 13.1893C2.97064 12.908 3.35218 12.75 3.75 12.75C4.14782 12.75 4.52936 12.908 4.81066 13.1893C5.09196 13.4706 5.25 13.8522 5.25 14.25ZM6 3.75C6 3.8775 5.9895 4.00275 5.96925 4.125H9.375C9.57391 4.125 9.76468 4.20402 9.90533 4.34467C10.046 4.48532 10.125 4.67609 10.125 4.875V6.75H8.625C8.12772 6.75 7.65081 6.94754 7.29917 7.29917C6.94754 7.65081 6.75 8.12772 6.75 8.625V10.125H4.875C4.67609 10.125 4.48532 10.046 4.34467 9.90533C4.20402 9.76468 4.125 9.57391 4.125 9.375V5.96925C3.74778 6.03225 3.36075 5.99871 3 5.87175V9.375C3 9.87228 3.19754 10.3492 3.54917 10.7008C3.90081 11.0525 4.37772 11.25 4.875 11.25H6.75V13.125C6.75 13.622 6.94734 14.0987 7.29864 14.4503C7.64995 14.8019 8.12648 14.9996 8.6235 15C8.46333 14.6157 8.35342 14.2124 8.2965 13.8C8.16999 13.7384 8.06338 13.6424 7.98884 13.523C7.91431 13.4037 7.87486 13.2657 7.875 13.125V8.625C7.875 8.42609 7.95402 8.23532 8.09467 8.09467C8.23532 7.95402 8.42609 7.875 8.625 7.875H13.125C13.2657 7.87486 13.4037 7.91431 13.523 7.98884C13.6424 8.06338 13.7384 8.16999 13.8 8.2965C14.2192 8.35425 14.6213 8.466 15 8.6235C14.9996 8.12648 14.8019 7.64995 14.4503 7.29864C14.0987 6.94734 13.622 6.75 13.125 6.75H11.25V4.875C11.25 4.37772 11.0525 3.90081 10.7008 3.54917C10.3492 3.19754 9.87228 3 9.375 3H5.8725C5.955 3.23475 6 3.4875 6 3.75ZM17.25 13.125C17.25 14.219 16.8154 15.2682 16.0418 16.0418C15.2682 16.8154 14.219 17.25 13.125 17.25C12.031 17.25 10.9818 16.8154 10.2082 16.0418C9.4346 15.2682 9 14.219 9 13.125C9 12.031 9.4346 10.9818 10.2082 10.2082C10.9818 9.4346 12.031 9 13.125 9C14.219 9 15.2682 9.4346 16.0418 10.2082C16.8154 10.9818 17.25 12.031 17.25 13.125ZM13.125 12.5947L11.8905 11.3595C11.8201 11.2891 11.7246 11.2495 11.625 11.2495C11.5254 11.2495 11.4299 11.2891 11.3595 11.3595C11.2891 11.4299 11.2495 11.5254 11.2495 11.625C11.2495 11.7246 11.2891 11.8201 11.3595 11.8905L12.5947 13.125L11.3595 14.3595C11.2891 14.4299 11.2495 14.5254 11.2495 14.625C11.2495 14.7246 11.2891 14.8201 11.3595 14.8905C11.4299 14.9609 11.5254 15.0005 11.625 15.0005C11.7246 15.0005 11.8201 14.9609 11.8905 14.8905L13.125 13.6553L14.3595 14.8905C14.3944 14.9254 14.4358 14.953 14.4813 14.9719C14.5269 14.9908 14.5757 15.0005 14.625 15.0005C14.6743 15.0005 14.7231 14.9908 14.7687 14.9719C14.8142 14.953 14.8556 14.9254 14.8905 14.8905C14.9254 14.8556 14.953 14.8142 14.9719 14.7687C14.9908 14.7231 15.0005 14.6743 15.0005 14.625C15.0005 14.5757 14.9908 14.5269 14.9719 14.4813C14.953 14.4358 14.9254 14.3944 14.8905 14.3595L13.6553 13.125L14.8905 11.8905C14.9609 11.8201 15.0005 11.7246 15.0005 11.625C15.0005 11.5254 14.9609 11.4299 14.8905 11.3595C14.8201 11.2891 14.7246 11.2495 14.625 11.2495C14.5254 11.2495 14.4299 11.2891 14.3595 11.3595L13.125 12.5947Z" fill="black"/>
</svg>
