<svg width="19" height="18" viewBox="0 0 19 18" fill="none" xmlns="http://www.w3.org/2000/svg">
<path d="M13.6188 11.6719C13.1178 11.6719 12.6555 11.8477 12.2934 12.1412L8.6512 9.50625C8.71218 9.1715 8.71218 8.8285 8.6512 8.49375L12.2934 5.85879C12.6555 6.15234 13.1178 6.32812 13.6188 6.32812C14.7824 6.32812 15.7281 5.38242 15.7281 4.21875C15.7281 3.05508 14.7824 2.10938 13.6188 2.10938C12.4551 2.10938 11.5094 3.05508 11.5094 4.21875C11.5094 4.42266 11.5375 4.61777 11.592 4.8041L8.13264 7.30898C7.61936 6.62871 6.80374 6.1875 5.8844 6.1875C4.33049 6.1875 3.0719 7.44609 3.0719 9C3.0719 10.5539 4.33049 11.8125 5.8844 11.8125C6.80374 11.8125 7.61936 11.3713 8.13264 10.691L11.592 13.1959C11.5375 13.3822 11.5094 13.5791 11.5094 13.7812C11.5094 14.9449 12.4551 15.8906 13.6188 15.8906C14.7824 15.8906 15.7281 14.9449 15.7281 13.7812C15.7281 12.6176 14.7824 11.6719 13.6188 11.6719ZM13.6188 3.30469C14.1233 3.30469 14.5328 3.71426 14.5328 4.21875C14.5328 4.72324 14.1233 5.13281 13.6188 5.13281C13.1143 5.13281 12.7047 4.72324 12.7047 4.21875C12.7047 3.71426 13.1143 3.30469 13.6188 3.30469ZM5.8844 10.5469C5.03186 10.5469 4.33752 9.85254 4.33752 9C4.33752 8.14746 5.03186 7.45312 5.8844 7.45312C6.73694 7.45312 7.43127 8.14746 7.43127 9C7.43127 9.85254 6.73694 10.5469 5.8844 10.5469ZM13.6188 14.6953C13.1143 14.6953 12.7047 14.2857 12.7047 13.7812C12.7047 13.2768 13.1143 12.8672 13.6188 12.8672C14.1233 12.8672 14.5328 13.2768 14.5328 13.7812C14.5328 14.2857 14.1233 14.6953 13.6188 14.6953Z" fill="#717E95"/>
</svg>
