<svg width="19" height="18" viewBox="0 0 19 18" fill="none" xmlns="http://www.w3.org/2000/svg">
<path d="M15.8 2.25H5.81974C5.51457 2.25101 5.2169 2.34462 4.96607 2.51844C4.71525 2.69226 4.52309 2.93812 4.41499 3.2235L2.34724 8.73675C2.31584 8.82096 2.29984 8.91013 2.29999 9V10.5C2.29999 11.3273 2.97274 12 3.79999 12H8.00899L7.16749 14.5253C7.09246 14.7507 7.07197 14.9908 7.10769 15.2257C7.14342 15.4606 7.23433 15.6838 7.37299 15.8768C7.65499 16.2668 8.10949 16.5 8.59099 16.5H9.79999C10.0227 16.5 10.2335 16.401 10.3767 16.23L13.9017 12H15.8C16.6272 12 17.3 11.3273 17.3 10.5V3.75C17.3 2.92275 16.6272 2.25 15.8 2.25ZM9.44824 15H8.58949L9.76099 11.487C9.79852 11.3743 9.80875 11.2543 9.79084 11.1369C9.77293 11.0195 9.72739 10.908 9.65796 10.8116C9.58854 10.7153 9.49722 10.6367 9.39152 10.5826C9.28582 10.5284 9.16876 10.5001 9.04999 10.5H3.79999V9.13575L5.81974 3.75H12.8V10.9785L9.44824 15ZM14.3 10.5V3.75H15.8L15.8007 10.5H14.3Z" fill="#717E95"/>
</svg>
