<svg width="211" height="172" viewBox="0 0 211 172" fill="none" xmlns="http://www.w3.org/2000/svg">
<path d="M15.0797 80.738L0.122559 123.81L64.0248 146.001L78.9819 102.929L15.0797 80.738Z" fill="#EBEBEB"/>
<path d="M78.9778 102.918C78.7257 103.066 78.4603 103.19 78.1851 103.288L75.8651 104.226L67.2823 107.583L38.8196 118.478L38.583 118.565L38.4502 118.353L38.1223 117.839L21.7204 91.667L16.8065 83.6985L15.4991 81.5154C15.3374 81.267 15.1984 81.0045 15.0841 80.731C15.2801 80.9528 15.4539 81.1933 15.6029 81.449L17.0098 83.5698L22.0856 91.4512L38.6453 117.527C38.7532 117.706 38.8653 117.88 38.969 118.042L38.5996 117.918L67.1287 107.197L75.7821 104.006L78.1436 103.176C78.4126 103.063 78.692 102.977 78.9778 102.918Z" fill="#E0E0E0"/>
<path d="M0.122404 123.823C0.0352478 123.678 6.89152 119.445 15.4328 114.365C23.9741 109.285 30.9715 105.288 31.0586 105.434C31.1458 105.579 24.2895 109.812 15.7441 114.892C7.19864 119.972 0.20956 123.948 0.122404 123.823Z" fill="#E0E0E0"/>
<path d="M52.4866 112.248C52.6443 112.194 55.3586 119.719 58.546 129.02C61.7334 138.32 64.1862 145.936 64.0244 145.99C63.8625 146.044 61.1524 138.52 57.965 129.219C54.7775 119.918 52.3247 112.302 52.4866 112.248Z" fill="#E0E0E0"/>
<path d="M203.654 69.5272L140.422 80.2449L147.646 122.866L210.878 112.149L203.654 69.5272Z" fill="#E0E0E0"/>
<path d="M203.648 69.546C203.506 69.7835 203.342 70.0072 203.159 70.2142L201.66 72.0528L196.057 78.7596C191.247 84.4331 184.665 92.1983 177.381 100.798L177.228 100.98L177.02 100.864L176.514 100.586L150.94 86.3173L143.224 81.9346L141.149 80.7186C140.899 80.5897 140.662 80.4353 140.444 80.2579C140.708 80.3548 140.963 80.4742 141.207 80.6148L143.345 81.7395L151.151 85.9562L176.808 100.067L177.315 100.345L176.954 100.412L195.771 78.4857L201.511 71.8992C202.171 71.1646 202.694 70.5753 203.092 70.127C203.262 69.9189 203.448 69.7246 203.648 69.546Z" fill="#EBEBEB"/>
<path d="M147.64 122.881C147.503 122.798 151.267 116.15 156.049 108.032C160.83 99.9136 164.822 93.3977 164.959 93.4807C165.096 93.5637 161.332 100.208 156.551 108.33C151.77 116.453 147.777 122.96 147.64 122.881Z" fill="#EBEBEB"/>
<path d="M185.889 89.376C185.997 89.2598 191.7 94.2609 198.577 100.553C205.454 106.845 210.982 112.041 210.87 112.174C210.758 112.306 205.084 107.28 198.182 100.997C191.28 94.7133 185.765 89.5047 185.889 89.376Z" fill="#EBEBEB"/>
<path d="M140.449 1.77888L129.057 30.7422L172.029 47.6433L183.42 18.68L140.449 1.77888Z" fill="#EBEBEB"/>
<path d="M183.407 19.066C183.233 19.1633 183.048 19.2399 182.855 19.2943L181.249 19.8753L175.302 21.9297L155.584 28.5702L155.422 28.6241L155.339 28.4747L155.131 28.1178L144.677 9.81089C143.37 7.49088 142.307 5.59835 141.548 4.2412L140.718 2.71805C140.612 2.54414 140.523 2.36072 140.452 2.17021C140.581 2.32679 140.694 2.49489 140.792 2.6724C141.016 3.05007 141.315 3.54396 141.693 4.1582L144.938 9.66563C147.661 14.3679 151.392 20.8008 155.509 27.9269L155.717 28.288L155.472 28.1925L175.223 21.6683L181.199 19.7218L182.83 19.2362C183.018 19.1642 183.211 19.1073 183.407 19.066Z" fill="#E0E0E0"/>
<path d="M129.047 31.1351C128.989 31.0355 133.782 28.3336 139.751 25.1047C145.719 21.8758 150.599 19.3441 150.653 19.4437C150.707 19.5433 145.922 22.2452 139.95 25.4616C133.977 28.6781 129.101 31.2388 129.047 31.1351Z" fill="#E0E0E0"/>
<path d="M165.08 24.698C165.192 24.6648 166.835 29.8651 168.749 36.3188C170.662 42.7725 172.131 48.0143 172.019 48.0475C171.907 48.0807 170.263 42.8845 168.35 36.4267C166.437 29.9688 164.968 24.7312 165.08 24.698Z" fill="#E0E0E0"/>
<path d="M56.7905 71.4883L154.683 70.7786L157.41 137.333L56.0435 136.395L56.7905 71.4883Z" fill="url(#paint0_linear_2426_12827)"/>
<path d="M56.7863 71.4883L103.12 33.9988C104.072 33.2294 105.26 32.8118 106.484 32.8163C107.708 32.8209 108.893 33.2473 109.839 34.0237L154.683 70.7786" fill="url(#paint1_linear_2426_12827)"/>
<g opacity="0.3">
<path opacity="0.3" d="M56.7863 71.4883L103.12 33.9988C104.072 33.2294 105.26 32.8118 106.484 32.8163C107.708 32.8209 108.893 33.2473 109.839 34.0237L154.683 70.7786" fill="black"/>
</g>
<path d="M56.0434 136.395C55.923 136.278 63.7587 127.721 73.5493 117.283C83.3398 106.845 91.3706 98.4735 91.4951 98.5855C91.6196 98.6976 83.7797 107.255 73.9892 117.698C64.1987 128.14 56.1679 136.507 56.0434 136.395Z" fill="white"/>
<path d="M157.41 137.333C157.285 137.445 149.653 129.061 140.365 118.611C131.076 108.16 123.647 99.594 123.764 99.482C123.88 99.3699 131.52 107.753 140.809 118.208C150.097 128.663 157.543 137.221 157.41 137.333Z" fill="white"/>
<g opacity="0.5">
<path opacity="0.5" d="M154.683 70.7786L105.523 110.049L56.7904 71.4883" fill="black"/>
</g>
<path d="M61.7168 75.124L61.5674 44.5529L147.283 43.5361L148.25 75.705L105.519 109.534L61.7168 75.124Z" fill="#F4F4F4"/>
<path d="M61.7168 75.1239C61.7168 75.1239 61.9949 75.3315 62.5219 75.7423L64.8461 77.5519L73.707 84.4704L105.585 109.463H105.477L148.196 75.622L148.155 75.7091C147.972 69.575 147.777 63.1338 147.578 56.5846C147.449 52.1729 147.316 47.8151 147.188 43.5403L147.296 43.644L61.5798 44.6193L61.6462 44.5529C61.6794 54.1691 61.7085 61.8098 61.7251 67.0475C61.7251 69.6663 61.7251 71.6834 61.7251 73.0488V74.5969C61.7251 74.9455 61.7251 75.1239 61.7251 75.1239C61.7251 75.1239 61.7251 74.9496 61.7251 74.6052C61.7251 74.2607 61.7251 73.7419 61.7251 73.0654C61.7251 71.7 61.696 69.6871 61.6753 67.0724C61.6421 61.8264 61.5923 54.1816 61.53 44.5529V44.4824H61.5964L147.316 43.4324H147.42V43.5403C147.549 47.8109 147.678 52.1687 147.81 56.5805C148.01 63.1338 148.2 69.5709 148.387 75.7091V75.7631L148.346 75.7963L105.598 109.609L105.544 109.65L105.49 109.609L73.6323 84.5326L64.8254 77.5809L62.5012 75.7548C61.9783 75.3398 61.7168 75.1239 61.7168 75.1239Z" fill="white"/>
<path d="M133.737 58.9337C133.737 58.9918 120.626 59.1204 104.461 59.2159C88.2952 59.3114 75.1803 59.3487 75.1803 59.2865C75.1803 59.2242 88.2869 59.0997 104.461 59.0001C120.634 58.9005 133.737 58.8714 133.737 58.9337Z" fill="#BAC3D2"/>
<path d="M133.737 67.5663C133.737 67.6285 120.626 67.7572 104.461 67.8526C88.2952 67.9481 75.1803 67.9813 75.1803 67.9232C75.1803 67.8651 88.2869 67.7364 104.461 67.6368C120.634 67.5372 133.737 67.5082 133.737 67.5663Z" fill="#BAC3D2"/>
<path d="M133.737 77.5228C133.737 77.5809 120.626 77.7096 104.461 77.8092C88.2952 77.9088 75.1803 77.9378 75.1803 77.8756C75.1803 77.8133 88.2869 77.6888 104.461 77.5934C120.634 77.4979 133.737 77.4606 133.737 77.5228Z" fill="#BAC3D2"/>
<path d="M133.737 87.4752C133.737 87.5375 121.232 87.6578 105.805 87.7533C90.3787 87.8487 77.8739 87.8736 77.8698 87.8155C77.8656 87.7574 90.3746 87.6329 105.805 87.5375C121.236 87.442 133.737 87.4171 133.737 87.4752Z" fill="#BAC3D2"/>
<path d="M122.772 96.2116C122.659 96.2306 122.545 96.2389 122.431 96.2365L121.444 96.2655L117.824 96.3236L105.876 96.4938C101.211 96.5726 96.9817 96.5975 93.923 96.6017H90.3039H89.3161C89.2023 96.6038 89.0885 96.5968 88.9758 96.5809C89.0882 96.5619 89.2022 96.5536 89.3161 96.556L90.3039 96.5311L93.923 96.4689L105.872 96.2987C110.537 96.2199 114.766 96.195 117.82 96.1908H121.444H122.431C122.545 96.1905 122.659 96.1974 122.772 96.2116Z" fill="#BAC3D2"/>
<path d="M111.736 104.612C111.736 104.67 108.943 104.72 105.511 104.72C102.078 104.72 99.2852 104.67 99.2852 104.612C99.2852 104.554 102.082 104.504 105.511 104.504C108.939 104.504 111.736 104.549 111.736 104.612Z" fill="#BAC3D2"/>
<path d="M140.589 97.8302C146.308 97.8302 150.944 93.1941 150.944 87.4752C150.944 81.7563 146.308 77.1203 140.589 77.1203C134.87 77.1203 130.234 81.7563 130.234 87.4752C130.234 93.1941 134.87 97.8302 140.589 97.8302Z" fill="white"/>
<path d="M137.895 97.8302C143.614 97.8302 148.25 93.1941 148.25 87.4752C148.25 81.7563 143.614 77.1203 137.895 77.1203C132.177 77.1203 127.541 81.7563 127.541 87.4752C127.541 93.1941 132.177 97.8302 137.895 97.8302Z" fill="#455A64"/>
<path d="M139.211 82.6567V91.2644H137.621V83.9807H135.799V82.6401L139.211 82.6567Z" fill="#EBEBEB"/>
<path d="M62.3892 30.5872H71.8601L70.5777 29.118V25.5944C70.5777 24.6786 70.2139 23.8003 69.5663 23.1528C68.9187 22.5052 68.0404 22.1414 67.1246 22.1414C66.6714 22.1414 66.2225 22.2307 65.8038 22.4043C65.3851 22.5779 65.0047 22.8323 64.6844 23.153C64.3641 23.4737 64.1102 23.8544 63.9371 24.2733C63.764 24.6923 63.6752 25.1412 63.6757 25.5944V28.9437L62.3892 30.5872Z" fill="#C02026"/>
<path d="M65.8214 30.1224C65.8319 30.3286 65.8859 30.5302 65.98 30.714C66.0741 30.8978 66.2061 31.0596 66.3673 31.1886C66.5284 31.3177 66.7151 31.4111 66.915 31.4628C67.115 31.5144 67.3235 31.5231 67.527 31.4882C67.7305 31.4534 67.9244 31.3758 68.0957 31.2606C68.267 31.1453 68.412 30.9951 68.521 30.8198C68.6301 30.6444 68.7007 30.448 68.7282 30.2434C68.7558 30.0387 68.7397 29.8306 68.681 29.6327" fill="#C02026"/>
<path d="M67.6518 20.7054H66.7222V22.6809H67.6518V20.7054Z" fill="#C02026"/>
<path d="M80.9326 24.1086C80.9045 24.0273 80.8823 23.9441 80.8662 23.8596C80.8247 23.6811 80.7708 23.4446 80.7002 23.1292C80.6136 22.7322 80.5013 22.3412 80.364 21.9588C80.281 21.7347 80.2229 21.4815 80.1109 21.2283L79.7581 20.4232C79.1197 19.063 78.2725 17.8111 77.2472 16.7128C75.9006 15.2933 74.2701 14.1733 72.4619 13.4258C71.4321 12.9923 70.3534 12.6857 69.2496 12.5127C68.059 12.3392 66.851 12.3197 65.6554 12.4546C65.0264 12.5208 64.4024 12.6289 63.7878 12.7783C63.4765 12.8448 63.1736 12.9651 62.8581 13.0606C62.5414 13.1485 62.2319 13.2608 61.9326 13.3967C60.6611 13.911 59.4778 14.621 58.4256 15.5009C56.0906 17.4262 54.4447 20.0583 53.7358 23.0005C53.3626 24.5768 53.2712 26.2067 53.466 27.8148C53.6369 29.4784 54.1199 31.0948 54.8896 32.5794L55.1303 33.0317L55.1594 33.0898V33.1521C54.3915 35.6423 53.6445 38.1324 52.914 40.5106L52.719 40.3321L58.6497 37.2401L58.7203 37.2028L58.7867 37.2526C61.2662 39.1647 64.3223 40.1767 67.453 40.1224C70.5837 40.0681 73.6028 38.9507 76.0145 36.9538C77.2511 35.9199 78.3048 34.6852 79.1314 33.3015C79.7922 32.146 80.3014 30.9101 80.6463 29.6244C80.879 28.6479 81.018 27.6515 81.0613 26.6486C81.0613 26.2336 81.0613 25.8767 81.0613 25.5571C81.0613 25.2375 81.0115 24.9843 80.9949 24.7644C80.9783 24.5444 80.9617 24.3991 80.9534 24.2788C80.9469 24.2236 80.9469 24.1679 80.9534 24.1128C80.9681 24.1657 80.9778 24.2199 80.9824 24.2746C80.9824 24.3964 81.0032 24.5582 81.0447 24.7602C81.0696 24.9802 81.0986 25.2417 81.136 25.5571C81.1733 25.8725 81.136 26.2419 81.136 26.6528C81.1129 27.6644 80.9877 28.6711 80.7625 29.6576C80.4311 30.963 79.9287 32.219 79.2684 33.3928C78.4417 34.8067 77.3807 36.0697 76.1308 37.1281C74.6004 38.4056 72.8154 39.3425 70.8946 39.8763C68.9739 40.4102 66.9615 40.5288 64.9914 40.2242C62.6725 39.8559 60.481 38.9191 58.6124 37.4975H58.7535L52.831 40.5977L52.5322 40.7554L52.6318 40.4193L54.873 33.0608V33.1812L54.6281 32.7205C53.843 31.2031 53.3502 29.5517 53.1755 27.8522C52.9724 26.2065 53.068 24.5376 53.4577 22.9258C54.1837 19.926 55.8663 17.2441 58.2513 15.2851C59.3279 14.3944 60.5362 13.6762 61.833 13.156C62.1377 13.0181 62.4527 12.9043 62.7751 12.8157C63.0947 12.7244 63.4018 12.604 63.7214 12.5376C64.345 12.3842 64.9789 12.276 65.6181 12.2139C66.8336 12.0801 68.0613 12.1052 69.2703 12.2886C70.3886 12.474 71.4809 12.7917 72.5242 13.2349C74.352 14.0045 75.9957 15.1531 77.3468 16.6049C78.3723 17.7235 79.2129 18.9984 79.837 20.3817C79.9573 20.6722 80.0735 20.942 80.1773 21.2117C80.281 21.4815 80.3433 21.7264 80.4221 21.9546C80.5567 22.3401 80.6608 22.7356 80.7334 23.1375C80.7915 23.4487 80.8413 23.6936 80.8745 23.8762C80.899 23.9523 80.9184 24.03 80.9326 24.1086Z" fill="white"/>
<path d="M195.439 122.666C196.796 127.252 195.767 133.149 194.123 137.64C192.453 142.175 189.38 146.058 185.35 148.725C184.901 149.02 184.325 149.306 183.851 149.053C183.676 148.914 183.534 148.738 183.434 148.538C183.335 148.338 183.28 148.119 183.275 147.895C182.304 142.936 182.966 137.797 185.162 133.246C187.358 128.695 190.97 124.979 195.456 122.653" fill="url(#paint2_linear_2426_12827)"/>
<g opacity="0.2">
<path opacity="0.2" d="M195.439 122.666C196.796 127.252 195.767 133.149 194.123 137.64C192.453 142.175 189.38 146.058 185.35 148.725C184.901 149.02 184.325 149.306 183.851 149.053C183.676 148.914 183.534 148.738 183.434 148.538C183.335 148.338 183.28 148.119 183.275 147.895C182.304 142.936 182.966 137.797 185.162 133.246C187.358 128.695 190.97 124.979 195.456 122.653" fill="black"/>
</g>
<path d="M175.053 100.897C177.908 100.818 179.792 103.993 180.079 106.84C180.365 109.688 179.734 112.651 180.568 115.373C181.614 118.843 184.876 121.333 185.856 124.832C187.018 128.953 184.756 133.232 184.648 137.511C184.594 139.586 185.063 141.699 184.669 143.737C184.341 145.48 183.418 147.055 182.058 148.194C180.698 149.333 178.986 149.965 177.212 149.983C175.438 150 173.713 149.402 172.331 148.291C170.949 147.179 169.995 145.622 169.632 143.886C168.964 140.682 170.379 137.275 169.533 134.108C168.906 131.771 167.088 129.783 166.939 127.368C166.765 124.492 168.989 122.006 169.404 119.154C169.819 116.303 168.375 113.518 168.159 110.642C167.773 105.487 169.906 101.441 175.049 100.889" fill="url(#paint3_linear_2426_12827)"/>
<path d="M181.311 159.603C181.35 159.511 181.379 159.415 181.398 159.317C181.448 159.101 181.51 158.823 181.585 158.487C181.739 157.769 182 156.727 182.291 155.444C183.912 148.763 186.226 142.269 189.193 136.067C189.761 134.876 190.234 133.921 190.571 133.261L190.948 132.502C190.997 132.415 191.036 132.323 191.064 132.228C191.001 132.303 190.947 132.385 190.903 132.473L190.488 133.211C190.122 133.855 189.62 134.801 189.031 135.984C185.96 142.157 183.638 148.675 182.112 155.399C181.826 156.69 181.614 157.74 181.49 158.47C181.436 158.806 181.39 159.084 181.353 159.3C181.328 159.399 181.314 159.501 181.311 159.603Z" fill="white"/>
<path d="M175.169 114.958C175.171 115.111 175.185 115.264 175.21 115.415C175.248 115.735 175.302 116.17 175.368 116.718L176.003 121.512C176.539 125.558 177.277 131.145 178.053 137.324C178.83 143.504 179.498 149.103 179.975 153.158C180.216 155.162 180.411 156.797 180.552 157.955C180.622 158.503 180.676 158.939 180.718 159.259C180.732 159.411 180.757 159.562 180.793 159.711C180.806 159.559 180.806 159.406 180.793 159.254C180.764 158.931 180.726 158.495 180.676 157.943C180.556 156.781 180.39 155.146 180.187 153.133C179.772 149.074 179.12 143.471 178.344 137.291C177.568 131.111 176.8 125.525 176.211 121.483C175.912 119.486 175.667 117.859 175.497 116.706C175.406 116.158 175.335 115.726 175.285 115.407C175.261 115.254 175.222 115.104 175.169 114.958Z" fill="white"/>
<path d="M191.28 153.996H169.591V156.528H191.28V153.996Z" fill="white"/>
<path d="M171.604 156.528L174.148 171.892H187.603L189.363 156.528H171.604Z" fill="white"/>
<path d="M189.433 156.424C189.433 156.486 185.428 156.582 180.485 156.644C175.542 156.706 171.537 156.706 171.537 156.644C171.537 156.582 175.542 156.486 180.485 156.424C185.428 156.362 189.433 156.366 189.433 156.424Z" fill="#455A64"/>
<path d="M188.695 164.114H188.574H188.213C187.75 164.131 187.287 164.113 186.827 164.06C186.088 163.988 185.381 163.721 184.777 163.289C184.398 163.015 184.092 162.653 183.884 162.234C183.644 161.756 183.598 161.202 183.756 160.69C183.847 160.404 184.027 160.154 184.271 159.977C184.514 159.801 184.808 159.708 185.109 159.711C185.429 159.737 185.726 159.886 185.939 160.126C186.147 160.378 186.289 160.677 186.354 160.998C186.615 162.309 185.694 163.77 184.279 164.226C182.864 164.683 181.137 163.894 180.431 162.463C180.247 162.101 180.14 161.706 180.116 161.301C180.088 160.878 180.199 160.459 180.431 160.105C180.554 159.926 180.714 159.776 180.9 159.664C181.087 159.552 181.295 159.482 181.511 159.458C181.733 159.446 181.955 159.491 182.155 159.59C182.355 159.689 182.526 159.838 182.652 160.022C182.903 160.377 183.033 160.804 183.021 161.238C183.013 161.658 182.906 162.07 182.71 162.442C182.328 163.16 181.722 163.735 180.983 164.077C180.286 164.406 179.538 164.618 178.771 164.704C178.033 164.81 177.28 164.745 176.572 164.513C175.887 164.283 175.301 163.826 174.912 163.218C174.731 162.929 174.617 162.602 174.58 162.263C174.543 161.924 174.582 161.581 174.696 161.259C174.792 160.952 174.969 160.676 175.21 160.462C175.451 160.248 175.745 160.103 176.061 160.043C176.354 159.998 176.653 160.029 176.93 160.132C177.208 160.235 177.454 160.407 177.647 160.632C177.805 160.851 177.902 161.108 177.927 161.377C177.952 161.645 177.904 161.916 177.788 162.16C177.595 162.59 177.277 162.951 176.875 163.197C176.538 163.412 176.177 163.588 175.8 163.72C175.455 163.853 175.136 163.957 174.845 164.04C174.402 164.169 173.952 164.272 173.496 164.347L173.139 164.401H173.019C173.019 164.401 173.056 164.401 173.135 164.368L173.488 164.297C173.795 164.231 174.252 164.127 174.824 163.948C175.107 163.861 175.422 163.749 175.762 163.616C176.13 163.481 176.481 163.304 176.808 163.089C177.176 162.847 177.465 162.502 177.638 162.097C177.743 161.877 177.786 161.633 177.763 161.39C177.739 161.147 177.65 160.916 177.506 160.719C177.329 160.517 177.105 160.363 176.853 160.272C176.601 160.18 176.33 160.155 176.065 160.197C175.781 160.255 175.517 160.389 175.302 160.585C175.088 160.781 174.93 161.031 174.845 161.309C174.741 161.605 174.706 161.921 174.742 162.233C174.778 162.545 174.884 162.845 175.053 163.11C175.421 163.677 175.969 164.102 176.609 164.318C177.29 164.535 178.01 164.594 178.717 164.492C179.459 164.405 180.183 164.199 180.859 163.882C181.556 163.556 182.129 163.013 182.49 162.334C182.684 162 182.783 161.619 182.776 161.232C182.768 160.846 182.655 160.469 182.449 160.143C182.346 159.987 182.204 159.861 182.037 159.777C181.87 159.693 181.684 159.655 181.498 159.665C181.314 159.687 181.137 159.748 180.979 159.844C180.821 159.94 180.685 160.069 180.581 160.221C180.373 160.535 180.276 160.909 180.303 161.284C180.325 161.659 180.422 162.026 180.589 162.363C181.249 163.704 182.872 164.475 184.187 164.023C185.503 163.571 186.375 162.226 186.134 161.022C186.081 160.73 185.952 160.457 185.76 160.23C185.672 160.124 185.563 160.037 185.441 159.973C185.318 159.91 185.184 159.872 185.047 159.86C184.781 159.857 184.522 159.939 184.306 160.093C184.09 160.248 183.929 160.467 183.847 160.719C183.696 161.194 183.734 161.709 183.955 162.155C184.146 162.556 184.431 162.905 184.785 163.172C185.37 163.599 186.054 163.87 186.773 163.957C187.229 164.016 187.687 164.046 188.147 164.048H188.508L188.695 164.114Z" fill="#455A64"/>
<defs>
<linearGradient id="paint0_linear_2426_12827" x1="201.076" y1="76.2701" x2="193.155" y2="151.726" gradientUnits="userSpaceOnUse">
<stop stop-color="#FFD600"/>
<stop offset="1" stop-color="#F11139"/>
</linearGradient>
<linearGradient id="paint1_linear_2426_12827" x1="196.854" y1="36.0072" x2="194.066" y2="80.1587" gradientUnits="userSpaceOnUse">
<stop stop-color="#FFD600"/>
<stop offset="1" stop-color="#F11139"/>
</linearGradient>
<linearGradient id="paint2_linear_2426_12827" x1="201.765" y1="124.839" x2="192.942" y2="152.386" gradientUnits="userSpaceOnUse">
<stop stop-color="#FFD600"/>
<stop offset="1" stop-color="#F11139"/>
</linearGradient>
<linearGradient id="paint3_linear_2426_12827" x1="194.483" y1="104.94" x2="174.813" y2="153.197" gradientUnits="userSpaceOnUse">
<stop stop-color="#FFD600"/>
<stop offset="1" stop-color="#F11139"/>
</linearGradient>
</defs>
</svg>
