<svg width="24" height="24" viewBox="0 0 24 24" fill="none" xmlns="http://www.w3.org/2000/svg">
<rect opacity="0.5" width="24" height="24" rx="6" fill="white"/>
<path d="M13.9187 5.75C15.6125 5.75 16.9812 6.41875 17 8.11875V17.6063C17 17.7125 16.975 17.8188 16.925 17.9125C16.8438 18.0625 16.7063 18.175 16.5375 18.225C16.375 18.275 16.1938 18.25 16.0437 18.1625L11.9938 16.1375L7.9375 18.1625C7.84438 18.2119 7.7375 18.2438 7.63125 18.2438C7.28125 18.2438 7 17.9563 7 17.6063V8.11875C7 6.41875 8.375 5.75 10.0625 5.75H13.9187ZM14.3438 9.525H9.6375C9.36875 9.525 9.15 9.74375 9.15 10.0188C9.15 10.2931 9.36875 10.5125 9.6375 10.5125H14.3438C14.6125 10.5125 14.8312 10.2931 14.8312 10.0188C14.8312 9.74375 14.6125 9.525 14.3438 9.525Z" fill="white"/>
</svg>
