<svg width="323" height="290" viewBox="0 0 323 290" fill="none" xmlns="http://www.w3.org/2000/svg">
<path d="M47.2338 265.303C110.209 298.232 212.318 298.232 275.292 265.303C338.267 232.374 338.267 179.058 275.292 146.158C212.318 113.259 110.209 113.229 47.2338 146.158C-15.7409 179.087 -15.7483 232.41 47.2338 265.303Z" fill="#F5F5F5"/>
<path d="M235.588 235.442C252.113 235.442 265.509 227.707 265.509 218.165C265.509 208.624 252.113 200.889 235.588 200.889C219.063 200.889 205.667 208.624 205.667 218.165C205.667 227.707 219.063 235.442 235.588 235.442Z" fill="#E0E0E0"/>
<path d="M53.3372 209.144C52.8909 204.065 48.3028 193.872 42.456 187.74C36.6093 181.608 27.9088 177.495 22.2011 180.034C16.8812 182.391 18.1033 189.547 25.172 193.711C32.2408 197.875 42.7341 203.004 46.3929 210.988L53.4104 220.559L53.3372 209.144Z" fill="url(#paint0_linear_10665_26200)"/>
<path opacity="0.1" d="M53.3372 209.144C52.8909 204.065 48.3028 193.872 42.456 187.74C36.6093 181.608 27.9088 177.495 22.2011 180.034C16.8812 182.391 18.1033 189.547 25.172 193.711C32.2408 197.875 42.7341 203.004 46.3929 210.988L53.4104 220.559L53.3372 209.144Z" fill="black"/>
<path d="M54.318 216.059C54.2363 216.061 54.1563 216.036 54.0911 215.987C54.0259 215.937 53.9794 215.867 53.9595 215.788C49.0421 198.753 33.7923 185.896 25.1283 183.51C25.0803 183.498 25.0353 183.475 24.9958 183.445C24.9564 183.414 24.9234 183.377 24.8986 183.333C24.8738 183.29 24.8577 183.243 24.8513 183.193C24.8449 183.144 24.8483 183.094 24.8612 183.046C24.8742 182.998 24.8965 182.953 24.9269 182.913C24.9573 182.874 24.9951 182.841 25.0383 182.816C25.0814 182.791 25.129 182.775 25.1784 182.769C25.2277 182.762 25.2779 182.766 25.3259 182.779C34.1509 185.208 49.686 198.277 54.6693 215.569C54.6838 215.615 54.6889 215.664 54.6842 215.713C54.6796 215.761 54.6652 215.809 54.642 215.852C54.6188 215.895 54.5873 215.932 54.5492 215.963C54.5112 215.994 54.4674 216.016 54.4205 216.03L54.318 216.059Z" fill="white"/>
<path d="M52.7006 227.38C51.6323 224.599 47.7393 220.194 41.7243 216.791C35.1385 213.038 27.0453 211.75 24.894 208.552C22.3548 204.725 25.4208 200.627 31.8969 200.861C38.3729 201.095 50.3956 208.852 53.3519 221.855L52.7006 227.38Z" fill="url(#paint1_linear_10665_26200)"/>
<path d="M53.6812 224.274C53.6087 224.275 53.5376 224.255 53.4765 224.216C53.4155 224.177 53.3671 224.121 53.3372 224.055C46.7514 209.676 34.9409 205.453 29.6357 205.227C29.5867 205.225 29.5385 205.213 29.494 205.193C29.4494 205.172 29.4093 205.143 29.376 205.107C29.3427 205.071 29.3168 205.029 29.2999 204.983C29.2829 204.937 29.2752 204.888 29.2772 204.839C29.278 204.79 29.2889 204.741 29.3091 204.697C29.3294 204.652 29.3586 204.612 29.395 204.579C29.4313 204.546 29.474 204.521 29.5205 204.505C29.5669 204.49 29.6161 204.484 29.665 204.488C35.519 204.729 47.2271 209.061 54.0178 223.747C54.0558 223.837 54.058 223.938 54.0239 224.029C53.9899 224.12 53.9222 224.195 53.8348 224.238C53.7866 224.26 53.7343 224.272 53.6812 224.274Z" fill="white"/>
<path d="M252.059 202.562C251.95 198.472 253.084 191.623 257.108 184.781C261.419 177.463 267.104 172.56 271.883 174.053C276.332 175.444 275.351 181.48 268.663 188.059C263.965 192.676 259.253 198.53 257.057 205.226L253.296 213.846L252.059 202.562Z" fill="url(#paint2_linear_10665_26200)"/>
<path d="M252.059 202.562C251.95 198.472 253.084 191.623 257.108 184.781C261.419 177.463 267.104 172.56 271.883 174.053C276.332 175.444 275.351 181.48 268.663 188.059C263.965 192.676 259.253 198.53 257.057 205.226L253.296 213.846L252.059 202.562Z" fill="url(#paint3_linear_10665_26200)"/>
<g opacity="0.1">
<path d="M252.06 202.562C251.95 198.472 253.084 191.623 257.109 184.781C261.419 177.463 267.105 172.56 271.883 174.053C276.332 175.444 275.352 181.48 268.663 188.059C263.965 192.676 259.253 198.53 257.058 205.226L253.297 213.846L252.06 202.562Z" fill="black"/>
</g>
<path d="M252.805 205.599C252.865 205.594 252.921 205.57 252.966 205.531C253.011 205.491 253.042 205.438 253.054 205.38C255.923 193.715 263.182 181.437 269.95 176.841C270.004 176.794 270.038 176.73 270.048 176.659C270.057 176.589 270.041 176.518 270.001 176.458C269.962 176.399 269.902 176.357 269.834 176.338C269.765 176.32 269.692 176.327 269.628 176.358C262.757 181.049 255.388 193.467 252.491 205.263C252.482 205.299 252.481 205.337 252.487 205.374C252.492 205.411 252.506 205.447 252.525 205.479C252.545 205.51 252.571 205.538 252.601 205.56C252.632 205.582 252.666 205.598 252.703 205.606C252.737 205.611 252.772 205.609 252.805 205.599Z" fill="white"/>
<path d="M252.023 215.785C254.281 217.789 257.027 219.162 259.984 219.766C265.106 220.885 267.492 218.566 267.492 218.566C267.492 218.566 265.75 213.626 262.919 212.097C266.035 212.993 268.977 214.41 271.619 216.29C271.619 216.29 274.751 216.524 276.288 211.812C276.288 211.812 274.597 208.812 268.451 206.887C271.563 206.516 274.719 206.862 277.678 207.897C278.08 208.087 280.195 201.999 280.898 199.174C281.6 196.35 280.444 196.306 278.256 195.581C276.068 194.857 268.495 194.03 267.031 195.172C265.567 196.313 264.602 200.455 264.602 200.455C264.602 200.455 263.409 198.011 263.87 195.911C262.343 195.373 260.689 195.315 259.128 195.742C256.574 196.474 256.662 197.696 256.552 199.518C256.434 201.351 256.577 203.192 256.977 204.984C256.977 204.984 255.338 203.382 255.608 197.864C255.608 197.864 252.052 200.557 250.545 202.987C249.037 205.416 249.008 211.878 252.023 215.785Z" fill="url(#paint4_linear_10665_26200)"/>
<path d="M252.001 216.078C252.055 216.081 252.109 216.069 252.157 216.043C252.205 216.017 252.244 215.979 252.271 215.931C256.933 207.56 272.951 198.465 278.541 197.718C278.579 197.713 278.615 197.7 278.648 197.681C278.68 197.662 278.709 197.636 278.731 197.606C278.754 197.576 278.771 197.541 278.78 197.505C278.79 197.468 278.792 197.43 278.787 197.392C278.781 197.355 278.769 197.319 278.749 197.286C278.73 197.254 278.705 197.225 278.675 197.202C278.644 197.18 278.61 197.163 278.573 197.154C278.537 197.144 278.498 197.142 278.461 197.147C272.783 197.879 256.508 207.143 251.767 215.646C251.729 215.713 251.72 215.792 251.741 215.866C251.761 215.94 251.81 216.003 251.876 216.041C251.914 216.063 251.957 216.076 252.001 216.078Z" fill="white"/>
<path d="M57.288 232.982L55.2976 231.833C54.4453 231.277 53.7361 230.529 53.2275 229.647C52.7189 228.766 52.4253 227.778 52.3706 226.762V52.2458C52.4248 51.2287 52.7181 50.2388 53.2267 49.3565C53.7353 48.4741 54.4448 47.7241 55.2976 47.1674L135.791 0.700993C136.697 0.240177 137.7 0 138.718 0C139.735 0 140.738 0.240177 141.645 0.700993L143.635 1.84985C144.487 2.40582 145.196 3.15466 145.704 4.03569C146.213 4.91672 146.507 5.90515 146.562 6.9209V181.444C146.507 182.46 146.213 183.448 145.704 184.329C145.196 185.211 144.487 185.959 143.635 186.515L63.142 232.982C62.2351 233.443 61.2323 233.683 60.215 233.683C59.1978 233.683 58.1949 233.443 57.288 232.982Z" fill="#37474F"/>
<path d="M64.1445 55.693L53.2268 49.3926C52.7015 50.2682 52.407 51.2626 52.3706 52.283V226.762C52.4253 227.778 52.7189 228.767 53.2275 229.648C53.7361 230.529 54.4453 231.278 55.2976 231.834L57.288 232.982C58.1949 233.443 59.1978 233.683 60.215 233.683C61.2323 233.683 62.2351 233.443 63.142 232.982L64.1372 232.412L64.1445 55.693Z" fill="#263238"/>
<path d="M60.2153 56.7765V231.315C60.2153 233.188 61.5252 233.942 63.1423 233.005L143.635 186.539C144.487 185.983 145.196 185.234 145.705 184.353C146.213 183.472 146.507 182.483 146.562 181.467V6.92214C146.562 5.05617 145.252 4.30246 143.635 5.23179L63.1423 51.7055C62.2892 52.2602 61.5794 53.0087 61.0707 53.89C60.562 54.7713 60.2689 55.7604 60.2153 56.7765Z" fill="#455A64"/>
<path d="M66.6544 67.8101L139.83 25.5513C141.213 24.7537 142.34 25.4049 142.34 27.0148V166.231C142.293 167.102 142.041 167.949 141.605 168.704C141.169 169.46 140.56 170.101 139.83 170.578L66.6544 212.829C65.2641 213.634 64.1445 212.983 64.1445 211.366V72.1567C64.19 71.2855 64.4411 70.4374 64.8774 69.6819C65.3136 68.9264 65.9226 68.285 66.6544 67.8101Z" fill="#FAFAFA"/>
<path opacity="0.3" d="M130.315 94.9354L140.447 129.125C140.583 129.58 140.627 130.056 140.578 130.527C140.529 130.999 140.388 131.456 140.162 131.873C139.937 132.289 139.631 132.657 139.263 132.956C138.895 133.255 138.472 133.478 138.017 133.612L83.775 149.668C82.8601 149.935 81.8769 149.828 81.0402 149.372C80.2035 148.916 79.5814 148.147 79.3098 147.234L69.16 113.061C68.9069 112.207 69.0033 111.288 69.4281 110.505C69.8529 109.722 70.5712 109.14 71.4251 108.887L126.127 92.6703C126.551 92.5436 126.996 92.5017 127.435 92.547C127.875 92.5923 128.302 92.7239 128.691 92.9343C129.08 93.1447 129.424 93.4298 129.702 93.7732C129.981 94.1165 130.189 94.5115 130.315 94.9354Z" fill="black"/>
<path d="M84.8261 111.303L76.8421 113.67C75.8771 113.956 75.3266 114.97 75.6127 115.935L76.9272 120.37C77.2133 121.335 78.2275 121.885 79.1926 121.599L87.1765 119.233C88.1416 118.947 88.692 117.933 88.406 116.968L87.0914 112.533C86.8054 111.567 85.7911 111.017 84.8261 111.303Z" fill="#FFC727"/>
<path d="M88.5136 129.216L86.7127 129.75C86.6874 129.759 86.6599 129.759 86.6346 129.75C86.6194 129.745 86.6056 129.737 86.5939 129.726C86.5822 129.715 86.5729 129.702 86.5668 129.687C86.5606 129.672 86.5577 129.656 86.5582 129.64C86.5586 129.624 86.5625 129.608 86.5695 129.594L87.7845 126.626C87.7907 126.611 87.7998 126.597 87.8112 126.586C87.8226 126.575 87.8362 126.566 87.8512 126.56C87.8661 126.554 87.8821 126.551 87.8982 126.551C87.9144 126.551 87.9303 126.554 87.9451 126.561C87.9663 126.572 87.9842 126.588 87.9972 126.609L88.6698 128.891L88.8954 128.826C88.9259 128.816 88.959 128.819 88.9874 128.834C89.0158 128.848 89.0373 128.874 89.0473 128.904C89.0555 128.935 89.0516 128.968 89.0363 128.996C89.0209 129.025 88.9954 129.046 88.9649 129.056L88.7392 129.121L88.9084 129.689C88.913 129.705 88.9144 129.722 88.9125 129.738C88.9106 129.754 88.9054 129.77 88.8973 129.784C88.8892 129.798 88.8783 129.81 88.8653 129.82C88.8523 129.83 88.8375 129.837 88.8216 129.841C88.7912 129.849 88.7587 129.845 88.7312 129.83C88.7037 129.815 88.6832 129.789 88.6741 129.759L88.5136 129.216ZM88.4485 128.986L87.8713 127.038L86.8733 129.455L88.4485 128.986Z" fill="#F8F8F8"/>
<path d="M92.7925 128.339C92.7688 128.32 92.7526 128.294 92.7467 128.264C92.7409 128.235 92.7457 128.204 92.7603 128.178C92.775 128.152 92.7985 128.132 92.8267 128.122C92.8549 128.111 92.8858 128.111 92.914 128.122C93.1301 128.236 93.3826 128.261 93.6169 128.191C93.7334 128.16 93.8423 128.105 93.9371 128.031C94.0318 127.956 94.1104 127.863 94.168 127.757C94.227 127.651 94.2643 127.534 94.2777 127.414C94.2911 127.293 94.2804 127.171 94.2462 127.054C94.1799 126.818 94.0242 126.618 93.8122 126.495C93.5948 126.38 93.3412 126.355 93.1058 126.426C92.8704 126.497 92.6722 126.657 92.5538 126.872C92.5469 126.887 92.5371 126.9 92.5249 126.911C92.5127 126.921 92.4983 126.93 92.4828 126.934C92.4673 126.939 92.4509 126.941 92.4348 126.939C92.4186 126.937 92.403 126.932 92.3889 126.924C92.3726 126.919 92.3587 126.908 92.3498 126.894C92.3455 126.883 92.3455 126.87 92.3498 126.859C92.3498 126.859 92.3498 126.859 92.3498 126.833L92.1155 125.444C92.1098 125.427 92.1088 125.409 92.1126 125.392C92.1164 125.374 92.125 125.358 92.1372 125.345C92.1515 125.32 92.1748 125.301 92.2023 125.293L93.7558 124.833C93.7712 124.827 93.7875 124.825 93.8037 124.827C93.8199 124.828 93.8356 124.833 93.8499 124.84C93.8642 124.848 93.8767 124.859 93.8866 124.872C93.8966 124.884 93.9038 124.899 93.9077 124.915C93.913 124.931 93.9151 124.947 93.9138 124.964C93.9125 124.98 93.9078 124.996 93.9001 125.011C93.8924 125.026 93.8818 125.038 93.8689 125.049C93.856 125.059 93.8412 125.067 93.8252 125.071L92.3759 125.505L92.5495 126.529C92.6911 126.378 92.871 126.267 93.0702 126.208C93.3683 126.121 93.6888 126.155 93.9614 126.304C94.234 126.453 94.4363 126.704 94.5239 127.002C94.5701 127.15 94.5858 127.306 94.5702 127.461C94.5545 127.615 94.5078 127.765 94.4327 127.901C94.2824 128.174 94.0304 128.376 93.7314 128.465C93.4325 128.554 93.1107 128.521 92.8359 128.374L92.7925 128.339Z" fill="#F8F8F8"/>
<path d="M95.2923 125.105C95.3412 124.858 95.4552 124.629 95.6222 124.442C95.7893 124.254 96.0035 124.114 96.2426 124.037C96.2726 124.027 96.3051 124.03 96.3335 124.043C96.3618 124.057 96.3837 124.081 96.3945 124.111C96.4034 124.143 96.4003 124.177 96.3859 124.206C96.3715 124.236 96.3468 124.259 96.3164 124.272C96.1199 124.335 95.9433 124.448 95.804 124.6C95.6647 124.752 95.5676 124.938 95.5223 125.139C95.4698 125.382 95.4566 125.631 95.4832 125.877C95.5502 125.729 95.6485 125.596 95.7713 125.489C95.8941 125.382 96.0386 125.303 96.1949 125.257C96.4106 125.193 96.6401 125.195 96.8549 125.261C97.0697 125.327 97.2603 125.455 97.403 125.629C97.5456 125.802 97.634 126.014 97.6572 126.238C97.6803 126.461 97.6372 126.687 97.5331 126.886C97.4291 127.085 97.2687 127.25 97.072 127.358C96.8753 127.467 96.6509 127.516 96.4269 127.498C96.2028 127.48 95.9889 127.397 95.8119 127.258C95.6348 127.12 95.5024 126.932 95.4312 126.719C95.4008 126.65 95.3834 126.58 95.3574 126.502C95.2202 126.049 95.1978 125.569 95.2923 125.105ZM95.6612 126.654C95.6672 126.674 95.6759 126.693 95.6872 126.71C95.6872 126.71 95.6872 126.736 95.6872 126.745C95.7567 126.907 95.8715 127.045 96.0177 127.142C96.1639 127.24 96.3353 127.293 96.5112 127.296C96.687 127.298 96.8599 127.25 97.0088 127.157C97.1578 127.063 97.2765 126.928 97.3506 126.769C97.4247 126.609 97.4511 126.432 97.4266 126.258C97.402 126.084 97.3276 125.92 97.2123 125.787C97.097 125.655 96.9458 125.558 96.7768 125.509C96.6078 125.46 96.4283 125.462 96.26 125.513C96.1464 125.546 96.0405 125.601 95.9485 125.676C95.8564 125.75 95.7799 125.842 95.7235 125.946C95.667 126.05 95.6317 126.164 95.6195 126.282C95.6073 126.4 95.6185 126.519 95.6525 126.632L95.6612 126.654Z" fill="#F8F8F8"/>
<path d="M99.1021 126.643L99.4709 123.358L97.861 123.836C97.8327 123.838 97.8043 123.831 97.7809 123.815C97.7574 123.799 97.7404 123.775 97.7326 123.748C97.7249 123.72 97.727 123.691 97.7385 123.665C97.7501 123.639 97.7704 123.618 97.7959 123.606L99.5534 123.085C99.5775 123.078 99.6029 123.078 99.6271 123.085C99.6593 123.093 99.6881 123.111 99.7096 123.137C99.7193 123.148 99.7267 123.162 99.7313 123.176C99.7357 123.186 99.738 123.197 99.738 123.209C99.738 123.22 99.7357 123.231 99.7313 123.241L99.3494 126.687C99.3463 126.71 99.337 126.732 99.3225 126.75C99.3079 126.768 99.2888 126.782 99.267 126.791C99.2499 126.795 99.232 126.795 99.2149 126.791C99.1807 126.785 99.1499 126.767 99.1289 126.74C99.1079 126.712 99.0983 126.678 99.1021 126.643Z" fill="#F8F8F8"/>
<path d="M101.462 122.498C101.646 122.444 101.843 122.465 102.011 122.556C102.18 122.647 102.305 122.801 102.36 122.984C102.392 123.094 102.398 123.209 102.378 123.321C102.357 123.433 102.311 123.539 102.243 123.631C102.502 123.658 102.743 123.775 102.925 123.96C103.108 124.145 103.22 124.388 103.244 124.647C103.267 124.906 103.2 125.165 103.054 125.38C102.908 125.595 102.692 125.753 102.442 125.826C102.193 125.9 101.925 125.885 101.686 125.783C101.447 125.682 101.25 125.501 101.129 125.27C101.008 125.04 100.971 124.775 101.024 124.52C101.077 124.266 101.216 124.037 101.419 123.874C101.314 123.832 101.221 123.767 101.145 123.683C101.07 123.6 101.015 123.5 100.985 123.392C100.93 123.21 100.95 123.014 101.04 122.847C101.129 122.68 101.281 122.554 101.462 122.498ZM102.382 125.601C102.544 125.549 102.687 125.451 102.793 125.318C102.9 125.186 102.965 125.025 102.981 124.856C102.997 124.686 102.963 124.516 102.883 124.366C102.803 124.216 102.681 124.093 102.531 124.012C102.382 123.931 102.212 123.895 102.043 123.91C101.873 123.924 101.712 123.988 101.579 124.094C101.445 124.199 101.346 124.341 101.293 124.503C101.24 124.664 101.235 124.838 101.28 125.002C101.31 125.115 101.364 125.221 101.437 125.313C101.509 125.405 101.6 125.481 101.703 125.537C101.806 125.593 101.919 125.627 102.036 125.638C102.153 125.649 102.27 125.637 102.382 125.601ZM101.805 123.661C101.928 123.622 102.03 123.537 102.092 123.424C102.153 123.311 102.169 123.178 102.135 123.054C102.097 122.931 102.013 122.827 101.9 122.766C101.787 122.705 101.655 122.692 101.531 122.728C101.47 122.746 101.413 122.775 101.364 122.815C101.314 122.854 101.273 122.903 101.243 122.959C101.213 123.015 101.194 123.076 101.187 123.139C101.181 123.203 101.187 123.266 101.206 123.327C101.242 123.45 101.325 123.554 101.437 123.616C101.549 123.679 101.681 123.695 101.805 123.661Z" fill="#F8F8F8"/>
<path d="M107.381 120.765C107.651 120.684 107.94 120.705 108.195 120.825C108.45 120.944 108.651 121.153 108.761 121.412V121.434C108.792 121.52 108.826 121.616 108.857 121.716C108.998 122.177 109.024 122.666 108.931 123.139C108.878 123.384 108.763 123.611 108.596 123.798C108.43 123.985 108.217 124.126 107.98 124.207C107.965 124.212 107.95 124.214 107.934 124.214C107.918 124.213 107.903 124.209 107.889 124.202C107.874 124.195 107.862 124.185 107.851 124.173C107.841 124.162 107.833 124.148 107.828 124.133C107.823 124.117 107.821 124.101 107.822 124.085C107.823 124.069 107.827 124.053 107.834 124.038C107.842 124.024 107.852 124.011 107.864 124C107.877 123.989 107.891 123.981 107.907 123.977C108.105 123.911 108.283 123.793 108.422 123.636C108.561 123.479 108.655 123.288 108.696 123.083C108.753 122.842 108.766 122.594 108.735 122.349C108.654 122.522 108.531 122.672 108.377 122.785C108.223 122.898 108.044 122.971 107.854 122.997C107.665 123.023 107.472 123.002 107.294 122.934C107.115 122.867 106.956 122.756 106.831 122.611C106.706 122.466 106.62 122.293 106.579 122.106C106.538 121.919 106.545 121.726 106.598 121.542C106.652 121.359 106.75 121.192 106.885 121.056C107.019 120.92 107.185 120.82 107.368 120.765H107.381ZM108.575 121.603C108.524 121.431 108.424 121.277 108.286 121.162C108.149 121.047 107.98 120.975 107.801 120.956C107.623 120.937 107.442 120.971 107.283 121.054C107.124 121.138 106.994 121.266 106.908 121.424C106.822 121.582 106.785 121.761 106.801 121.94C106.817 122.119 106.887 122.289 107 122.428C107.113 122.568 107.264 122.671 107.436 122.724C107.607 122.777 107.791 122.778 107.963 122.727C108.079 122.694 108.188 122.638 108.282 122.563C108.377 122.487 108.455 122.393 108.512 122.286C108.569 122.18 108.604 122.063 108.615 121.942C108.626 121.822 108.612 121.701 108.575 121.586V121.603Z" fill="#F8F8F8"/>
<path d="M109.82 121.837C109.691 121.427 109.682 120.989 109.794 120.574C109.839 120.404 109.925 120.247 110.045 120.118C110.164 119.989 110.314 119.891 110.48 119.832C110.651 119.79 110.831 119.79 111.002 119.834C111.173 119.878 111.33 119.964 111.46 120.084C111.776 120.372 112.007 120.741 112.128 121.151C112.25 121.561 112.257 121.996 112.15 122.41C112.116 122.585 112.034 122.749 111.914 122.881C111.793 123.014 111.639 123.111 111.467 123.162C111.295 123.213 111.113 123.216 110.94 123.17C110.766 123.125 110.609 123.033 110.484 122.904C110.164 122.62 109.934 122.249 109.82 121.837ZM110.054 121.767C110.155 122.134 110.358 122.463 110.64 122.718C110.74 122.811 110.86 122.879 110.992 122.915C111.124 122.951 111.262 122.955 111.395 122.926C111.523 122.879 111.638 122.8 111.729 122.698C111.82 122.596 111.884 122.473 111.916 122.34C112.01 121.973 112.003 121.587 111.895 121.223C111.787 120.859 111.583 120.532 111.304 120.275C111.211 120.172 111.09 120.097 110.956 120.059C110.823 120.021 110.681 120.022 110.547 120.062C110.414 120.101 110.294 120.178 110.203 120.282C110.111 120.387 110.05 120.515 110.028 120.652C109.929 121.019 109.938 121.406 110.054 121.767Z" fill="#F8F8F8"/>
<path d="M113.274 119.366L112.884 119.8C112.871 119.817 112.853 119.83 112.832 119.835C112.811 119.841 112.79 119.841 112.77 119.837C112.749 119.832 112.73 119.823 112.714 119.809C112.702 119.798 112.693 119.785 112.686 119.771C112.68 119.756 112.676 119.74 112.676 119.724C112.676 119.708 112.68 119.692 112.686 119.678C112.693 119.663 112.702 119.65 112.714 119.64L113.24 119.058C113.263 119.037 113.293 119.025 113.324 119.025C113.355 119.025 113.386 119.037 113.409 119.058C113.429 119.081 113.443 119.11 113.448 119.141L114.355 122.178C114.359 122.193 114.361 122.209 114.36 122.224C114.358 122.239 114.354 122.254 114.347 122.268C114.339 122.282 114.329 122.294 114.317 122.304C114.305 122.314 114.292 122.321 114.277 122.326C114.246 122.334 114.213 122.33 114.184 122.315C114.156 122.299 114.135 122.274 114.125 122.243L113.274 119.366Z" fill="#F8F8F8"/>
<path d="M115.157 121.844L116.299 119.982C116.364 119.875 116.406 119.755 116.422 119.63C116.439 119.505 116.429 119.379 116.394 119.258C116.325 119.033 116.17 118.845 115.963 118.733C115.756 118.622 115.513 118.597 115.288 118.663C115.072 118.722 114.887 118.862 114.771 119.054L114.654 119.249C114.636 119.273 114.61 119.289 114.581 119.295C114.552 119.3 114.522 119.295 114.496 119.28C114.471 119.265 114.451 119.242 114.442 119.214C114.433 119.185 114.434 119.155 114.446 119.128L114.563 118.928C114.712 118.686 114.946 118.509 115.218 118.429C115.368 118.383 115.527 118.37 115.682 118.39C115.838 118.41 115.987 118.463 116.121 118.546C116.363 118.691 116.543 118.922 116.624 119.193C116.668 119.344 116.681 119.504 116.661 119.661C116.64 119.817 116.588 119.968 116.507 120.104L115.531 121.705L117.106 121.237C117.121 121.232 117.137 121.231 117.153 121.233C117.169 121.235 117.185 121.24 117.198 121.248C117.212 121.256 117.224 121.267 117.234 121.28C117.243 121.293 117.25 121.308 117.253 121.323C117.262 121.353 117.258 121.385 117.244 121.413C117.229 121.44 117.205 121.461 117.175 121.471L115.318 122.022C115.303 122.028 115.287 122.032 115.27 122.032C115.254 122.032 115.238 122.028 115.223 122.022C115.206 122.015 115.192 122.005 115.179 121.992C115.167 121.979 115.158 121.964 115.152 121.947C115.146 121.93 115.143 121.913 115.144 121.895C115.145 121.877 115.15 121.86 115.157 121.844Z" fill="#F8F8F8"/>
<path d="M121.953 116.656L121.354 117.797C121.584 117.778 121.814 117.824 122.018 117.932C122.291 118.083 122.493 118.335 122.582 118.635C122.627 118.783 122.641 118.939 122.625 119.093C122.608 119.248 122.561 119.397 122.487 119.533C122.335 119.807 122.083 120.011 121.784 120.101C121.635 120.145 121.48 120.159 121.327 120.141C121.173 120.124 121.025 120.077 120.89 120.002C120.875 119.994 120.862 119.984 120.852 119.972C120.842 119.959 120.834 119.945 120.83 119.93C120.825 119.914 120.824 119.898 120.826 119.882C120.828 119.866 120.834 119.851 120.842 119.837C120.849 119.822 120.859 119.81 120.872 119.799C120.884 119.789 120.898 119.781 120.914 119.777C120.929 119.772 120.946 119.771 120.962 119.773C120.978 119.775 120.993 119.781 121.007 119.789C121.169 119.876 121.353 119.913 121.536 119.896C121.719 119.878 121.893 119.807 122.036 119.691C122.179 119.575 122.284 119.42 122.339 119.244C122.394 119.069 122.395 118.881 122.343 118.704C122.277 118.47 122.121 118.272 121.909 118.153C121.803 118.093 121.685 118.056 121.563 118.044C121.442 118.031 121.319 118.043 121.202 118.079C121.183 118.084 121.164 118.084 121.145 118.08C121.127 118.076 121.109 118.069 121.094 118.058C121.065 118.04 121.044 118.013 121.034 117.981C121.024 117.949 121.027 117.914 121.041 117.884L121.619 116.79L120.343 117.168C120.327 117.173 120.311 117.174 120.295 117.172C120.278 117.17 120.263 117.165 120.248 117.157C120.234 117.149 120.222 117.138 120.212 117.125C120.202 117.112 120.195 117.097 120.191 117.081C120.186 117.066 120.184 117.05 120.185 117.033C120.186 117.017 120.191 117.001 120.199 116.987C120.207 116.973 120.217 116.96 120.23 116.95C120.243 116.94 120.258 116.933 120.273 116.929L121.827 116.469C121.843 116.464 121.859 116.462 121.876 116.463C121.892 116.465 121.908 116.469 121.923 116.477C121.937 116.485 121.95 116.495 121.961 116.508C121.971 116.521 121.979 116.536 121.983 116.552C121.987 116.57 121.987 116.59 121.983 116.608C121.979 116.627 121.968 116.644 121.953 116.656Z" fill="#F8F8F8"/>
<path d="M125.472 118.265L123.667 118.799C123.642 118.808 123.614 118.808 123.589 118.799C123.574 118.794 123.56 118.785 123.548 118.774C123.536 118.764 123.527 118.75 123.521 118.735C123.515 118.721 123.512 118.705 123.512 118.689C123.513 118.673 123.517 118.657 123.524 118.643L124.743 115.675C124.749 115.66 124.758 115.646 124.77 115.635C124.781 115.624 124.795 115.615 124.81 115.609C124.825 115.603 124.841 115.601 124.857 115.602C124.873 115.602 124.889 115.607 124.904 115.614C124.925 115.625 124.943 115.641 124.956 115.661L125.633 117.944L125.854 117.879C125.869 117.874 125.885 117.871 125.901 117.872C125.917 117.873 125.932 117.878 125.947 117.885C125.961 117.892 125.974 117.903 125.984 117.915C125.994 117.927 126.001 117.942 126.006 117.957C126.01 117.972 126.012 117.988 126.01 118.004C126.008 118.019 126.004 118.035 125.996 118.048C125.988 118.062 125.978 118.074 125.965 118.084C125.953 118.094 125.939 118.101 125.923 118.105L125.698 118.174L125.867 118.742C125.875 118.774 125.871 118.807 125.856 118.835C125.841 118.863 125.815 118.884 125.784 118.894C125.753 118.902 125.721 118.897 125.693 118.882C125.665 118.867 125.643 118.842 125.633 118.812L125.472 118.265ZM125.403 118.035L124.825 116.087L123.827 118.499L125.403 118.035Z" fill="#F8F8F8"/>
<path d="M126.895 118.229C126.867 118.212 126.846 118.185 126.837 118.154C126.828 118.122 126.832 118.088 126.848 118.06C126.863 118.03 126.89 118.008 126.922 117.999C126.953 117.989 126.988 117.992 127.017 118.007C127.232 118.123 127.485 118.15 127.72 118.081C127.955 118.01 128.153 117.849 128.271 117.633C128.388 117.417 128.417 117.163 128.349 116.927C128.283 116.692 128.127 116.493 127.915 116.372C127.698 116.257 127.444 116.232 127.209 116.303C126.973 116.373 126.775 116.534 126.657 116.749C126.649 116.763 126.639 116.776 126.627 116.786C126.615 116.797 126.6 116.804 126.585 116.809C126.569 116.813 126.553 116.815 126.537 116.812C126.521 116.81 126.506 116.805 126.492 116.797C126.476 116.793 126.462 116.784 126.453 116.771C126.45 116.758 126.45 116.745 126.453 116.732C126.455 116.723 126.455 116.714 126.453 116.706L126.218 115.317C126.212 115.3 126.21 115.282 126.214 115.264C126.218 115.246 126.227 115.23 126.24 115.217C126.256 115.193 126.278 115.175 126.305 115.165L127.859 114.71C127.874 114.704 127.89 114.702 127.907 114.704C127.923 114.705 127.939 114.71 127.953 114.717C127.967 114.725 127.98 114.736 127.99 114.749C128 114.761 128.007 114.776 128.011 114.792C128.016 114.807 128.018 114.824 128.017 114.84C128.015 114.856 128.011 114.872 128.003 114.886C127.995 114.9 127.984 114.913 127.972 114.923C127.959 114.933 127.944 114.94 127.928 114.944L126.479 115.378L126.652 116.406C126.793 116.253 126.973 116.142 127.173 116.085C127.396 116.021 127.632 116.023 127.854 116.093C128.075 116.162 128.27 116.295 128.416 116.476C128.562 116.656 128.651 116.876 128.672 117.106C128.693 117.337 128.646 117.569 128.536 117.773C128.387 118.048 128.135 118.252 127.836 118.342C127.537 118.431 127.214 118.398 126.939 118.25L126.895 118.229Z" fill="#F8F8F8"/>
<path d="M129.39 115.015C129.44 114.768 129.554 114.539 129.722 114.351C129.89 114.163 130.105 114.024 130.345 113.947C130.374 113.938 130.406 113.94 130.434 113.954C130.462 113.968 130.483 113.992 130.492 114.021C130.502 114.052 130.5 114.085 130.487 114.114C130.473 114.143 130.449 114.166 130.419 114.177C130.219 114.242 130.04 114.359 129.9 114.516C129.76 114.673 129.665 114.865 129.625 115.071C129.572 115.312 129.559 115.56 129.586 115.805C129.653 115.656 129.751 115.525 129.874 115.418C129.997 115.312 130.141 115.233 130.297 115.188C130.513 115.125 130.742 115.127 130.957 115.193C131.172 115.259 131.363 115.387 131.505 115.56C131.648 115.734 131.736 115.946 131.759 116.17C131.783 116.393 131.739 116.619 131.635 116.818C131.531 117.017 131.371 117.181 131.174 117.29C130.978 117.399 130.753 117.447 130.529 117.43C130.305 117.412 130.091 117.328 129.914 117.19C129.737 117.051 129.605 116.864 129.533 116.651C129.504 116.58 129.48 116.508 129.46 116.434C129.32 115.974 129.296 115.486 129.39 115.015ZM129.763 116.56C129.769 116.581 129.777 116.602 129.789 116.62C129.794 116.631 129.794 116.644 129.789 116.655C129.882 116.875 130.057 117.051 130.276 117.144C130.496 117.238 130.743 117.243 130.966 117.157C131.189 117.072 131.371 116.903 131.471 116.687C131.572 116.47 131.585 116.223 131.507 115.997C131.429 115.772 131.266 115.585 131.053 115.477C130.84 115.37 130.593 115.349 130.365 115.42C130.137 115.49 129.945 115.647 129.831 115.857C129.716 116.066 129.687 116.312 129.75 116.542L129.763 116.56Z" fill="#F8F8F8"/>
<path d="M111.205 129.452L82.1689 138.059L82.5919 139.486L111.628 130.879L111.205 129.452Z" fill="#37474F"/>
<path d="M103.669 135.13L83.1118 141.223L83.5348 142.65L104.092 136.557L103.669 135.13Z" fill="#37474F"/>
<path d="M114.67 102.459L100.187 106.752L100.61 108.179L115.093 103.886L114.67 102.459Z" fill="#37474F"/>
<path d="M127.056 105.456L126.709 105.261L126.505 105.152C126.75 104.707 126.905 104.217 126.96 103.711C127.014 103.205 126.969 102.694 126.825 102.206C126.682 101.718 126.443 101.263 126.123 100.868C125.803 100.472 125.408 100.144 124.96 99.9018L125.073 99.7065L125.264 99.3594H125.286C125.42 99.4418 125.559 99.5243 125.694 99.6154C125.965 99.8 126.213 100.017 126.432 100.262C126.697 100.547 126.921 100.867 127.1 101.212C127.182 101.377 127.252 101.551 127.325 101.72C127.347 101.776 127.464 102.154 127.469 102.18C127.495 102.301 127.525 102.423 127.547 102.549C127.605 102.891 127.623 103.239 127.599 103.586C127.581 103.837 127.543 104.087 127.486 104.332C127.422 104.589 127.337 104.841 127.23 105.083C127.174 105.209 127.113 105.326 127.056 105.448V105.456Z" fill="white"/>
<path d="M124.362 101.015C124.462 100.828 124.561 100.646 124.661 100.455C125.035 100.657 125.365 100.931 125.633 101.261C125.901 101.592 126.101 101.971 126.222 102.379C126.343 102.786 126.382 103.213 126.338 103.636C126.293 104.059 126.166 104.469 125.963 104.842L125.403 104.534C125.73 103.929 125.804 103.22 125.61 102.561C125.416 101.902 124.969 101.346 124.366 101.015H124.362Z" fill="white"/>
<path d="M124.839 104.237L124.288 103.933C124.372 103.779 124.424 103.61 124.443 103.436C124.462 103.262 124.446 103.086 124.396 102.917C124.348 102.749 124.266 102.593 124.155 102.457C124.045 102.322 123.909 102.209 123.754 102.128L124.058 101.572C124.284 101.695 124.485 101.862 124.647 102.063C124.809 102.263 124.93 102.494 125.003 102.742C125.075 102.99 125.098 103.249 125.07 103.506C125.042 103.762 124.963 104.011 124.839 104.237Z" fill="white"/>
<path d="M103.389 33.0076C104.472 32.3783 105.35 32.8905 105.35 34.1418C105.314 34.8222 105.117 35.4845 104.776 36.0745C104.435 36.6645 103.96 37.1657 103.389 37.5371C102.306 38.1665 101.428 37.6542 101.428 36.4029C101.464 35.7225 101.661 35.0603 102.001 34.4702C102.342 33.8802 102.818 33.379 103.389 33.0076Z" fill="#263238"/>
<path d="M97.7244 42.7993C101.713 40.6041 108.825 36.3672 112.755 34.0549C113.421 33.6597 113.962 33.9305 113.962 34.6549C113.933 35.0635 113.808 35.4594 113.597 35.8104C113.386 36.1614 113.095 36.4575 112.747 36.6746L97.6952 45.3678C97.022 45.7556 96.4805 45.4849 96.4805 44.7531C96.5144 44.3512 96.6454 43.9634 96.862 43.6232C97.0787 43.2829 97.3746 43.0002 97.7244 42.7993Z" fill="#263238"/>
<path d="M93.9199 45.0019C94.5272 44.6506 95.0248 44.936 95.0248 45.6385C95.0033 46.0212 94.8921 46.3935 94.7002 46.7252C94.5082 47.057 94.2409 47.339 93.9199 47.5484C93.3125 47.8996 92.8149 47.6142 92.8149 46.9118C92.8365 46.5291 92.9477 46.1568 93.1396 45.825C93.3316 45.4933 93.5988 45.2113 93.9199 45.0019Z" fill="#263238"/>
<path d="M103.389 196.19C105.584 194.938 107.318 195.956 107.318 198.458C107.245 199.821 106.85 201.147 106.168 202.328C105.485 203.509 104.533 204.512 103.389 205.256C101.193 206.507 99.4663 205.49 99.4663 202.988C99.5401 201.626 99.9336 200.301 100.615 199.12C101.296 197.939 102.247 196.935 103.389 196.19Z" fill="#263238"/>
<path d="M170.132 147.262L161.307 142.139L161.212 142.088C156.821 139.615 150.806 139.973 144.14 143.83C137.905 147.423 132.212 153.416 127.924 160.36C122.97 168.351 119.875 177.607 119.875 185.898C119.875 193.633 122.582 199.07 126.958 201.609L135.922 206.731C140.349 209.556 146.591 209.3 153.528 205.304C166.927 197.65 177.808 178.778 177.808 163.258C177.808 155.208 174.852 149.654 170.132 147.262Z" fill="url(#paint5_linear_10665_26200)"/>
<path opacity="0.1" d="M135.732 206.687L126.951 201.667C122.561 199.128 119.868 193.691 119.868 185.956C119.868 177.658 122.985 168.394 127.917 160.418L137.298 165.826C132.337 173.824 129.249 183.058 129.249 191.342C129.212 198.725 131.693 204.016 135.732 206.687Z" fill="black"/>
<path opacity="0.4" d="M169.978 147.16C165.646 145.06 159.873 145.594 153.536 149.245C147.199 152.897 141.579 158.868 137.283 165.812L127.902 160.405C132.19 153.46 137.883 147.467 144.118 143.874C150.777 140.025 156.799 139.659 161.19 142.133L161.285 142.184L169.978 147.16Z" fill="white"/>
<path d="M166.166 157.038L162.8 155.092L149.621 186.155L151.868 187.45L166.166 157.038Z" fill="white"/>
<path d="M147.038 179.218L143.672 177.279L140.057 184.926L143.423 186.865L147.038 179.218Z" fill="white"/>
<path d="M152.731 196.561L143.423 186.865L147.038 179.219L151.868 187.451L166.166 157.039L171.464 162.205L152.731 196.561Z" fill="#F5F5F5"/>
<path d="M140.057 184.926L143.423 186.865L152.731 196.561L149.372 194.636L140.057 184.926Z" fill="#E0E0E0"/>
<path d="M238.764 71.0018C242.575 71.0018 246.231 69.4877 248.926 66.7925C251.621 64.0973 253.135 60.4418 253.135 56.6302V55.7814C253.136 54.1817 252.822 52.5976 252.211 51.1194C251.599 49.6413 250.702 48.2981 249.572 47.1666C248.441 46.0352 247.098 45.1376 245.62 44.5252C244.143 43.9129 242.559 43.5977 240.959 43.5977H236.568C233.337 43.5977 230.238 44.8813 227.953 47.1662C225.668 49.4511 224.385 52.55 224.385 55.7814V56.6302C224.385 58.5181 224.757 60.3876 225.479 62.1317C226.202 63.8758 227.261 65.4604 228.597 66.7951C229.932 68.1297 231.517 69.1882 233.262 69.91C235.006 70.6318 236.876 71.0028 238.764 71.0018Z" fill="#263238"/>
<path d="M223.938 213.159C222.262 214.918 220.425 216.515 218.45 217.93C218.149 218.132 217.899 218.4 217.718 218.713C217.462 219.255 217.059 220.587 219.511 221.443C220.75 221.872 222.068 222.029 223.374 221.903C224.68 221.777 225.943 221.37 227.077 220.711C229.097 219.452 229.185 216.833 231.087 215.333C232.492 214.228 234.248 213.942 235.39 212.494C236.18 211.484 235.975 210.145 235.558 208.483C235.112 206.669 234.9 205.3 234.3 205.439L234.402 206.274C233.67 207.466 229.77 207.818 228.043 207.005C228.014 206.991 225.028 211.967 223.938 213.159Z" fill="#263238"/>
<path d="M222.233 214.85C222.819 214.316 223.39 213.76 223.938 213.16C225.087 211.668 226.145 210.109 227.107 208.491C227.769 207.51 228.081 206.334 227.992 205.154C227.853 203.896 227.509 200.683 227.509 200.683L233.656 200.244L234.388 206.274C234.534 207.642 233.407 208.857 231.402 210.584C229.397 212.311 226.865 216.328 225.051 217.338C223.236 218.348 221.948 218.311 221.172 217.792C220.397 217.272 220.287 216.848 222.233 214.85Z" fill="#B16668"/>
<path d="M247.318 213.709V212.78C246.959 213.87 245.269 218.531 242.7 220.873C240.666 222.732 237.885 224.876 237.176 226.954C236.466 229.032 241.047 229.83 242.949 229.493C245.144 229.105 248.028 227.847 249.586 225.937C250.676 224.59 251.379 223.01 252.162 221.934C252.945 220.858 254.745 219.695 255.169 218.465C255.404 217.792 255.126 216.321 254.796 215.077C254.467 213.833 254.174 212.677 253.786 212.78V213.512C252.865 214.234 251.723 214.619 250.552 214.602C249.608 214.616 247.31 214.426 247.318 213.709Z" fill="#263238"/>
<path d="M240.856 222.533C241.486 221.969 242.122 221.42 242.7 220.894C244.493 219.262 245.861 216.503 246.644 214.6C247.092 213.522 247.323 212.366 247.325 211.198V207.539H253.786V213.539V213.7C253.479 215.047 250.508 218.618 248.825 220.945C247.698 222.503 245.554 224.494 242.971 224.838C240.52 225.116 239.276 224.347 240.856 222.533Z" fill="#B16668"/>
<path d="M252.499 113.269C257.511 124.208 252.316 162.757 252.316 162.757C252.469 164.535 254.511 168.033 255.243 175.848C256.136 185.083 253.838 208.265 253.838 208.265C252.853 208.838 251.742 209.162 250.603 209.208C249.464 209.254 248.331 209.021 247.303 208.528C247.303 208.528 241.149 173.602 239.986 164.425C238.976 156.413 237.059 137.577 237.059 137.577L232.024 164.594C232.956 167.122 233.616 169.741 233.993 172.409C234.512 177.817 234.124 202.791 234.124 202.791C234.124 202.791 231.929 204.474 227.678 203.852C227.678 203.852 220.36 169.65 219.782 163.152C219.445 159.274 223.865 111.666 223.865 111.666L252.499 113.269Z" fill="url(#paint6_linear_10665_26200)"/>
<path opacity="0.6" d="M252.499 113.269C257.511 124.208 252.316 162.757 252.316 162.757C252.469 164.535 254.511 168.033 255.243 175.848C256.136 185.083 253.838 208.265 253.838 208.265C252.853 208.838 251.742 209.162 250.603 209.208C249.464 209.254 248.331 209.021 247.303 208.528C247.303 208.528 241.149 173.602 239.986 164.425C238.976 156.413 237.059 137.577 237.059 137.577L232.024 164.594C232.956 167.122 233.616 169.741 233.993 172.409C234.512 177.817 234.124 202.791 234.124 202.791C234.124 202.791 231.929 204.474 227.678 203.852C227.678 203.852 220.36 169.65 219.782 163.152C219.445 159.274 223.865 111.666 223.865 111.666L252.499 113.269Z" fill="black"/>
<path opacity="0.3" d="M237.051 137.578L235.426 128.629C235.426 128.629 228.541 127.202 225.423 124.238C225.423 124.238 228.694 128.314 233.56 129.646L235.39 137.468L232.514 161.909L237.051 137.578Z" fill="black"/>
<path d="M260.664 108.51C260.613 107.779 259.267 100.132 258.345 95.8438L249.337 98.6025L250.939 106.491L258.52 112.579C260.906 112.111 260.716 109.228 260.664 108.51Z" fill="#B16668"/>
<path d="M217.097 92.3535L212.838 100.161L219.468 105.84L225.534 96.2172L217.097 92.3535Z" fill="#B16668"/>
<path d="M233.078 74.9609C228.855 75.0048 224.202 76.5342 222.599 79.849C220.996 83.1639 216.569 92.2889 216.569 92.2889C216.569 92.2889 220.513 97.6453 226.433 97.2575L233.078 74.9609Z" fill="url(#paint7_linear_10665_26200)"/>
<path opacity="0.6" d="M233.078 74.9609C228.855 75.0048 224.202 76.5342 222.599 79.849C220.996 83.1639 216.569 92.2889 216.569 92.2889C216.569 92.2889 220.513 97.6453 226.433 97.2575L233.078 74.9609Z" fill="black"/>
<path d="M241.815 75.1073L245.335 75.2536C249.154 76.1683 250.537 78.7953 252.14 82.1833C253.315 84.7996 253.425 87.7706 252.447 90.4668L247.969 103.419C247.969 103.419 250.062 108.483 252.499 113.268C241.266 119.539 227.238 116.239 223.858 111.666C223.719 110.692 223.909 106.324 223.638 101.348C223.353 96.0355 222.621 90.0424 223.455 86.7641C225.007 80.6759 227.904 74.9609 233.7 74.9609L241.815 75.1073Z" fill="#F5F5F5"/>
<path d="M245.349 75.252C249.176 75.7935 254.811 76.5618 256.75 85.6721C258.718 94.9069 259.092 97.1095 259.092 97.1095C259.092 97.1095 255.74 100.454 249.381 100.424C249.367 100.424 243.761 82.2914 245.349 75.252Z" fill="url(#paint8_linear_10665_26200)"/>
<path opacity="0.6" d="M245.349 75.252C249.176 75.7935 254.811 76.5618 256.75 85.6721C258.718 94.9069 259.092 97.1095 259.092 97.1095C259.092 97.1095 255.74 100.454 249.381 100.424C249.367 100.424 243.761 82.2914 245.349 75.252Z" fill="black"/>
<path d="M249.198 99.8641C248.466 97.442 247.735 94.676 247.04 91.7051C247.07 95.4399 247.449 99.1637 248.174 102.828L249.198 99.8641Z" fill="#EBEBEB"/>
<path d="M229.075 49.4082C227.56 50.3083 225.687 54.128 225.87 62.1334C226.024 68.9168 228.226 70.5925 229.331 71.0754C230.436 71.5584 232.565 71.2657 234.636 70.9218V74.9976C234.636 74.9976 231.775 78.3198 231.951 80.1858C232.126 82.0518 236.085 82.4981 238.763 80.6687C240.497 79.4202 241.986 77.8623 243.154 76.0733V66.2239C243.154 66.2239 244.552 68.0899 246.813 66.5751C249.074 65.0604 249.184 61.2992 247.859 59.9455C246.535 58.5917 243.659 59.0235 243.132 60.8894C243.132 60.8894 239.824 61.0138 235.427 58.599C233.721 57.6725 232.258 56.3578 231.154 54.7612C230.051 53.1647 229.339 51.3309 229.075 49.4082Z" fill="#B16668"/>
<path d="M233.443 60.428C233.441 60.596 233.488 60.761 233.578 60.9026C233.669 61.0442 233.799 61.156 233.952 61.2241C234.106 61.2922 234.276 61.3136 234.442 61.2857C234.608 61.2577 234.761 61.1816 234.884 61.0668C235.007 60.9521 235.093 60.8038 235.132 60.6403C235.171 60.4769 235.161 60.3056 235.104 60.1477C235.046 59.9899 234.943 59.8525 234.808 59.7527C234.673 59.6529 234.511 59.5951 234.344 59.5864C234.229 59.5825 234.115 59.6012 234.008 59.6414C233.901 59.6816 233.803 59.7425 233.719 59.8206C233.635 59.8988 233.568 59.9927 233.521 60.0969C233.474 60.2011 233.447 60.3136 233.443 60.428Z" fill="#263238"/>
<path d="M233.216 66.1816L231.233 66.8183C231.267 66.9525 231.328 67.0786 231.411 67.1888C231.495 67.299 231.601 67.3911 231.721 67.4595C231.841 67.5279 231.974 67.5711 232.112 67.5867C232.249 67.6023 232.389 67.5898 232.521 67.55C232.793 67.458 233.018 67.2633 233.148 67.0075C233.278 66.7518 233.302 66.4553 233.216 66.1816Z" fill="#9A4A4D"/>
<path d="M226.448 57.808L228.175 56.6152C228.103 56.4943 228.007 56.3897 227.892 56.3082C227.778 56.2266 227.647 56.1699 227.51 56.1417C227.372 56.1134 227.23 56.1143 227.092 56.1442C226.955 56.174 226.825 56.2323 226.711 56.3152C226.486 56.4835 226.332 56.7318 226.283 57.0093C226.234 57.2868 226.293 57.5725 226.448 57.808Z" fill="#263238"/>
<path d="M226.843 59.8119C226.842 59.9796 226.89 60.144 226.982 60.2846C227.073 60.4252 227.204 60.5359 227.357 60.6029C227.511 60.6699 227.681 60.6903 227.846 60.6615C228.012 60.6327 228.165 60.556 228.287 60.4409C228.409 60.3258 228.494 60.1774 228.533 60.0142C228.571 59.8509 228.561 59.68 228.503 59.5225C228.445 59.3651 228.342 59.2282 228.207 59.1287C228.072 59.0292 227.911 58.9716 227.743 58.963C227.512 58.959 227.289 59.0455 227.12 59.2042C226.952 59.3628 226.853 59.5809 226.843 59.8119Z" fill="#263238"/>
<path d="M230.868 59.3223L230.736 64.4592L228.036 63.625L230.868 59.3223Z" fill="#9A4A4D"/>
<path d="M234.637 70.9217C236.832 70.6364 241.303 69.3485 242.005 67.5703C241.726 68.4696 241.176 69.2614 240.432 69.8388C239.093 70.9876 234.637 72.2828 234.637 72.2828V70.9217Z" fill="#9A4A4D"/>
<path d="M198.919 91.8809L223.689 98.4008L231.007 129.149L207.452 122.307L198.919 91.8809Z" fill="url(#paint9_linear_10665_26200)"/>
<path opacity="0.15" d="M209.72 112.221C209.493 112.85 208.132 114.592 205.249 114.453L204.898 113.179L209.72 112.221Z" fill="black"/>
<path opacity="0.15" d="M215.259 113.18C215.369 113.999 217.052 115.521 219.899 116.465C223.14 117.548 228.109 116.977 228.109 116.977L227.662 115.448L215.259 113.18Z" fill="black"/>
<path opacity="0.15" d="M206.171 96.3262C206.171 96.3262 206.083 95.9018 205.966 95.3822C205.849 94.8627 207.312 94.8334 209.215 95.331L212.874 96.275C214.776 96.7726 216.415 97.5995 216.533 98.119L216.737 99.063L206.171 96.3262Z" fill="black"/>
<path d="M204.459 92.7645C204.386 92.4352 204.971 92.3547 205.769 92.5742L207.232 92.9694C207.232 92.9694 206.8 90.9278 210.006 91.6449C213.211 92.362 213.913 94.6743 213.913 94.6743L215.457 95.1134C216.313 95.3549 217.082 95.8451 217.184 96.1452L217.367 96.7306L204.605 93.3718C204.605 93.3718 204.525 93.0864 204.459 92.7645Z" fill="#37474F"/>
<path d="M206.215 93.7804C207.386 94.0658 207.869 94.2195 208.044 95.0244C208.242 95.9464 208.322 96.6196 208.322 96.6196L213.972 98.0831C213.972 98.0831 213.701 96.9196 213.613 96.4659C213.525 96.0123 213.715 95.7342 214.616 95.9757L214.689 95.6171L205.834 93.3926L206.215 93.7804Z" fill="#37474F"/>
<path d="M206.017 96.4152C206.017 96.4152 205.929 95.9907 205.812 95.4712C205.695 94.9517 207.159 94.9297 209.061 95.42L212.72 96.3713C214.623 96.8615 216.262 97.6884 216.379 98.208L216.584 99.1519L206.017 96.4152Z" fill="#37474F"/>
<path d="M258.521 112.581L250.933 106.492C250.933 106.492 234.161 109.478 232.185 109.632C231.143 109.66 230.116 109.372 229.24 108.807C228.364 108.242 227.679 107.425 227.275 106.463C226.543 104.524 225.204 104.765 225.204 104.765C225.204 104.765 225.782 107.217 225.936 108C226.09 108.783 221.399 109.463 218.779 108.541C216.16 107.619 212.362 108.944 214.711 112.507C217.06 116.071 221.633 116.488 224.802 116.488C226.13 116.478 227.457 116.39 228.775 116.225C229.8 116.093 230.824 115.991 231.856 115.917C238.39 115.449 255.594 113.503 258.521 112.581Z" fill="#B16668"/>
<path d="M201.444 100.864L202.542 104.786C202.754 105.518 205.63 106.908 207.452 107.413C209.274 107.918 211.264 108.504 210.379 111.072C209.588 113.421 206.588 113.955 205.066 113.889C203.544 113.824 201.451 112.367 200.632 110.018C199.578 107.018 200.141 103.813 199.724 102.064C199.307 100.315 200.529 99.8178 201.444 100.864Z" fill="#B16668"/>
<path d="M251.306 86.7634C250.236 86.7643 249.176 86.5544 248.187 86.1455C247.198 85.7367 246.299 85.1369 245.542 84.3805C244.785 83.6241 244.185 82.726 243.775 81.7374C243.365 80.7488 243.154 79.6891 243.154 78.619V67.1816C245.314 67.1836 247.384 68.0423 248.911 69.5692C250.438 71.0962 251.297 73.1666 251.299 75.3261L251.306 86.7634Z" fill="#263238"/>
<defs>
<linearGradient id="paint0_linear_10665_26200" x1="56.9986" y1="182.653" x2="45.807" y2="222.503" gradientUnits="userSpaceOnUse">
<stop stop-color="#FFD600"/>
<stop offset="1" stop-color="#F11139"/>
</linearGradient>
<linearGradient id="paint1_linear_10665_26200" x1="56.4041" y1="203.024" x2="50.7962" y2="229.459" gradientUnits="userSpaceOnUse">
<stop stop-color="#FFD600"/>
<stop offset="1" stop-color="#F11139"/>
</linearGradient>
<linearGradient id="paint2_linear_10665_26200" x1="276.943" y1="177.066" x2="262.124" y2="212.602" gradientUnits="userSpaceOnUse">
<stop stop-color="#FFD600"/>
<stop offset="1" stop-color="#F11139"/>
</linearGradient>
<linearGradient id="paint3_linear_10665_26200" x1="276.943" y1="177.066" x2="262.124" y2="212.602" gradientUnits="userSpaceOnUse">
<stop stop-color="#FFD600"/>
<stop offset="1" stop-color="#F11139"/>
</linearGradient>
<linearGradient id="paint4_linear_10665_26200" x1="284.385" y1="196.693" x2="279.538" y2="222.291" gradientUnits="userSpaceOnUse">
<stop stop-color="#FFD600"/>
<stop offset="1" stop-color="#F11139"/>
</linearGradient>
<linearGradient id="paint5_linear_10665_26200" x1="183.833" y1="146.096" x2="165.656" y2="211.99" gradientUnits="userSpaceOnUse">
<stop stop-color="#FFD600"/>
<stop offset="1" stop-color="#F11139"/>
</linearGradient>
<linearGradient id="paint6_linear_10665_26200" x1="259.16" y1="119.655" x2="212.994" y2="191.615" gradientUnits="userSpaceOnUse">
<stop stop-color="#FFD600"/>
<stop offset="1" stop-color="#F11139"/>
</linearGradient>
<linearGradient id="paint7_linear_10665_26200" x1="234.795" y1="76.7886" x2="228.096" y2="97.902" gradientUnits="userSpaceOnUse">
<stop stop-color="#FFD600"/>
<stop offset="1" stop-color="#F11139"/>
</linearGradient>
<linearGradient id="paint8_linear_10665_26200" x1="260.55" y1="77.3135" x2="251.173" y2="99.5761" gradientUnits="userSpaceOnUse">
<stop stop-color="#FFD600"/>
<stop offset="1" stop-color="#F11139"/>
</linearGradient>
<linearGradient id="paint9_linear_10665_26200" x1="234.344" y1="94.933" x2="224.497" y2="131.057" gradientUnits="userSpaceOnUse">
<stop stop-color="#FFD600"/>
<stop offset="1" stop-color="#F11139"/>
</linearGradient>
</defs>
</svg>
