<svg width="32" height="32" viewBox="0 0 32 32" fill="none" xmlns="http://www.w3.org/2000/svg">
<rect opacity="0.5" width="32" height="32" rx="8" fill="white"/>
<path d="M18.5583 7.66669C20.8166 7.66669 22.6416 8.55835 22.6666 10.825V23.475C22.6666 23.6167 22.6333 23.7584 22.5666 23.8834C22.4583 24.0834 22.2749 24.2334 22.0499 24.3C21.8333 24.3667 21.5916 24.3334 21.3916 24.2167L15.9916 21.5167L10.5833 24.2167C10.4591 24.2825 10.3166 24.325 10.1749 24.325C9.70825 24.325 9.33325 23.9417 9.33325 23.475V10.825C9.33325 8.55835 11.1666 7.66669 13.4166 7.66669H18.5583ZM19.1249 12.7H12.8499C12.4916 12.7 12.1999 12.9917 12.1999 13.3584C12.1999 13.7242 12.4916 14.0167 12.8499 14.0167H19.1249C19.4833 14.0167 19.7749 13.7242 19.7749 13.3584C19.7749 12.9917 19.4833 12.7 19.1249 12.7Z" fill="white"/>
</svg>
