<svg width="183" height="172" viewBox="0 0 183 172" fill="none" xmlns="http://www.w3.org/2000/svg">
<path d="M163.473 37.625H94.6992V20.9659C94.7005 19.5798 94.4126 18.207 93.8519 16.9262C93.2913 15.6454 92.4688 14.4816 91.4317 13.5016C90.3946 12.5215 89.1631 11.7443 87.8078 11.2145C86.4524 10.6847 84.9999 10.4127 83.5332 10.4141H22.684C21.2174 10.4129 19.765 10.685 18.4099 11.2149C17.0547 11.7447 15.8234 12.5219 14.7864 13.502C13.7494 14.4821 12.9271 15.6458 12.3666 16.9265C11.806 18.2072 11.5182 19.5799 11.5195 20.9659V151.034C11.5222 153.832 12.6992 156.514 14.7924 158.492C16.8855 160.471 19.7237 161.583 22.684 161.586H83.5331C86.4936 161.584 89.3322 160.471 91.4257 158.493C93.5192 156.515 94.6965 153.832 94.6992 151.034V98.0938H163.474C165.598 98.0937 167.634 97.2966 169.135 95.8776C170.637 94.4587 171.48 92.5342 171.48 90.5275V45.1923C171.48 44.1985 171.273 43.2145 170.871 42.2964C170.469 41.3783 169.879 40.5441 169.135 39.8414C168.392 39.1387 167.509 38.5813 166.537 38.201C165.566 37.8207 164.525 37.625 163.473 37.625ZM45.1113 16.8238H61.1074C62.168 16.8238 63.1852 17.2219 63.9352 17.9307C64.6851 18.6394 65.1064 19.6007 65.1064 20.6031C65.1064 21.6054 64.6851 22.5667 63.9352 23.2754C63.1852 23.9842 62.168 24.3823 61.1074 24.3823H45.1113C44.0507 24.3823 43.0336 23.9842 42.2836 23.2754C41.5336 22.5667 41.1123 21.6054 41.1123 20.6031C41.1123 19.6007 41.5336 18.6394 42.2836 17.9307C43.0336 17.2219 44.0507 16.8238 45.1113 16.8238ZM61.1059 155.151H45.1098C44.0492 155.151 43.032 154.753 42.282 154.044C41.5321 153.335 41.1107 152.374 41.1107 151.372C41.1107 150.369 41.5321 149.408 42.282 148.699C43.032 147.991 44.0492 147.592 45.1098 147.592H61.1059C62.1665 147.592 63.1836 147.991 63.9336 148.699C64.6836 149.408 65.1049 150.369 65.1049 151.372C65.1049 152.374 64.6836 153.335 63.9336 154.044C63.1836 154.753 62.1665 155.151 61.1059 155.151ZM87.6603 141.178H18.5569V30.8223H87.6603V37.625H45.0455C42.9418 37.625 40.9242 38.4148 39.4366 39.8207C37.949 41.2265 37.1133 43.1332 37.1133 45.1214V90.5903C37.1133 91.5757 37.3186 92.5514 37.7176 93.4617C38.1166 94.3721 38.7015 95.1993 39.4388 95.8961C40.176 96.5928 41.0513 97.1455 42.0146 97.5226C42.9779 97.8997 44.0103 98.0938 45.053 98.0938H59.5078V110.238C59.5078 110.977 59.7397 111.699 60.1741 112.313C60.6086 112.928 61.226 113.407 61.9485 113.689C62.6709 113.972 63.4658 114.046 64.2327 113.902C64.9997 113.758 65.7041 113.402 66.257 112.879L81.9023 98.0938H87.6603V141.178ZM78.9904 70.6107C79.9082 71.1144 80.578 71.9406 80.8537 72.9091C81.1294 73.8777 80.9886 74.91 80.4621 75.7808C80.2019 76.2139 79.8534 76.5939 79.4366 76.8988C79.0198 77.2036 78.5432 77.4272 78.0343 77.5566C77.5253 77.686 76.9943 77.7186 76.472 77.6525C75.9496 77.5864 75.4464 77.4229 74.9914 77.1716L69.9053 74.39V79.9531C69.9053 80.9555 69.4839 81.9167 68.734 82.6255C67.984 83.3343 66.9669 83.7324 65.9062 83.7324C64.8456 83.7324 63.8285 83.3343 63.0785 82.6255C62.3285 81.9167 61.9072 80.9555 61.9072 79.9531V74.39L56.8194 77.1716C56.3644 77.4229 55.8612 77.5864 55.3388 77.6525C54.8165 77.7186 54.2854 77.686 53.7765 77.5566C53.2676 77.4272 52.7909 77.2036 52.3742 76.8988C51.9574 76.5939 51.6089 76.2139 51.3487 75.7808C50.8229 74.9098 50.6826 73.8777 50.9582 72.9094C51.2338 71.9411 51.9031 71.1148 52.8204 70.6107L57.9082 67.8594L52.8204 65.0778C51.8998 64.5767 51.2276 63.7504 50.9516 62.7809C50.6757 61.8113 50.8186 60.7779 51.3489 59.9079C51.8792 59.0379 52.7534 58.4026 53.7794 58.1418C54.8053 57.881 55.8988 58.016 56.8194 58.5172L61.9072 61.2985V55.7656C61.9072 54.7633 62.3285 53.802 63.0785 53.0933C63.8285 52.3845 64.8456 51.9863 65.9062 51.9863C66.9669 51.9863 67.984 52.3845 68.734 53.0933C69.4839 53.802 69.9053 54.7633 69.9053 55.7656V61.2985L74.9915 58.5172C75.9121 58.016 77.0056 57.881 78.0316 58.1418C79.0575 58.4026 79.9318 59.0379 80.4621 59.9079C80.9924 60.7779 81.1353 61.8113 80.8593 62.7809C80.5833 63.7504 79.9111 64.5767 78.9905 65.0778L73.9043 67.8594L78.9904 70.6107ZM117.381 70.6107C118.299 71.1144 118.969 71.9406 119.244 72.9091C119.52 73.8777 119.379 74.91 118.853 75.7808C118.593 76.2139 118.244 76.5939 117.827 76.8988C117.41 77.2036 116.934 77.4272 116.425 77.5566C115.916 77.686 115.385 77.7186 114.863 77.6525C114.34 77.5864 113.837 77.4229 113.382 77.1716L108.296 74.39V79.9531C108.296 80.9555 107.875 81.9167 107.125 82.6255C106.375 83.3343 105.357 83.7324 104.297 83.7324C103.236 83.7324 102.219 83.3343 101.469 82.6255C100.719 81.9167 100.298 80.9555 100.298 79.9531V74.39L95.21 77.1716C94.7551 77.4229 94.2518 77.5864 93.7294 77.6525C93.2071 77.7186 92.6761 77.686 92.1671 77.5566C91.6582 77.4272 91.1816 77.2036 90.7648 76.8988C90.348 76.5939 89.9995 76.2139 89.7394 75.7808C89.2136 74.9098 89.0732 73.8777 89.3488 72.9094C89.6245 71.9411 90.2938 71.1148 91.211 70.6107L96.2988 67.8594L91.211 65.0778C90.2904 64.5767 89.6182 63.7504 89.3423 62.7809C89.0663 61.8113 89.2092 60.7779 89.7395 59.9079C90.2698 59.0379 91.1441 58.4026 92.17 58.1418C93.1959 57.881 94.2895 58.016 95.21 58.5172L100.298 61.2985V55.7656C100.298 54.7633 100.719 53.802 101.469 53.0933C102.219 52.3845 103.236 51.9863 104.297 51.9863C105.357 51.9863 106.375 52.3845 107.125 53.0933C107.875 53.802 108.296 54.7633 108.296 55.7656V61.2985L113.382 58.5172C114.303 58.016 115.396 57.881 116.422 58.1418C117.448 58.4026 118.322 59.0379 118.853 59.9079C119.383 60.7779 119.526 61.8113 119.25 62.7809C118.974 63.7504 118.302 64.5767 117.381 65.0778L112.295 67.8594L117.381 70.6107ZM155.772 70.6107C156.689 71.1144 157.359 71.9406 157.635 72.9091C157.911 73.8777 157.77 74.91 157.243 75.7808C156.983 76.2139 156.635 76.5939 156.218 76.8988C155.801 77.2036 155.324 77.4272 154.815 77.5566C154.307 77.686 153.776 77.7186 153.253 77.6525C152.731 77.5864 152.228 77.4229 151.773 77.1716L146.687 74.39V79.9531C146.687 80.9555 146.265 81.9167 145.515 82.6255C144.765 83.3343 143.748 83.7324 142.687 83.7324C141.627 83.7324 140.61 83.3343 139.86 82.6255C139.11 81.9167 138.688 80.9555 138.688 79.9531V74.39L133.601 77.1716C133.146 77.4229 132.642 77.5864 132.12 77.6525C131.598 77.7186 131.067 77.686 130.558 77.5566C130.049 77.4272 129.572 77.2036 129.155 76.8988C128.739 76.5939 128.39 76.2139 128.13 75.7808C127.604 74.9098 127.464 73.8777 127.739 72.9094C128.015 71.9411 128.684 71.1148 129.602 70.6107L134.689 67.8594L129.602 65.0778C128.681 64.5767 128.009 63.7504 127.733 62.7809C127.457 61.8113 127.6 60.7779 128.13 59.9079C128.66 59.0379 129.535 58.4026 130.561 58.1418C131.587 57.881 132.68 58.016 133.601 58.5172L138.688 61.2985V55.7656C138.688 54.7633 139.11 53.802 139.86 53.0933C140.61 52.3845 141.627 51.9863 142.687 51.9863C143.748 51.9863 144.765 52.3845 145.515 53.0933C146.265 53.802 146.687 54.7633 146.687 55.7656V61.2985L151.773 58.5172C152.229 58.269 152.732 58.1082 153.253 58.0438C153.775 57.9793 154.305 58.0127 154.813 58.1418C155.321 58.2709 155.797 58.4934 156.214 58.7964C156.631 59.0994 156.981 59.4771 157.243 59.9079C157.506 60.3386 157.676 60.8141 157.744 61.307C157.812 61.8 157.777 62.3008 157.641 62.7809C157.504 63.2609 157.269 63.7109 156.948 64.105C156.627 64.4991 156.228 64.8297 155.772 65.0778L150.686 67.8594L155.772 70.6107Z" fill="url(#paint0_radial_2617_18180)"/>
<defs>
<radialGradient id="paint0_radial_2617_18180" cx="0" cy="0" r="1" gradientUnits="userSpaceOnUse" gradientTransform="translate(171.48 161.586) rotate(-136.618) scale(220.092 294.954)">
<stop offset="0.0416667" stop-color="#F11139"/>
<stop offset="0.911458" stop-color="#FBA40F"/>
<stop offset="1" stop-color="#FFD600"/>
</radialGradient>
</defs>
</svg>
