<svg width="54" height="36" viewBox="0 0 54 36" fill="none" xmlns="http://www.w3.org/2000/svg">
<g clip-path="url(#clip0_10374_24597)">
<path d="M50.4 36H3.6C2.64522 36 1.72955 35.6207 1.05442 34.9456C0.379285 34.2705 0 33.3548 0 32.4L0 3.6C0 2.64522 0.379285 1.72955 1.05442 1.05442C1.72955 0.379285 2.64522 0 3.6 0L50.4 0C51.3548 0 52.2705 0.379285 52.9456 1.05442C53.6207 1.72955 54 2.64522 54 3.6V32.4C54 33.3548 53.6207 34.2705 52.9456 34.9456C52.2705 35.6207 51.3548 36 50.4 36ZM26.76 22.143L26.2215 25.518C27.5977 26.0972 29.0838 26.369 30.576 26.3145H30.5595C32.3081 26.4165 34.0397 25.9232 35.472 24.915L35.4465 24.9315C36.0313 24.5017 36.5068 23.9403 36.8346 23.2928C37.1624 22.6453 37.3333 21.9298 37.3335 21.204V21.1815V21.183C37.3335 19.533 36.2295 18.162 34.053 17.103C33.4591 16.8164 32.891 16.4791 32.355 16.095L32.3895 16.119C32.2398 16.022 32.1151 15.891 32.0257 15.7367C31.9363 15.5824 31.8847 15.4091 31.875 15.231V15.228C31.8862 15.0422 31.9442 14.8623 32.0436 14.705C32.143 14.5476 32.2806 14.4179 32.4435 14.328L32.4495 14.325C32.953 14.0345 33.5315 13.9003 34.1115 13.9395H34.1025H34.2225L34.338 13.938C35.304 13.938 36.2205 14.1465 37.047 14.52L37.005 14.5035L37.356 14.691L37.8945 11.4345C36.8055 11.0122 35.647 10.7975 34.479 10.8015H34.4055H34.41C32.7199 10.7275 31.0534 11.2195 29.6745 12.1995L29.6985 12.183C29.1254 12.5875 28.6577 13.1237 28.3348 13.7465C28.012 14.3693 27.8433 15.0605 27.843 15.762V15.7695C27.828 17.3565 28.971 18.7275 31.242 19.8495C31.842 20.112 32.3595 20.433 32.823 20.8185L32.8125 20.8095C32.9463 20.922 33.055 21.0613 33.1318 21.2183C33.2085 21.3754 33.2515 21.5468 33.258 21.7215V21.7275C33.258 22.206 32.973 22.617 32.562 22.8015L32.5545 22.8045C32.1045 23.0415 31.5705 23.1795 31.0035 23.1795H30.9345H30.9375H30.825C29.5395 23.1795 28.3215 22.8945 27.2295 22.3845L27.282 22.407L26.7675 22.149L26.76 22.143ZM41.9475 23.8545H46.92C47 24.1975 47.1565 24.9475 47.3895 26.1045H51L47.859 11.058H44.859C44.4301 11.02 44.0004 11.1213 43.6337 11.347C43.267 11.5726 42.9829 11.9105 42.8235 12.3105L42.819 12.324L37.059 26.1045H41.139L41.958 23.856L41.9475 23.8545ZM22.3365 11.058L19.8975 26.1045H23.7885L26.226 11.058H22.3365ZM7.383 14.1285L10.548 26.0805H14.649L20.7615 11.058H16.6425L12.8415 21.324L12.4425 19.2375L11.0865 12.324C11.0138 11.9252 10.7891 11.5703 10.4597 11.3341C10.1303 11.0979 9.722 10.9989 9.321 11.058L9.33 11.0565H3.0495L3.003 11.361C7.839 12.5895 11.016 15.24 12.447 19.236C12.0073 18.0942 11.3292 17.0592 10.458 16.2L10.4565 16.1985C9.60062 15.3197 8.57685 14.6219 7.446 14.1465L7.386 14.124L7.383 14.1285ZM46.2885 20.76H43.0485C43.2675 20.182 43.7835 18.782 44.5965 16.56L44.6655 16.3485L44.9055 15.7395C45.0045 15.4905 45.0705 15.2865 45.1155 15.1305L45.3975 16.419L46.287 20.754L46.2885 20.76Z" fill="url(#paint0_linear_10374_24597)"/>
</g>
<defs>
<linearGradient id="paint0_linear_10374_24597" x1="24.826" y1="-0.72216" x2="26.9717" y2="36.1549" gradientUnits="userSpaceOnUse">
<stop stop-color="#222357"/>
<stop offset="1" stop-color="#254AA5"/>
</linearGradient>
<clipPath id="clip0_10374_24597">
<rect width="54" height="36" fill="white"/>
</clipPath>
</defs>
</svg>
