<svg width="19" height="18" viewBox="0 0 19 18" fill="none" xmlns="http://www.w3.org/2000/svg">
<path d="M9.60504 1.5C10.8183 1.5 12.027 1.7993 13.101 2.36552C16.7574 4.29478 18.1636 8.83912 16.2356 12.4968C14.9206 14.9909 12.3315 16.5 9.59645 16.5C9.06212 16.5 8.52251 16.4425 7.98554 16.3236C7.68304 16.2562 7.49216 15.9562 7.55887 15.6536C7.62557 15.351 7.92477 15.1614 8.22925 15.2268C11.0224 15.8479 13.9061 14.5073 15.2422 11.9728C16.8816 8.86356 15.6861 4.9991 12.5772 3.35923C11.6644 2.87757 10.6367 2.6232 9.60438 2.6232C6.08269 2.6232 3.2228 5.48339 3.2228 8.99901C3.22148 10.0231 3.47114 11.0426 3.94471 11.9484L4.08869 12.2299C4.26504 12.5602 4.30401 12.9705 4.18975 13.3418C4.03189 13.7581 3.90046 14.1631 3.79214 14.5661C4.21353 14.4393 4.72804 14.2523 5.09989 14.1168L5.25246 14.062C5.54109 13.9543 5.86539 14.1069 5.97107 14.399C6.07674 14.6903 5.92549 15.0128 5.63422 15.1178L5.48363 15.1726C4.92751 15.3742 4.16663 15.651 3.65278 15.766C3.60919 15.7752 3.56229 15.7812 3.51936 15.7798C3.17459 15.7798 2.96455 15.6404 2.84897 15.5228C2.6713 15.3424 2.58676 15.0894 2.59667 14.7709C2.59799 14.7346 2.60261 14.6969 2.6112 14.6606C2.74461 14.0924 2.91832 13.5255 3.12835 12.9765C3.14355 12.9229 3.1343 12.8258 3.09137 12.7445L2.94672 12.4637C2.39258 11.4027 2.09866 10.2022 2.09998 8.99835C2.09998 4.86365 5.46316 1.5 9.59645 1.5H9.60504ZM9.59672 8.10712C10.0888 8.10712 10.4884 8.50751 10.4884 8.99907C10.4884 9.49064 10.0888 9.89103 9.59672 9.89103C9.10466 9.89103 8.70506 9.49064 8.70506 8.99907C8.70506 8.50751 9.10466 8.10712 9.59672 8.10712ZM12.8991 8.10712C13.3912 8.10712 13.7908 8.50751 13.7908 8.99907C13.7908 9.49064 13.3912 9.89103 12.8991 9.89103C12.4071 9.89103 12.0075 9.49064 12.0075 8.99907C12.0075 8.50751 12.4071 8.10712 12.8991 8.10712ZM6.29424 8.10739C6.7863 8.10739 7.18589 8.50711 7.18589 8.99934C7.18589 9.4909 6.7863 9.89063 6.29424 9.89063C5.80218 9.89063 5.40259 9.4909 5.40259 8.99934C5.40259 8.50711 5.80218 8.10739 6.29424 8.10739Z" fill="#717E95"/>
</svg>
