<svg width="20" height="20" viewBox="0 0 20 20" fill="none" xmlns="http://www.w3.org/2000/svg">
<path fill-rule="evenodd" clip-rule="evenodd" d="M4.00006 11.9999C6.2092 11.9999 8.00006 13.7907 8.00006 15.9999C8.00006 18.209 6.2092 19.9999 4.00006 19.9999C1.79092 19.9999 6.01506e-05 18.209 6.01506e-05 15.9999C6.01506e-05 13.7907 1.79092 11.9999 4.00006 11.9999ZM16 11.9999C18.2092 11.9999 20 13.7907 20 15.9999C20 18.209 18.2092 19.9999 16 19.9999C13.7909 19.9999 12 18.209 12 15.9999C12 13.7907 13.7909 11.9999 16 11.9999ZM4.00017 0.000417767C6.20931 0.000417767 8.00017 1.79128 8.00017 4.00042C8.00017 6.20956 6.20931 8.00042 4.00017 8.00042C1.79103 8.00042 0.000170724 6.20956 0.000170724 4.00042C0.000170724 1.79128 1.79103 0.000417767 4.00017 0.000417767ZM16 -0.00016453C18.2092 -0.00016453 20 1.7907 20 3.99984C20 6.20897 18.2092 7.99984 16 7.99984C13.7909 7.99984 12 6.20897 12 3.99984C12 1.7907 13.7909 -0.00016453 16 -0.00016453Z" fill="#C02026"/>
</svg>
