<svg width="18" height="18" viewBox="0 0 18 18" fill="none" xmlns="http://www.w3.org/2000/svg">
<path d="M16.4958 7.25233C16.4485 7.11515 16.3623 6.99465 16.2478 6.90546C16.1333 6.81627 15.9954 6.76221 15.8508 6.74983L11.5833 6.12733L9.67083 2.24983C9.60942 2.12303 9.51353 2.01609 9.39415 1.94126C9.27477 1.86644 9.13672 1.82675 8.99583 1.82675C8.85494 1.82675 8.7169 1.86644 8.59752 1.94126C8.47813 2.01609 8.38225 2.12303 8.32083 2.24983L6.40833 6.11983L2.14083 6.74983C2.00202 6.76956 1.87153 6.82781 1.76415 6.91795C1.65676 7.0081 1.5768 7.12654 1.53333 7.25983C1.49354 7.39009 1.48997 7.52872 1.523 7.66085C1.55604 7.79299 1.62443 7.91363 1.72083 8.00983L4.81833 11.0098L4.06833 15.2698C4.04156 15.4104 4.05558 15.5558 4.10874 15.6887C4.1619 15.8216 4.25197 15.9365 4.36833 16.0198C4.48175 16.1009 4.61551 16.1488 4.75462 16.158C4.89372 16.1673 5.03266 16.1376 5.15583 16.0723L8.99583 14.0698L12.8208 16.0798C12.9261 16.1392 13.045 16.1702 13.1658 16.1698C13.3247 16.1704 13.4796 16.1205 13.6083 16.0273C13.7247 15.944 13.8148 15.8291 13.8679 15.6962C13.9211 15.5633 13.9351 15.4179 13.9083 15.2773L13.1583 11.0173L16.2558 8.01733C16.3641 7.92559 16.4442 7.80501 16.4866 7.6696C16.5291 7.53418 16.5323 7.38949 16.4958 7.25233ZM7.87083 8.99982C4.58359 10.017 5.65874 14.1335 5.62083 14.2498C5.58291 14.3662 8.59987 13.0043 8.62083 13.1248L12.2058 14.0623L9.38583 12.5623C9.27732 12.5046 9.15627 12.4743 9.03333 12.4743C8.9104 12.4743 8.78934 12.5046 8.68083 12.5623L5.86083 14.0623L6.40083 10.9198C6.42178 10.7993 9.03374 9.49117 8.99583 9.37482C8.95791 9.25847 6.27129 10.3374 6.18333 10.2523L10.4958 9.37482L10.1208 8.24982C12.4008 9.7048 8.76602 9.45507 8.8654 9.38315C8.96477 9.31123 11.9418 9.48495 11.9958 9.37482L8.99583 4.27483L10.4058 7.13983C10.4599 7.24996 5.76146 10.1804 5.86083 10.2523C4.21721 12.1781 7.74933 8.98292 7.87083 8.99982Z" fill="#FECD08"/>
</svg>
