<svg width="112" height="24" viewBox="0 0 112 24" fill="none" xmlns="http://www.w3.org/2000/svg">
<path opacity="0.4" d="M16.6756 2H7.33333C3.92889 2 2 3.92889 2 7.33333V16.6667C2 20.0711 3.92889 22 7.33333 22H16.6756C20.08 22 22 20.0711 22 16.6667V7.33333C22 3.92889 20.08 2 16.6756 2Z" fill="#C02026"/>
<path d="M7.36866 9.36914C6.91533 9.36914 6.54199 9.74247 6.54199 10.2047V17.0758C6.54199 17.5291 6.91533 17.9025 7.36866 17.9025C7.83088 17.9025 8.20421 17.5291 8.20421 17.0758V10.2047C8.20421 9.74247 7.83088 9.36914 7.36866 9.36914Z" fill="#C02026"/>
<path d="M12.0354 6.08887C11.5821 6.08887 11.2087 6.4622 11.2087 6.92442V17.0755C11.2087 17.5289 11.5821 17.9022 12.0354 17.9022C12.4976 17.9022 12.871 17.5289 12.871 17.0755V6.92442C12.871 6.4622 12.4976 6.08887 12.0354 6.08887Z" fill="#C02026"/>
<path d="M16.64 12.9956C16.1778 12.9956 15.8044 13.3689 15.8044 13.8312V17.0756C15.8044 17.5289 16.1778 17.9023 16.6311 17.9023C17.0933 17.9023 17.4667 17.5289 17.4667 17.0756V13.8312C17.4667 13.3689 17.0933 12.9956 16.64 12.9956Z" fill="#C02026"/>
<path d="M33.456 17H36.592C40.128 17 42.336 14.744 42.336 11.704C42.336 8.632 40.128 6.44 36.592 6.44H33.456V17ZM34.704 15.88V7.56H36.576C39.376 7.56 41.04 9.272 41.04 11.704C41.04 14.104 39.36 15.88 36.576 15.88H34.704ZM50.3094 12.2C50.3094 10.152 49.1094 9.032 47.2694 9.032C45.9734 9.032 44.8054 9.592 44.1014 10.744L44.9174 11.416C45.5574 10.584 46.2454 10.168 47.1894 10.168C48.3574 10.168 49.0774 10.856 49.0774 12.136V12.808H46.6134C44.9334 12.808 43.8134 13.656 43.8134 14.984C43.8134 16.328 44.9334 17.176 46.5334 17.176C47.6694 17.176 48.5814 16.76 49.1574 15.992V17H50.3094V12.2ZM49.0774 14.008C49.0774 15.208 47.9734 16.152 46.6934 16.152C45.7814 16.152 45.0774 15.704 45.0774 14.92C45.0774 14.2 45.6694 13.816 46.7574 13.816H49.0774V14.008ZM52.1865 15.656C52.8745 16.552 53.9305 17.176 55.2265 17.176C55.9945 17.176 56.6345 16.984 57.1625 16.584C57.6905 16.184 57.9625 15.608 57.9625 14.888C57.9625 13.816 57.3545 13.208 55.8985 12.584L55.1785 12.28C54.2345 11.88 53.9145 11.64 53.9145 11.144C53.9145 10.52 54.4425 10.168 55.2105 10.168C55.9305 10.168 56.6025 10.504 57.1305 11.032L57.8825 10.264C57.2425 9.496 56.3625 9.032 55.2745 9.032C53.7865 9.032 52.6505 9.848 52.6505 11.208C52.6505 12.248 53.2905 12.84 54.5865 13.368L55.3385 13.688C56.2985 14.072 56.6985 14.312 56.6985 14.936C56.6985 15.624 56.0585 16.04 55.2105 16.04C54.3305 16.04 53.7225 15.608 52.9705 14.84L52.1865 15.656ZM66.6361 12.104C66.6361 10.264 65.5481 9.032 63.7561 9.032C62.7801 9.032 61.9481 9.432 61.4201 10.088V5H60.1881V17H61.4201V12.264C61.4201 11.048 62.2681 10.168 63.4681 10.168C64.6681 10.168 65.4041 11 65.4041 12.264V17H66.6361V12.104ZM77.2026 13.112C77.2026 10.824 75.5386 9.032 73.3466 9.032C72.1786 9.032 71.1066 9.528 70.4826 10.344V5H69.2506V17H70.4026V15.768C70.9946 16.648 72.1466 17.176 73.3626 17.176C75.5546 17.176 77.2026 15.4 77.2026 13.112ZM75.9386 13.096C75.9386 14.776 74.7546 16.04 73.1706 16.04C71.7786 16.04 70.4666 15.08 70.4666 13.112C70.4666 11.128 71.7306 10.168 73.1706 10.168C74.7546 10.168 75.9386 11.416 75.9386 13.096ZM78.8 13.096C78.768 15.288 80.64 17.208 82.864 17.16C85.088 17.208 87.008 15.288 86.96 13.096C87.008 10.872 85.104 9 82.88 9.032C80.656 8.984 78.752 10.872 78.8 13.096ZM85.696 13.112C85.696 14.744 84.448 16.024 82.864 16.024C81.28 16.024 80.064 14.744 80.064 13.112C80.064 11.432 81.28 10.168 82.88 10.168C84.464 10.168 85.696 11.432 85.696 13.112ZM94.9656 12.2C94.9656 10.152 93.7656 9.032 91.9256 9.032C90.6296 9.032 89.4616 9.592 88.7576 10.744L89.5736 11.416C90.2136 10.584 90.9016 10.168 91.8456 10.168C93.0136 10.168 93.7336 10.856 93.7336 12.136V12.808H91.2696C89.5896 12.808 88.4696 13.656 88.4696 14.984C88.4696 16.328 89.5896 17.176 91.1896 17.176C92.3256 17.176 93.2376 16.76 93.8136 15.992V17H94.9656V12.2ZM93.7336 14.008C93.7336 15.208 92.6296 16.152 91.3496 16.152C90.4376 16.152 89.7336 15.704 89.7336 14.92C89.7336 14.2 90.3256 13.816 91.4136 13.816H93.7336V14.008ZM101.723 9.208C101.515 9.16 101.323 9.144 101.147 9.144C100.203 9.144 99.2908 9.56 98.7308 10.312V9.208H97.5788V17H98.8108V12.584C98.8108 11.144 99.9468 10.296 101.259 10.296H101.723V9.208ZM109.395 5V10.36C108.771 9.528 107.683 9.032 106.515 9.032C104.323 9.032 102.659 10.824 102.659 13.112C102.659 15.4 104.323 17.176 106.515 17.176C107.731 17.176 108.867 16.648 109.459 15.768V17H110.627V5H109.395ZM109.411 13.112C109.411 15.08 108.099 16.04 106.691 16.04C105.107 16.04 103.923 14.776 103.923 13.096C103.923 11.416 105.107 10.168 106.691 10.168C108.099 10.168 109.411 11.128 109.411 13.112Z" fill="#C02026"/>
</svg>
