<svg width="137" height="137" viewBox="0 0 137 137" fill="none" xmlns="http://www.w3.org/2000/svg">
<path d="M68.5754 11.4167C85.511 11.4167 99.3078 24.9912 99.3078 41.6766V50.7928C109.583 54.3377 117.021 63.8649 117.021 75.1731V99.6562C117.021 113.956 105.197 125.583 90.6631 125.583H71.0238C68.6219 125.583 66.6724 123.665 66.6724 121.302C66.6724 118.939 68.6219 117.021 71.0238 117.021H90.4948C100.23 117.021 108.144 109.235 108.144 99.6562C108.144 99.3593 108.254 99.1025 108.318 98.8285V75.1731C108.318 65.5945 100.399 57.8084 90.6631 57.8084H46.337C36.6015 57.8084 28.682 65.5945 28.682 75.1731V98.8285C28.74 99.1025 28.8502 99.3593 28.8502 99.6562C28.8502 109.235 36.7697 117.021 46.5052 117.021C48.9072 117.021 50.8566 118.939 50.8566 121.302C50.8566 123.665 48.9072 125.583 46.5052 125.583L46.3892 125.572C46.3718 125.572 46.3544 125.583 46.337 125.583C31.8033 125.583 19.9792 113.956 19.9792 99.6562V75.1731C19.9792 63.8649 27.4114 54.3377 37.6864 50.7928V41.6766C37.7618 24.9055 51.547 11.4167 68.442 11.4167H68.5754ZM68.4989 76.7932C70.9008 76.7932 72.8502 78.7112 72.8502 81.0744V93.7526C72.8502 96.1159 70.9008 98.0339 68.4989 98.0339C66.0969 98.0339 64.1475 96.1159 64.1475 93.7526V81.0744C64.1475 78.7112 66.0969 76.7932 68.4989 76.7932ZM68.558 19.9792H68.4594C56.3278 19.9792 46.4472 29.6492 46.3892 41.5796V49.2459H90.6051V41.6766C90.6051 29.712 80.7129 19.9792 68.558 19.9792Z" fill="#DCE1EA"/>
</svg>
