<svg width="16" height="16" viewBox="0 0 16 16" fill="none" xmlns="http://www.w3.org/2000/svg">
<path d="M8 1.33331C4.31333 1.33331 1.33333 4.31331 1.33333 7.99998C1.33333 11.6866 4.31333 14.6666 8 14.6666C11.6867 14.6666 14.6667 11.6866 14.6667 7.99998C14.6667 4.31331 11.6867 1.33331 8 1.33331ZM10.8667 10.8666C10.805 10.9284 10.7317 10.9775 10.6511 11.0109C10.5704 11.0444 10.484 11.0616 10.3967 11.0616C10.3094 11.0616 10.2229 11.0444 10.1422 11.0109C10.0616 10.9775 9.98834 10.9284 9.92666 10.8666L8 8.93998L6.07333 10.8666C5.94868 10.9913 5.77961 11.0613 5.60333 11.0613C5.42704 11.0613 5.25798 10.9913 5.13333 10.8666C5.00868 10.742 4.93865 10.5729 4.93865 10.3966C4.93865 10.3094 4.95584 10.2229 4.98924 10.1423C5.02265 10.0616 5.07161 9.98837 5.13333 9.92665L7.06 7.99998L5.13333 6.07331C5.00868 5.94866 4.93865 5.7796 4.93865 5.60331C4.93865 5.42703 5.00868 5.25796 5.13333 5.13331C5.25798 5.00866 5.42704 4.93863 5.60333 4.93863C5.77961 4.93863 5.94868 5.00866 6.07333 5.13331L8 7.05998L9.92666 5.13331C9.98838 5.07159 10.0617 5.02263 10.1423 4.98923C10.2229 4.95583 10.3094 4.93863 10.3967 4.93863C10.4839 4.93863 10.5704 4.95583 10.651 4.98923C10.7317 5.02263 10.8049 5.07159 10.8667 5.13331C10.9284 5.19503 10.9773 5.26831 11.0107 5.34895C11.0441 5.42959 11.0613 5.51603 11.0613 5.60331C11.0613 5.6906 11.0441 5.77703 11.0107 5.85768C10.9773 5.93832 10.9284 6.01159 10.8667 6.07331L8.93999 7.99998L10.8667 9.92665C11.12 10.18 11.12 10.6066 10.8667 10.8666Z" fill="#94A0B4"/>
</svg>
