<svg width="35" height="25" viewBox="0 0 35 25" fill="none" xmlns="http://www.w3.org/2000/svg">
<g clip-path="url(#clip0_2540_17700)">
<path d="M6.84004 24.8757V23.221C6.84004 22.5867 6.43786 22.173 5.74841 22.173C5.40369 22.173 5.03024 22.2833 4.7717 22.6418C4.57061 22.3385 4.28334 22.173 3.85244 22.173C3.56517 22.173 3.2779 22.2557 3.04809 22.5591V22.2282H2.44482V24.8757H3.04809V23.414C3.04809 22.9452 3.30663 22.7246 3.70881 22.7246C4.11098 22.7246 4.31207 22.9728 4.31207 23.414V24.8757H4.91533V23.414C4.91533 22.9452 5.2026 22.7246 5.57605 22.7246C5.97823 22.7246 6.17932 22.9728 6.17932 23.414V24.8757H6.84004ZM15.7741 22.2282H14.7974V21.4284H14.1941V22.2282H13.6483V22.7521H14.1941V23.9656C14.1941 24.5723 14.4527 24.9308 15.1421 24.9308C15.4006 24.9308 15.6879 24.8481 15.889 24.7378L15.7166 24.2414C15.5443 24.3517 15.3432 24.3793 15.1996 24.3793C14.9123 24.3793 14.7974 24.2138 14.7974 23.938V22.7521H15.7741V22.2282ZM20.8875 22.173C20.5428 22.173 20.3129 22.3385 20.1693 22.5591V22.2282H19.566V24.8757H20.1693V23.3865C20.1693 22.9452 20.3704 22.697 20.7438 22.697C20.8587 22.697 21.0024 22.7246 21.1173 22.7521L21.2897 22.2006C21.1747 22.173 21.0024 22.173 20.8875 22.173ZM13.1599 22.4488C12.8727 22.2557 12.4705 22.173 12.0396 22.173C11.3502 22.173 10.8905 22.5039 10.8905 23.0279C10.8905 23.4692 11.2352 23.7174 11.8385 23.8001L12.1258 23.8277C12.4418 23.8829 12.6141 23.9656 12.6141 24.1035C12.6141 24.2965 12.3843 24.4344 11.9821 24.4344C11.58 24.4344 11.264 24.2965 11.0629 24.1587L10.7756 24.5999C11.0916 24.8205 11.5225 24.9308 11.9534 24.9308C12.7578 24.9308 13.2174 24.5723 13.2174 24.0759C13.2174 23.6071 12.844 23.3589 12.2694 23.2761L11.9821 23.2486C11.7236 23.221 11.5225 23.1658 11.5225 23.0004C11.5225 22.8073 11.7236 22.697 12.0396 22.697C12.3843 22.697 12.729 22.8349 12.9014 22.9176L13.1599 22.4488ZM29.1895 22.173C28.8448 22.173 28.615 22.3385 28.4714 22.5591V22.2282H27.8681V24.8757H28.4714V23.3865C28.4714 22.9452 28.6725 22.697 29.0459 22.697C29.1608 22.697 29.3044 22.7246 29.4194 22.7521L29.5917 22.2006C29.4768 22.173 29.3044 22.173 29.1895 22.173ZM21.4907 23.5519C21.4907 24.3517 22.0653 24.9308 22.9558 24.9308C23.358 24.9308 23.6453 24.8481 23.9325 24.6275L23.6453 24.1587C23.4154 24.3241 23.1856 24.4069 22.9271 24.4069C22.4387 24.4069 22.094 24.0759 22.094 23.5519C22.094 23.0555 22.4387 22.7246 22.9271 22.697C23.1856 22.697 23.4154 22.7797 23.6453 22.9452L23.9325 22.4764C23.6453 22.2557 23.358 22.173 22.9558 22.173C22.0653 22.173 21.4907 22.7521 21.4907 23.5519ZM27.0638 23.5519V22.2282H26.4605V22.5591C26.2594 22.3109 25.9721 22.173 25.5987 22.173C24.8231 22.173 24.2198 22.7521 24.2198 23.5519C24.2198 24.3517 24.8231 24.9308 25.5987 24.9308C26.0009 24.9308 26.2881 24.793 26.4605 24.5447V24.8757H27.0638V23.5519ZM24.8518 23.5519C24.8518 23.0831 25.1678 22.697 25.6849 22.697C26.1732 22.697 26.5179 23.0555 26.5179 23.5519C26.5179 24.0208 26.1732 24.4069 25.6849 24.4069C25.1678 24.3793 24.8518 24.0208 24.8518 23.5519ZM17.6413 22.173C16.837 22.173 16.2624 22.7246 16.2624 23.5519C16.2624 24.3793 16.837 24.9308 17.6701 24.9308C18.0722 24.9308 18.4744 24.8205 18.7904 24.5723L18.5031 24.1587C18.2733 24.3241 17.9861 24.4344 17.6988 24.4344C17.3253 24.4344 16.9519 24.269 16.8657 23.8001H18.9053V23.5795C18.934 22.7246 18.417 22.173 17.6413 22.173ZM17.6413 22.6694C18.0148 22.6694 18.2733 22.89 18.3308 23.3037H16.8944C16.9519 22.9452 17.2104 22.6694 17.6413 22.6694ZM32.608 23.5519V21.1802H32.0048V22.5591C31.8037 22.3109 31.5164 22.173 31.143 22.173C30.3673 22.173 29.7641 22.7521 29.7641 23.5519C29.7641 24.3517 30.3673 24.9308 31.143 24.9308C31.5451 24.9308 31.8324 24.793 32.0048 24.5447V24.8757H32.608V23.5519ZM30.3961 23.5519C30.3961 23.0831 30.7121 22.697 31.2291 22.697C31.7175 22.697 32.0622 23.0555 32.0622 23.5519C32.0622 24.0208 31.7175 24.4069 31.2291 24.4069C30.7121 24.3793 30.3961 24.0208 30.3961 23.5519ZM10.2298 23.5519V22.2282H9.62654V22.5591C9.42545 22.3109 9.13818 22.173 8.76474 22.173C7.98911 22.173 7.38585 22.7521 7.38585 23.5519C7.38585 24.3517 7.98911 24.9308 8.76474 24.9308C9.16691 24.9308 9.45418 24.793 9.62654 24.5447V24.8757H10.2298V23.5519ZM7.98911 23.5519C7.98911 23.0831 8.30511 22.697 8.82219 22.697C9.31055 22.697 9.65527 23.0555 9.65527 23.5519C9.65527 24.0208 9.31055 24.4069 8.82219 24.4069C8.30511 24.3793 7.98911 24.0208 7.98911 23.5519Z" fill="black"/>
<path d="M22.008 2.12354H12.959V17.733H22.008V2.12354Z" fill="#FF5F00"/>
<path d="M13.5335 9.92826C13.5335 6.75673 15.0847 3.94372 17.469 2.12354C15.7167 0.799776 13.5047 0 11.0917 0C5.37503 0 0.75 4.44014 0.75 9.92826C0.75 15.4164 5.37503 19.8565 11.0917 19.8565C13.5047 19.8565 15.7167 19.0567 17.469 17.733C15.0847 15.9404 13.5335 13.0998 13.5335 9.92826Z" fill="#EB001B"/>
<path d="M34.2168 9.92826C34.2168 15.4164 29.5918 19.8565 23.8752 19.8565C21.4621 19.8565 19.2501 19.0567 17.4978 17.733C19.9109 15.9128 21.4334 13.0998 21.4334 9.92826C21.4334 6.75673 19.8821 3.94372 17.4978 2.12354C19.2501 0.799776 21.4621 0 23.8752 0C29.5918 0 34.2168 4.46772 34.2168 9.92826Z" fill="#F79E1B"/>
</g>
<defs>
<clipPath id="clip0_2540_17700">
<rect width="33.5" height="25" fill="white" transform="translate(0.75)"/>
</clipPath>
</defs>
</svg>
