<svg width="24" height="25" viewBox="0 0 24 25" fill="none" xmlns="http://www.w3.org/2000/svg">
<path d="M7.42291 19.409C8.25789 19.409 8.93687 20.1029 8.93687 20.955C8.93687 21.8071 8.25789 22.5 7.42291 22.5C6.58793 22.5 5.90795 21.8071 5.90795 20.955C5.90795 20.1029 6.58793 19.409 7.42291 19.409ZM18.6746 19.409C19.5096 19.409 20.1896 20.1029 20.1896 20.955C20.1896 21.8071 19.5096 22.5 18.6746 22.5C17.8396 22.5 17.1607 21.8071 17.1607 20.955C17.1607 20.1029 17.8396 19.409 18.6746 19.409ZM2.77545 2.50032L2.87792 2.51015L4.95887 2.87854C5.29486 2.93772 5.54986 3.22243 5.57786 3.56939L6.54083 15.2761C6.58683 15.8374 7.03782 16.2609 7.59081 16.2609H18.5015C19.0215 16.2609 19.4695 15.865 19.5445 15.3404L20.4935 8.64721C20.5275 8.41047 20.4215 8.24413 20.3555 8.16556C20.2895 8.088 20.1435 7.95738 19.9085 7.95738H9.16377C8.74978 7.95738 8.41378 7.61451 8.41378 7.19203C8.41378 6.76956 8.74978 6.42669 9.16377 6.42669H19.9085C20.5155 6.42669 21.0925 6.69609 21.4895 7.16448C21.8864 7.63287 22.0654 8.2523 21.9784 8.86661L21.0285 15.5598C20.8485 16.8323 19.7625 17.7916 18.5015 17.7916H7.59081C6.25184 17.7916 5.15787 16.765 5.04587 15.4037L4.13189 4.28576L2.62193 4.01942C2.21394 3.94696 1.94095 3.55102 2.01095 3.13467C2.08094 2.7173 2.46493 2.4428 2.87792 2.51015L2.77545 2.50032ZM16.8988 10.1989C17.3128 10.1989 17.6488 10.5418 17.6488 10.9643C17.6488 11.3868 17.3128 11.7296 16.8988 11.7296H14.1258C13.7109 11.7296 13.3759 11.3868 13.3759 10.9643C13.3759 10.5418 13.7109 10.1989 14.1258 10.1989H16.8988Z" fill="black"/>
</svg>
