<svg width="18" height="18" viewBox="0 0 18 18" fill="none" xmlns="http://www.w3.org/2000/svg">
<path d="M14.5 6.5L10.291 6.5L11.1333 3.97475C11.2848 3.51875 11.2083 3.01325 10.927 2.62325C10.6458 2.23325 10.1898 2 9.709 2L8.5 2C8.27725 2 8.0665 2.099 7.92325 2.27L4.39825 6.5L2.5 6.5C1.67275 6.5 1 7.17275 1 8L1 14.75C1 15.5772 1.67275 16.25 2.5 16.25L12.4803 16.25C12.7854 16.249 13.0831 16.1554 13.3339 15.9816C13.5847 15.8077 13.7769 15.5619 13.885 15.2765L15.9527 9.76325C15.9841 9.67904 16.0001 9.58987 16 9.5L16 8C16 7.17275 15.3273 6.5 14.5 6.5ZM2.5 8L4 8L4 14.75L2.5 14.75L2.5 8ZM14.5 9.36425L12.4803 14.75L5.5 14.75L5.5 7.5215L8.851 3.5L9.7105 3.5L8.539 7.01225C8.50097 7.12498 8.49033 7.2452 8.50806 7.3628C8.52575 7.48048 8.57124 7.59223 8.64075 7.68875C8.71026 7.78535 8.80178 7.86395 8.90774 7.9181C9.01369 7.97218 9.13102 8.0003 9.25 8L14.5 8L14.5 9.36425Z" fill="white"/>
<path d="M8.5 3.1875H10.1667L9.33333 7.14583L14.3333 7.54167L15.1667 8.33333L14.3333 11.5L12.25 15.4583L4.75 15.4583L4.75 7.54167L8.5 3.1875Z" fill="white" stroke="white"/>
</svg>
