<svg width="52" height="52" viewBox="0 0 52 52" fill="none" xmlns="http://www.w3.org/2000/svg">
<rect opacity="0.15" width="52" height="52" rx="8" fill="#FECD08"/>
<path d="M32.6731 17.7275C33.655 17.7275 34.4545 18.5502 34.4545 19.5616V20.8427C34.4545 21.332 34.2597 21.8093 33.9201 22.1513L28.3342 27.802V32.0587C28.3342 32.318 28.1878 32.5524 27.9611 32.6609L24.3473 34.3925C24.2595 34.4348 24.1666 34.4546 24.0755 34.4546C23.8321 34.4546 23.5988 34.3124 23.4892 34.0703C23.3395 33.7361 23.4792 33.3406 23.8028 33.1856L27.042 31.634V27.5237C27.042 27.3454 27.1122 27.1739 27.236 27.049L33.016 21.2011C33.1097 21.1072 33.1624 20.9762 33.1624 20.8427V19.5616C33.1624 19.2851 32.9433 19.0585 32.6731 19.0585H25.2305C24.8742 19.0585 24.5848 18.7604 24.5848 18.3925C24.5848 18.0264 24.8742 17.7275 25.2305 17.7275H32.6731ZM22.0913 17.7273C22.4476 17.7273 22.737 18.0295 22.737 18.4004C22.737 18.7714 22.4476 19.0727 22.0913 19.0727H19.5078C19.2385 19.0727 19.0186 19.3017 19.0186 19.5813V20.9049C19.0186 21.0338 19.0663 21.1583 19.1507 21.2523L24.4724 27.1695C24.5853 27.2949 24.6472 27.4586 24.6472 27.6293V30.961C24.6472 31.3311 24.3578 31.6324 24.0015 31.6324C23.6453 31.6324 23.3559 31.3311 23.3559 30.961V27.8949L18.2082 22.1728C17.8979 21.8271 17.7273 21.3777 17.7273 20.9049V19.5813C17.7273 18.5589 18.526 17.7273 19.5078 17.7273H22.0913Z" fill="#FECD08"/>
</svg>
