<svg width="212" height="92" viewBox="0 0 212 92" fill="none" xmlns="http://www.w3.org/2000/svg">
<g filter="url(#filter0_d_24_2122)">
<rect x="16" y="12" width="180" height="60" rx="14" fill="#C02026"/>
<path d="M76.7071 45.0501C77.052 45.0501 77.332 45.3233 77.332 45.6597V46.4047C77.332 48.3412 75.7169 49.9167 73.7309 49.9167H69.7751C67.7859 49.9167 66.1667 48.3373 66.1667 46.396C66.1667 46.0596 66.4468 45.7872 66.7917 45.7872C67.1366 45.7872 67.4166 46.0596 67.4166 46.396C67.4166 47.6659 68.475 48.6975 69.7751 48.6975H73.7309C75.0279 48.6975 76.0821 47.6691 76.0821 46.4047V45.6597C76.0821 45.3233 76.3621 45.0501 76.7071 45.0501ZM82.2083 41.3898C82.4615 41.3898 82.6896 41.5386 82.7862 41.7674C82.8827 41.9954 82.8284 42.2583 82.6498 42.4325L80.2783 44.7355C80.1557 44.8535 79.9967 44.9136 79.8368 44.9136C79.6769 44.9136 79.5162 44.8535 79.3945 44.7339C79.151 44.4948 79.151 44.1093 79.3961 43.8718L80.6955 42.6098H72.4577C72.1127 42.6098 71.8319 42.3367 71.8319 42.0002C71.8319 41.6637 72.1127 41.3898 72.4577 41.3898H82.2083ZM73.723 34.0834C75.713 34.0834 77.3322 35.6628 77.3322 37.6041V38.3411C77.3322 38.6768 77.0522 38.9499 76.7072 38.9499C76.3623 38.9499 76.0823 38.6768 76.0823 38.3411V37.6041C76.0823 36.3342 75.024 35.3026 73.723 35.3026H69.768C68.4711 35.3026 67.4168 36.3318 67.4168 37.5953V43.6241C67.4168 43.9606 67.1368 44.2337 66.7918 44.2337C66.4469 44.2337 66.1669 43.9606 66.1669 43.6241V37.5953C66.1669 35.6589 67.782 34.0834 69.768 34.0834H73.723ZM79.3928 39.2689C79.6363 39.0282 80.0308 39.0267 80.2767 39.2642L80.874 39.8405C81.1199 40.078 81.1216 40.4636 80.8789 40.7027C80.7563 40.823 80.5956 40.884 80.4349 40.884C80.2759 40.884 80.1168 40.8246 79.995 40.7074L79.3969 40.1303C79.1518 39.8936 79.1502 39.5072 79.3928 39.2689Z" fill="white"/>
<path d="M95.956 47H102.212V45.88H97.204V36.44H95.956V47ZM103.347 43.096C103.315 45.288 105.187 47.208 107.411 47.16C109.635 47.208 111.555 45.288 111.507 43.096C111.555 40.872 109.651 39 107.427 39.032C105.203 38.984 103.299 40.872 103.347 43.096ZM110.243 43.112C110.243 44.744 108.995 46.024 107.411 46.024C105.827 46.024 104.611 44.744 104.611 43.112C104.611 41.432 105.827 40.168 107.427 40.168C109.011 40.168 110.243 41.432 110.243 43.112ZM119.993 39.208V40.456C119.401 39.56 118.265 39.032 117.033 39.032C114.841 39.032 113.209 40.744 113.209 42.984C113.209 45.24 114.841 46.92 117.033 46.92C118.201 46.92 119.305 46.44 119.929 45.624V46.312C119.929 47.992 118.953 48.92 117.337 48.92C116.169 48.92 115.305 48.456 114.424 47.688L113.705 48.552C114.585 49.432 115.849 50.056 117.369 50.056C119.673 50.056 121.161 48.616 121.161 46.248V39.208H119.993ZM119.945 42.984C119.945 44.872 118.649 45.784 117.225 45.784C115.641 45.784 114.457 44.648 114.457 43C114.457 41.368 115.641 40.2 117.225 40.2C118.633 40.2 119.945 41.112 119.945 42.984ZM123.3 43.096C123.268 45.288 125.14 47.208 127.364 47.16C129.588 47.208 131.508 45.288 131.46 43.096C131.508 40.872 129.604 39 127.38 39.032C125.156 38.984 123.252 40.872 123.3 43.096ZM130.196 43.112C130.196 44.744 128.948 46.024 127.364 46.024C125.78 46.024 124.564 44.744 124.564 43.112C124.564 41.432 125.78 40.168 127.38 40.168C128.964 40.168 130.196 41.432 130.196 43.112ZM133.53 43.896C133.53 45.864 134.938 47.176 136.762 47.176C138.57 47.176 139.978 45.864 139.978 43.896V39.208H138.746V43.976C138.746 45.208 137.898 46.04 136.762 46.04C135.61 46.04 134.746 45.24 134.746 43.976V39.208H133.53V43.896ZM146.835 45.96C146.435 46.024 146.099 46.056 145.795 46.056C144.723 46.056 144.147 45.672 144.147 44.568V40.312H146.579V39.208H144.147V37.08H142.915V39.208H141.603V40.312H142.915V44.648C142.915 46.36 143.923 47.176 145.539 47.176C145.907 47.176 146.339 47.112 146.835 47V45.96Z" fill="white"/>
</g>
<defs>
<filter id="filter0_d_24_2122" x="0" y="0" width="212" height="92" filterUnits="userSpaceOnUse" color-interpolation-filters="sRGB">
<feFlood flood-opacity="0" result="BackgroundImageFix"/>
<feColorMatrix in="SourceAlpha" type="matrix" values="0 0 0 0 0 0 0 0 0 0 0 0 0 0 0 0 0 0 127 0" result="hardAlpha"/>
<feOffset dy="4"/>
<feGaussianBlur stdDeviation="8"/>
<feColorMatrix type="matrix" values="0 0 0 0 0.752941 0 0 0 0 0.12549 0 0 0 0 0.14902 0 0 0 0.35 0"/>
<feBlend mode="normal" in2="BackgroundImageFix" result="effect1_dropShadow_24_2122"/>
<feBlend mode="normal" in="SourceGraphic" in2="effect1_dropShadow_24_2122" result="shape"/>
</filter>
</defs>
</svg>
