<svg width="195" height="196" viewBox="0 0 195 196" fill="none" xmlns="http://www.w3.org/2000/svg">
<path d="M97.5 195.5C151.348 195.5 195 151.848 195 98C195 44.1522 151.348 0.5 97.5 0.5C43.6522 0.5 0 44.1522 0 98C0 151.848 43.6522 195.5 97.5 195.5Z" fill="url(#paint0_radial_2371_11535)"/>
<path d="M97.4999 190.977C146.629 190.977 186.456 151.15 186.456 102.02C186.456 52.8913 146.629 13.0643 97.4999 13.0643C48.3708 13.0643 8.5437 52.8913 8.5437 102.02C8.5437 151.15 48.3708 190.977 97.4999 190.977Z" fill="white"/>
<path d="M89.7092 137.201C89.5171 137.201 89.3227 137.196 89.1282 137.187C87.4216 137.104 85.7532 136.653 84.2372 135.864C82.7212 135.075 81.3935 133.968 80.3451 132.618L66.321 114.571C64.3927 112.085 63.5285 108.934 63.9182 105.81C64.308 102.687 65.9198 99.8458 68.3999 97.9104L68.9022 97.5188C71.387 95.5886 74.535 94.7235 77.6561 95.1131C80.7772 95.5028 83.6165 97.1154 85.5515 99.5973C86.1809 100.408 86.9781 101.073 87.8884 101.547C88.7986 102.02 89.8003 102.291 90.825 102.341C91.8507 102.401 92.8771 102.234 93.8307 101.851C94.7843 101.468 95.6418 100.879 96.3416 100.126L124.816 70.0388C126.981 67.7565 129.962 66.4271 133.106 66.3419C136.249 66.2568 139.298 67.4229 141.583 69.5846L142.046 70.0226C144.328 72.1897 145.657 75.1741 145.742 78.3211C145.828 81.4681 144.663 84.5205 142.502 86.8085L98.3163 133.493C97.2091 134.665 95.8747 135.598 94.3947 136.236C92.9148 136.873 91.3204 137.202 89.7092 137.201Z" fill="url(#paint1_radial_2371_11535)"/>
<path opacity="0.8" d="M97.4999 178.92C74.9943 178.917 53.3267 170.358 36.8643 154.969C20.4019 139.579 10.3689 118.504 8.78753 95.9897C8.64334 98.0665 8.5437 100.156 8.5437 102.269C8.5437 125.929 17.9159 148.62 34.5984 165.35C51.2809 182.08 73.9072 191.479 97.4999 191.479C121.092 191.479 143.719 182.08 160.401 165.35C177.084 148.62 186.456 125.929 186.456 102.269C186.456 100.156 186.356 98.0665 186.212 95.9897C184.631 118.504 174.598 139.579 158.136 154.969C141.673 170.358 120.005 178.917 97.4999 178.92Z" fill="#DCE1EA"/>
<defs>
<radialGradient id="paint0_radial_2371_11535" cx="0" cy="0" r="1" gradientUnits="userSpaceOnUse" gradientTransform="translate(195 195.5) rotate(-135) scale(275.772 370.163)">
<stop offset="0.0416667" stop-color="#F11139"/>
<stop offset="0.911458" stop-color="#FBA40F"/>
<stop offset="1" stop-color="#FFD600"/>
</radialGradient>
<radialGradient id="paint1_radial_2371_11535" cx="0" cy="0" r="1" gradientUnits="userSpaceOnUse" gradientTransform="translate(145.747 137.201) rotate(-139.139) scale(108.317 143.877)">
<stop offset="0.0416667" stop-color="#F11139"/>
<stop offset="0.911458" stop-color="#FBA40F"/>
<stop offset="1" stop-color="#FFD600"/>
</radialGradient>
</defs>
</svg>
