<svg width="22" height="22" viewBox="0 0 22 22" fill="none" xmlns="http://www.w3.org/2000/svg">
<path fill-rule="evenodd" clip-rule="evenodd" d="M18 0C20.2091 0 22 1.79086 22 4V18C22 20.2091 20.2091 22 18 22H4C1.79086 22 0 20.2091 0 18V4C0 1.79086 1.79086 0 4 0H18ZM17.9999 1.99984H3.99993C2.89536 1.99984 1.99993 2.89527 1.99993 3.99984V14.4653C1.99993 14.5758 2.08948 14.6653 2.19993 14.6653C2.23115 14.6653 2.26194 14.658 2.28983 14.644L8.30353 11.6178C9.99983 10.7639 12.0002 10.7635 13.6969 11.6167L19.7101 14.6401C19.8088 14.6897 19.929 14.6499 19.9786 14.5513C19.9926 14.5234 19.9999 14.4926 19.9999 14.4614V3.99984C19.9999 2.89527 19.1045 1.99984 17.9999 1.99984ZM6.49994 3.99985C7.88065 3.99985 8.99994 5.11913 8.99994 6.49985C8.99994 7.88056 7.88065 8.99985 6.49994 8.99985C5.11923 8.99985 3.99994 7.88056 3.99994 6.49985C3.99994 5.11913 5.11923 3.99985 6.49994 3.99985Z" fill="#C02026"/>
</svg>
