<svg width="19" height="18" viewBox="0 0 19 18" fill="none" xmlns="http://www.w3.org/2000/svg">
<path d="M11.8444 1.5H6.67199C4.53837 1.5 3.20001 2.98941 3.20001 5.37908V15.2423C3.20001 15.9369 3.75001 16.5 4.42846 16.5C4.63386 16.5 4.83602 16.4476 5.01682 16.3477L9.22587 14.011L14.1267 16.361C14.2596 16.4181 14.4092 16.4188 14.5426 16.363C14.676 16.3071 14.7823 16.1992 14.8379 16.0631C14.9201 15.8123 14.8205 15.5368 14.5987 15.4011L9.73018 13.0711C9.41211 12.892 9.02671 12.892 8.70863 13.0711L4.49312 15.4011C4.44477 15.4282 4.38629 15.4282 4.33794 15.4011C4.29198 15.3709 4.26496 15.3181 4.26682 15.2621V5.37908C4.27329 3.61165 5.13967 2.60547 6.69139 2.60547H11.8638C13.8552 2.60547 14.1461 4.26037 14.1461 5.25331V5.70344H8.54699C8.40464 5.70861 8.27013 5.77152 8.17311 5.87831C8.07609 5.98509 8.02452 6.12698 8.02975 6.27273C8.03657 6.56226 8.2642 6.79532 8.54699 6.80229H14.1267V12.5944C14.1267 12.8979 14.367 13.1439 14.6634 13.1439C14.9572 13.1439 15.1965 12.9019 15.2 12.6011V5.25331C15.2 2.93645 13.9198 1.5 11.8444 1.5Z" fill="#717E95"/>
</svg>
