<svg width="33" height="33" viewBox="0 0 33 33" fill="none" xmlns="http://www.w3.org/2000/svg">
<path opacity="0.4" d="M29.8333 21.4421C29.8333 25.1621 26.8466 28.1755 23.1266 28.1888H23.1133H9.89996C6.19329 28.1888 3.16663 25.1888 3.16663 21.4688V21.4555C3.16663 21.4555 3.17463 15.5541 3.18529 12.5861C3.18663 12.0288 3.82663 11.7168 4.26263 12.0635C7.43063 14.5768 13.096 19.1595 13.1666 19.2195C14.1133 19.9781 15.3133 20.4061 16.54 20.4061C17.7666 20.4061 18.9666 19.9781 19.9133 19.2048C19.984 19.1581 25.5226 14.7128 28.7386 12.1581C29.176 11.8101 29.8186 12.1221 29.82 12.6781C29.8333 15.6235 29.8333 21.4421 29.8333 21.4421Z" fill="#C02026"/>
<path d="M29.1347 7.75332C27.98 5.57732 25.708 4.18799 23.2067 4.18799H9.90001C7.39867 4.18799 5.12667 5.57732 3.97201 7.75332C3.71334 8.23999 3.83601 8.84666 4.26667 9.19066L14.1667 17.1093C14.86 17.6693 15.7 17.948 16.54 17.948C16.5453 17.948 16.5493 17.948 16.5533 17.948C16.5573 17.948 16.5627 17.948 16.5667 17.948C17.4067 17.948 18.2467 17.6693 18.94 17.1093L28.84 9.19066C29.2707 8.84666 29.3933 8.23999 29.1347 7.75332Z" fill="#FECD08"/>
</svg>
