<svg width="14" height="14" viewBox="0 0 14 14" fill="none" xmlns="http://www.w3.org/2000/svg">
<path d="M6.9999 1.1665C10.2164 1.1665 12.8332 3.78275 12.8332 6.99984C12.8332 10.2163 10.2164 12.8332 6.9999 12.8332C5.17581 12.8332 3.48998 12.0031 2.37581 10.557C2.2329 10.3709 2.2679 10.1043 2.4534 9.962C2.6389 9.8185 2.90431 9.85409 3.04781 10.039C4.0004 11.2757 5.44065 11.985 6.9999 11.985C9.74856 11.985 11.9851 9.74909 11.9851 6.99984C11.9851 4.25117 9.74856 2.01467 6.9999 2.01467C4.25123 2.01467 2.01531 4.25117 2.01531 6.99984C2.01531 7.25534 2.03398 7.50909 2.0719 7.75759C2.1069 7.98859 1.94823 8.205 1.71665 8.24059C1.4839 8.27909 1.26865 8.1175 1.23365 7.88592C1.18931 7.59542 1.16656 7.29734 1.16656 6.99984C1.16656 3.78275 3.7834 1.1665 6.9999 1.1665ZM6.80221 4.14699C7.03612 4.14699 7.22629 4.33715 7.22629 4.57165V7.16515L9.22362 8.35632C9.42487 8.47649 9.49079 8.73665 9.37062 8.9379C9.29187 9.07032 9.15071 9.1444 9.00662 9.1444C8.93254 9.1444 8.85729 9.12515 8.78962 9.0849L6.58462 7.77007C6.45687 7.69307 6.37812 7.55482 6.37812 7.40549V4.57165C6.37812 4.33715 6.56829 4.14699 6.80221 4.14699Z" fill="#94A0B4"/>
</svg>
