<svg width="109" height="56" viewBox="0 0 109 56" fill="none" xmlns="http://www.w3.org/2000/svg">
<path d="M0 10C0 4.47715 4.47715 0 10 0H108.333V56H10C4.47716 56 0 51.5228 0 46V10Z" fill="#EEF2F8"/>
<path d="M63.6227 26.154C63.7457 26.813 63.8127 27.502 63.8127 28.221C63.8127 33.845 60.0487 37.844 54.3637 37.844C53.0708 37.8444 51.7906 37.59 50.5961 37.0955C49.4015 36.6009 48.3162 35.8758 47.402 34.9616C46.4878 34.0475 45.7627 32.9621 45.2682 31.7676C44.7736 30.5731 44.5193 29.2929 44.5197 28C44.5193 26.7072 44.7736 25.4269 45.2682 24.2324C45.7627 23.0379 46.4878 21.9525 47.402 21.0384C48.3162 20.1242 49.4015 19.3991 50.5961 18.9045C51.7906 18.41 53.0708 18.1556 54.3637 18.156C57.0217 18.156 59.2427 19.134 60.9467 20.722L58.1717 23.497V23.49C57.1387 22.506 55.8277 22.001 54.3637 22.001C51.1157 22.001 48.4757 24.745 48.4757 27.994C48.4757 31.242 51.1157 33.992 54.3637 33.992C57.3107 33.992 59.3167 32.307 59.7287 29.993H54.3637V26.154H63.6237H63.6227Z" fill="#EB5757"/>
</svg>
