<svg width="77" height="24" viewBox="0 0 77 24" fill="none" xmlns="http://www.w3.org/2000/svg">
<path d="M9.14373 20.7821V17.7152C9.14372 16.9381 9.77567 16.3067 10.5584 16.3018H13.4326C14.2189 16.3018 14.8563 16.9346 14.8563 17.7152V20.7732C14.8562 21.4473 15.404 21.9951 16.0829 22H18.0438C18.9596 22.0023 19.8388 21.6428 20.4872 21.0007C21.1356 20.3586 21.5 19.4868 21.5 18.5775V9.86585C21.5 9.13139 21.1721 8.43471 20.6046 7.9635L13.943 2.67427C12.7785 1.74912 11.1154 1.77901 9.98539 2.74538L3.46701 7.9635C2.87274 8.42082 2.51755 9.11956 2.5 9.86585V18.5686C2.5 20.4637 4.04738 22 5.95617 22H7.87229C8.19917 22.0023 8.51349 21.8751 8.74547 21.6464C8.97746 21.4178 9.10793 21.1067 9.10792 20.7821H9.14373Z" fill="#C02026"/>
<path d="M33.456 17H34.704V11.912H40.624V17H41.872V6.44H40.624V10.792H34.704V6.44H33.456V17ZM44.05 13.096C44.018 15.288 45.89 17.208 48.114 17.16C50.338 17.208 52.258 15.288 52.21 13.096C52.258 10.872 50.354 9 48.13 9.032C45.906 8.984 44.002 10.872 44.05 13.096ZM50.946 13.112C50.946 14.744 49.698 16.024 48.114 16.024C46.53 16.024 45.314 14.744 45.314 13.112C45.314 11.432 46.53 10.168 48.13 10.168C49.714 10.168 50.946 11.432 50.946 13.112ZM65.7516 12.104C65.7516 10.248 64.7116 9.032 62.9196 9.032C61.7676 9.032 60.8236 9.56 60.2476 10.376C59.7996 9.528 58.9836 9.032 57.8476 9.032C56.8876 9.032 56.0876 9.384 55.5276 10.024V9.208H54.3756V17H55.6076V12.264C55.6076 11.032 56.4236 10.168 57.5916 10.168C58.7276 10.168 59.4476 11 59.4476 12.264V17H60.6796V12.152C60.6796 11.048 61.5116 10.168 62.6796 10.168C63.8316 10.168 64.5196 11 64.5196 12.264V17H65.7516V12.104ZM75.24 13.48C75.304 13.16 75.336 12.856 75.336 12.552C75.336 10.488 73.8 9.032 71.784 9.032C69.56 9.032 67.8 10.856 67.8 13.112C67.8 15.4 69.608 17.176 71.928 17.176C73.16 17.176 74.232 16.664 75.048 15.816L74.328 14.984C73.624 15.688 72.824 16.04 71.944 16.04C70.408 16.04 69.224 15.016 69.08 13.48H75.24ZM69.128 12.392C69.4 11.048 70.456 10.152 71.752 10.152C73.048 10.152 74.056 11 74.072 12.392H69.128Z" fill="#C02026"/>
</svg>
