<svg width="12" height="13" viewBox="0 0 12 13" fill="none" xmlns="http://www.w3.org/2000/svg">
<path d="M6.01665 1.5C8.35984 1.50921 10.2592 3.42099 10.25 5.76116V5.80764C10.2183 7.48001 9.21291 8.8678 8.37521 9.73731C8.1368 9.98593 7.88304 10.2245 7.62136 10.4472C7.46462 10.5809 7.2293 10.5625 7.09539 10.406C6.96148 10.249 6.98036 10.014 7.1371 9.88025C7.37945 9.67373 7.61522 9.45186 7.83694 9.22078C8.58244 8.4473 9.47633 7.22437 9.50355 5.79405C9.51102 3.82921 7.94582 2.25287 6.01358 2.24498H5.99997C4.07431 2.24498 2.50384 3.80597 2.49638 5.73047C2.52931 6.68109 2.85069 7.5848 3.42628 8.34294C4.09802 9.23744 5.11704 10.1846 6.08558 10.8151C6.25856 10.9273 6.3073 11.158 6.19446 11.3307C6.12334 11.4404 6.00348 11.5 5.88142 11.5C5.81162 11.5 5.74137 11.4807 5.67815 11.4395C4.64112 10.7647 3.54965 9.75002 2.83005 8.79194C2.16226 7.91191 1.78864 6.86175 1.75 5.75634C1.75922 3.39292 3.66424 1.5 5.99997 1.5H6.01665ZM5.99865 4.1917C6.89035 4.1917 7.6161 4.91608 7.6161 5.80707C7.6161 6.69762 6.89035 7.42199 5.99865 7.42199C5.10695 7.42199 4.3812 6.69762 4.3812 5.80707C4.3812 5.60098 4.54848 5.43436 4.75439 5.43436C4.96031 5.43436 5.12758 5.60098 5.12758 5.80707C5.12758 6.28633 5.51833 6.67702 5.99865 6.67702C6.47897 6.67702 6.86972 6.28633 6.86972 5.80707C6.86972 5.32737 6.47897 4.93668 5.99865 4.93668C5.79274 4.93668 5.62546 4.77006 5.62546 4.56441C5.62546 4.35833 5.79274 4.1917 5.99865 4.1917Z" fill="white"/>
</svg>
