<svg width="134" height="24" viewBox="0 0 134 24" fill="none" xmlns="http://www.w3.org/2000/svg">
<path d="M3.875 12C4.04076 12 4.19973 12.0702 4.31694 12.1953C4.43415 12.3203 4.5 12.4899 4.5 12.6667V20.6667H19.5V12.6667C19.5 12.4899 19.5658 12.3203 19.6831 12.1953C19.8003 12.0702 19.9592 12 20.125 12C20.2908 12 20.4497 12.0702 20.5669 12.1953C20.6842 12.3203 20.75 12.4899 20.75 12.6667V20.6667H21.375C21.5408 20.6667 21.6997 20.7369 21.8169 20.8619C21.9342 20.987 22 21.1565 22 21.3333C22 21.5101 21.9342 21.6797 21.8169 21.8047C21.6997 21.9298 21.5408 22 21.375 22H2.625C2.45924 22 2.30027 21.9298 2.18306 21.8047C2.06585 21.6797 2 21.5101 2 21.3333C2 21.1565 2.06585 20.987 2.18306 20.8619C2.30027 20.7369 2.45924 20.6667 2.625 20.6667H3.25V12.6667C3.25 12.4899 3.31585 12.3203 3.43306 12.1953C3.55027 12.0702 3.70924 12 3.875 12ZM6.375 12.6667C6.54076 12.6667 6.69973 12.7369 6.81694 12.8619C6.93415 12.987 7 13.1565 7 13.3333L6.375 12.6667L17.6594 12.6677L17 13.3333C17 13.1565 17.0658 12.987 17.1831 12.8619C17.3003 12.7369 17.4592 12.6667 17.625 12.6667C17.7908 12.6667 17.9497 12.7369 18.0669 12.8619C18.1842 12.987 18.25 13.1565 18.25 13.3333V18C18.25 18.3536 18.1183 18.6928 17.8839 18.9428C17.6495 19.1929 17.3315 19.3333 17 19.3333H7C6.66848 19.3333 6.35054 19.1929 6.11612 18.9428C5.8817 18.6928 5.75 18.3536 5.75 18V13.3333C5.75 13.1565 5.81585 12.987 5.93306 12.8619C6.05027 12.7369 6.20924 12.6667 6.375 12.6667Z" fill="#C02026"/>
<path opacity="0.4" d="M5.7125 2.46665C5.82986 2.32029 5.97555 2.20279 6.13954 2.12223C6.30354 2.04167 6.48195 1.99997 6.6625 1.99998H17.3375C17.5181 1.99997 17.6965 2.04167 17.8605 2.12223C18.0245 2.20279 18.1701 2.32029 18.2875 2.46665L21.5487 6.52531C21.8399 6.88776 22 7.34933 22 7.82665V8.16665C22.0001 8.82661 21.8068 9.47011 21.4473 10.0072C21.0877 10.5443 20.5798 10.9481 19.9946 11.1623C19.4094 11.3765 18.776 11.3902 18.1831 11.2017C17.5901 11.0131 17.0673 10.6317 16.6875 10.1106C16.4102 10.4917 16.0548 10.7999 15.6485 11.0119C15.2423 11.2238 14.796 11.3338 14.3438 11.3333C13.8915 11.3339 13.4452 11.2239 13.0389 11.012C12.6326 10.8001 12.2773 10.4917 12 10.1106C11.7227 10.4917 11.3674 10.8001 10.9611 11.012C10.5548 11.2239 10.1085 11.3339 9.65625 11.3333C9.20401 11.3339 8.75765 11.2239 8.3514 11.012C7.94514 10.8001 7.58976 10.4917 7.3125 10.1106C6.93274 10.6317 6.40985 11.0131 5.81692 11.2017C5.22399 11.3902 4.59065 11.3765 4.00541 11.1623C3.42017 10.9481 2.91228 10.5443 2.55273 10.0072C2.19318 9.47011 1.99993 8.82661 2 8.16665V7.82665C2.00002 7.34933 2.16007 6.88776 2.45125 6.52531L5.71375 2.46531L5.7125 2.46665ZM7.9375 8.16665C7.9375 8.65288 8.11858 9.11919 8.44091 9.46301C8.76324 9.80683 9.20041 9.99998 9.65625 9.99998C10.1121 9.99998 10.5493 9.80683 10.8716 9.46301C11.1939 9.11919 11.375 8.65288 11.375 8.16665C11.375 7.98983 11.4408 7.82027 11.5581 7.69524C11.6753 7.57022 11.8342 7.49998 12 7.49998C12.1658 7.49998 12.3247 7.57022 12.4419 7.69524C12.5592 7.82027 12.625 7.98983 12.625 8.16665C12.625 8.65288 12.8061 9.11919 13.1284 9.46301C13.4507 9.80683 13.8879 9.99998 14.3438 9.99998C14.7996 9.99998 15.2368 9.80683 15.5591 9.46301C15.8814 9.11919 16.0625 8.65288 16.0625 8.16665C16.0625 7.98983 16.1283 7.82027 16.2456 7.69524C16.3628 7.57022 16.5217 7.49998 16.6875 7.49998C16.8533 7.49998 17.0122 7.57022 17.1294 7.69524C17.2467 7.82027 17.3125 7.98983 17.3125 8.16665C17.3125 8.65288 17.4936 9.11919 17.8159 9.46301C18.1382 9.80683 18.5754 9.99998 19.0312 9.99998C19.4871 9.99998 19.6723 9.91018 19.9946 9.56636C19.6993 9.10333 19.9946 9.48621 19.9946 8.99998V8.65998C19.9946 8.50108 20.0481 8.62074 19.9513 8.49998L21.0716 8.65998L19.5 10.5L16.6875 9.22146L15 10.5L12 9.49998L9.5 10.5L7.5 9.49998L5.5 10.5L3.5 9.49998C3.40318 9.62074 3.7534 9.06256 3.75341 9.22146L4 9.49998C4 9 4 9.98621 4 9.49998C4.32233 9.8438 4.54416 9.49998 5 9.49998C5.45584 9.49998 5.86176 9.80683 6.18409 9.46301C6.50642 9.11919 6.6875 8.65288 6.6875 8.16665C6.6875 7.98983 6.75335 7.82027 6.87056 7.69524C6.98777 7.57022 7.14674 7.49998 7.3125 7.49998C7.47826 7.49998 7.63723 7.57022 7.75444 7.69524C7.87165 7.82027 7.9375 7.98983 7.9375 8.16665Z" fill="#C02026"/>
<path d="M42.736 6.264L38.304 12.36L33.904 6.264H33.456V17H34.704V9.4L38.096 14.008H38.544L41.92 9.432V17H43.168V6.264H42.736ZM52.7869 13.48C52.8509 13.16 52.8829 12.856 52.8829 12.552C52.8829 10.488 51.3469 9.032 49.3309 9.032C47.1069 9.032 45.3469 10.856 45.3469 13.112C45.3469 15.4 47.1549 17.176 49.4749 17.176C50.7069 17.176 51.7789 16.664 52.5949 15.816L51.8749 14.984C51.1709 15.688 50.3709 16.04 49.4909 16.04C47.9549 16.04 46.7709 15.016 46.6269 13.48H52.7869ZM46.6749 12.392C46.9469 11.048 48.0029 10.152 49.2989 10.152C50.5949 10.152 51.6029 11 51.6189 12.392H46.6749ZM54.4875 13.096C54.4875 15.352 56.3115 17.176 58.5675 17.176C59.9275 17.176 61.0635 16.52 61.7675 15.48L60.8875 14.792C60.2635 15.624 59.4955 16.04 58.5835 16.04C56.9675 16.04 55.7515 14.728 55.7515 13.096C55.7515 11.48 56.9675 10.168 58.5835 10.168C59.4955 10.168 60.2795 10.584 60.9035 11.432L61.7835 10.728C61.0795 9.688 59.9275 9.032 58.5675 9.032C56.3435 9 54.4395 10.872 54.4875 13.096ZM63.1438 13.096C63.1438 15.352 64.9678 17.176 67.2238 17.176C68.5838 17.176 69.7198 16.52 70.4237 15.48L69.5438 14.792C68.9198 15.624 68.1518 16.04 67.2398 16.04C65.6238 16.04 64.4078 14.728 64.4078 13.096C64.4078 11.48 65.6238 10.168 67.2398 10.168C68.1518 10.168 68.9358 10.584 69.5598 11.432L70.4398 10.728C69.7358 9.688 68.5838 9.032 67.2238 9.032C64.9998 9 63.0958 10.872 63.1438 13.096ZM78.3563 12.2C78.3563 10.152 77.1563 9.032 75.3163 9.032C74.0203 9.032 72.8523 9.592 72.1483 10.744L72.9643 11.416C73.6043 10.584 74.2923 10.168 75.2363 10.168C76.4043 10.168 77.1243 10.856 77.1243 12.136V12.808H74.6603C72.9803 12.808 71.8603 13.656 71.8603 14.984C71.8603 16.328 72.9803 17.176 74.5803 17.176C75.7163 17.176 76.6283 16.76 77.2043 15.992V17H78.3563V12.2ZM77.1243 14.008C77.1243 15.208 76.0203 16.152 74.7403 16.152C73.8283 16.152 73.1243 15.704 73.1243 14.92C73.1243 14.2 73.7163 13.816 74.8043 13.816H77.1243V14.008ZM94.8298 6.264L90.3978 12.36L85.9978 6.264H85.5498V17H86.7978V9.4L90.1898 14.008H90.6378L94.0138 9.432V17H95.2618V6.264H94.8298ZM103.841 12.2C103.841 10.152 102.641 9.032 100.801 9.032C99.5046 9.032 98.3366 9.592 97.6326 10.744L98.4486 11.416C99.0886 10.584 99.7766 10.168 100.721 10.168C101.889 10.168 102.609 10.856 102.609 12.136V12.808H100.145C98.4646 12.808 97.3446 13.656 97.3446 14.984C97.3446 16.328 98.4646 17.176 100.065 17.176C101.201 17.176 102.113 16.76 102.689 15.992V17H103.841V12.2ZM102.609 14.008C102.609 15.208 101.505 16.152 100.225 16.152C99.3126 16.152 98.6086 15.704 98.6086 14.92C98.6086 14.2 99.2006 13.816 100.289 13.816H102.609V14.008ZM110.598 9.208C110.39 9.16 110.198 9.144 110.022 9.144C109.078 9.144 108.166 9.56 107.606 10.312V9.208H106.454V17H107.686V12.584C107.686 11.144 108.822 10.296 110.134 10.296H110.598V9.208ZM112.251 17H113.483V5H112.251V17ZM115.099 12.632L118.475 9.208H116.859L113.611 12.616L117.195 17H118.779L115.099 12.632ZM126.912 13.48C126.976 13.16 127.008 12.856 127.008 12.552C127.008 10.488 125.472 9.032 123.456 9.032C121.232 9.032 119.472 10.856 119.472 13.112C119.472 15.4 121.28 17.176 123.6 17.176C124.832 17.176 125.904 16.664 126.72 15.816L126 14.984C125.296 15.688 124.496 16.04 123.616 16.04C122.08 16.04 120.896 15.016 120.752 13.48H126.912ZM120.8 12.392C121.072 11.048 122.128 10.152 123.424 10.152C124.72 10.152 125.728 11 125.744 12.392H120.8ZM133.429 15.96C133.029 16.024 132.693 16.056 132.389 16.056C131.317 16.056 130.741 15.672 130.741 14.568V10.312H133.173V9.208H130.741V7.08H129.509V9.208H128.197V10.312H129.509V14.648C129.509 16.36 130.517 17.176 132.133 17.176C132.501 17.176 132.933 17.112 133.429 17V15.96Z" fill="#C02026"/>
</svg>
