<svg width="14" height="15" viewBox="0 0 14 15" fill="none" xmlns="http://www.w3.org/2000/svg">
<path d="M11.6666 5.1665H8.39296L9.04804 3.20242C9.16588 2.84775 9.10638 2.45459 8.88763 2.15125C8.66888 1.84792 8.31421 1.6665 7.94029 1.6665H6.99996C6.82671 1.6665 6.66279 1.7435 6.55138 1.8765L3.80971 5.1665H2.33329C1.68988 5.1665 1.16663 5.68975 1.16663 6.33317V11.5832C1.16663 12.2266 1.68988 12.7498 2.33329 12.7498H10.0957C10.3331 12.749 10.5646 12.6762 10.7597 12.541C10.9548 12.4059 11.1042 12.2146 11.1883 11.9927L12.7965 7.70459C12.821 7.63909 12.8334 7.56974 12.8333 7.49984V6.33317C12.8333 5.68975 12.31 5.1665 11.6666 5.1665ZM2.33329 6.33317H3.49996V11.5832H2.33329V6.33317ZM11.6666 7.39425L10.0957 11.5832H4.66663V5.961L7.27296 2.83317H7.94146L7.03029 5.56492C7.00071 5.6526 6.99246 5.74608 7.00623 5.83759C7.01999 5.9291 7.05537 6.01601 7.10943 6.09111C7.16349 6.16622 7.23468 6.22735 7.31709 6.26945C7.3995 6.31154 7.49075 6.33339 7.58329 6.33317H11.6666V7.39425Z" fill="#202020"/>
</svg>
