<svg width="19" height="24" viewBox="0 0 19 24" fill="none" xmlns="http://www.w3.org/2000/svg">
<path fill-rule="evenodd" clip-rule="evenodd" d="M5.00002 21.9998H13C13.5523 21.9998 14 22.4475 14 22.9998C14 23.5127 13.614 23.9353 13.1166 23.9931L13 23.9998H5.00002C4.44773 23.9998 4.00002 23.5521 4.00002 22.9998C4.00002 22.487 4.38606 22.0643 4.8834 22.0066L5.00002 21.9998H13H5.00002ZM17.1011 10.6033C17.6531 10.6195 18.0875 11.0801 18.0713 11.6322C18.0293 13.0645 17.5712 14.5822 16.7941 15.9282C14.3088 20.2328 8.80451 21.7077 4.49988 19.2224C1.74634 17.6327 0.0719678 14.7455 0.000875111 11.6256C-0.0117064 11.0735 0.425693 10.6157 0.977835 10.6031C1.52998 10.5905 1.98777 11.0279 2.00036 11.5801C2.0557 14.0089 3.35737 16.2534 5.49988 17.4904C8.84792 19.4234 13.1291 18.2762 15.0621 14.9282C15.6789 13.8598 16.0402 12.6626 16.0722 11.5735C16.0884 11.0215 16.549 10.5871 17.1011 10.6033ZM9.00002 -0.000244141C11.7614 -0.000244141 14 2.23833 14 4.99976V11.4998C14 14.2612 11.7614 16.4998 9.00002 16.4998C6.23859 16.4998 4.00002 14.2612 4.00002 11.4998V4.99976C4.00002 2.23833 6.23859 -0.000244141 9.00002 -0.000244141Z" fill="#C02026"/>
</svg>
