<svg width="55" height="56" viewBox="0 0 55 56" fill="none" xmlns="http://www.w3.org/2000/svg">
<rect width="55" height="56" rx="10" fill="#C02026" fill-opacity="0.15"/>
<path fill-rule="evenodd" clip-rule="evenodd" d="M33.7027 25.2214C34.0607 25.2502 34.3277 25.556 34.2991 25.9058C34.2939 25.9634 33.8241 31.6481 33.5536 34.0326C33.3854 35.5124 32.3851 36.4129 30.8751 36.44C29.7196 36.4595 28.6049 36.4705 27.5153 36.4705C26.3407 36.4705 25.1956 36.4578 24.0627 36.4349C22.6133 36.4069 21.6104 35.4887 21.4466 34.0385C21.1735 31.6328 20.7063 25.9626 20.702 25.9058C20.6725 25.556 20.9395 25.2493 21.2975 25.2214C21.6503 25.212 21.9693 25.4543 21.9979 25.8033C22.0006 25.8401 22.1916 28.1556 22.3998 30.4467L22.4416 30.9039C22.5464 32.0427 22.6527 33.1369 22.739 33.8988C22.8318 34.723 23.2868 35.1482 24.0895 35.1643C26.2566 35.2092 28.4679 35.2117 30.8517 35.1694C31.7047 35.1533 32.1658 34.7365 32.2612 33.8928C32.5299 31.5261 32.998 25.8609 33.0032 25.8033C33.0318 25.4543 33.3482 25.2104 33.7027 25.2214ZM29.3346 19.5293C30.1303 19.5293 30.8299 20.0536 31.0353 20.805L31.2555 21.8731C31.3266 22.2233 31.6411 22.479 32.0052 22.4846L34.8499 22.4847C35.2087 22.4847 35.5 22.7693 35.5 23.12C35.5 23.4707 35.2087 23.7553 34.8499 23.7553L32.0306 23.7552C32.0262 23.7553 32.0218 23.7553 32.0174 23.7553L31.9963 23.7545L23.0034 23.7552C22.9964 23.7553 22.9894 23.7553 22.9824 23.7553L22.9691 23.7545L20.1501 23.7553C19.7913 23.7553 19.5 23.4707 19.5 23.12C19.5 22.7693 19.7913 22.4847 20.1501 22.4847L22.9942 22.4839L23.0818 22.4785C23.408 22.4371 23.679 22.195 23.7452 21.8731L23.9559 20.8431C24.17 20.0536 24.8695 19.5293 25.6653 19.5293H29.3346ZM29.3346 20.7999H25.6653C25.4572 20.7999 25.2743 20.9363 25.2214 21.132L25.0195 22.123C24.9938 22.2486 24.9564 22.3695 24.9086 22.485H30.0915C30.0436 22.3695 30.0061 22.2486 29.9804 22.123L29.7697 21.093C29.7255 20.9363 29.5426 20.7999 29.3346 20.7999Z" fill="#C02026"/>
</svg>
