<svg width="79" height="24" viewBox="0 0 79 24" fill="none" xmlns="http://www.w3.org/2000/svg">
<path d="M11.9968 15.1746C7.68376 15.1746 3.99976 15.8546 3.99976 18.5746C3.99976 21.2956 7.66076 21.9996 11.9968 21.9996C16.3098 21.9996 19.9938 21.3206 19.9938 18.5996C19.9938 15.8786 16.3338 15.1746 11.9968 15.1746Z" fill="#C02026"/>
<path opacity="0.4" d="M11.9968 12.5837C14.9348 12.5837 17.2888 10.2287 17.2888 7.29169C17.2888 4.35469 14.9348 1.99969 11.9968 1.99969C9.05983 1.99969 6.70483 4.35469 6.70483 7.29169C6.70483 10.2287 9.05983 12.5837 11.9968 12.5837Z" fill="#C02026"/>
<path d="M33.456 17H34.704V12.584H37.168C39.216 12.584 40.544 11.304 40.544 9.496C40.544 7.72 39.216 6.44 37.168 6.44H33.456V17ZM34.704 11.464V7.56H37.136C38.48 7.56 39.248 8.36 39.248 9.512C39.248 10.68 38.48 11.464 37.136 11.464H34.704ZM46.6603 9.208C46.4523 9.16 46.2603 9.144 46.0843 9.144C45.1403 9.144 44.2283 9.56 43.6683 10.312V9.208H42.5163V17H43.7483V12.584C43.7483 11.144 44.8843 10.296 46.1963 10.296H46.6603V9.208ZM47.5969 13.096C47.5649 15.288 49.4369 17.208 51.6609 17.16C53.8849 17.208 55.8049 15.288 55.7569 13.096C55.8049 10.872 53.9009 9 51.6769 9.032C49.4529 8.984 47.5489 10.872 47.5969 13.096ZM54.4929 13.112C54.4929 14.744 53.2449 16.024 51.6609 16.024C50.0769 16.024 48.8609 14.744 48.8609 13.112C48.8609 11.432 50.0769 10.168 51.6769 10.168C53.2609 10.168 54.4929 11.432 54.4929 13.112ZM59.3465 7.432C59.3465 6.328 59.9385 5.944 60.9785 5.944C61.1865 5.944 61.4105 5.96 61.6665 5.992V4.952C61.3625 4.872 61.0265 4.824 60.6905 4.824C59.1065 4.824 58.1145 5.64 58.1145 7.352V9.208H56.9945V10.312H58.1145V17H59.3465V10.312H61.2985V9.208H59.3465V7.432ZM63.0006 17H64.2326V9.208H63.0006V17ZM62.6966 6.232C62.6966 6.744 63.1126 7.128 63.6246 7.128C64.1366 7.128 64.5366 6.744 64.5366 6.232C64.5366 5.736 64.1206 5.336 63.6246 5.336C63.1126 5.336 62.6966 5.736 62.6966 6.232ZM66.9381 17H68.1701V5H66.9381V17ZM77.7556 13.48C77.8196 13.16 77.8516 12.856 77.8516 12.552C77.8516 10.488 76.3156 9.032 74.2996 9.032C72.0756 9.032 70.3156 10.856 70.3156 13.112C70.3156 15.4 72.1236 17.176 74.4436 17.176C75.6756 17.176 76.7476 16.664 77.5636 15.816L76.8436 14.984C76.1396 15.688 75.3396 16.04 74.4596 16.04C72.9236 16.04 71.7396 15.016 71.5956 13.48H77.7556ZM71.6436 12.392C71.9156 11.048 72.9716 10.152 74.2676 10.152C75.5636 10.152 76.5716 11 76.5876 12.392H71.6436Z" fill="#C02026"/>
</svg>
