<svg width="32" height="33" viewBox="0 0 32 33" fill="none" xmlns="http://www.w3.org/2000/svg">
<g opacity="0.25">
<rect y="0.5" width="32" height="32" rx="8" fill="white"/>
</g>
<path d="M22.8507 22.6875C23.2091 22.6875 23.5 22.9815 23.5 23.3438C23.5 23.706 23.2091 24 22.8507 24H17.3302C16.971 24 16.681 23.706 16.681 23.3438C16.681 22.9815 16.971 22.6875 17.3302 22.6875H22.8507ZM16.0875 9.86538C16.903 8.81189 18.3314 8.70864 19.4819 9.61951L20.6852 10.5732C21.2107 10.9897 21.5699 11.5375 21.6955 12.1167C21.8357 12.7633 21.6808 13.4196 21.26 13.9621L14.0843 23.2159C13.7216 23.684 13.1762 23.957 12.5867 23.9649L9.81823 23.9999C9.50831 23.9999 9.246 23.7899 9.17762 23.4924L8.55086 20.7677C8.41754 20.1876 8.54913 19.5865 8.91271 19.1184L9.85458 17.903C10.0753 17.6178 10.4839 17.567 10.7662 17.7919C11.0484 18.015 11.0977 18.428 10.8761 18.7132L9.93423 19.9286C9.81476 20.0826 9.77148 20.2795 9.81563 20.4702L10.3238 22.6804L12.5702 22.6524C12.7633 22.6498 12.9425 22.5606 13.062 22.4066L20.2377 13.1527C20.4212 12.9165 20.4844 12.6627 20.4272 12.3967C20.3658 12.1158 20.1736 11.835 19.8845 11.6066L18.6811 10.652C18.2154 10.2845 17.5583 10.0955 17.1099 10.6756L16.162 11.8971L17.6666 13.1168C17.9462 13.3426 17.9912 13.7564 17.767 14.0382C17.6389 14.2009 17.4501 14.2849 17.2597 14.2849C17.1177 14.2849 16.974 14.2377 16.8545 14.1406L15.3612 12.9305L12.9061 16.097C12.6845 16.3823 12.2768 16.4339 11.9937 16.2082C11.7124 15.985 11.663 15.572 11.8838 15.2868L16.0875 9.86538Z" fill="white"/>
</svg>
