<svg width="104" height="24" viewBox="0 0 104 24" fill="none" xmlns="http://www.w3.org/2000/svg">
<path opacity="0.4" d="M22 15.9402C22 18.7302 19.76 20.9902 16.97 21.0002H16.96H7.05C4.27 21.0002 2 18.7502 2 15.9602V15.9502C2 15.9502 2.006 11.5242 2.014 9.29818C2.015 8.88018 2.495 8.64618 2.822 8.90618C5.198 10.7912 9.447 14.2282 9.5 14.2732C10.21 14.8422 11.11 15.1632 12.03 15.1632C12.95 15.1632 13.85 14.8422 14.56 14.2622C14.613 14.2272 18.767 10.8932 21.179 8.97718C21.507 8.71618 21.989 8.95018 21.99 9.36718C22 11.5762 22 15.9402 22 15.9402Z" fill="#C02026"/>
<path d="M21.4761 5.67357C20.6101 4.04157 18.9061 2.99957 17.0301 2.99957H7.05013C5.17413 2.99957 3.47013 4.04157 2.60413 5.67357C2.41013 6.03857 2.50213 6.49357 2.82513 6.75157L10.2501 12.6906C10.7701 13.1106 11.4001 13.3196 12.0301 13.3196C12.0341 13.3196 12.0371 13.3196 12.0401 13.3196C12.0431 13.3196 12.0471 13.3196 12.0501 13.3196C12.6801 13.3196 13.3101 13.1106 13.8301 12.6906L21.2551 6.75157C21.5781 6.49357 21.6701 6.03857 21.4761 5.67357Z" fill="#C02026"/>
<path d="M42.736 6.264L38.304 12.36L33.904 6.264H33.456V17H34.704V9.4L38.096 14.008H38.544L41.92 9.432V17H43.168V6.264H42.736ZM52.7869 13.48C52.8509 13.16 52.8829 12.856 52.8829 12.552C52.8829 10.488 51.3469 9.032 49.3309 9.032C47.1069 9.032 45.3469 10.856 45.3469 13.112C45.3469 15.4 47.1549 17.176 49.4749 17.176C50.7069 17.176 51.7789 16.664 52.5949 15.816L51.8749 14.984C51.1709 15.688 50.3709 16.04 49.4909 16.04C47.9549 16.04 46.7709 15.016 46.6269 13.48H52.7869ZM46.6749 12.392C46.9469 11.048 48.0029 10.152 49.2989 10.152C50.5949 10.152 51.6029 11 51.6189 12.392H46.6749ZM54.3115 15.656C54.9995 16.552 56.0555 17.176 57.3515 17.176C58.1195 17.176 58.7595 16.984 59.2875 16.584C59.8155 16.184 60.0875 15.608 60.0875 14.888C60.0875 13.816 59.4795 13.208 58.0235 12.584L57.3035 12.28C56.3595 11.88 56.0395 11.64 56.0395 11.144C56.0395 10.52 56.5675 10.168 57.3355 10.168C58.0555 10.168 58.7275 10.504 59.2555 11.032L60.0075 10.264C59.3675 9.496 58.4875 9.032 57.3995 9.032C55.9115 9.032 54.7755 9.848 54.7755 11.208C54.7755 12.248 55.4155 12.84 56.7115 13.368L57.4635 13.688C58.4235 14.072 58.8235 14.312 58.8235 14.936C58.8235 15.624 58.1835 16.04 57.3355 16.04C56.4555 16.04 55.8475 15.608 55.0955 14.84L54.3115 15.656ZM61.5771 15.656C62.2651 16.552 63.3211 17.176 64.6171 17.176C65.3851 17.176 66.0251 16.984 66.5531 16.584C67.0811 16.184 67.3531 15.608 67.3531 14.888C67.3531 13.816 66.7451 13.208 65.2891 12.584L64.5691 12.28C63.6251 11.88 63.3051 11.64 63.3051 11.144C63.3051 10.52 63.8331 10.168 64.6011 10.168C65.3211 10.168 65.9931 10.504 66.5211 11.032L67.2731 10.264C66.6331 9.496 65.7531 9.032 64.6651 9.032C63.1771 9.032 62.0411 9.848 62.0411 11.208C62.0411 12.248 62.6811 12.84 63.9771 13.368L64.7291 13.688C65.6891 14.072 66.0891 14.312 66.0891 14.936C66.0891 15.624 65.4491 16.04 64.6011 16.04C63.7211 16.04 63.1131 15.608 62.3611 14.84L61.5771 15.656ZM75.4188 12.2C75.4188 10.152 74.2188 9.032 72.3788 9.032C71.0828 9.032 69.9148 9.592 69.2108 10.744L70.0268 11.416C70.6668 10.584 71.3548 10.168 72.2988 10.168C73.4668 10.168 74.1868 10.856 74.1868 12.136V12.808H71.7228C70.0428 12.808 68.9228 13.656 68.9228 14.984C68.9228 16.328 70.0428 17.176 71.6428 17.176C72.7788 17.176 73.6908 16.76 74.2668 15.992V17H75.4188V12.2ZM74.1868 14.008C74.1868 15.208 73.0828 16.152 71.8028 16.152C70.8908 16.152 70.1868 15.704 70.1868 14.92C70.1868 14.2 70.7788 13.816 71.8668 13.816H74.1868V14.008ZM84.3519 9.208V10.456C83.7599 9.56 82.6239 9.032 81.3919 9.032C79.1999 9.032 77.5679 10.744 77.5679 12.984C77.5679 15.24 79.1999 16.92 81.3919 16.92C82.5599 16.92 83.6639 16.44 84.2879 15.624V16.312C84.2879 17.992 83.3119 18.92 81.6959 18.92C80.5279 18.92 79.6639 18.456 78.7839 17.688L78.0639 18.552C78.9439 19.432 80.2079 20.056 81.7279 20.056C84.0319 20.056 85.5199 18.616 85.5199 16.248V9.208H84.3519ZM84.3039 12.984C84.3039 14.872 83.0079 15.784 81.5839 15.784C79.9999 15.784 78.8159 14.648 78.8159 13C78.8159 11.368 79.9999 10.2 81.5839 10.2C82.9919 10.2 84.3039 11.112 84.3039 12.984ZM95.0994 13.48C95.1634 13.16 95.1954 12.856 95.1954 12.552C95.1954 10.488 93.6594 9.032 91.6434 9.032C89.4194 9.032 87.6594 10.856 87.6594 13.112C87.6594 15.4 89.4674 17.176 91.7874 17.176C93.0194 17.176 94.0914 16.664 94.9074 15.816L94.1874 14.984C93.4834 15.688 92.6834 16.04 91.8034 16.04C90.2674 16.04 89.0834 15.016 88.9394 13.48H95.0994ZM88.9874 12.392C89.2594 11.048 90.3154 10.152 91.6114 10.152C92.9074 10.152 93.9154 11 93.9314 12.392H88.9874ZM96.624 15.656C97.312 16.552 98.368 17.176 99.664 17.176C100.432 17.176 101.072 16.984 101.6 16.584C102.128 16.184 102.4 15.608 102.4 14.888C102.4 13.816 101.792 13.208 100.336 12.584L99.616 12.28C98.672 11.88 98.352 11.64 98.352 11.144C98.352 10.52 98.88 10.168 99.648 10.168C100.368 10.168 101.04 10.504 101.568 11.032L102.32 10.264C101.68 9.496 100.8 9.032 99.712 9.032C98.224 9.032 97.088 9.848 97.088 11.208C97.088 12.248 97.728 12.84 99.024 13.368L99.776 13.688C100.736 14.072 101.136 14.312 101.136 14.936C101.136 15.624 100.496 16.04 99.648 16.04C98.768 16.04 98.16 15.608 97.408 14.84L96.624 15.656Z" fill="#C02026"/>
</svg>
