<svg width="18" height="18" viewBox="0 0 18 18" fill="none" xmlns="http://www.w3.org/2000/svg">
<path d="M8.99504 8.12627C10.0988 8.12627 11.105 8.19091 11.761 8.28827C11.7626 8.28979 11.779 8.29353 11.8066 8.29921L11.9945 8.33683C12.2345 8.38559 12.595 8.46482 12.7565 8.54845C13.2158 8.78654 13.5 9.25208 13.5 9.75035V9.79371C13.4893 10.1185 13.2042 10.8009 13.1943 10.8009C12.7127 11.9488 11.2149 14.2118 10.2194 15.1216L10.1853 15.1553C10.1103 15.2286 9.92785 15.4033 9.80384 15.4898C9.57417 15.6633 9.28998 15.75 9.00578 15.75C8.68854 15.75 8.39361 15.6526 8.15238 15.4685C8.10859 15.4252 7.92354 15.2632 7.76987 15.111C6.80742 14.2233 5.23361 11.9054 4.75197 10.6929C4.67514 10.5088 4.51157 10.0433 4.5 9.79371C4.5 9.55562 4.55535 9.32817 4.6644 9.11135C4.81724 8.84054 5.05847 8.62454 5.34267 8.50509C5.53929 8.429 6.12998 8.30955 6.14072 8.30955C6.78594 8.19091 7.83514 8.12627 8.99504 8.12627ZM9.00033 2.25C9.62902 2.25 10.1388 2.75481 10.1388 3.37744L9.89339 6.15186C9.89339 6.64031 9.49354 7.03631 9.00033 7.03631C8.5063 7.03631 8.10727 6.64031 8.10727 6.15186L7.86191 3.37744C7.86191 2.75481 8.37164 2.25 9.00033 2.25Z" fill="#E23A2F"/>
</svg>
