<svg width="24" height="24" viewBox="0 0 24 24" fill="none" xmlns="http://www.w3.org/2000/svg">
<path fill-rule="evenodd" clip-rule="evenodd" d="M12 0C18.6274 0 24 5.37258 24 12C24 18.6274 18.6274 24 12 24C5.37258 24 0 18.6274 0 12C0 5.37258 5.37258 0 12 0ZM16.7118 15.72C15.518 17.249 13.9759 17.9946 12 17.9946C10.0241 17.9946 8.48202 17.249 7.2882 15.72C6.94832 15.2847 6.3199 15.2073 5.88459 15.5472C5.44927 15.8871 5.37191 16.5155 5.71179 16.9508C7.28627 18.9674 9.41086 19.9946 12 19.9946C14.5891 19.9946 16.7137 18.9674 18.2882 16.9508C18.6281 16.5155 18.5507 15.8871 18.1154 15.5472C17.6801 15.2073 17.0517 15.2847 16.7118 15.72ZM7.99999 8C7.17157 8 6.49999 8.89543 6.49999 10C6.49999 11.1046 7.17157 12 7.99999 12C8.82842 12 9.49999 11.1046 9.49999 10C9.49999 8.89543 8.82842 8 7.99999 8ZM16 8C15.1716 8 14.5 8.89543 14.5 10C14.5 11.1046 15.1716 12 16 12C16.8284 12 17.5 11.1046 17.5 10C17.5 8.89543 16.8284 8 16 8Z" fill="#C02026"/>
</svg>
