<svg width="57" height="40" viewBox="0 0 57 40" fill="none" xmlns="http://www.w3.org/2000/svg">
<rect width="57" height="40" rx="4" fill="#FFCB2F"/>
<path d="M22.3215 20.738V22.236H21.2015V24H19.5775V22.236H14.7615V20.738L18.1355 14.2H19.8855L16.5115 20.738H19.5775V18.19H21.2015V20.738H22.3215Z" fill="#202020"/>
<path d="M41.963 18.026C41.919 17.8964 41.838 17.7826 41.73 17.6985C41.6221 17.6144 41.4918 17.5638 41.3554 17.5529L37.3647 17.2358L35.6378 13.4136C35.5828 13.2905 35.4933 13.186 35.3802 13.1126C35.2671 13.0392 35.1351 13.0001 35.0003 13C34.8654 12.9999 34.7335 13.0389 34.6203 13.1121C34.5071 13.1854 34.4175 13.2899 34.3624 13.4129L32.6354 17.2358L28.6447 17.5529C28.5106 17.5635 28.3825 17.6125 28.2755 17.6941C28.1686 17.7756 28.0874 17.8863 28.0417 18.0127C27.996 18.1392 27.9877 18.2762 28.0178 18.4073C28.0479 18.5383 28.1151 18.6579 28.2114 18.7518L31.1605 21.6263L30.1175 26.1421C30.0859 26.2788 30.096 26.4219 30.1467 26.5527C30.1973 26.6836 30.2861 26.7962 30.4016 26.8759C30.5171 26.9557 30.6538 26.9989 30.7941 27C30.9345 27.001 31.0719 26.9599 31.1885 26.8819L35.0001 24.3413L38.8116 26.8819C38.9308 26.9611 39.0714 27.0018 39.2145 26.9987C39.3576 26.9956 39.4963 26.9487 39.612 26.8644C39.7276 26.7801 39.8147 26.6624 39.8614 26.5271C39.9082 26.3919 39.9124 26.2456 39.8735 26.1078L38.5932 21.6284L41.7684 18.7714C41.9763 18.5838 42.0526 18.2913 41.963 18.026Z" fill="#202020"/>
</svg>
