<svg width="24" height="25" viewBox="0 0 24 25" fill="none" xmlns="http://www.w3.org/2000/svg">
<path fill-rule="evenodd" clip-rule="evenodd" d="M3.98263 11.6179C4.60831 11.6179 5.11552 12.126 5.11552 12.7527V23.8648C5.11552 24.4915 4.60831 24.9996 3.98263 24.9996H1.94833C1.60326 24.9996 1.28305 24.8306 1.08732 24.5523L1.01995 24.443C0.340004 23.1726 3.05176e-05 21.1278 3.05176e-05 18.3087C3.05176e-05 15.5557 0.324272 13.5411 0.972755 12.265L1.08384 12.0592C1.24032 11.7862 1.53057 11.6179 1.84481 11.6179H3.98263ZM12.156 0.0073718C14.7645 0.347975 16.0687 2.01733 16.0687 5.01542C16.0687 5.62139 15.9057 6.97746 15.5796 9.08364C20.8973 9.19473 23.4034 10.1382 23.4034 11.914C23.4034 12.3516 23.2914 12.7707 22.7618 13.1711C23.5873 13.6758 24 14.3944 24 15.3268C24 16.2593 23.5254 17.0218 22.5763 17.6145C23.0328 18.1303 23.2038 18.7322 23.0891 19.4202C22.9745 20.1082 22.4551 20.6251 21.5309 20.9711C21.9798 22.9145 19.7908 23.8861 14.964 23.8861C7.85307 23.8861 7.18483 22.1037 7.16323 20.5007L7.16266 14.0399C7.08979 12.5655 7.51997 11.3271 8.45319 10.3247L8.64654 10.1274C10.3001 8.52238 11.1936 6.91775 11.3273 5.31346L11.1334 0.947909C11.1112 0.447035 11.4985 0.0229345 11.9986 0.000652798C12.0511 -0.00168975 12.1038 0.000558415 12.156 0.0073718Z" fill="#C02026"/>
</svg>
