<svg width="41" height="42" viewBox="0 0 41 42" fill="none" xmlns="http://www.w3.org/2000/svg">
<path fill-rule="evenodd" clip-rule="evenodd" d="M9.77781 37.9217L19.697 31.7221H32.5926C34.3927 31.7221 35.8519 30.2629 35.8519 28.4629V8.90733C35.8519 7.10729 34.3927 5.64807 32.5926 5.64807H6.51855C4.71851 5.64807 3.25929 7.10729 3.25929 8.90733V28.4629C3.25929 30.2629 4.71851 31.7221 6.51855 31.7221H9.77781V37.9217ZM18.7623 28.4629L13.0371 32.0411V28.4629H6.51855V8.90733H32.5926V28.4629H18.7623ZM11.4074 23.574V20.3147H22.8148V23.574H11.4074ZM11.4074 13.7962V17.0555H26.0741V13.7962H11.4074Z" fill="#EB5757"/>
<circle cx="34.4814" cy="7.01864" r="5.51852" fill="#EB5757" stroke="#EEF2F8" stroke-width="2"/>
</svg>
