<svg width="18" height="18" viewBox="0 0 18 18" fill="none" xmlns="http://www.w3.org/2000/svg">
<path fill-rule="evenodd" clip-rule="evenodd" d="M7.19388 10.4677C9.63813 10.4677 12.8879 10.743 12.8879 13.1242C12.8879 15.6326 9.10121 15.7831 7.47693 15.7922L6.8872 15.7922C5.15533 15.7832 1.49988 15.6335 1.49988 13.1393C1.49988 10.628 5.28655 10.4774 6.91082 10.4683L7.10597 10.4678C7.13639 10.4677 7.16571 10.4677 7.19388 10.4677ZM7.19388 11.5927C5.10963 11.5927 2.62488 11.8605 2.62488 13.1393C2.62488 14.1533 4.16238 14.6677 7.19388 14.6677C10.2254 14.6677 11.7629 14.148 11.7629 13.1242C11.7629 12.108 10.2254 11.5927 7.19388 11.5927ZM14.0299 10.1174C16.0594 10.4212 16.4847 11.3609 16.4847 12.0952C16.4847 12.6419 16.2484 13.3822 15.1212 13.8089C15.0559 13.8337 14.9884 13.8457 14.9217 13.8457C14.6944 13.8457 14.4807 13.7069 14.3959 13.4827C14.2857 13.1924 14.4319 12.8669 14.7222 12.7574C15.3597 12.5159 15.3597 12.2212 15.3597 12.0952C15.3597 11.6699 14.8564 11.3789 13.8642 11.2312C13.5567 11.1847 13.3444 10.8982 13.3902 10.5914C13.4367 10.2839 13.7284 10.0777 14.0299 10.1174ZM7.19388 1.5C9.31713 1.5 11.0452 3.228 11.0452 5.35125C11.0496 6.37425 10.6529 7.34025 9.92988 8.06775C9.20838 8.796 8.24463 9.19875 7.21938 9.2025H7.19388C5.06988 9.2025 3.34188 7.4745 3.34188 5.35125C3.34188 3.228 5.06988 1.5 7.19388 1.5ZM12.5096 2.34285C13.9833 2.58435 15.0528 3.8451 15.0528 5.33985C15.0498 6.8436 13.9271 8.1351 12.4406 8.3436C12.4143 8.34735 12.3881 8.34885 12.3618 8.34885C12.0858 8.34885 11.8451 8.1456 11.8053 7.86435C11.7626 7.55685 11.9763 7.27185 12.2838 7.2291C13.2198 7.09785 13.9263 6.2856 13.9278 5.3391C13.9278 4.3986 13.2543 3.6051 12.3281 3.4536C12.0213 3.4026 11.8136 3.11385 11.8638 2.8071C11.9141 2.50035 12.2043 2.2941 12.5096 2.34285ZM7.19388 2.625C5.69013 2.625 4.46688 3.84825 4.46688 5.35125C4.46688 6.85425 5.69013 8.0775 7.19388 8.0775H7.21713C7.94013 8.0745 8.62113 7.79025 9.13188 7.275C9.64338 6.76125 9.92313 6.078 9.92015 5.3535C9.92015 3.84825 8.69688 2.625 7.19388 2.625Z" fill="black"/>
</svg>
