<svg width="18" height="18" viewBox="0 0 18 18" fill="none" xmlns="http://www.w3.org/2000/svg">
<g clip-path="url(#clip0_2597_19098)">
<path d="M0 17.2495V11.9995C0.00198514 10.2099 0.713781 8.49414 1.97922 7.2287C3.24466 5.96326 4.9604 5.25146 6.75 5.24948H10.3725V4.05998C10.3726 3.76336 10.4606 3.47341 10.6254 3.22679C10.7902 2.98018 11.0245 2.78797 11.2985 2.67447C11.5726 2.56096 11.8741 2.53126 12.165 2.58911C12.456 2.64696 12.7232 2.78977 12.933 2.99948L17.343 7.40873C17.7648 7.83066 18.0018 8.40286 18.0018 8.99947C18.0018 9.59609 17.7648 10.1683 17.343 10.5902L12.933 14.9995C12.7232 15.2092 12.456 15.352 12.165 15.4098C11.8741 15.4677 11.5726 15.438 11.2985 15.3245C11.0245 15.211 10.7902 15.0188 10.6254 14.7722C10.4606 14.5255 10.3726 14.2356 10.3725 13.939V12.7495H6C4.80689 12.7507 3.66299 13.2251 2.81934 14.0688C1.97568 14.9125 1.50119 16.0564 1.5 17.2495C1.5 17.4484 1.42098 17.6391 1.28033 17.7798C1.13968 17.9204 0.948913 17.9995 0.75 17.9995C0.551088 17.9995 0.360322 17.9204 0.21967 17.7798C0.0790177 17.6391 0 17.4484 0 17.2495ZM11.8725 5.99948C11.8725 6.19839 11.7935 6.38916 11.6528 6.52981C11.5122 6.67046 11.3214 6.74948 11.1225 6.74948H6.75C5.3581 6.75107 4.02367 7.3047 3.03944 8.28892C2.05522 9.27314 1.50159 10.6076 1.5 11.9995V13.285C2.06218 12.6452 2.75437 12.1327 3.53036 11.7817C4.30636 11.4307 5.14831 11.2492 6 11.2495H11.1225C11.3214 11.2495 11.5122 11.3285 11.6528 11.4691C11.7935 11.6098 11.8725 11.8006 11.8725 11.9995V13.939L16.2818 9.52972C16.4224 9.38908 16.5013 9.19835 16.5013 8.99947C16.5013 8.8006 16.4224 8.60987 16.2818 8.46923L11.8725 4.05998V5.99948Z" fill="black"/>
</g>
<defs>
<clipPath id="clip0_2597_19098">
<rect width="18" height="18" fill="white"/>
</clipPath>
</defs>
</svg>
