<svg width="54" height="40" viewBox="0 0 54 40" fill="none" xmlns="http://www.w3.org/2000/svg">
<rect width="54" height="40" rx="4" fill="#EEF2F8"/>
<path d="M17.1535 14.2H18.5535V24H16.9435V15.922L14.9695 16.482L14.5775 15.11L17.1535 14.2Z" fill="#94A0B4"/>
<path d="M38.963 18.026C38.919 17.8964 38.838 17.7826 38.73 17.6985C38.6221 17.6144 38.4918 17.5638 38.3554 17.5529L34.3647 17.2358L32.6378 13.4136C32.5828 13.2905 32.4933 13.186 32.3802 13.1126C32.2671 13.0392 32.1351 13.0001 32.0003 13C31.8654 12.9999 31.7335 13.0389 31.6203 13.1121C31.5071 13.1854 31.4175 13.2899 31.3624 13.4129L29.6354 17.2358L25.6447 17.5529C25.5106 17.5635 25.3825 17.6125 25.2755 17.6941C25.1686 17.7756 25.0874 17.8863 25.0417 18.0127C24.996 18.1392 24.9877 18.2762 25.0178 18.4073C25.0479 18.5383 25.1151 18.6579 25.2114 18.7518L28.1605 21.6263L27.1175 26.1421C27.0859 26.2788 27.096 26.4219 27.1467 26.5527C27.1973 26.6836 27.2861 26.7962 27.4016 26.8759C27.5171 26.9557 27.6538 26.9989 27.7941 27C27.9345 27.001 28.0719 26.9599 28.1885 26.8819L32.0001 24.3413L35.8116 26.8819C35.9308 26.9611 36.0714 27.0018 36.2145 26.9987C36.3576 26.9956 36.4963 26.9487 36.612 26.8644C36.7276 26.7801 36.8147 26.6624 36.8614 26.5271C36.9082 26.3919 36.9124 26.2456 36.8735 26.1078L35.5932 21.6284L38.7684 18.7714C38.9763 18.5838 39.0526 18.2913 38.963 18.026Z" fill="#94A0B4"/>
</svg>
