<svg width="32" height="32" viewBox="0 0 32 32" fill="none" xmlns="http://www.w3.org/2000/svg">
<rect opacity="0.5" width="32" height="32" rx="8" fill="white"/>
<path d="M18.9381 7.66669H13.191C10.8203 7.66669 9.33325 9.32159 9.33325 11.9768V22.9359C9.33325 23.7077 9.94436 24.3334 10.6982 24.3334C10.9264 24.3334 11.151 24.2751 11.3519 24.1642L16.0287 21.5678L21.4741 24.1789C21.6217 24.2424 21.788 24.2432 21.9362 24.1811C22.0844 24.119 22.2024 23.9991 22.2643 23.8479C22.3556 23.5693 22.245 23.2631 21.9985 23.1124L16.589 20.5234C16.2356 20.3245 15.8074 20.3245 15.4539 20.5234L10.77 23.1124C10.7163 23.1425 10.6513 23.1425 10.5976 23.1124C10.5465 23.0788 10.5165 23.0201 10.5186 22.9579V11.9768C10.5258 10.013 11.4884 8.89499 13.2126 8.89499H18.9597C21.1723 8.89499 21.4956 10.7338 21.4956 11.837V12.3372H15.2744C15.1162 12.3429 14.9667 12.4128 14.8589 12.5315C14.7511 12.6501 14.6938 12.8078 14.6996 12.9697C14.7072 13.2914 14.9601 13.5504 15.2744 13.5581H21.4741V19.9938C21.4741 20.331 21.741 20.6043 22.0703 20.6043C22.3969 20.6043 22.6627 20.3355 22.6666 20.0012V11.837C22.6666 9.26274 21.2442 7.66669 18.9381 7.66669Z" fill="white"/>
</svg>
