<svg width="16" height="16" viewBox="0 0 16 16" fill="none" xmlns="http://www.w3.org/2000/svg">
<path d="M10.5275 1.3346C10.78 1.35039 10.9748 1.56681 10.9681 1.82403V2.51396C12.9739 2.70856 14 3.81716 14 5.81029V11.3238C14 13.541 12.7362 14.6673 10.2493 14.6673H5.75072C3.26377 14.6673 2 13.541 2 11.3238V5.81029C2 4.4835 2.45217 3.53411 3.37971 2.97981L3.44477 2.94273C3.57923 2.87997 3.73693 2.88573 3.86801 2.96183C4.02094 3.05061 4.11124 3.21983 4.10113 3.39864C4.09101 3.57745 3.98222 3.73502 3.82029 3.80537C3.2058 4.17097 2.91594 4.80783 2.91594 5.81029V5.98719H11.3739C11.6268 5.98719 11.8319 6.19576 11.8319 6.45304C11.8319 6.71032 11.6268 6.91889 11.3739 6.91889H2.91594V11.3238C2.91594 13.0162 3.73913 13.7179 5.75072 13.7297H10.2493C12.2319 13.7297 13.0783 13.0103 13.0783 11.3179V5.80439C13.0783 4.33019 12.4348 3.61667 10.9681 3.44566V3.89382C10.9343 4.13269 10.7287 4.30708 10.4916 4.29798C10.2545 4.28888 10.0624 4.09923 10.0464 3.85844V1.78276L10.0549 1.70902C10.0737 1.6124 10.1224 1.52365 10.1948 1.45626C10.2852 1.37202 10.4051 1.3282 10.5275 1.3346ZM10.7913 10.7987L10.8651 10.8034C10.9917 10.8193 11.1104 10.8773 11.2021 10.9696C11.312 11.0804 11.3739 11.2313 11.3739 11.3887C11.3739 11.7144 11.1144 11.9784 10.7942 11.9784C10.474 11.9784 10.2145 11.7144 10.2145 11.3887C10.2145 11.063 10.474 10.799 10.7942 10.799L10.7913 10.7987ZM8.01159 10.799L8.08431 10.8036C8.37015 10.84 8.5913 11.0881 8.5913 11.3887C8.5913 11.7144 8.33176 11.9784 8.01159 11.9784C7.69143 11.9784 7.43188 11.7144 7.43188 11.3887C7.43188 11.063 7.69143 10.799 8.01159 10.799ZM5.232 10.7987L5.30572 10.8034C5.4323 10.8193 5.55101 10.8773 5.64266 10.9696C5.75263 11.0804 5.81449 11.2313 5.81449 11.3887C5.81449 11.7144 5.55495 11.9784 5.23478 11.9784C4.91462 11.9784 4.65507 11.7144 4.65507 11.3887C4.65507 11.063 4.91462 10.799 5.23478 10.799L5.232 10.7987ZM10.7913 8.41065L10.8651 8.41519C10.9917 8.43106 11.1104 8.4891 11.2021 8.5814C11.312 8.69216 11.3739 8.84305 11.3739 9.00047C11.3739 9.32614 11.1144 9.59015 10.7942 9.59015C10.474 9.59015 10.2145 9.32614 10.2145 9.00047C10.2145 8.6748 10.474 8.41079 10.7942 8.41079L10.7913 8.41065ZM8.01159 8.41079L8.08431 8.41538C8.37015 8.45177 8.5913 8.69985 8.5913 9.00047C8.5913 9.32614 8.33176 9.59015 8.01159 9.59015C7.69143 9.59015 7.43188 9.32614 7.43188 9.00047C7.43188 8.6748 7.69143 8.41079 8.01159 8.41079ZM5.232 8.41065L5.30572 8.41519C5.4323 8.43106 5.55101 8.4891 5.64266 8.5814C5.75263 8.69216 5.81449 8.84305 5.81449 9.00047C5.81449 9.32614 5.55495 9.59015 5.23478 9.59015C4.91462 9.59015 4.65507 9.32614 4.65507 9.00047C4.65507 8.6748 4.91462 8.41079 5.23478 8.41079L5.232 8.41065ZM5.49275 1.40495C5.72885 1.40495 5.92727 1.58538 5.95362 1.82403V2.46679H8.57391C8.82684 2.46679 9.03188 2.67536 9.03188 2.93264C9.03188 3.18992 8.82684 3.39849 8.57391 3.39849H5.94203V3.86434C5.94204 3.98892 5.89299 4.10831 5.80585 4.19584C5.71871 4.28338 5.60072 4.33176 5.47826 4.33019L5.41129 4.3235C5.19309 4.28515 5.02892 4.09029 5.03184 3.85844V1.82403L5.04479 1.75431C5.0983 1.55109 5.28026 1.40495 5.49275 1.40495Z" fill="#717E95"/>
</svg>
