<svg width="20" height="21" viewBox="0 0 20 21" fill="none" xmlns="http://www.w3.org/2000/svg">
<path d="M10.3314 12.2725C12.0514 12.2831 15.6168 12.4446 15.6168 14.921C15.6168 17.4098 11.923 17.5721 10.3063 17.5827L10.0002 17.5834C9.68175 17.5834 9.42327 17.3235 9.42327 17.0033C9.42327 16.6831 9.68175 16.4232 10.0002 16.4232C12.0358 16.4232 14.4629 16.1625 14.4629 14.921C14.4629 13.9325 12.962 13.432 10.0002 13.432C7.9647 13.432 5.5376 13.6927 5.5376 14.9349C5.5376 15.2119 5.61838 15.5684 6.24842 15.8786C6.5069 16.0062 6.83462 16.113 7.2208 16.1958C7.53236 16.2623 7.73161 16.5709 7.66468 16.8842C7.59852 17.1974 7.29081 17.4001 6.98078 17.3305C6.50229 17.2276 6.08533 17.0899 5.74069 16.9213C4.61907 16.3682 4.38367 15.536 4.38367 14.9349C4.38367 12.4455 8.0775 12.2831 9.69416 12.2725L10.3314 12.2725ZM15.8913 11.7482C16.3182 11.7768 16.7475 11.8395 17.1691 11.9331C18.1084 12.1203 18.7276 12.5047 18.9977 13.0732C19.2231 13.5489 19.2231 14.0935 18.9977 14.5692C18.7307 15.133 18.113 15.519 17.1598 15.7163C17.1214 15.7248 17.0821 15.7286 17.0429 15.7286C16.7752 15.7286 16.5352 15.5391 16.479 15.2653C16.4152 14.9513 16.6159 14.6442 16.9283 14.58C17.7153 14.4168 17.9091 14.1693 17.956 14.0703C18.0307 13.9125 18.0307 13.7307 17.956 13.5729C17.8576 13.3648 17.4752 13.1769 16.9321 13.0686C16.5544 12.985 16.1821 12.9301 15.8143 12.9054C15.4959 12.8845 15.2558 12.6068 15.2774 12.2873C15.2982 11.9679 15.5759 11.7312 15.8913 11.7482ZM4.11496 11.7363C4.42267 11.7123 4.70808 11.956 4.72962 12.2754C4.75116 12.5956 4.51114 12.8726 4.19266 12.8934C3.82186 12.9182 3.44953 12.9731 3.08565 13.0551C2.52715 13.1657 2.14328 13.3545 2.04404 13.5633C1.96942 13.7219 1.96942 13.9052 2.04404 14.0638C2.09173 14.1635 2.2856 14.4118 3.07565 14.575C3.38798 14.6392 3.58877 14.9455 3.52492 15.2596C3.46953 15.5342 3.22874 15.7229 2.96026 15.7229C2.9218 15.7229 2.88333 15.719 2.8441 15.7113C1.88941 15.5148 1.27014 15.1281 1.00242 14.5619C0.777024 14.0862 0.777024 13.5409 1.00242 13.0652C1.27321 12.4935 1.89403 12.1076 2.84794 11.9188C3.2549 11.8276 3.68647 11.7649 4.11496 11.7363ZM10.0005 3.41675C12.0991 3.41675 13.8069 5.13315 13.8069 7.24403C13.8069 9.35491 12.0991 11.0713 10.0005 11.0713C9.14117 11.0713 8.33111 10.7936 7.65876 10.2676C7.4072 10.0712 7.36181 9.70686 7.55721 9.45392C7.75184 9.20021 8.11571 9.15535 8.36727 9.35259C8.835 9.71769 9.39965 9.91106 10.0005 9.91106C11.4636 9.91106 12.653 8.71445 12.653 7.24403C12.653 5.7736 11.4636 4.577 10.0005 4.577C8.53728 4.577 7.34719 5.7736 7.34719 7.24403C7.34719 7.56426 7.08871 7.82416 6.77023 7.82416C6.45174 7.82416 6.19326 7.56426 6.19326 7.24403C6.19326 5.13315 7.90108 3.41675 10.0005 3.41675ZM14.7361 4.20928C16.3932 4.20928 17.7417 5.56445 17.7417 7.23134C17.7417 8.89746 16.3932 10.2534 14.7361 10.2534C14.4176 10.2534 14.1592 9.99352 14.1592 9.67329C14.1592 9.35306 14.4176 9.09316 14.7361 9.09316C15.757 9.09316 16.5878 8.25778 16.5878 7.23134C16.5878 6.20491 15.757 5.36953 14.7361 5.36953C14.4176 5.36953 14.1592 5.10963 14.1592 4.7894C14.1592 4.4684 14.4176 4.20928 14.7361 4.20928ZM5.27366 4.17725C5.59214 4.17725 5.85062 4.43715 5.85062 4.75738C5.85062 5.07761 5.59214 5.33751 5.27366 5.33751C4.24897 5.33751 3.41506 6.17598 3.41506 7.20628C3.41506 8.23659 4.24897 9.07429 5.27366 9.07429C5.59214 9.07429 5.85062 9.33418 5.85062 9.65441C5.85062 9.97464 5.59214 10.2345 5.27366 10.2345C3.61277 10.2345 2.26113 8.87627 2.26113 7.20628C2.26113 5.53629 3.61277 4.17725 5.27366 4.17725Z" fill="#C02026"/>
</svg>
