<svg width="18" height="18" viewBox="0 0 18 18" fill="none" xmlns="http://www.w3.org/2000/svg">
<path d="M9.00506 1.5C10.2184 1.5 11.427 1.7993 12.501 2.36552C16.1574 4.29478 17.5636 8.83912 15.6356 12.4968C14.3206 14.9909 11.7315 16.5 8.99648 16.5C8.46215 16.5 7.92253 16.4425 7.38556 16.3236C7.08306 16.2562 6.89218 15.9562 6.95889 15.6536C7.0256 15.351 7.3248 15.1614 7.62928 15.2268C10.4225 15.8479 13.3061 14.5073 14.6423 11.9728C16.2816 8.86356 15.0861 4.9991 11.9772 3.35923C11.0644 2.87757 10.0367 2.6232 9.0044 2.6232C5.48271 2.6232 2.62283 5.48339 2.62283 8.99901C2.62151 10.0231 2.87117 11.0426 3.34473 11.9484L3.48872 12.2299C3.66507 12.5602 3.70404 12.9705 3.58977 13.3418C3.43192 13.7581 3.30048 14.1631 3.19216 14.5661C3.61355 14.4393 4.12807 14.2523 4.49992 14.1168L4.65249 14.062C4.94112 13.9543 5.26541 14.1069 5.37109 14.399C5.47677 14.6903 5.32552 15.0128 5.03425 15.1178L4.88366 15.1726C4.32753 15.3742 3.56666 15.651 3.0528 15.766C3.00921 15.7752 2.96232 15.7812 2.91938 15.7798C2.57461 15.7798 2.36458 15.6404 2.249 15.5228C2.07133 15.3424 1.98678 15.0894 1.99669 14.7709C1.99801 14.7346 2.00264 14.6969 2.01122 14.6606C2.14464 14.0924 2.31835 13.5255 2.52838 12.9765C2.54357 12.9229 2.53432 12.8258 2.49139 12.7445L2.34675 12.4637C1.7926 11.4027 1.49869 10.2022 1.5 8.99835C1.5 4.86365 4.86318 1.5 8.99648 1.5H9.00506ZM8.99674 8.10712C9.4888 8.10712 9.88839 8.50751 9.88839 8.99907C9.88839 9.49064 9.4888 9.89103 8.99674 9.89103C8.50468 9.89103 8.10509 9.49064 8.10509 8.99907C8.10509 8.50751 8.50468 8.10712 8.99674 8.10712ZM12.2991 8.10712C12.7912 8.10712 13.1908 8.50751 13.1908 8.99907C13.1908 9.49064 12.7912 9.89103 12.2991 9.89103C11.8071 9.89103 11.4075 9.49064 11.4075 8.99907C11.4075 8.50751 11.8071 8.10712 12.2991 8.10712ZM5.69427 8.10739C6.18632 8.10739 6.58592 8.50711 6.58592 8.99934C6.58592 9.4909 6.18632 9.89063 5.69427 9.89063C5.20221 9.89063 4.80262 9.4909 4.80262 8.99934C4.80262 8.50711 5.20221 8.10739 5.69427 8.10739Z" fill="white"/>
</svg>
