<svg width="12" height="13" viewBox="0 0 12 13" fill="none" xmlns="http://www.w3.org/2000/svg">
<path d="M6.19883 7.56346C7.23079 7.56978 9.37005 7.66669 9.37005 9.15257C9.37005 10.6458 7.15375 10.7432 6.18376 10.7496L6.00012 10.75C5.80902 10.75 5.65394 10.5941 5.65394 10.4019C5.65394 10.2098 5.80902 10.0538 6.00012 10.0538C7.22144 10.0538 8.67769 9.89745 8.67769 9.15257C8.67769 8.55945 7.77717 8.25917 6.00012 8.25917C4.7788 8.25917 3.32254 8.41558 3.32254 9.16092C3.32254 9.32707 3.371 9.54102 3.74903 9.72712C3.90412 9.8037 4.10075 9.86774 4.33246 9.9174C4.51939 9.95732 4.63894 10.1425 4.59878 10.3305C4.55909 10.5184 4.37446 10.64 4.18845 10.5982C3.90135 10.5365 3.65118 10.4539 3.44439 10.3527C2.77142 10.0209 2.63018 9.52153 2.63018 9.16092C2.63018 7.66723 4.84648 7.56982 5.81647 7.56347L6.19883 7.56346ZM9.53474 7.24887C9.79091 7.26604 10.0485 7.30364 10.3014 7.35979C10.865 7.47211 11.2366 7.70276 11.3986 8.04388C11.5338 8.3293 11.5338 8.65602 11.3986 8.94145C11.2384 9.27978 10.8678 9.51136 10.2959 9.62971C10.2728 9.63481 10.2493 9.63713 10.2257 9.63713C10.0651 9.63713 9.92108 9.52343 9.88738 9.35914C9.84907 9.17071 9.96954 8.98646 10.1569 8.94794C10.6291 8.85002 10.7454 8.70151 10.7736 8.6421C10.8184 8.54743 10.8184 8.43836 10.7736 8.34369C10.7145 8.21884 10.4851 8.10607 10.1592 8.04109C9.93262 7.99097 9.70922 7.95802 9.48858 7.94317C9.29749 7.93064 9.15348 7.76402 9.16641 7.57235C9.17887 7.38068 9.3455 7.23866 9.53474 7.24887ZM2.46895 7.24173C2.65358 7.22734 2.82482 7.37353 2.83775 7.5652C2.85067 7.75734 2.70666 7.92349 2.51557 7.93602C2.29309 7.95087 2.06969 7.98382 1.85137 8.03302C1.51627 8.09938 1.28594 8.21262 1.2264 8.33793C1.18163 8.43307 1.18163 8.54306 1.2264 8.6382C1.25502 8.69807 1.37133 8.84705 1.84537 8.94497C2.03277 8.98349 2.15324 9.16728 2.11493 9.3557C2.08169 9.52046 1.93722 9.6337 1.77613 9.6337C1.75305 9.6337 1.72997 9.63138 1.70643 9.62674C1.13362 9.50886 0.762058 9.27681 0.60143 8.93708C0.46619 8.65166 0.46619 8.32447 0.60143 8.03905C0.763904 7.69608 1.13639 7.46449 1.70874 7.35125C1.95291 7.29649 2.21186 7.2589 2.46895 7.24173ZM6.00025 2.25C7.25942 2.25 8.28411 3.27984 8.28411 4.54637C8.28411 5.8129 7.25942 6.84274 6.00025 6.84274C5.48468 6.84274 4.99864 6.67613 4.59523 6.36054C4.44429 6.24266 4.41706 6.02407 4.5343 5.8723C4.65108 5.72008 4.8694 5.69316 5.02034 5.81151C5.30097 6.03056 5.63977 6.14659 6.00025 6.14659C6.87816 6.14659 7.59175 5.42862 7.59175 4.54637C7.59175 3.66411 6.87816 2.94615 6.00025 2.94615C5.12234 2.94615 4.40829 3.66411 4.40829 4.54637C4.40829 4.73851 4.2532 4.89444 4.06211 4.89444C3.87102 4.89444 3.71593 4.73851 3.71593 4.54637C3.71593 3.27984 4.74062 2.25 6.00025 2.25ZM8.84165 2.72552C9.83587 2.72552 10.645 3.53862 10.645 4.53876C10.645 5.53843 9.83587 6.352 8.84165 6.352C8.65055 6.352 8.49547 6.19606 8.49547 6.00392C8.49547 5.81179 8.65055 5.65585 8.84165 5.65585C9.45415 5.65585 9.95265 5.15462 9.95265 4.53876C9.95265 3.9229 9.45415 3.42167 8.84165 3.42167C8.65055 3.42167 8.49547 3.26573 8.49547 3.07359C8.49547 2.88099 8.65055 2.72552 8.84165 2.72552ZM3.16417 2.7063C3.35526 2.7063 3.51035 2.86224 3.51035 3.05438C3.51035 3.24652 3.35526 3.40245 3.16417 3.40245C2.54936 3.40245 2.04901 3.90554 2.04901 4.52372C2.04901 5.1419 2.54936 5.64452 3.16417 5.64452C3.35526 5.64452 3.51035 5.80046 3.51035 5.9926C3.51035 6.18474 3.35526 6.34067 3.16417 6.34067C2.16764 6.34067 1.35665 5.52571 1.35665 4.52372C1.35665 3.52173 2.16764 2.7063 3.16417 2.7063Z" fill="white"/>
</svg>
